<svg width="92" height="103" viewBox="0 0 92 103" preserveAspectRatio="xMidYMid slice" fill="none" xmlns="http://www.w3.org/2000/svg">
<g clip-path="url(#clip0_6719_10726)">
<rect width="92" height="103" fill="url(#paint0_linear_6719_10726)" fill-opacity="0.5"/>
<path d="M45.6762 15.9935V13.2736H44.8957C44.0313 13.2736 43.5756 12.7245 43.5756 12.1908C43.5756 11.6366 43.9947 11.3081 44.5552 11.3081C45.1995 11.3081 45.7024 11.7957 45.7024 12.6116V13.2736H46.5772V12.6116C46.5772 11.7957 47.0801 11.3081 47.7244 11.3081C48.2849 11.3081 48.7092 11.6366 48.7092 12.1908C48.7092 12.7245 48.2377 13.2736 47.3839 13.2736H46.6034V15.9935H50.2964C50.8674 15.9935 51.1765 15.778 51.1765 15.2288V14.0383C51.1765 13.4943 50.8674 13.2736 50.2964 13.2736H49.0759C49.4007 12.9862 49.5945 12.5962 49.5945 12.1549C49.5945 11.1644 48.793 10.4511 47.7768 10.4511C47.0225 10.4511 46.4096 10.8617 46.1424 11.5904C45.8753 10.8617 45.2571 10.4511 44.5028 10.4511C43.4918 10.4511 42.6851 11.1644 42.6851 12.1549C42.6851 12.5962 42.8737 12.9862 43.2037 13.2736H41.9832C41.4436 13.2736 41.1031 13.4943 41.1031 14.0383V15.2288C41.1031 15.778 41.4174 15.9935 41.9832 15.9935H45.6762ZM45.6762 21.2998V16.5426H41.8522V19.9963C41.8522 20.8533 42.3656 21.2998 43.2403 21.2998H45.6762ZM46.6034 16.5426V21.2998H49.0392C49.914 21.2998 50.4274 20.8533 50.4274 19.9963V16.5426H46.6034Z" fill="url(#paint1_linear_6719_10726)" fill-opacity="0.6"/>
<path d="M23.3811 27.9309V25.7689H22.7524C22.0561 25.7689 21.689 25.3325 21.689 24.9082C21.689 24.4677 22.0266 24.2066 22.4781 24.2066C22.9971 24.2066 23.4022 24.5941 23.4022 25.2427V25.7689H24.1069V25.2427C24.1069 24.5941 24.512 24.2066 25.0311 24.2066C25.4826 24.2066 25.8244 24.4677 25.8244 24.9082C25.8244 25.3325 25.4446 25.7689 24.7568 25.7689H24.128V27.9309H27.103C27.563 27.9309 27.8119 27.7595 27.8119 27.3231V26.3767C27.8119 25.9443 27.563 25.7689 27.103 25.7689H26.1198C26.3814 25.5405 26.5375 25.2305 26.5375 24.8797C26.5375 24.0924 25.8919 23.5254 25.0732 23.5254C24.4656 23.5254 23.9719 23.8517 23.7567 24.431C23.5415 23.8517 23.0435 23.5254 22.4359 23.5254C21.6215 23.5254 20.9716 24.0924 20.9716 24.8797C20.9716 25.2305 21.1235 25.5405 21.3894 25.7689H20.4062C19.9715 25.7689 19.6973 25.9443 19.6973 26.3767V27.3231C19.6973 27.7595 19.9504 27.9309 20.4062 27.9309H23.3811ZM23.3811 32.1487V28.3673H20.3007V31.1126C20.3007 31.7938 20.7142 32.1487 21.4189 32.1487H23.3811ZM24.128 28.3673V32.1487H26.0902C26.7949 32.1487 27.2085 31.7938 27.2085 31.1126V28.3673H24.128Z" fill="url(#paint2_linear_6719_10726)" fill-opacity="0.6"/>
<path d="M22.4644 63.8325V61.2521H21.7056C20.8652 61.2521 20.4222 60.7312 20.4222 60.2248C20.4222 59.699 20.8296 59.3874 21.3745 59.3874C22.001 59.3874 22.4899 59.8499 22.4899 60.624V61.2521H23.3404V60.624C23.3404 59.8499 23.8293 59.3874 24.4557 59.3874C25.0007 59.3874 25.4132 59.699 25.4132 60.2248C25.4132 60.7312 24.9548 61.2521 24.1247 61.2521H23.3658V63.8325H26.9563C27.5115 63.8325 27.8119 63.628 27.8119 63.107V61.9775C27.8119 61.4615 27.5115 61.2521 26.9563 61.2521H25.7697C26.0854 60.9795 26.2739 60.6094 26.2739 60.1907C26.2739 59.2511 25.4947 58.5743 24.5066 58.5743C23.7733 58.5743 23.1774 58.9638 22.9177 59.6552C22.6579 58.9638 22.057 58.5743 21.3236 58.5743C20.3407 58.5743 19.5564 59.2511 19.5564 60.1907C19.5564 60.6094 19.7397 60.9795 20.0606 61.2521H18.874C18.3494 61.2521 18.0184 61.4615 18.0184 61.9775V63.107C18.0184 63.628 18.3239 63.8325 18.874 63.8325H22.4644ZM22.4644 68.8667V64.3534H18.7466V67.63C18.7466 68.4431 19.2457 68.8667 20.0962 68.8667H22.4644ZM23.3658 64.3534V68.8667H25.734C26.5845 68.8667 27.0836 68.4431 27.0836 67.63V64.3534H23.3658Z" fill="url(#paint3_linear_6719_10726)" fill-opacity="0.6"/>
<path d="M7.07624 45.8542V44.1107H6.55589C5.97967 44.1107 5.67584 43.7588 5.67584 43.4166C5.67584 43.0613 5.95524 42.8508 6.32891 42.8508C6.75845 42.8508 7.0937 43.1633 7.0937 43.6864V44.1107H7.67691V43.6864C7.67691 43.1633 8.01217 42.8508 8.4417 42.8508C8.81538 42.8508 9.09825 43.0613 9.09825 43.4166C9.09825 43.7588 8.78394 44.1107 8.21471 44.1107H7.69436V45.8542H10.1564C10.5371 45.8542 10.7431 45.7161 10.7431 45.3641V44.6009C10.7431 44.2522 10.5371 44.1107 10.1564 44.1107H9.3427C9.55922 43.9265 9.68844 43.6765 9.68844 43.3936C9.68844 42.7587 9.15413 42.3014 8.47663 42.3014C7.97376 42.3014 7.56516 42.5646 7.38704 43.0317C7.20894 42.5646 6.79686 42.3014 6.29398 42.3014C5.61998 42.3014 5.08217 42.7587 5.08217 43.3936C5.08217 43.6765 5.20789 43.9265 5.4279 44.1107H4.61422C4.25451 44.1107 4.02752 44.2522 4.02752 44.6009V45.3641C4.02752 45.7161 4.23705 45.8542 4.61422 45.8542H7.07624ZM7.07624 49.2557V46.2062H4.5269V48.4202C4.5269 48.9695 4.86914 49.2557 5.45234 49.2557H7.07624ZM7.69436 46.2062V49.2557H9.31826C9.90146 49.2557 10.2437 48.9695 10.2437 48.4202V46.2062H7.69436Z" fill="url(#paint4_linear_6719_10726)" fill-opacity="0.6"/>
<path d="M68.1388 27.9309V25.7689H67.4884C66.7681 25.7689 66.3884 25.3325 66.3884 24.9082C66.3884 24.4677 66.7376 24.2066 67.2047 24.2066C67.7416 24.2066 68.1607 24.5941 68.1607 25.2427V25.7689H68.8897V25.2427C68.8897 24.5941 69.3088 24.2066 69.8457 24.2066C70.3128 24.2066 70.6664 24.4677 70.6664 24.9082C70.6664 25.3325 70.2735 25.7689 69.5619 25.7689H68.9115V27.9309H71.9891C72.4649 27.9309 72.7224 27.7595 72.7224 27.3231V26.3767C72.7224 25.9443 72.4649 25.7689 71.9891 25.7689H70.9719C71.2426 25.5405 71.4041 25.2305 71.4041 24.8797C71.4041 24.0924 70.7362 23.5254 69.8893 23.5254C69.2607 23.5254 68.75 23.8517 68.5274 24.431C68.3047 23.8517 67.7896 23.5254 67.161 23.5254C66.3185 23.5254 65.6463 24.0924 65.6463 24.8797C65.6463 25.2305 65.8034 25.5405 66.0784 25.7689H65.0613C64.6117 25.7689 64.3279 25.9443 64.3279 26.3767V27.3231C64.3279 27.7595 64.5899 27.9309 65.0613 27.9309H68.1388ZM68.1388 32.1487V28.3673H64.9522V31.1126C64.9522 31.7938 65.38 32.1487 66.109 32.1487H68.1388ZM68.9115 28.3673V32.1487H70.9414C71.6704 32.1487 72.0982 31.7938 72.0982 31.1126V28.3673H68.9115Z" fill="url(#paint5_linear_6719_10726)" fill-opacity="0.6"/>
<path d="M87.8916 18.6739V16.6863H87.2845C86.6123 16.6863 86.2578 16.2851 86.2578 15.8951C86.2578 15.49 86.5838 15.25 87.0197 15.25C87.5208 15.25 87.912 15.6063 87.912 16.2026V16.6863H88.5924V16.2026C88.5924 15.6063 88.9835 15.25 89.4846 15.25C89.9206 15.25 90.2506 15.49 90.2506 15.8951C90.2506 16.2851 89.8839 16.6863 89.2198 16.6863H88.6127V18.6739H91.4851C91.9292 18.6739 92.1696 18.5164 92.1696 18.1152V17.2451C92.1696 16.8476 91.9292 16.6863 91.4851 16.6863H90.5358C90.7884 16.4763 90.9392 16.1913 90.9392 15.8688C90.9392 15.145 90.3158 14.6238 89.5254 14.6238C88.9387 14.6238 88.462 14.9238 88.2542 15.4563C88.0464 14.9238 87.5657 14.6238 86.979 14.6238C86.1926 14.6238 85.5652 15.145 85.5652 15.8688C85.5652 16.1913 85.7119 16.4763 85.9685 16.6863H85.0192C84.5996 16.6863 84.3348 16.8476 84.3348 17.2451V18.1152C84.3348 18.5164 84.5792 18.6739 85.0192 18.6739H87.8916ZM87.8916 22.5516V19.0752H84.9174V21.5991C84.9174 22.2254 85.3167 22.5516 85.997 22.5516H87.8916ZM88.6127 19.0752V22.5516H90.5073C91.1877 22.5516 91.587 22.2254 91.587 21.5991V19.0752H88.6127Z" fill="url(#paint6_linear_6719_10726)" fill-opacity="0.6"/>
<path d="M64.6411 10.4055V8.24352H63.9907C63.2704 8.24352 62.8906 7.80706 62.8906 7.38283C62.8906 6.94227 63.2399 6.68121 63.707 6.68121C64.2439 6.68121 64.663 7.06873 64.663 7.7173V8.24352H65.392V7.7173C65.392 7.06873 65.8111 6.68121 66.348 6.68121C66.8151 6.68121 67.1687 6.94227 67.1687 7.38283C67.1687 7.80706 66.7758 8.24352 66.0642 8.24352H65.4138V10.4055H68.4913C68.9672 10.4055 69.2247 10.2341 69.2247 9.79766V8.85132C69.2247 8.41892 68.9672 8.24352 68.4913 8.24352H67.4742C67.7449 8.01509 67.9064 7.70507 67.9064 7.35427C67.9064 6.567 67.2385 6 66.3916 6C65.763 6 65.2523 6.32631 65.0296 6.90556C64.807 6.32631 64.2919 6 63.6633 6C62.8208 6 62.1486 6.567 62.1486 7.35427C62.1486 7.70507 62.3057 8.01509 62.5807 8.24352H61.5636C61.114 8.24352 60.8302 8.41892 60.8302 8.85132V9.79766C60.8302 10.2341 61.0922 10.4055 61.5636 10.4055H64.6411ZM64.6411 14.6233V10.8419H61.4545V13.5872C61.4545 14.2684 61.8823 14.6233 62.6113 14.6233H64.6411ZM65.4138 10.8419V14.6233H67.4437C68.1727 14.6233 68.6005 14.2684 68.6005 13.5872V10.8419H65.4138Z" fill="url(#paint7_linear_6719_10726)" fill-opacity="0.6"/>
<path d="M27.0057 10.4055V8.24352H26.3553C25.635 8.24352 25.2552 7.80706 25.2552 7.38283C25.2552 6.94227 25.6045 6.68121 26.0715 6.68121C26.6085 6.68121 27.0275 7.06873 27.0275 7.7173V8.24352H27.7565V7.7173C27.7565 7.06873 28.1756 6.68121 28.7125 6.68121C29.1796 6.68121 29.5332 6.94227 29.5332 7.38283C29.5332 7.80706 29.1403 8.24352 28.4288 8.24352H27.7784V10.4055H30.8559C31.3317 10.4055 31.5893 10.2341 31.5893 9.79766V8.85132C31.5893 8.41892 31.3317 8.24352 30.8559 8.24352H29.8388C30.1094 8.01509 30.271 7.70507 30.271 7.35427C30.271 6.567 29.6031 6 28.7562 6C28.1276 6 27.6169 6.32631 27.3942 6.90556C27.1716 6.32631 26.6565 6 26.0279 6C25.1854 6 24.5131 6.567 24.5131 7.35427C24.5131 7.70507 24.6703 8.01509 24.9453 8.24352H23.9282C23.4785 8.24352 23.1948 8.41892 23.1948 8.85132V9.79766C23.1948 10.2341 23.4567 10.4055 23.9282 10.4055H27.0057ZM27.0057 14.6233V10.8419H23.819V13.5872C23.819 14.2684 24.2468 14.6233 24.9758 14.6233H27.0057ZM27.7784 10.8419V14.6233H29.8082C30.5372 14.6233 30.965 14.2684 30.965 13.5872V10.8419H27.7784Z" fill="url(#paint8_linear_6719_10726)" fill-opacity="0.6"/>
<path d="M3.88321 18.6739V16.6863H3.28699C2.62673 16.6863 2.27859 16.2851 2.27859 15.8951C2.27859 15.49 2.59873 15.25 3.02689 15.25C3.51908 15.25 3.90322 15.6063 3.90322 16.2026V16.6863H4.57149V16.2026C4.57149 15.6063 4.95563 15.25 5.4478 15.25C5.87598 15.25 6.2001 15.49 6.2001 15.8951C6.2001 16.2851 5.83996 16.6863 5.18771 16.6863H4.59148V18.6739H7.41257C7.84875 18.6739 8.08484 18.5164 8.08484 18.1152V17.2451C8.08484 16.8476 7.84875 16.6863 7.41257 16.6863H6.4802C6.72829 16.4763 6.87637 16.1913 6.87637 15.8688C6.87637 15.145 6.26412 14.6238 5.48782 14.6238C4.91162 14.6238 4.44344 14.9238 4.23935 15.4563C4.03527 14.9238 3.56309 14.6238 2.98687 14.6238C2.21459 14.6238 1.59835 15.145 1.59835 15.8688C1.59835 16.1913 1.74239 16.4763 1.9945 16.6863H1.06215C0.649982 16.6863 0.38989 16.8476 0.38989 17.2451V18.1152C0.38989 18.5164 0.629972 18.6739 1.06215 18.6739H3.88321ZM3.88321 22.5516V19.0752H0.962097V21.5991C0.962097 22.2254 1.35425 22.5516 2.0225 22.5516H3.88321ZM4.59148 19.0752V22.5516H6.4522C7.12044 22.5516 7.5126 22.2254 7.5126 21.5991V19.0752H4.59148Z" fill="url(#paint9_linear_6719_10726)" fill-opacity="0.6"/>
<path d="M3.74345 72.4995V70.512H3.14722C2.48697 70.512 2.13883 70.1107 2.13883 69.7207C2.13883 69.3157 2.45897 69.0756 2.88713 69.0756C3.37931 69.0756 3.76346 69.4319 3.76346 70.0282V70.512H4.43172V70.0282C4.43172 69.4319 4.81587 69.0756 5.30803 69.0756C5.73621 69.0756 6.06033 69.3157 6.06033 69.7207C6.06033 70.1107 5.70019 70.512 5.04794 70.512H4.45171V72.4995H7.2728C7.70898 72.4995 7.94507 72.342 7.94507 71.9408V71.0707C7.94507 70.6732 7.70898 70.512 7.2728 70.512H6.34043C6.58852 70.302 6.7366 70.0169 6.7366 69.6944C6.7366 68.9706 6.12436 68.4494 5.34805 68.4494C4.77185 68.4494 4.30367 68.7494 4.09958 69.2819C3.8955 68.7494 3.42333 68.4494 2.84711 68.4494C2.07482 68.4494 1.45858 68.9706 1.45858 69.6944C1.45858 70.0169 1.60263 70.302 1.85473 70.512H0.922379C0.510216 70.512 0.250123 70.6732 0.250123 71.0707V71.9408C0.250123 72.342 0.490206 72.4995 0.922379 72.4995H3.74345ZM3.74345 76.3772V72.9008H0.82233V75.4247C0.82233 76.051 1.21449 76.3772 1.88273 76.3772H3.74345ZM4.45171 72.9008V76.3772H6.31243C6.98068 76.3772 7.37283 76.051 7.37283 75.4247V72.9008H4.45171Z" fill="url(#paint10_linear_6719_10726)" fill-opacity="0.6"/>
<path d="M-11.5067 45.7952V43.8077H-12.1029C-12.7632 43.8077 -13.1113 43.4064 -13.1113 43.0164C-13.1113 42.6113 -12.7912 42.3713 -12.363 42.3713C-11.8708 42.3713 -11.4867 42.7276 -11.4867 43.3239V43.8077H-10.8184V43.3239C-10.8184 42.7276 -10.4343 42.3713 -9.94209 42.3713C-9.51391 42.3713 -9.18979 42.6113 -9.18979 43.0164C-9.18979 43.4064 -9.54993 43.8077 -10.2022 43.8077H-10.7984V45.7952H-7.97732C-7.54114 45.7952 -7.30505 45.6377 -7.30505 45.2365V44.3664C-7.30505 43.9689 -7.54114 43.8077 -7.97732 43.8077H-8.90969C-8.6616 43.5976 -8.51352 43.3126 -8.51352 42.9901C-8.51352 42.2663 -9.12577 41.7451 -9.90207 41.7451C-10.4783 41.7451 -10.9465 42.0451 -11.1505 42.5776C-11.3546 42.0451 -11.8268 41.7451 -12.403 41.7451C-13.1753 41.7451 -13.7915 42.2663 -13.7915 42.9901C-13.7915 43.3126 -13.6475 43.5976 -13.3954 43.8077H-14.3277C-14.7399 43.8077 -15 43.9689 -15 44.3664V45.2365C-15 45.6377 -14.7599 45.7952 -14.3277 45.7952H-11.5067ZM-11.5067 49.6729V46.1965H-14.4278V48.7204C-14.4278 49.3467 -14.0356 49.6729 -13.3674 49.6729H-11.5067ZM-10.7984 46.1965V49.6729H-8.93769C-8.26945 49.6729 -7.87729 49.3467 -7.87729 48.7204V46.1965H-10.7984Z" fill="url(#paint11_linear_6719_10726)" fill-opacity="0.6"/>
<path d="M102.798 45.7952V43.8077H102.202C101.542 43.8077 101.194 43.4064 101.194 43.0164C101.194 42.6113 101.514 42.3713 101.942 42.3713C102.434 42.3713 102.818 42.7276 102.818 43.3239V43.8077H103.487V43.3239C103.487 42.7276 103.871 42.3713 104.363 42.3713C104.791 42.3713 105.115 42.6113 105.115 43.0164C105.115 43.4064 104.755 43.8077 104.103 43.8077H103.507V45.7952H106.328C106.764 45.7952 107 45.6377 107 45.2365V44.3664C107 43.9689 106.764 43.8077 106.328 43.8077H105.395C105.643 43.5976 105.792 43.3126 105.792 42.9901C105.792 42.2663 105.179 41.7451 104.403 41.7451C103.827 41.7451 103.359 42.0451 103.154 42.5776C102.95 42.0451 102.478 41.7451 101.902 41.7451C101.13 41.7451 100.514 42.2663 100.514 42.9901C100.514 43.3126 100.658 43.5976 100.91 43.8077H99.9773C99.5651 43.8077 99.305 43.9689 99.305 44.3664V45.2365C99.305 45.6377 99.5451 45.7952 99.9773 45.7952H102.798ZM102.798 49.6729V46.1965H99.8773V48.7204C99.8773 49.3467 100.269 49.6729 100.938 49.6729H102.798ZM103.507 46.1965V49.6729H105.367C106.036 49.6729 106.428 49.3467 106.428 48.7204V46.1965H103.507Z" fill="url(#paint12_linear_6719_10726)" fill-opacity="0.6"/>
<path d="M87.9682 72.4995V70.512H87.3719C86.7117 70.512 86.3635 70.1107 86.3635 69.7207C86.3635 69.3157 86.6837 69.0756 87.1118 69.0756C87.604 69.0756 87.9882 69.4319 87.9882 70.0282V70.512H88.6564V70.0282C88.6564 69.4319 89.0406 69.0756 89.5328 69.0756C89.9609 69.0756 90.285 69.3157 90.285 69.7207C90.285 70.1107 89.9249 70.512 89.2727 70.512H88.6764V72.4995H91.4975C91.9337 72.4995 92.1698 72.342 92.1698 71.9408V71.0707C92.1698 70.6732 91.9337 70.512 91.4975 70.512H90.5651C90.8132 70.302 90.9613 70.0169 90.9613 69.6944C90.9613 68.9706 90.3491 68.4494 89.5728 68.4494C88.9966 68.4494 88.5284 68.7494 88.3243 69.2819C88.1202 68.7494 87.648 68.4494 87.0718 68.4494C86.2995 68.4494 85.6833 68.9706 85.6833 69.6944C85.6833 70.0169 85.8273 70.302 86.0794 70.512H85.1471C84.7349 70.512 84.4748 70.6732 84.4748 71.0707V71.9408C84.4748 72.342 84.7149 72.4995 85.1471 72.4995H87.9682ZM87.9682 76.3772V72.9008H85.0471V75.4247C85.0471 76.051 85.4392 76.3772 86.1074 76.3772H87.9682ZM88.6764 72.9008V76.3772H90.5372C91.2054 76.3772 91.5975 76.051 91.5975 75.4247V72.9008H88.6764Z" fill="url(#paint13_linear_6719_10726)" fill-opacity="0.6"/>
<path d="M84.3694 45.8542V44.1107H83.8382C83.25 44.1107 82.9398 43.7588 82.9398 43.4166C82.9398 43.0613 83.225 42.8508 83.6064 42.8508C84.0449 42.8508 84.3872 43.1633 84.3872 43.6864V44.1107H84.9826V43.6864C84.9826 43.1633 85.3248 42.8508 85.7633 42.8508C86.1447 42.8508 86.4335 43.0613 86.4335 43.4166C86.4335 43.7588 86.1126 44.1107 85.5315 44.1107H85.0004V45.8542H87.5137C87.9023 45.8542 88.1126 45.7161 88.1126 45.3641V44.6009C88.1126 44.2522 87.9023 44.1107 87.5137 44.1107H86.683C86.9041 43.9265 87.036 43.6765 87.036 43.3936C87.036 42.7587 86.4905 42.3014 85.7989 42.3014C85.2856 42.3014 84.8685 42.5646 84.6866 43.0317C84.5048 42.5646 84.0842 42.3014 83.5708 42.3014C82.8828 42.3014 82.3337 42.7587 82.3337 43.3936C82.3337 43.6765 82.4621 43.9265 82.6867 44.1107H81.856C81.4888 44.1107 81.2571 44.2522 81.2571 44.6009V45.3641C81.2571 45.7161 81.471 45.8542 81.856 45.8542H84.3694ZM84.3694 49.2557V46.2062H81.7669V48.4202C81.7669 48.9695 82.1163 49.2557 82.7116 49.2557H84.3694ZM85.0004 46.2062V49.2557H86.6581C87.2534 49.2557 87.6028 48.9695 87.6028 48.4202V46.2062H85.0004Z" fill="url(#paint14_linear_6719_10726)" fill-opacity="0.6"/>
<path d="M68.8246 63.8325V61.2521H68.0333C67.1569 61.2521 66.6948 60.7312 66.6948 60.2248C66.6948 59.699 67.1198 59.3874 67.6881 59.3874C68.3413 59.3874 68.8512 59.8499 68.8512 60.624V61.2521H69.7382V60.624C69.7382 59.8499 70.248 59.3874 70.9013 59.3874C71.4696 59.3874 71.8998 59.699 71.8998 60.2248C71.8998 60.7312 71.4218 61.2521 70.556 61.2521H69.7647V63.8325H73.509C74.088 63.8325 74.4013 63.628 74.4013 63.107V61.9775C74.4013 61.4615 74.088 61.2521 73.509 61.2521H72.2715C72.6008 60.9795 72.7974 60.6094 72.7974 60.1907C72.7974 59.2511 71.9847 58.5743 70.9544 58.5743C70.1896 58.5743 69.5682 58.9638 69.2973 59.6552C69.0264 58.9638 68.3997 58.5743 67.6349 58.5743C66.6099 58.5743 65.792 59.2511 65.792 60.1907C65.792 60.6094 65.9832 60.9795 66.3178 61.2521H65.0803C64.5332 61.2521 64.188 61.4615 64.188 61.9775V63.107C64.188 63.628 64.5067 63.8325 65.0803 63.8325H68.8246ZM68.8246 68.8667V64.3534H64.9475V67.63C64.9475 68.4431 65.468 68.8667 66.3549 68.8667H68.8246ZM69.7647 64.3534V68.8667H72.2344C73.1213 68.8667 73.6418 68.4431 73.6418 67.63V64.3534H69.7647Z" fill="url(#paint15_linear_6719_10726)" fill-opacity="0.6"/>
<path d="M45.6771 76.4707V74.3088H45.0159C44.2836 74.3088 43.8975 73.8724 43.8975 73.4481C43.8975 73.0076 44.2525 72.7465 44.7274 72.7465C45.2733 72.7465 45.6993 73.134 45.6993 73.7826V74.3088H46.4405V73.7826C46.4405 73.134 46.8665 72.7465 47.4124 72.7465C47.8873 72.7465 48.2468 73.0076 48.2468 73.4481C48.2468 73.8724 47.8473 74.3088 47.1239 74.3088H46.4627V76.4707H49.5915C50.0753 76.4707 50.3371 76.2994 50.3371 75.863V74.9166C50.3371 74.4842 50.0753 74.3088 49.5915 74.3088H48.5574C48.8326 74.0804 48.9968 73.7704 48.9968 73.4196C48.9968 72.6323 48.3178 72.0653 47.4568 72.0653C46.8177 72.0653 46.2985 72.3916 46.0721 72.9709C45.8458 72.3916 45.3221 72.0653 44.683 72.0653C43.8265 72.0653 43.143 72.6323 43.143 73.4196C43.143 73.7704 43.3028 74.0804 43.5824 74.3088H42.5483C42.0912 74.3088 41.8027 74.4842 41.8027 74.9166V75.863C41.8027 76.2994 42.069 76.4707 42.5483 76.4707H45.6771ZM45.6771 80.6886V76.9072H42.4374V79.6525C42.4374 80.3337 42.8723 80.6886 43.6134 80.6886H45.6771ZM46.4627 76.9072V80.6886H48.5264C49.2675 80.6886 49.7025 80.3337 49.7025 79.6525V76.9072H46.4627Z" fill="url(#paint16_linear_6719_10726)" fill-opacity="0.6"/>
<path d="M26.9296 80.7822V78.6202H26.2683C25.5361 78.6202 25.1499 78.1838 25.1499 77.7595C25.1499 77.319 25.505 77.0579 25.9799 77.0579C26.5257 77.0579 26.9518 77.4454 26.9518 78.094V78.6202H27.693V78.094C27.693 77.4454 28.119 77.0579 28.6649 77.0579C29.1398 77.0579 29.4992 77.319 29.4992 77.7595C29.4992 78.1838 29.0998 78.6202 28.3764 78.6202H27.7151V80.7822H30.844C31.3278 80.7822 31.5896 80.6109 31.5896 80.1744V79.228C31.5896 78.7956 31.3278 78.6202 30.844 78.6202H29.8099C30.0851 78.3918 30.2493 78.0818 30.2493 77.731C30.2493 76.9437 29.5703 76.3767 28.7093 76.3767C28.0702 76.3767 27.5509 76.703 27.3246 77.2823C27.0983 76.703 26.5746 76.3767 25.9355 76.3767C25.0789 76.3767 24.3955 76.9437 24.3955 77.731C24.3955 78.0818 24.5552 78.3918 24.8349 78.6202H23.8008C23.3437 78.6202 23.0552 78.7956 23.0552 79.228V80.1744C23.0552 80.6109 23.3215 80.7822 23.8008 80.7822H26.9296ZM26.9296 85V81.2186H23.6898V83.9639C23.6898 84.6451 24.1248 85 24.8659 85H26.9296ZM27.7151 81.2186V85H29.7789C30.52 85 30.9549 84.6451 30.9549 83.9639V81.2186H27.7151Z" fill="url(#paint17_linear_6719_10726)" fill-opacity="0.6"/>
<path d="M64.4248 80.7822V78.6202H63.7635C63.0313 78.6202 62.6451 78.1838 62.6451 77.7595C62.6451 77.319 63.0002 77.0579 63.4751 77.0579C64.021 77.0579 64.447 77.4454 64.447 78.094V78.6202H65.1882V78.094C65.1882 77.4454 65.6142 77.0579 66.1601 77.0579C66.635 77.0579 66.9944 77.319 66.9944 77.7595C66.9944 78.1838 66.595 78.6202 65.8716 78.6202H65.2103V80.7822H68.3392C68.823 80.7822 69.0848 80.6109 69.0848 80.1744V79.228C69.0848 78.7956 68.823 78.6202 68.3392 78.6202H67.3051C67.5803 78.3918 67.7445 78.0818 67.7445 77.731C67.7445 76.9437 67.0655 76.3767 66.2045 76.3767C65.5654 76.3767 65.0462 76.703 64.8198 77.2823C64.5935 76.703 64.0698 76.3767 63.4307 76.3767C62.5742 76.3767 61.8907 76.9437 61.8907 77.731C61.8907 78.0818 62.0504 78.3918 62.33 78.6202H61.296C60.8389 78.6202 60.5504 78.7956 60.5504 79.228V80.1744C60.5504 80.6109 60.8167 80.7822 61.296 80.7822H64.4248ZM64.4248 85V81.2186H61.185V83.9639C61.185 84.6451 61.62 85 62.3611 85H64.4248ZM65.2103 81.2186V85H67.274C68.0152 85 68.4501 84.6451 68.4501 83.9639V81.2186H65.2103Z" fill="url(#paint18_linear_6719_10726)" fill-opacity="0.6"/>
</g>
<defs>
<linearGradient id="paint0_linear_6719_10726" x1="46" y1="-9.84559" x2="46" y2="103" gradientUnits="userSpaceOnUse">
<stop stop-color="#4D1689" stop-opacity="0.8"/>
<stop offset="1" stop-color="#7948AF" stop-opacity="0.2"/>
</linearGradient>
<linearGradient id="paint1_linear_6719_10726" x1="46" y1="0.549074" x2="46" y2="90.4509" gradientUnits="userSpaceOnUse">
<stop stop-color="#815AB2"/>
<stop offset="1" stop-color="#815AB2" stop-opacity="0"/>
</linearGradient>
<linearGradient id="paint2_linear_6719_10726" x1="46" y1="0.549074" x2="46" y2="90.4509" gradientUnits="userSpaceOnUse">
<stop stop-color="#815AB2"/>
<stop offset="1" stop-color="#815AB2" stop-opacity="0"/>
</linearGradient>
<linearGradient id="paint3_linear_6719_10726" x1="46" y1="0.549074" x2="46" y2="90.4509" gradientUnits="userSpaceOnUse">
<stop stop-color="#815AB2"/>
<stop offset="1" stop-color="#815AB2" stop-opacity="0"/>
</linearGradient>
<linearGradient id="paint4_linear_6719_10726" x1="46" y1="0.549074" x2="46" y2="90.4509" gradientUnits="userSpaceOnUse">
<stop stop-color="#815AB2"/>
<stop offset="1" stop-color="#815AB2" stop-opacity="0"/>
</linearGradient>
<linearGradient id="paint5_linear_6719_10726" x1="46" y1="0.549074" x2="46" y2="90.4509" gradientUnits="userSpaceOnUse">
<stop stop-color="#815AB2"/>
<stop offset="1" stop-color="#815AB2" stop-opacity="0"/>
</linearGradient>
<linearGradient id="paint6_linear_6719_10726" x1="46" y1="0.549074" x2="46" y2="90.4509" gradientUnits="userSpaceOnUse">
<stop stop-color="#815AB2"/>
<stop offset="1" stop-color="#815AB2" stop-opacity="0"/>
</linearGradient>
<linearGradient id="paint7_linear_6719_10726" x1="46" y1="0.549074" x2="46" y2="90.4509" gradientUnits="userSpaceOnUse">
<stop stop-color="#815AB2"/>
<stop offset="1" stop-color="#815AB2" stop-opacity="0"/>
</linearGradient>
<linearGradient id="paint8_linear_6719_10726" x1="46" y1="0.549074" x2="46" y2="90.4509" gradientUnits="userSpaceOnUse">
<stop stop-color="#815AB2"/>
<stop offset="1" stop-color="#815AB2" stop-opacity="0"/>
</linearGradient>
<linearGradient id="paint9_linear_6719_10726" x1="46" y1="0.549074" x2="46" y2="90.4509" gradientUnits="userSpaceOnUse">
<stop stop-color="#815AB2"/>
<stop offset="1" stop-color="#815AB2" stop-opacity="0"/>
</linearGradient>
<linearGradient id="paint10_linear_6719_10726" x1="46" y1="0.549074" x2="46" y2="90.4509" gradientUnits="userSpaceOnUse">
<stop stop-color="#815AB2"/>
<stop offset="1" stop-color="#815AB2" stop-opacity="0"/>
</linearGradient>
<linearGradient id="paint11_linear_6719_10726" x1="46" y1="0.549074" x2="46" y2="90.4509" gradientUnits="userSpaceOnUse">
<stop stop-color="#815AB2"/>
<stop offset="1" stop-color="#815AB2" stop-opacity="0"/>
</linearGradient>
<linearGradient id="paint12_linear_6719_10726" x1="46" y1="0.549074" x2="46" y2="90.4509" gradientUnits="userSpaceOnUse">
<stop stop-color="#815AB2"/>
<stop offset="1" stop-color="#815AB2" stop-opacity="0"/>
</linearGradient>
<linearGradient id="paint13_linear_6719_10726" x1="46" y1="0.549074" x2="46" y2="90.4509" gradientUnits="userSpaceOnUse">
<stop stop-color="#815AB2"/>
<stop offset="1" stop-color="#815AB2" stop-opacity="0"/>
</linearGradient>
<linearGradient id="paint14_linear_6719_10726" x1="46" y1="0.549074" x2="46" y2="90.4509" gradientUnits="userSpaceOnUse">
<stop stop-color="#815AB2"/>
<stop offset="1" stop-color="#815AB2" stop-opacity="0"/>
</linearGradient>
<linearGradient id="paint15_linear_6719_10726" x1="46" y1="0.549074" x2="46" y2="90.4509" gradientUnits="userSpaceOnUse">
<stop stop-color="#815AB2"/>
<stop offset="1" stop-color="#815AB2" stop-opacity="0"/>
</linearGradient>
<linearGradient id="paint16_linear_6719_10726" x1="46" y1="0.549074" x2="46" y2="90.4509" gradientUnits="userSpaceOnUse">
<stop stop-color="#815AB2"/>
<stop offset="1" stop-color="#815AB2" stop-opacity="0"/>
</linearGradient>
<linearGradient id="paint17_linear_6719_10726" x1="46" y1="0.549074" x2="46" y2="90.4509" gradientUnits="userSpaceOnUse">
<stop stop-color="#815AB2"/>
<stop offset="1" stop-color="#815AB2" stop-opacity="0"/>
</linearGradient>
<linearGradient id="paint18_linear_6719_10726" x1="46" y1="0.549074" x2="46" y2="90.4509" gradientUnits="userSpaceOnUse">
<stop stop-color="#815AB2"/>
<stop offset="1" stop-color="#815AB2" stop-opacity="0"/>
</linearGradient>
<clipPath id="clip0_6719_10726">
<rect width="92" height="103" fill="white"/>
</clipPath>
</defs>
</svg>
