<svg xmlns="http://www.w3.org/2000/svg" viewBox="0 0 92 103" preserveAspectRatio="xMidYMid slice"  width="92" height="103" fill="none"><g clip-path="url(#a)"><path fill="#000" d="M0 0h92v103H0z"/><path fill="url(#b)" d="M0 0h92v103H0z"/><g filter="url(#c)" opacity=".54"><path fill="url(#d)" fill-opacity=".6" d="M0 0h28.636v152.727H0z" transform="scale(1.24269 .67508)rotate(45 26.19 98.633)"/></g><g filter="url(#e)" opacity=".54"><path fill="url(#f)" fill-opacity=".6" d="M0 0h6.285v152.727H0z" transform="scale(1.24269 .67508)rotate(45 86.405 77.106)"/></g><g filter="url(#g)" opacity=".54"><path fill="url(#h)" fill-opacity=".6" d="M0 0h15.81v152.727H0z" transform="scale(1.24269 .67508)rotate(45 -74.076 154.96)"/></g><path fill="url(#i)" fill-opacity=".5" d="M7.976 3.384c-.09-.512-.818-.512-.908 0l-.133.757C6.697 5.496 5.56 6.558 4.109 6.78l-.717.11c-.519.079-.524.83-.006.917l.633.106c1.38.232 2.47 1.226 2.751 2.51l.266 1.211c.108.494.81.483.904-.014l.206-1.106c.248-1.33 1.363-2.371 2.787-2.603l.68-.11c.519-.085.515-.839-.005-.918l-.672-.104c-1.451-.222-2.588-1.284-2.827-2.64z"/><path fill="url(#j)" fill-opacity=".5" d="M76.294 4.64c-.15-.853-1.365-.853-1.514 0L74.558 5.9c-.397 2.259-2.292 4.03-4.71 4.4l-1.195.183c-.865.133-.873 1.384-.01 1.53l1.056.176c2.3.387 4.116 2.043 4.585 4.182l.442 2.02c.18.823 1.352.805 1.507-.023l.344-1.844c.414-2.217 2.272-3.952 4.645-4.338l1.132-.185c.865-.14.86-1.396-.007-1.53l-1.12-.171c-2.42-.37-4.314-2.141-4.711-4.4z"/><path fill="url(#k)" fill-opacity=".5" d="M62.976 14.384c-.09-.512-.818-.512-.908 0l-.133.757c-.238 1.355-1.376 2.417-2.827 2.64l-.716.11c-.519.079-.524.83-.006.917l.633.106c1.38.232 2.47 1.226 2.751 2.51l.266 1.211c.108.494.81.483.904-.014l.206-1.106c.248-1.33 1.363-2.371 2.787-2.603l.68-.11c.519-.085.515-.839-.005-.918l-.672-.104c-1.452-.222-2.588-1.284-2.827-2.64z"/><path fill="url(#l)" fill-opacity=".5" d="M58.068 37.384c.09-.512.818-.512.908 0l.133.757c.239 1.355 1.375 2.417 2.827 2.64l.672.102c.52.08.524.834.004.918l-.679.11c-1.424.233-2.539 1.274-2.787 2.604l-.206 1.106c-.093.497-.796.508-.904.014l-.266-1.212c-.28-1.283-1.37-2.277-2.75-2.509l-.634-.106c-.518-.087-.513-.838.006-.918l.716-.11c1.452-.222 2.589-1.284 2.827-2.64z"/><path fill="url(#m)" fill-opacity=".5" d="M19.068 42.384c.09-.512.818-.512.908 0l.134.757c.238 1.355 1.375 2.417 2.826 2.64l.672.102c.52.08.524.834.004.918l-.679.11c-1.424.233-2.539 1.274-2.787 2.604l-.206 1.106c-.093.497-.796.508-.904.014l-.266-1.212c-.28-1.283-1.37-2.277-2.75-2.509l-.634-.106c-.518-.087-.513-.838.006-.918l.716-.11c1.451-.222 2.589-1.284 2.827-2.64z"/><path fill="url(#n)" fill-opacity=".5" d="M14.294 17.64c-.15-.853-1.365-.853-1.514 0l-.222 1.261c-.397 2.259-2.292 4.03-4.71 4.4l-1.195.183c-.865.133-.873 1.384-.01 1.53l1.056.176c2.3.387 4.116 2.043 4.585 4.182l.442 2.02c.18.823 1.352.805 1.507-.023l.344-1.844c.414-2.217 2.272-3.952 4.645-4.338l1.132-.185c.865-.14.86-1.396-.007-1.53l-1.12-.171c-2.42-.37-4.314-2.141-4.711-4.4z"/><path fill="url(#o)" fill-opacity=".5" d="M39.78 25.64c.15-.853 1.364-.853 1.514 0l.222 1.261c.397 2.259 2.291 4.03 4.71 4.4l1.12.172c.868.133.873 1.388.008 1.53l-1.132.184c-2.373.386-4.231 2.121-4.645 4.338l-.344 1.844c-.155.828-1.327.846-1.507.023l-.442-2.02c-.469-2.139-2.285-3.795-4.585-4.182l-1.056-.177c-.863-.145-.855-1.396.01-1.53l1.194-.182c2.419-.37 4.314-2.141 4.71-4.4z"/><path fill="url(#p)" fill-opacity=".5" d="M82.294 25.64c-.15-.853-1.365-.853-1.514 0l-.222 1.261c-.397 2.259-2.292 4.03-4.71 4.4l-1.195.183c-.865.133-.873 1.384-.01 1.53l1.056.176c2.3.387 4.116 2.043 4.585 4.182l.442 2.02c.18.823 1.352.805 1.507-.023l.344-1.844c.414-2.217 2.272-3.952 4.645-4.338l1.132-.185c.865-.14.86-1.396-.007-1.53l-1.12-.171c-2.42-.37-4.314-2.141-4.711-4.4z"/><path fill="url(#q)" fill-opacity=".5" d="M29.78 4.64c.15-.853 1.364-.853 1.514 0l.222 1.261c.397 2.259 2.291 4.03 4.71 4.4l1.12.172c.868.133.873 1.388.008 1.53l-1.132.184c-2.373.386-4.231 2.121-4.645 4.338l-.344 1.844c-.155.828-1.327.846-1.507.023l-.442-2.02c-.469-2.139-2.285-3.795-4.585-4.182l-1.056-.177c-.863-.145-.855-1.396.01-1.53l1.195-.182c2.418-.37 4.313-2.141 4.71-4.4z"/><path fill="url(#r)" fill-opacity=".5" d="M76.294 55.64c-.15-.853-1.365-.853-1.514 0l-.222 1.261c-.397 2.259-2.292 4.03-4.71 4.4l-1.195.183c-.865.133-.873 1.384-.01 1.53l1.056.176c2.3.387 4.116 2.043 4.585 4.182l.442 2.02c.18.824 1.352.805 1.507-.023l.344-1.844c.414-2.217 2.272-3.952 4.645-4.338l1.132-.185c.865-.14.86-1.396-.007-1.53l-1.12-.171c-2.42-.37-4.314-2.141-4.711-4.4z"/><path fill="url(#s)" fill-opacity=".5" d="M62.068 65.384c.09-.512.818-.512.908 0l.133.757c.239 1.355 1.375 2.417 2.827 2.64l.672.103c.52.08.524.833.004.917l-.679.11c-1.424.233-2.539 1.274-2.787 2.604l-.206 1.106c-.093.497-.796.508-.904.014l-.266-1.212c-.28-1.283-1.37-2.277-2.75-2.509l-.634-.106c-.518-.087-.513-.838.006-.918l.716-.11c1.452-.222 2.589-1.284 2.827-2.64z"/><path fill="url(#t)" fill-opacity=".5" d="M58.976 88.384c-.09-.512-.818-.512-.908 0l-.133.757c-.238 1.355-1.376 2.417-2.827 2.64l-.716.11c-.519.079-.524.83-.006.917l.633.106c1.38.232 2.47 1.226 2.751 2.51l.266 1.211c.108.494.81.483.904-.014l.206-1.106c.248-1.33 1.363-2.371 2.787-2.603l.68-.11c.519-.085.515-.839-.005-.918l-.672-.104c-1.452-.222-2.588-1.284-2.827-2.64z"/><path fill="url(#u)" fill-opacity=".5" d="M7.068 54.384c.09-.512.818-.512.908 0l.133.757c.239 1.355 1.376 2.417 2.827 2.64l.672.102c.52.08.524.834.004.918l-.679.11c-1.424.233-2.539 1.274-2.787 2.604L7.94 62.62c-.093.497-.796.508-.904.014l-.266-1.212c-.28-1.283-1.37-2.277-2.75-2.509l-.634-.106c-.518-.087-.513-.838.006-.918l.717-.11c1.45-.222 2.588-1.284 2.826-2.64z"/><path fill="url(#v)" fill-opacity=".5" d="M14.294 68.64c-.15-.853-1.365-.853-1.514 0l-.222 1.261c-.397 2.259-2.292 4.03-4.71 4.4l-1.195.183c-.865.133-.873 1.384-.01 1.53l1.056.176c2.3.387 4.116 2.043 4.585 4.182l.442 2.02c.18.824 1.352.805 1.507-.023l.344-1.844c.414-2.217 2.272-3.952 4.645-4.338l1.132-.185c.865-.14.86-1.396-.007-1.53l-1.12-.171c-2.42-.37-4.314-2.141-4.711-4.4z"/><path fill="url(#w)" fill-opacity=".5" d="M39.78 76.64c.15-.853 1.364-.853 1.514 0l.222 1.261c.397 2.259 2.291 4.03 4.71 4.4l1.12.172c.868.133.873 1.388.008 1.53l-1.132.184c-2.373.386-4.231 2.121-4.645 4.338l-.344 1.844c-.155.828-1.327.847-1.507.023l-.442-2.02c-.469-2.139-2.285-3.795-4.585-4.182l-1.056-.177c-.863-.145-.855-1.396.01-1.53l1.194-.182c2.419-.37 4.314-2.141 4.71-4.4z"/><path fill="url(#x)" fill-opacity=".5" d="M82.294 76.64c-.15-.853-1.365-.853-1.514 0l-.222 1.261c-.397 2.259-2.292 4.03-4.71 4.4l-1.195.183c-.865.133-.873 1.384-.01 1.53l1.056.176c2.3.387 4.116 2.043 4.585 4.182l.442 2.02c.18.824 1.352.805 1.507-.023l.344-1.844c.414-2.217 2.272-3.952 4.645-4.338l1.132-.185c.865-.14.86-1.396-.007-1.53l-1.12-.171c-2.42-.37-4.314-2.141-4.711-4.4z"/><path fill="url(#y)" fill-opacity=".5" d="M29.78 55.64c.15-.853 1.364-.853 1.514 0l.222 1.261c.397 2.259 2.291 4.03 4.71 4.4l1.12.172c.868.133.873 1.388.008 1.53l-1.132.184c-2.373.386-4.231 2.121-4.645 4.338l-.344 1.844c-.155.828-1.327.847-1.507.023l-.442-2.02c-.469-2.139-2.285-3.795-4.585-4.182l-1.056-.177c-.863-.145-.855-1.396.01-1.53l1.195-.182c2.418-.37 4.313-2.141 4.71-4.4z"/></g><defs><linearGradient id="b" x1="46" x2="46" y1="0" y2="103" gradientUnits="userSpaceOnUse"><stop stop-color="#424AF0"/><stop offset="1" stop-color="#87008E"/></linearGradient><linearGradient id="d" x1="14.318" x2="14.318" y1="0" y2="152.727" gradientUnits="userSpaceOnUse"><stop stop-color="#fff"/><stop offset="1" stop-color="#fff" stop-opacity="0"/></linearGradient><linearGradient id="f" x1="3.142" x2="3.142" y1="0" y2="152.727" gradientUnits="userSpaceOnUse"><stop stop-color="#fff"/><stop offset="1" stop-color="#fff" stop-opacity="0"/></linearGradient><linearGradient id="h" x1="7.905" x2="7.905" y1="0" y2="152.727" gradientUnits="userSpaceOnUse"><stop stop-color="#fff"/><stop offset="1" stop-color="#fff" stop-opacity="0"/></linearGradient><linearGradient id="i" x1="46.217" x2="46" y1="5.569" y2="97" gradientUnits="userSpaceOnUse"><stop stop-color="#BCB1FF"/><stop offset="1" stop-color="#BCB1FF" stop-opacity=".1"/></linearGradient><linearGradient id="j" x1="46.217" x2="46" y1="5.569" y2="97" gradientUnits="userSpaceOnUse"><stop stop-color="#BCB1FF"/><stop offset="1" stop-color="#BCB1FF" stop-opacity=".1"/></linearGradient><linearGradient id="k" x1="46.217" x2="46" y1="5.569" y2="97" gradientUnits="userSpaceOnUse"><stop stop-color="#BCB1FF"/><stop offset="1" stop-color="#BCB1FF" stop-opacity=".1"/></linearGradient><linearGradient id="l" x1="46.217" x2="46" y1="5.569" y2="97" gradientUnits="userSpaceOnUse"><stop stop-color="#BCB1FF"/><stop offset="1" stop-color="#BCB1FF" stop-opacity=".1"/></linearGradient><linearGradient id="m" x1="46.217" x2="46" y1="5.569" y2="97" gradientUnits="userSpaceOnUse"><stop stop-color="#BCB1FF"/><stop offset="1" stop-color="#BCB1FF" stop-opacity=".1"/></linearGradient><linearGradient id="n" x1="46.217" x2="46" y1="5.569" y2="97" gradientUnits="userSpaceOnUse"><stop stop-color="#BCB1FF"/><stop offset="1" stop-color="#BCB1FF" stop-opacity=".1"/></linearGradient><linearGradient id="o" x1="46.217" x2="46" y1="5.569" y2="97" gradientUnits="userSpaceOnUse"><stop stop-color="#BCB1FF"/><stop offset="1" stop-color="#BCB1FF" stop-opacity=".1"/></linearGradient><linearGradient id="p" x1="46.217" x2="46" y1="5.569" y2="97" gradientUnits="userSpaceOnUse"><stop stop-color="#BCB1FF"/><stop offset="1" stop-color="#BCB1FF" stop-opacity=".1"/></linearGradient><linearGradient id="q" x1="46.217" x2="46" y1="5.569" y2="97" gradientUnits="userSpaceOnUse"><stop stop-color="#BCB1FF"/><stop offset="1" stop-color="#BCB1FF" stop-opacity=".1"/></linearGradient><linearGradient id="r" x1="46.217" x2="46" y1="5.569" y2="97" gradientUnits="userSpaceOnUse"><stop stop-color="#BCB1FF"/><stop offset="1" stop-color="#BCB1FF" stop-opacity=".1"/></linearGradient><linearGradient id="s" x1="46.217" x2="46" y1="5.569" y2="97" gradientUnits="userSpaceOnUse"><stop stop-color="#BCB1FF"/><stop offset="1" stop-color="#BCB1FF" stop-opacity=".1"/></linearGradient><linearGradient id="t" x1="46.217" x2="46" y1="5.569" y2="97" gradientUnits="userSpaceOnUse"><stop stop-color="#BCB1FF"/><stop offset="1" stop-color="#BCB1FF" stop-opacity=".1"/></linearGradient><linearGradient id="u" x1="46.217" x2="46" y1="5.569" y2="97" gradientUnits="userSpaceOnUse"><stop stop-color="#BCB1FF"/><stop offset="1" stop-color="#BCB1FF" stop-opacity=".1"/></linearGradient><linearGradient id="v" x1="46.217" x2="46" y1="5.569" y2="97" gradientUnits="userSpaceOnUse"><stop stop-color="#BCB1FF"/><stop offset="1" stop-color="#BCB1FF" stop-opacity=".1"/></linearGradient><linearGradient id="w" x1="46.217" x2="46" y1="5.569" y2="97" gradientUnits="userSpaceOnUse"><stop stop-color="#BCB1FF"/><stop offset="1" stop-color="#BCB1FF" stop-opacity=".1"/></linearGradient><linearGradient id="x" x1="46.217" x2="46" y1="5.569" y2="97" gradientUnits="userSpaceOnUse"><stop stop-color="#BCB1FF"/><stop offset="1" stop-color="#BCB1FF" stop-opacity=".1"/></linearGradient><linearGradient id="y" x1="46.217" x2="46" y1="5.569" y2="97" gradientUnits="userSpaceOnUse"><stop stop-color="#BCB1FF"/><stop offset="1" stop-color="#BCB1FF" stop-opacity=".1"/></linearGradient><filter id="c" width="207.366" height="134.574" x="-62" y="-17" color-interpolation-filters="sRGB" filterUnits="userSpaceOnUse"><feFlood flood-opacity="0" result="BackgroundImageFix"/><feBlend in="SourceGraphic" in2="BackgroundImageFix" result="shape"/><feGaussianBlur result="effect1_foregroundBlur_6744_1140" stdDeviation="12"/></filter><filter id="e" width="169.725" height="105.904" x="-50" y="-41" color-interpolation-filters="sRGB" filterUnits="userSpaceOnUse"><feFlood flood-opacity="0" result="BackgroundImageFix"/><feBlend in="SourceGraphic" in2="BackgroundImageFix" result="shape"/><feGaussianBlur result="effect1_foregroundBlur_6744_1140" stdDeviation="7.5"/></filter><filter id="g" width="178.095" height="110.451" x="-40" y="51" color-interpolation-filters="sRGB" filterUnits="userSpaceOnUse"><feFlood flood-opacity="0" result="BackgroundImageFix"/><feBlend in="SourceGraphic" in2="BackgroundImageFix" result="shape"/><feGaussianBlur result="effect1_foregroundBlur_6744_1140" stdDeviation="7.5"/></filter><clipPath id="a"><path fill="#fff" d="M0 0h92v103H0z"/></clipPath></defs></svg>