<svg width="92" height="103" viewBox="0 0 92 103" preserveAspectRatio="xMidYMid slice" fill="none" xmlns="http://www.w3.org/2000/svg">
<g opacity="0.6" clip-path="url(#clip0_6719_10908)">
<rect width="92" height="103" fill="url(#paint0_linear_6719_10908)" fill-opacity="0.8"/>
<path fill-rule="evenodd" clip-rule="evenodd" d="M63.9378 -0.436336L62.8252 -0.200304L62.2581 -1.16345C61.148 -3.04872 58.2564 -2.43525 58.0205 -0.264409L57.8999 0.84463L56.7874 1.08066C54.6193 1.54064 54.3201 4.4887 56.3523 5.36828L57.3609 5.80483L57.2438 6.88208C57.0072 9.05918 59.7142 10.2674 61.1992 8.64761L61.9747 7.80183L63.0309 8.25901C65.0538 9.1346 67.026 6.9336 65.9127 5.04292L65.3618 4.10738L66.1022 3.29976C67.5941 1.67255 66.1059 -0.896314 63.9378 -0.436336ZM59.2824 2.42309C59.4666 2.38401 59.6047 2.23203 59.6249 2.0462L59.8547 -0.068182C59.8998 -0.483377 60.4529 -0.600709 60.6652 -0.240133L61.7464 1.5961C61.8415 1.75748 62.0302 1.84012 62.2144 1.80104L64.3235 1.35356C64.7382 1.26559 65.0229 1.75691 64.7375 2.06813L63.301 3.63493C63.1728 3.77486 63.1509 3.98123 63.2471 4.14456L64.3198 5.96624C64.5327 6.32785 64.1555 6.74881 63.7686 6.58134L61.7867 5.72351C61.6153 5.64933 61.4153 5.69176 61.2895 5.829L59.8345 7.41598C59.5505 7.72579 59.0327 7.4947 59.078 7.07831L59.306 4.98069C59.3264 4.79263 59.2214 4.61317 59.0467 4.53753L57.09 3.69061C56.7013 3.52238 56.7585 2.95854 57.1732 2.87056L59.2824 2.42309Z" fill="url(#paint1_linear_6719_10908)" fill-opacity="0.8"/>
<path fill-rule="evenodd" clip-rule="evenodd" d="M86.3534 0.0405357L87.1675 -0.13218C88.754 -0.468769 89.843 1.411 88.7513 2.6017L88.2095 3.19268L88.6126 3.87725C89.4273 5.26076 87.9842 6.87134 86.5039 6.23063L85.731 5.89609L85.1636 6.51499C84.0769 7.70029 82.096 6.81615 82.2692 5.22306L82.3549 4.43478L81.6168 4.11534C80.1298 3.47171 80.3487 1.31447 81.9352 0.977881L82.7493 0.805165L82.8375 -0.00637317C83.0102 -1.59488 85.1261 -2.04379 85.9384 -0.664244L86.3534 0.0405357ZM84.0116 1.68441C83.9968 1.82039 83.8957 1.9316 83.7609 1.9602L82.2175 2.28764C81.9141 2.35201 81.8722 2.76461 82.1566 2.88771L83.5884 3.50744C83.7163 3.56279 83.7931 3.6941 83.7782 3.83172L83.6114 5.36665C83.5783 5.67134 83.9571 5.84044 84.1649 5.61374L85.2296 4.45247C85.3217 4.35204 85.468 4.321 85.5934 4.37528L87.0437 5.003C87.3268 5.12554 87.6028 4.8175 87.447 4.55289L86.6621 3.21988C86.5917 3.10037 86.6077 2.94936 86.7016 2.84697L87.7527 1.70046C87.9615 1.47272 87.7532 1.1132 87.4498 1.17758L85.9064 1.50502C85.7716 1.53362 85.6335 1.47314 85.564 1.35505L84.7728 0.0113914C84.6174 -0.25246 84.2127 -0.166603 84.1797 0.137216L84.0116 1.68441Z" fill="url(#paint2_linear_6719_10908)" fill-opacity="0.8"/>
<path fill-rule="evenodd" clip-rule="evenodd" d="M14.1105 1.13974L15.3326 0.880453C17.7143 0.375163 19.3491 3.19709 17.7103 4.98459L16.8969 5.87177L17.5021 6.89947C18.7251 8.9764 16.5586 11.3942 14.3364 10.4324L13.1761 9.93016L12.3243 10.8593C10.6929 12.6387 7.71931 11.3114 7.97923 8.91981L8.10784 7.73644L6.99989 7.25688C4.76757 6.29066 5.09622 3.05218 7.47789 2.54689L8.70002 2.28761L8.83243 1.06932C9.0916 -1.31537 12.268 -1.98928 13.4875 0.081712L14.1105 1.13974ZM10.5949 3.60754C10.5727 3.81168 10.421 3.97863 10.2186 4.02156L7.90167 4.51311C7.44615 4.60976 7.38329 5.22915 7.81024 5.41395L9.95969 6.3443C10.1517 6.42739 10.267 6.62452 10.2446 6.83111L9.99413 9.13537C9.94442 9.59277 10.5132 9.84663 10.8252 9.5063L12.4235 7.76298C12.5617 7.61222 12.7814 7.56562 12.9697 7.64711L15.1468 8.58944C15.5718 8.77341 15.9862 8.31098 15.7523 7.91374L14.5739 5.91261C14.4683 5.7332 14.4923 5.5065 14.6332 5.35278L16.2112 3.63163C16.5246 3.28975 16.2119 2.75004 15.7564 2.84668L13.4395 3.33823C13.2371 3.38117 13.0298 3.29038 12.9254 3.1131L11.7377 1.09598C11.5044 0.699888 10.8969 0.828778 10.8473 1.28487L10.5949 3.60754Z" fill="url(#paint3_linear_6719_10908)" fill-opacity="0.8"/>
<path fill-rule="evenodd" clip-rule="evenodd" d="M52.4357 20.2287L53.6578 19.9694C56.0395 19.4641 57.6743 22.2861 56.0355 24.0736L55.2221 24.9607L55.8273 25.9884C57.0503 28.0654 54.8838 30.4832 52.6616 29.5214L51.5013 29.0191L50.6495 29.9482C49.0181 31.7276 46.0445 30.4003 46.3044 28.0088L46.433 26.8254L45.3251 26.3459C43.0928 25.3796 43.4214 22.1411 45.8031 21.6359L47.0252 21.3766L47.1576 20.1583C47.4168 17.7736 50.5932 17.0997 51.8127 19.1707L52.4357 20.2287ZM48.9201 22.6965C48.8979 22.9006 48.7462 23.0676 48.5438 23.1105L46.2269 23.6021C45.7713 23.6987 45.7085 24.3181 46.1354 24.5029L48.2849 25.4333C48.4769 25.5164 48.5922 25.7135 48.5698 25.9201L48.3193 28.2243C48.2696 28.6817 48.8383 28.9356 49.1504 28.5953L50.7487 26.852C50.8869 26.7012 51.1066 26.6546 51.2948 26.7361L53.472 27.6784C53.897 27.8624 54.3114 27.3999 54.0774 27.0027L52.8991 25.0016C52.7934 24.8222 52.8175 24.5955 52.9584 24.4418L54.5364 22.7206C54.8498 22.3787 54.5371 21.839 54.0816 21.9356L51.7647 22.4272C51.5623 22.4701 51.355 22.3794 51.2506 22.2021L50.0629 20.185C49.8296 19.7889 49.2221 19.9177 49.1725 20.3738L48.9201 22.6965Z" fill="url(#paint4_linear_6719_10908)" fill-opacity="0.8"/>
<path fill-rule="evenodd" clip-rule="evenodd" d="M34.2512 8.80415L33.4371 8.97687L33.0221 8.27209C32.2098 6.89254 30.0939 7.34145 29.9213 8.92996L29.8331 9.7415L29.019 9.91421C27.4325 10.2508 27.2136 12.408 28.7006 13.0517L29.4386 13.3711L29.3529 14.1594C29.1798 15.7525 31.1606 16.6366 32.2473 15.4513L32.8147 14.8324L33.5876 15.167C35.0679 15.8077 36.511 14.1971 35.6964 12.8136L35.2933 12.129L35.8351 11.538C36.9267 10.3473 35.8377 8.46756 34.2512 8.80415ZM30.8446 10.8965C30.9794 10.8679 31.0805 10.7567 31.0953 10.6207L31.2634 9.07355C31.2965 8.76973 31.7012 8.68387 31.8565 8.94772L32.6477 10.2914C32.7173 10.4095 32.8553 10.4699 32.9901 10.4413L34.5335 10.1139C34.837 10.0495 35.0452 10.4091 34.8365 10.6368L33.7853 11.7833C33.6914 11.8857 33.6754 12.0367 33.7458 12.1562L34.5308 13.4892C34.6866 13.7538 34.4106 14.0619 34.1274 13.9393L32.6772 13.3116C32.5518 13.2573 32.4054 13.2884 32.3134 13.3888L31.2487 14.5501C31.0408 14.7768 30.662 14.6077 30.6951 14.303L30.8619 12.7681C30.8769 12.6304 30.8 12.4991 30.6722 12.4438L29.2404 11.824C28.956 11.7009 28.9978 11.2883 29.3013 11.224L30.8446 10.8965Z" fill="url(#paint5_linear_6719_10908)" fill-opacity="0.8"/>
<path fill-rule="evenodd" clip-rule="evenodd" d="M82.664 36.7302L81.8499 36.9029L81.4349 36.1981C80.6226 34.8186 78.5066 35.2675 78.334 36.856L78.2458 37.6675L77.4317 37.8402C75.8452 38.1768 75.6263 40.3341 77.1133 40.9777L77.8513 41.2972L77.7657 42.0854C77.5925 43.6785 79.5733 44.5627 80.6601 43.3774L81.2275 42.7585L82.0004 43.093C83.4807 43.7337 84.9238 42.1231 84.1091 40.7396L83.706 40.055L84.2478 39.4641C85.3395 38.2734 84.2505 36.3936 82.664 36.7302ZM79.2574 38.8226C79.3922 38.794 79.4933 38.6828 79.508 38.5468L79.6762 36.9996C79.7092 36.6958 80.1139 36.6099 80.2693 36.8738L81.0605 38.2174C81.13 38.3355 81.2681 38.396 81.4029 38.3674L82.9463 38.0399C83.2497 37.9756 83.458 38.3351 83.2492 38.5628L82.1981 39.7093C82.1042 39.8117 82.0882 39.9627 82.1586 40.0823L82.9435 41.4153C83.0993 41.6799 82.8233 41.9879 82.5402 41.8654L81.0899 41.2376C80.9645 41.1834 80.8182 41.2144 80.7261 41.3148L79.6614 42.4761C79.4536 42.7028 79.0747 42.5337 79.1079 42.229L79.2747 40.6941C79.2896 40.5565 79.2128 40.4252 79.0849 40.3698L77.6531 39.7501C77.3687 39.627 77.4106 39.2144 77.714 39.15L79.2574 38.8226Z" fill="url(#paint6_linear_6719_10908)" fill-opacity="0.8"/>
<path fill-rule="evenodd" clip-rule="evenodd" d="M33.4371 38.0199L34.2512 37.8472C35.8377 37.5106 36.9267 39.3904 35.8351 40.5811L35.2933 41.1721L35.6964 41.8567C36.511 43.2402 35.0679 44.8507 33.5876 44.21L32.8147 43.8755L32.2473 44.4944C31.1606 45.6797 29.1798 44.7956 29.3529 43.2025L29.4386 42.4142L28.7006 42.0947C27.2136 41.4511 27.4325 39.2939 29.019 38.9573L29.8331 38.7846L29.9213 37.973C30.0939 36.3845 32.2098 35.9356 33.0221 37.3152L33.4371 38.0199ZM31.0953 39.6638C31.0805 39.7998 30.9794 39.911 30.8446 39.9396L29.3013 40.267C28.9978 40.3314 28.956 40.744 29.2404 40.8671L30.6722 41.4869C30.8 41.5422 30.8769 41.6735 30.8619 41.8111L30.6951 43.3461C30.662 43.6507 31.0408 43.8199 31.2487 43.5932L32.3134 42.4319C32.4054 42.3315 32.5518 42.3004 32.6772 42.3547L34.1274 42.9824C34.4106 43.1049 34.6866 42.7969 34.5308 42.5323L33.7458 41.1993C33.6754 41.0798 33.6914 40.9288 33.7853 40.8264L34.8365 39.6799C35.0452 39.4521 34.837 39.0926 34.5335 39.157L32.9901 39.4844C32.8553 39.513 32.7173 39.4526 32.6477 39.3345L31.8565 37.9908C31.7012 37.7269 31.2965 37.8128 31.2634 38.1166L31.0953 39.6638Z" fill="url(#paint7_linear_6719_10908)" fill-opacity="0.8"/>
<path fill-rule="evenodd" clip-rule="evenodd" d="M12.1474 25.2556L11.0349 25.4916L10.4677 24.5285C9.35759 22.6432 6.46603 23.2567 6.2301 25.4275L6.10957 26.5366L4.99703 26.7726C2.82894 27.2326 2.52976 30.1807 4.5619 31.0602L5.57049 31.4968L5.45341 32.574C5.2168 34.7511 7.92377 35.9594 9.40886 34.3396L10.1843 33.4938L11.2405 33.951C13.2634 34.8266 15.2356 32.6256 14.1223 30.7349L13.5714 29.7993L14.3119 28.9917C15.8037 27.3645 14.3155 24.7956 12.1474 25.2556ZM7.49198 28.115C7.67619 28.076 7.81432 27.924 7.83452 27.7382L8.06431 25.6238C8.10944 25.2086 8.66247 25.0912 8.8748 25.4518L9.95605 27.2881C10.0511 27.4494 10.2398 27.5321 10.424 27.493L12.5332 27.0455C12.9478 26.9575 13.2325 27.4489 12.9471 27.7601L11.5107 29.3269C11.3824 29.4668 11.3605 29.6732 11.4567 29.8365L12.5294 31.6582C12.7423 32.0198 12.3651 32.4408 11.9782 32.2733L9.99632 31.4155C9.82492 31.3413 9.62494 31.3837 9.49912 31.521L8.04414 33.1079C7.76011 33.4177 7.24237 33.1867 7.28762 32.7703L7.5156 30.6726C7.53603 30.4846 7.43103 30.3051 7.25628 30.2295L5.29958 29.3826C4.91092 29.2143 4.96814 28.6505 5.38281 28.5625L7.49198 28.115Z" fill="url(#paint8_linear_6719_10908)" fill-opacity="0.8"/>
<path fill-rule="evenodd" clip-rule="evenodd" d="M79.7134 18.7894L80.8259 18.5534C82.994 18.0934 84.4823 20.6623 82.9904 22.2895L82.25 23.0971L82.8008 24.0326C83.9142 25.9233 81.942 28.1243 79.9191 27.2487L78.8628 26.7915L78.0874 27.6373C76.6023 29.2571 73.8953 28.0489 74.132 25.8718L74.249 24.7945L73.2404 24.358C71.2083 23.4784 71.5075 20.5303 73.6756 20.0704L74.7881 19.8343L74.9086 18.7253C75.1446 16.5545 78.0361 15.941 79.1463 17.8263L79.7134 18.7894ZM76.5131 21.0359C76.4929 21.2217 76.3547 21.3737 76.1705 21.4128L74.0613 21.8603C73.6467 21.9482 73.5895 22.5121 73.9781 22.6803L75.9348 23.5272C76.1096 23.6029 76.2146 23.7823 76.1941 23.9704L75.9662 26.068C75.9209 26.4844 76.4386 26.7155 76.7227 26.4057L78.1777 24.8187C78.3035 24.6815 78.5035 24.639 78.6749 24.7132L80.6568 25.571C81.0437 25.7385 81.4209 25.3176 81.2079 24.9559L80.1352 23.1343C80.0391 22.9709 80.0609 22.7646 80.1892 22.6246L81.6257 21.0578C81.911 20.7466 81.6264 20.2553 81.2117 20.3433L79.1025 20.7907C78.9183 20.8298 78.7296 20.7472 78.6346 20.5858L77.5533 18.7496C77.341 18.389 76.788 18.5063 76.7429 18.9215L76.5131 21.0359Z" fill="url(#paint9_linear_6719_10908)" fill-opacity="0.8"/>
<path fill-rule="evenodd" clip-rule="evenodd" d="M63.9378 54.2354L62.8252 54.4715L62.2581 53.5083C61.148 51.623 58.2564 52.2365 58.0205 54.4074L57.8999 55.5164L56.7874 55.7524C54.6193 56.2124 54.3201 59.1605 56.3523 60.04L57.3609 60.4766L57.2438 61.5538C57.0072 63.7309 59.7142 64.9392 61.1992 63.3194L61.9747 62.4736L63.0309 62.9308C65.0538 63.8064 67.026 61.6054 65.9127 59.7147L65.3618 58.7791L66.1022 57.9715C67.5941 56.3443 66.1059 53.7754 63.9378 54.2354ZM59.2824 57.0948C59.4666 57.0558 59.6047 56.9038 59.6249 56.718L59.8547 54.6036C59.8998 54.1884 60.4529 54.0711 60.6652 54.4316L61.7464 56.2679C61.8415 56.4292 62.0302 56.5119 62.2144 56.4728L64.3235 56.0253C64.7382 55.9374 65.0229 56.4287 64.7375 56.7399L63.301 58.3067C63.1728 58.4466 63.1509 58.653 63.2471 58.8163L64.3198 60.638C64.5327 60.9996 64.1555 61.4206 63.7686 61.2531L61.7867 60.3953C61.6153 60.3211 61.4153 60.3635 61.2895 60.5008L59.8345 62.0877C59.5505 62.3976 59.0327 62.1665 59.078 61.7501L59.306 59.6525C59.3264 59.4644 59.2214 59.2849 59.0467 59.2093L57.09 58.3624C56.7013 58.1941 56.7585 57.6303 57.1732 57.5423L59.2824 57.0948Z" fill="url(#paint10_linear_6719_10908)" fill-opacity="0.8"/>
<path fill-rule="evenodd" clip-rule="evenodd" d="M86.3534 54.7123L87.1675 54.5396C88.754 54.203 89.843 56.0828 88.7513 57.2735L88.2095 57.8644L88.6126 58.549C89.4273 59.9325 87.9842 61.5431 86.5039 60.9024L85.731 60.5678L85.1636 61.1867C84.0769 62.3721 82.096 61.4879 82.2692 59.8948L82.3549 59.1065L81.6168 58.7871C80.1298 58.1435 80.3487 55.9862 81.9352 55.6496L82.7493 55.4769L82.8375 54.6654C83.0102 53.0769 85.1261 52.628 85.9384 54.0075L86.3534 54.7123ZM84.0116 56.3562C83.9968 56.4922 83.8957 56.6034 83.7609 56.632L82.2175 56.9594C81.9141 57.0238 81.8722 57.4364 82.1566 57.5595L83.5884 58.1792C83.7163 58.2346 83.7931 58.3659 83.7782 58.5035L83.6114 60.0384C83.5783 60.3431 83.9571 60.5122 84.1649 60.2855L85.2296 59.1242C85.3217 59.0238 85.468 58.9928 85.5934 59.047L87.0437 59.6748C87.3268 59.7973 87.6028 59.4893 87.447 59.2247L86.6621 57.8916C86.5917 57.7721 86.6077 57.6211 86.7016 57.5187L87.7527 56.3722C87.9615 56.1445 87.7532 55.785 87.4498 55.8493L85.9064 56.1768C85.7716 56.2054 85.6335 56.1449 85.564 56.0268L84.7728 54.6832C84.6174 54.4193 84.2127 54.5052 84.1797 54.809L84.0116 56.3562Z" fill="url(#paint11_linear_6719_10908)" fill-opacity="0.8"/>
<path fill-rule="evenodd" clip-rule="evenodd" d="M14.1105 55.8115L15.3326 55.5522C17.7143 55.0469 19.3491 57.8689 17.7103 59.6564L16.8969 60.5435L17.5021 61.5712C18.7251 63.6482 16.5586 66.066 14.3364 65.1041L13.1761 64.6019L12.3243 65.531C10.6929 67.3104 7.71931 65.9831 7.97923 63.5916L8.10784 62.4082L6.99989 61.9286C4.76757 60.9624 5.09622 57.7239 7.47789 57.2187L8.70002 56.9594L8.83243 55.7411C9.0916 53.3564 12.268 52.6825 13.4875 54.7535L14.1105 55.8115ZM10.5949 58.2793C10.5727 58.4834 10.421 58.6504 10.2186 58.6933L7.90167 59.1849C7.44615 59.2815 7.38329 59.9009 7.81024 60.0857L9.95969 61.0161C10.1517 61.0991 10.267 61.2963 10.2446 61.5029L9.99413 63.8071C9.94442 64.2645 10.5132 64.5184 10.8252 64.1781L12.4235 62.4347C12.5617 62.284 12.7814 62.2374 12.9697 62.3189L15.1468 63.2612C15.5718 63.4452 15.9862 62.9827 15.7523 62.5855L14.5739 60.5844C14.4683 60.405 14.4923 60.1783 14.6332 60.0245L16.2112 58.3034C16.5246 57.9615 16.2119 57.4218 15.7564 57.5184L13.4395 58.01C13.2371 58.0529 13.0298 57.9621 12.9254 57.7849L11.7377 55.7677C11.5044 55.3717 10.8969 55.5005 10.8473 55.9566L10.5949 58.2793Z" fill="url(#paint12_linear_6719_10908)" fill-opacity="0.8"/>
<path fill-rule="evenodd" clip-rule="evenodd" d="M52.4357 74.9005L53.6578 74.6412C56.0395 74.1359 57.6743 76.9578 56.0355 78.7453L55.2221 79.6325L55.8273 80.6602C57.0503 82.7371 54.8838 85.1549 52.6616 84.1931L51.5013 83.6909L50.6495 84.62C49.0181 86.3994 46.0445 85.0721 46.3044 82.6805L46.433 81.4972L45.3251 81.0176C43.0928 80.0514 43.4214 76.8129 45.8031 76.3076L47.0252 76.0483L47.1576 74.83C47.4168 72.4454 50.5932 71.7715 51.8127 73.8424L52.4357 74.9005ZM48.9201 77.3683C48.8979 77.5724 48.7462 77.7394 48.5438 77.7823L46.2269 78.2738C45.7713 78.3705 45.7085 78.9899 46.1354 79.1747L48.2849 80.105C48.4769 80.1881 48.5922 80.3853 48.5698 80.5918L48.3193 82.8961C48.2696 83.3535 48.8383 83.6074 49.1504 83.267L50.7487 81.5237C50.8869 81.373 51.1066 81.3263 51.2948 81.4078L53.472 82.3502C53.897 82.5341 54.3114 82.0717 54.0774 81.6745L52.8991 79.6733C52.7934 79.4939 52.8175 79.2672 52.9584 79.1135L54.5364 77.3924C54.8498 77.0505 54.5371 76.5108 54.0816 76.6074L51.7647 77.099C51.5623 77.1419 51.355 77.0511 51.2506 76.8738L50.0629 74.8567C49.8296 74.4606 49.2221 74.5895 49.1725 75.0456L48.9201 77.3683Z" fill="url(#paint13_linear_6719_10908)" fill-opacity="0.8"/>
<path fill-rule="evenodd" clip-rule="evenodd" d="M34.2512 63.4759L33.4371 63.6486L33.0221 62.9438C32.2098 61.5643 30.0939 62.0132 29.9213 63.6017L29.8331 64.4133L29.019 64.586C27.4325 64.9226 27.2136 67.0798 28.7006 67.7234L29.4386 68.0429L29.3529 68.8312C29.1798 70.4242 31.1606 71.3084 32.2473 70.1231L32.8147 69.5042L33.5876 69.8387C35.0679 70.4794 36.511 68.8689 35.6964 67.4854L35.2933 66.8008L35.8351 66.2098C36.9267 65.0191 35.8377 63.1393 34.2512 63.4759ZM30.8446 65.5683C30.9794 65.5397 31.0805 65.4285 31.0953 65.2925L31.2634 63.7453C31.2965 63.4415 31.7012 63.3556 31.8565 63.6195L32.6477 64.9632C32.7173 65.0812 32.8553 65.1417 32.9901 65.1131L34.5335 64.7857C34.837 64.7213 35.0452 65.0808 34.8365 65.3085L33.7853 66.4551C33.6914 66.5574 33.6754 66.7085 33.7458 66.828L34.5308 68.161C34.6866 68.4256 34.4106 68.7336 34.1274 68.6111L32.6772 67.9834C32.5518 67.9291 32.4054 67.9601 32.3134 68.0606L31.2487 69.2218C31.0408 69.4485 30.662 69.2794 30.6951 68.9747L30.8619 67.4398C30.8769 67.3022 30.8 67.1709 30.6722 67.1155L29.2404 66.4958C28.956 66.3727 28.9978 65.9601 29.3013 65.8957L30.8446 65.5683Z" fill="url(#paint14_linear_6719_10908)" fill-opacity="0.8"/>
<path fill-rule="evenodd" clip-rule="evenodd" d="M82.664 91.4019L81.8499 91.5747L81.4349 90.8699C80.6226 89.4903 78.5066 89.9392 78.334 91.5278L78.2458 92.3393L77.4317 92.512C75.8452 92.8486 75.6263 95.0058 77.1133 95.6495L77.8513 95.9689L77.7657 96.7572C77.5925 98.3503 79.5733 99.2344 80.6601 98.0491L81.2275 97.4302L82.0004 97.7648C83.4807 98.4055 84.9238 96.7949 84.1091 95.4114L83.706 94.7268L84.2478 94.1358C85.3395 92.9451 84.2505 91.0654 82.664 91.4019ZM79.2574 93.4943C79.3922 93.4657 79.4933 93.3545 79.508 93.2185L79.6762 91.6713C79.7092 91.3675 80.1139 91.2817 80.2693 91.5455L81.0605 92.8892C81.13 93.0073 81.2681 93.0677 81.4029 93.0391L82.9463 92.7117C83.2497 92.6473 83.458 93.0069 83.2492 93.2346L82.1981 94.3811C82.1042 94.4835 82.0882 94.6345 82.1586 94.754L82.9435 96.087C83.0993 96.3516 82.8233 96.6597 82.5402 96.5371L81.0899 95.9094C80.9645 95.8551 80.8182 95.8862 80.7261 95.9866L79.6614 97.1479C79.4536 97.3746 79.0747 97.2055 79.1079 96.9008L79.2747 95.3658C79.2896 95.2282 79.2128 95.0969 79.0849 95.0416L77.6531 94.4218C77.3687 94.2987 77.4106 93.8861 77.714 93.8218L79.2574 93.4943Z" fill="url(#paint15_linear_6719_10908)" fill-opacity="0.8"/>
<path fill-rule="evenodd" clip-rule="evenodd" d="M33.4371 92.6917L34.2512 92.519C35.8377 92.1824 36.9267 94.0622 35.8351 95.2529L35.2933 95.8438L35.6964 96.5284C36.511 97.9119 35.0679 99.5225 33.5876 98.8818L32.8147 98.5473L32.2473 99.1662C31.1606 100.351 29.1798 99.4673 29.3529 97.8742L29.4386 97.086L28.7006 96.7665C27.2136 96.1229 27.4325 93.9656 29.019 93.6291L29.8331 93.4563L29.9213 92.6448C30.0939 91.0563 32.2098 90.6074 33.0221 91.9869L33.4371 92.6917ZM31.0953 94.3356C31.0805 94.4716 30.9794 94.5828 30.8446 94.6114L29.3013 94.9388C28.9978 95.0032 28.956 95.4158 29.2404 95.5389L30.6722 96.1586C30.8 96.214 30.8769 96.3453 30.8619 96.4829L30.6951 98.0178C30.662 98.3225 31.0408 98.4916 31.2487 98.2649L32.3134 97.1036C32.4054 97.0032 32.5518 96.9722 32.6772 97.0264L34.1274 97.6542C34.4106 97.7767 34.6866 97.4687 34.5308 97.2041L33.7458 95.8711C33.6754 95.7515 33.6914 95.6005 33.7853 95.4981L34.8365 94.3516C35.0452 94.1239 34.837 93.7644 34.5335 93.8288L32.9901 94.1562C32.8553 94.1848 32.7173 94.1243 32.6477 94.0062L31.8565 92.6626C31.7012 92.3987 31.2965 92.4846 31.2634 92.7884L31.0953 94.3356Z" fill="url(#paint16_linear_6719_10908)" fill-opacity="0.8"/>
<path fill-rule="evenodd" clip-rule="evenodd" d="M12.1474 79.9274L11.0349 80.1634L10.4677 79.2003C9.35759 77.315 6.46603 77.9285 6.2301 80.0993L6.10957 81.2084L4.99703 81.4444C2.82894 81.9044 2.52976 84.8524 4.5619 85.732L5.57049 86.1685L5.45341 87.2458C5.2168 89.4229 7.92377 90.6311 9.40886 89.0113L10.1843 88.1656L11.2405 88.6227C13.2634 89.4983 15.2356 87.2973 14.1223 85.4066L13.5714 84.4711L14.3119 83.6635C15.8037 82.0363 14.3155 79.4674 12.1474 79.9274ZM7.49198 82.7868C7.67619 82.7477 7.81432 82.5957 7.83452 82.4099L8.06431 80.2955C8.10944 79.8803 8.66247 79.763 8.8748 80.1236L9.95605 81.9598C10.0511 82.1212 10.2398 82.2038 10.424 82.1647L12.5332 81.7173C12.9478 81.6293 13.2325 82.1206 12.9471 82.4318L11.5107 83.9986C11.3824 84.1386 11.3605 84.3449 11.4567 84.5083L12.5294 86.3299C12.7423 86.6916 12.3651 87.1125 11.9782 86.9451L9.99632 86.0872C9.82492 86.013 9.62494 86.0555 9.49912 86.1927L8.04414 87.7797C7.76011 88.0895 7.24237 87.8584 7.28762 87.442L7.5156 85.3444C7.53603 85.1563 7.43103 84.9769 7.25628 84.9013L5.29958 84.0543C4.91092 83.8861 4.96814 83.3223 5.38281 83.2343L7.49198 82.7868Z" fill="url(#paint17_linear_6719_10908)" fill-opacity="0.8"/>
<path fill-rule="evenodd" clip-rule="evenodd" d="M79.7134 73.4612L80.8259 73.2251C82.994 72.7652 84.4823 75.334 82.9904 76.9612L82.25 77.7688L82.8008 78.7044C83.9142 80.5951 81.942 82.7961 79.9191 81.9205L78.8628 81.4633L78.0874 82.3091C76.6023 83.9289 73.8953 82.7206 74.132 80.5436L74.249 79.4663L73.2404 79.0297C71.2083 78.1502 71.5075 75.2021 73.6756 74.7421L74.7881 74.5061L74.9086 73.397C75.1446 71.2262 78.0361 70.6127 79.1463 72.498L79.7134 73.4612ZM76.5131 75.7077C76.4929 75.8935 76.3547 76.0455 76.1705 76.0846L74.0613 76.532C73.6467 76.62 73.5895 77.1838 73.9781 77.3521L75.9348 78.199C76.1096 78.2746 76.2146 78.4541 76.1941 78.6422L75.9662 80.7398C75.9209 81.1562 76.4386 81.3873 76.7227 81.0775L78.1777 79.4905C78.3035 79.3532 78.5035 79.3108 78.6749 79.385L80.6568 80.2428C81.0437 80.4103 81.4209 79.9893 81.2079 79.6277L80.1352 77.806C80.0391 77.6427 80.0609 77.4363 80.1892 77.2964L81.6257 75.7296C81.911 75.4184 81.6264 74.9271 81.2117 75.015L79.1025 75.4625C78.9183 75.5016 78.7296 75.4189 78.6346 75.2576L77.5533 73.4213C77.341 73.0608 76.788 73.1781 76.7429 73.5933L76.5131 75.7077Z" fill="url(#paint18_linear_6719_10908)" fill-opacity="0.8"/>
</g>
<defs>
<linearGradient id="paint0_linear_6719_10908" x1="46" y1="-9.84559" x2="46" y2="103" gradientUnits="userSpaceOnUse">
<stop stop-color="#FF63F7"/>
<stop offset="1" stop-color="#DD63FF" stop-opacity="0.2"/>
</linearGradient>
<linearGradient id="paint1_linear_6719_10908" x1="45.9757" y1="0.5" x2="45.9757" y2="100" gradientUnits="userSpaceOnUse">
<stop stop-color="#DD63FF"/>
<stop offset="1" stop-color="#DD63FF" stop-opacity="0.1"/>
</linearGradient>
<linearGradient id="paint2_linear_6719_10908" x1="45.9757" y1="0.5" x2="45.9757" y2="100" gradientUnits="userSpaceOnUse">
<stop stop-color="#DD63FF"/>
<stop offset="1" stop-color="#DD63FF" stop-opacity="0.1"/>
</linearGradient>
<linearGradient id="paint3_linear_6719_10908" x1="45.9757" y1="0.5" x2="45.9757" y2="100" gradientUnits="userSpaceOnUse">
<stop stop-color="#DD63FF"/>
<stop offset="1" stop-color="#DD63FF" stop-opacity="0.1"/>
</linearGradient>
<linearGradient id="paint4_linear_6719_10908" x1="45.9757" y1="0.5" x2="45.9757" y2="100" gradientUnits="userSpaceOnUse">
<stop stop-color="#DD63FF"/>
<stop offset="1" stop-color="#DD63FF" stop-opacity="0.1"/>
</linearGradient>
<linearGradient id="paint5_linear_6719_10908" x1="45.9757" y1="0.5" x2="45.9757" y2="100" gradientUnits="userSpaceOnUse">
<stop stop-color="#DD63FF"/>
<stop offset="1" stop-color="#DD63FF" stop-opacity="0.1"/>
</linearGradient>
<linearGradient id="paint6_linear_6719_10908" x1="45.9757" y1="0.5" x2="45.9757" y2="100" gradientUnits="userSpaceOnUse">
<stop stop-color="#DD63FF"/>
<stop offset="1" stop-color="#DD63FF" stop-opacity="0.1"/>
</linearGradient>
<linearGradient id="paint7_linear_6719_10908" x1="45.9757" y1="0.5" x2="45.9757" y2="100" gradientUnits="userSpaceOnUse">
<stop stop-color="#DD63FF"/>
<stop offset="1" stop-color="#DD63FF" stop-opacity="0.1"/>
</linearGradient>
<linearGradient id="paint8_linear_6719_10908" x1="45.9757" y1="0.5" x2="45.9757" y2="100" gradientUnits="userSpaceOnUse">
<stop stop-color="#DD63FF"/>
<stop offset="1" stop-color="#DD63FF" stop-opacity="0.1"/>
</linearGradient>
<linearGradient id="paint9_linear_6719_10908" x1="45.9757" y1="0.5" x2="45.9757" y2="100" gradientUnits="userSpaceOnUse">
<stop stop-color="#DD63FF"/>
<stop offset="1" stop-color="#DD63FF" stop-opacity="0.1"/>
</linearGradient>
<linearGradient id="paint10_linear_6719_10908" x1="45.9757" y1="0.5" x2="45.9757" y2="100" gradientUnits="userSpaceOnUse">
<stop stop-color="#DD63FF"/>
<stop offset="1" stop-color="#DD63FF" stop-opacity="0.1"/>
</linearGradient>
<linearGradient id="paint11_linear_6719_10908" x1="45.9757" y1="0.5" x2="45.9757" y2="100" gradientUnits="userSpaceOnUse">
<stop stop-color="#DD63FF"/>
<stop offset="1" stop-color="#DD63FF" stop-opacity="0.1"/>
</linearGradient>
<linearGradient id="paint12_linear_6719_10908" x1="45.9757" y1="0.5" x2="45.9757" y2="100" gradientUnits="userSpaceOnUse">
<stop stop-color="#DD63FF"/>
<stop offset="1" stop-color="#DD63FF" stop-opacity="0.1"/>
</linearGradient>
<linearGradient id="paint13_linear_6719_10908" x1="45.9757" y1="0.5" x2="45.9757" y2="100" gradientUnits="userSpaceOnUse">
<stop stop-color="#DD63FF"/>
<stop offset="1" stop-color="#DD63FF" stop-opacity="0.1"/>
</linearGradient>
<linearGradient id="paint14_linear_6719_10908" x1="45.9757" y1="0.5" x2="45.9757" y2="100" gradientUnits="userSpaceOnUse">
<stop stop-color="#DD63FF"/>
<stop offset="1" stop-color="#DD63FF" stop-opacity="0.1"/>
</linearGradient>
<linearGradient id="paint15_linear_6719_10908" x1="45.9757" y1="0.5" x2="45.9757" y2="100" gradientUnits="userSpaceOnUse">
<stop stop-color="#DD63FF"/>
<stop offset="1" stop-color="#DD63FF" stop-opacity="0.1"/>
</linearGradient>
<linearGradient id="paint16_linear_6719_10908" x1="45.9757" y1="0.5" x2="45.9757" y2="100" gradientUnits="userSpaceOnUse">
<stop stop-color="#DD63FF"/>
<stop offset="1" stop-color="#DD63FF" stop-opacity="0.1"/>
</linearGradient>
<linearGradient id="paint17_linear_6719_10908" x1="45.9757" y1="0.5" x2="45.9757" y2="100" gradientUnits="userSpaceOnUse">
<stop stop-color="#DD63FF"/>
<stop offset="1" stop-color="#DD63FF" stop-opacity="0.1"/>
</linearGradient>
<linearGradient id="paint18_linear_6719_10908" x1="45.9757" y1="0.5" x2="45.9757" y2="100" gradientUnits="userSpaceOnUse">
<stop stop-color="#DD63FF"/>
<stop offset="1" stop-color="#DD63FF" stop-opacity="0.1"/>
</linearGradient>
<clipPath id="clip0_6719_10908">
<rect width="92" height="103" fill="white"/>
</clipPath>
</defs>
</svg>
