<svg width="92" height="103" viewBox="0 0 92 103" preserveAspectRatio="xMidYMid slice" fill="none" xmlns="http://www.w3.org/2000/svg">
<g opacity="0.6" clip-path="url(#clip0_6719_11245)">
<rect width="92" height="103" fill="url(#paint0_linear_6719_11245)"/>
<path d="M82.2551 7.36723C82.3409 6.87759 83.0357 6.87759 83.1215 7.36723L83.2484 8.09224C83.4753 9.38973 84.5595 10.4067 85.9431 10.6195L86.6264 10.7248C87.1211 10.801 87.126 11.5201 86.6323 11.6032L86.028 11.705C84.712 11.9271 83.673 12.8785 83.4051 14.1075L83.1521 15.268C83.049 15.7408 82.3787 15.7303 82.2902 15.2544L82.0932 14.195C81.8566 12.9217 80.7935 11.9248 79.4358 11.7029L78.7883 11.5971C78.2931 11.5161 78.2963 10.7947 78.7922 10.7183L79.4333 10.6195C80.8171 10.4067 81.901 9.38973 82.1282 8.09224L82.2551 7.36723Z" fill="url(#paint1_linear_6719_11245)"/>
<path d="M17.1151 8.5695C17.2581 7.75343 18.4161 7.75343 18.559 8.5695L18.7707 9.77784C19.1488 11.9403 20.9558 13.6353 23.2617 13.99L24.4005 14.1654C25.2251 14.2925 25.2332 15.491 24.4105 15.6295L23.4033 15.7991C21.2099 16.1694 19.4784 17.755 19.0317 19.8033L18.6101 21.7374C18.4383 22.5255 17.321 22.5079 17.1735 21.7148L16.8452 19.9491C16.4509 17.827 14.6791 16.1655 12.4162 15.7956L11.3371 15.6192C10.5118 15.4843 10.5171 14.282 11.3436 14.1546L12.412 13.99C14.7184 13.6353 16.5249 11.9403 16.9035 9.77784L17.1151 8.5695Z" fill="url(#paint2_linear_6719_11245)"/>
<path d="M29.8133 17.8991C29.899 17.4095 30.5939 17.4095 30.6796 17.8991L30.8066 18.6242C31.0335 19.9216 32.1176 20.9386 33.5012 21.1514L34.1845 21.2567C34.6792 21.3329 34.6841 22.052 34.1905 22.1352L33.5862 22.2369C32.2701 22.4591 31.2312 23.4104 30.9632 24.6394L30.7102 25.7999C30.6072 26.2727 29.9368 26.2622 29.8483 25.7863L29.6513 24.7269C29.4147 23.4537 28.3516 22.4567 26.9939 22.2348L26.3464 22.129C25.8513 22.048 25.8545 21.3266 26.3504 21.2502L26.9914 21.1514C28.3752 20.9386 29.4591 19.9216 29.6863 18.6242L29.8133 17.8991Z" fill="url(#paint3_linear_6719_11245)"/>
<path d="M34.4936 39.9204C34.4078 39.4308 33.713 39.4308 33.6272 39.9204L33.5003 40.6454C33.2731 41.9429 32.1892 42.9599 30.8054 43.1727L30.1643 43.2715C29.6684 43.3479 29.6652 44.0693 30.1604 44.1503L30.8079 44.2561C32.1656 44.478 33.2287 45.4749 33.4653 46.7482L33.6623 47.8076C33.7507 48.2835 34.4211 48.294 34.5242 47.8212L34.7772 46.6607C35.0452 45.4317 36.0841 44.4803 37.4001 44.2582L38.0044 44.1564C38.4981 44.0733 38.4932 43.3542 37.9985 43.278L37.3151 43.1727C35.9316 42.9599 34.8474 41.9429 34.6205 40.6454L34.4936 39.9204Z" fill="url(#paint4_linear_6719_11245)"/>
<path d="M71.6796 44.7077C71.5939 44.218 70.899 44.218 70.8133 44.7077L70.6863 45.4327C70.4591 46.7302 69.3752 47.7472 67.9914 47.9599L67.3504 48.0587C66.8545 48.1351 66.8512 48.8566 67.3464 48.9375L67.9939 49.0433C69.3516 49.2652 70.4147 50.2622 70.6513 51.5354L70.8483 52.5948C70.9368 53.0707 71.6072 53.0812 71.7102 52.6084L71.9632 51.4479C72.2312 50.2189 73.2701 49.2676 74.5862 49.0454L75.1905 48.9437C75.6841 48.8606 75.6792 48.1415 75.1845 48.0652L74.5012 47.9599C73.1176 47.7472 72.0335 46.7302 71.8066 45.4327L71.6796 44.7077Z" fill="url(#paint5_linear_6719_11245)"/>
<path d="M76.2314 21.0163C76.3743 20.2002 77.5324 20.2002 77.6753 21.0163L77.8869 22.2247C78.2651 24.3871 80.072 26.0821 82.378 26.4368L83.5168 26.6123C84.3413 26.7393 84.3495 27.9378 83.5268 28.0763L82.5196 28.2459C80.3261 28.6162 78.5946 30.2018 78.148 32.2501L77.7264 34.1842C77.5546 34.9723 76.4373 34.9547 76.2898 34.1616L75.9615 32.396C75.5671 30.2738 73.7953 28.6123 71.5325 28.2424L70.4534 28.0661C69.6281 27.9311 69.6334 26.7288 70.4599 26.6014L71.5283 26.4368C73.8347 26.0821 75.6412 24.3871 76.0198 22.2247L76.2314 21.0163Z" fill="url(#paint6_linear_6719_11245)"/>
<path d="M51.9311 28.6759C51.7882 27.8598 50.6302 27.8598 50.4872 28.6759L50.2756 29.8842C49.897 32.0467 48.0905 33.7417 45.7841 34.0963L44.7157 34.261C43.8892 34.3884 43.8839 35.5907 44.7092 35.7256L45.7883 35.902C48.0512 36.2718 49.8229 37.9334 50.2173 40.0555L50.5456 41.8212C50.6931 42.6143 51.8104 42.6319 51.9822 41.8438L52.4038 39.9097C52.8504 37.8614 54.582 36.2757 56.7754 35.9055L57.7826 35.7359C58.6053 35.5974 58.5972 34.3989 57.7726 34.2718L56.6338 34.0963C54.3279 33.7417 52.5209 32.0467 52.1427 29.8842L51.9311 28.6759Z" fill="url(#paint7_linear_6719_11245)"/>
<path d="M11.3942 28.6759C11.5371 27.8598 12.6952 27.8598 12.8381 28.6759L13.0497 29.8842C13.4279 32.0467 15.2348 33.7417 17.5408 34.0963L18.6796 34.2718C19.5041 34.3989 19.5123 35.5974 18.6896 35.7359L17.6824 35.9055C15.4889 36.2757 13.7574 37.8614 13.3108 39.9097L12.8891 41.8438C12.7173 42.6319 11.6001 42.6143 11.4526 41.8212L11.1243 40.0555C10.7299 37.9334 8.95814 36.2718 6.69527 35.902L5.61617 35.7256C4.79085 35.5907 4.79622 34.3884 5.6227 34.261L6.6911 34.0963C8.99748 33.7417 10.804 32.0467 11.1826 29.8842L11.3942 28.6759Z" fill="url(#paint8_linear_6719_11245)"/>
<path d="M61.466 8.5695C61.3231 7.75343 60.165 7.75343 60.0221 8.5695L59.8105 9.77784C59.4319 11.9403 57.6254 13.6353 55.319 13.99L54.2506 14.1546C53.4241 14.282 53.4188 15.4843 54.2441 15.6192L55.3232 15.7956C57.586 16.1655 59.3578 17.827 59.7522 19.9491L60.0805 21.7148C60.228 22.5079 61.3453 22.5255 61.5171 21.7374L61.9387 19.8033C62.3853 17.755 64.1168 16.1694 66.3103 15.7991L67.3175 15.6295C68.1402 15.491 68.132 14.2925 67.3075 14.1654L66.1687 13.99C63.8627 13.6353 62.0558 11.9403 61.6776 9.77784L61.466 8.5695Z" fill="url(#paint9_linear_6719_11245)"/>
<path d="M17.1151 57.3993C17.2581 56.5832 18.4161 56.5832 18.559 57.3993L18.7707 58.6076C19.1488 60.7701 20.9558 62.4651 23.2617 62.8197L24.4005 62.9952C25.2251 63.1223 25.2332 64.3208 24.4105 64.4593L23.4033 64.6289C21.2099 64.9991 19.4784 66.5848 19.0317 68.6331L18.6101 70.5672C18.4383 71.3553 17.321 71.3377 17.1735 70.5446L16.8452 68.7789C16.4509 66.6568 14.6791 64.9952 12.4162 64.6254L11.3371 64.449C10.5118 64.3141 10.5171 63.1118 11.3436 62.9844L12.412 62.8197C14.7184 62.4651 16.5249 60.7701 16.9035 58.6076L17.1151 57.3993Z" fill="url(#paint10_linear_6719_11245)"/>
<path d="M30.6796 66.7289C30.5939 66.2393 29.899 66.2393 29.8133 66.7289L29.6863 67.4539C29.4591 68.7514 28.3752 69.7684 26.9914 69.9812L26.3504 70.08C25.8545 70.1564 25.8513 70.8778 26.3464 70.9588L26.9939 71.0646C28.3516 71.2865 29.4147 72.2834 29.6513 73.5567L29.8483 74.6161C29.9368 75.092 30.6072 75.1025 30.7102 74.6297L30.9632 73.4692C31.2312 72.2402 32.2701 71.2888 33.5862 71.0667L34.1905 70.9649C34.6841 70.8818 34.6792 70.1627 34.1845 70.0865L33.5012 69.9812C32.1176 69.7684 31.0335 68.7514 30.8066 67.4539L30.6796 66.7289Z" fill="url(#paint11_linear_6719_11245)"/>
<path d="M33.6272 88.7502C33.713 88.2606 34.4078 88.2606 34.4936 88.7502L34.6205 89.4752C34.8474 90.7727 35.9316 91.7897 37.3151 92.0025L37.9985 92.1078C38.4932 92.184 38.4981 92.9031 38.0044 92.9862L37.4001 93.088C36.0841 93.3101 35.0452 94.2615 34.7772 95.4905L34.5242 96.6509C34.4211 97.1238 33.7507 97.1133 33.6623 96.6374L33.4653 95.578C33.2287 94.3047 32.1656 93.3078 30.8079 93.0859L30.1604 92.9801C29.6652 92.8991 29.6684 92.1777 30.1643 92.1013L30.8054 92.0025C32.1892 91.7897 33.2731 90.7727 33.5003 89.4752L33.6272 88.7502Z" fill="url(#paint12_linear_6719_11245)"/>
<path d="M83.1215 56.197C83.0357 55.7074 82.3409 55.7074 82.2551 56.197L82.1282 56.922C81.901 58.2195 80.8171 59.2365 79.4333 59.4493L78.7922 59.5481C78.2963 59.6245 78.2931 60.3459 78.7883 60.4269L79.4358 60.5327C80.7935 60.7546 81.8566 61.7515 82.0932 63.0248L82.2902 64.0842C82.3787 64.5601 83.049 64.5706 83.1521 64.0978L83.4051 62.9373C83.673 61.7083 84.712 60.7569 86.028 60.5348L86.6323 60.433C87.126 60.3499 87.1211 59.6308 86.6264 59.5546L85.9431 59.4493C84.5595 59.2365 83.4753 58.2195 83.2484 56.922L83.1215 56.197Z" fill="url(#paint13_linear_6719_11245)"/>
<path d="M76.2314 69.8461C76.3743 69.03 77.5324 69.03 77.6753 69.8461L77.8869 71.0544C78.2651 73.2169 80.072 74.9119 82.378 75.2665L83.5168 75.442C84.3413 75.5691 84.3495 76.7676 83.5268 76.9061L82.5196 77.0757C80.3261 77.446 78.5946 79.0316 78.148 81.0799L77.7264 83.014C77.5546 83.8021 76.4373 83.7845 76.2898 82.9914L75.9615 81.2257C75.5671 79.1036 73.7953 77.442 71.5325 77.0722L70.4534 76.8958C69.6281 76.7609 69.6334 75.5586 70.4599 75.4312L71.5283 75.2665C73.8347 74.9119 75.6412 73.2169 76.0198 71.0544L76.2314 69.8461Z" fill="url(#paint14_linear_6719_11245)"/>
<path d="M51.9311 77.5057C51.7882 76.6896 50.6302 76.6896 50.4872 77.5057L50.2756 78.714C49.897 80.8765 48.0905 82.5715 45.7841 82.9261L44.7157 83.0908C43.8892 83.2181 43.8839 84.4205 44.7092 84.5554L45.7883 84.7318C48.0512 85.1016 49.8229 86.7632 50.2173 88.8853L50.5456 90.651C50.6931 91.4441 51.8104 91.4617 51.9822 90.6736L52.4038 88.7395C52.8504 86.6911 54.582 85.1055 56.7754 84.7353L57.7826 84.5657C58.6053 84.4272 58.5972 83.2287 57.7726 83.1016L56.6338 82.9261C54.3279 82.5715 52.5209 80.8765 52.1427 78.714L51.9311 77.5057Z" fill="url(#paint15_linear_6719_11245)"/>
<path d="M11.3942 77.5057C11.5371 76.6896 12.6952 76.6896 12.8381 77.5057L13.0497 78.714C13.4279 80.8765 15.2348 82.5715 17.5408 82.9261L18.6796 83.1016C19.5041 83.2287 19.5123 84.4272 18.6896 84.5657L17.6824 84.7353C15.4889 85.1055 13.7574 86.6911 13.3108 88.7395L12.8891 90.6736C12.7173 91.4617 11.6001 91.4441 11.4526 90.651L11.1243 88.8853C10.7299 86.7632 8.95814 85.1016 6.69527 84.7318L5.61617 84.5554C4.79085 84.4205 4.79622 83.2181 5.6227 83.0908L6.6911 82.9261C8.99748 82.5715 10.804 80.8765 11.1826 78.714L11.3942 77.5057Z" fill="url(#paint16_linear_6719_11245)"/>
<path d="M61.466 57.3993C61.3231 56.5832 60.165 56.5832 60.0221 57.3993L59.8105 58.6076C59.4319 60.7701 57.6254 62.4651 55.319 62.8197L54.2506 62.9844C53.4241 63.1118 53.4188 64.3141 54.2441 64.449L55.3232 64.6254C57.586 64.9952 59.3578 66.6568 59.7522 68.7789L60.0805 70.5446C60.228 71.3377 61.3453 71.3553 61.5171 70.5672L61.9387 68.6331C62.3853 66.5848 64.1168 64.9991 66.3103 64.6289L67.3175 64.4593C68.1402 64.3208 68.132 63.1223 67.3075 62.9952L66.1687 62.8197C63.8627 62.4651 62.0558 60.7701 61.6776 58.6076L61.466 57.3993Z" fill="url(#paint17_linear_6719_11245)"/>
</g>
<defs>
<linearGradient id="paint0_linear_6719_11245" x1="46" y1="0" x2="46" y2="103" gradientUnits="userSpaceOnUse">
<stop stop-color="#FFDB49"/>
<stop offset="0.527472" stop-color="#BB872C" stop-opacity="0.9"/>
<stop offset="0.985577" stop-color="#8B3C98" stop-opacity="0.4"/>
</linearGradient>
<linearGradient id="paint1_linear_6719_11245" x1="45.7934" y1="9.45921" x2="45.7934" y2="97" gradientUnits="userSpaceOnUse">
<stop stop-color="#FFF58A"/>
<stop offset="1" stop-color="#FFF58A" stop-opacity="0.1"/>
</linearGradient>
<linearGradient id="paint2_linear_6719_11245" x1="45.7934" y1="9.45921" x2="45.7934" y2="97" gradientUnits="userSpaceOnUse">
<stop stop-color="#FFF58A"/>
<stop offset="1" stop-color="#FFF58A" stop-opacity="0.1"/>
</linearGradient>
<linearGradient id="paint3_linear_6719_11245" x1="45.7934" y1="9.45921" x2="45.7934" y2="97" gradientUnits="userSpaceOnUse">
<stop stop-color="#FFF58A"/>
<stop offset="1" stop-color="#FFF58A" stop-opacity="0.1"/>
</linearGradient>
<linearGradient id="paint4_linear_6719_11245" x1="45.7934" y1="9.45921" x2="45.7934" y2="97" gradientUnits="userSpaceOnUse">
<stop stop-color="#FFF58A"/>
<stop offset="1" stop-color="#FFF58A" stop-opacity="0.1"/>
</linearGradient>
<linearGradient id="paint5_linear_6719_11245" x1="45.7934" y1="9.45921" x2="45.7934" y2="97" gradientUnits="userSpaceOnUse">
<stop stop-color="#FFF58A"/>
<stop offset="1" stop-color="#FFF58A" stop-opacity="0.1"/>
</linearGradient>
<linearGradient id="paint6_linear_6719_11245" x1="45.7934" y1="9.45921" x2="45.7934" y2="97" gradientUnits="userSpaceOnUse">
<stop stop-color="#FFF58A"/>
<stop offset="1" stop-color="#FFF58A" stop-opacity="0.1"/>
</linearGradient>
<linearGradient id="paint7_linear_6719_11245" x1="45.7934" y1="9.45921" x2="45.7934" y2="97" gradientUnits="userSpaceOnUse">
<stop stop-color="#FFF58A"/>
<stop offset="1" stop-color="#FFF58A" stop-opacity="0.1"/>
</linearGradient>
<linearGradient id="paint8_linear_6719_11245" x1="45.7934" y1="9.45921" x2="45.7934" y2="97" gradientUnits="userSpaceOnUse">
<stop stop-color="#FFF58A"/>
<stop offset="1" stop-color="#FFF58A" stop-opacity="0.1"/>
</linearGradient>
<linearGradient id="paint9_linear_6719_11245" x1="45.7934" y1="9.45921" x2="45.7934" y2="97" gradientUnits="userSpaceOnUse">
<stop stop-color="#FFF58A"/>
<stop offset="1" stop-color="#FFF58A" stop-opacity="0.1"/>
</linearGradient>
<linearGradient id="paint10_linear_6719_11245" x1="45.7934" y1="9.45921" x2="45.7934" y2="97" gradientUnits="userSpaceOnUse">
<stop stop-color="#FFF58A"/>
<stop offset="1" stop-color="#FFF58A" stop-opacity="0.1"/>
</linearGradient>
<linearGradient id="paint11_linear_6719_11245" x1="45.7934" y1="9.45921" x2="45.7934" y2="97" gradientUnits="userSpaceOnUse">
<stop stop-color="#FFF58A"/>
<stop offset="1" stop-color="#FFF58A" stop-opacity="0.1"/>
</linearGradient>
<linearGradient id="paint12_linear_6719_11245" x1="45.7934" y1="9.45921" x2="45.7934" y2="97" gradientUnits="userSpaceOnUse">
<stop stop-color="#FFF58A"/>
<stop offset="1" stop-color="#FFF58A" stop-opacity="0.1"/>
</linearGradient>
<linearGradient id="paint13_linear_6719_11245" x1="45.7934" y1="9.45921" x2="45.7934" y2="97" gradientUnits="userSpaceOnUse">
<stop stop-color="#FFF58A"/>
<stop offset="1" stop-color="#FFF58A" stop-opacity="0.1"/>
</linearGradient>
<linearGradient id="paint14_linear_6719_11245" x1="45.7934" y1="9.45921" x2="45.7934" y2="97" gradientUnits="userSpaceOnUse">
<stop stop-color="#FFF58A"/>
<stop offset="1" stop-color="#FFF58A" stop-opacity="0.1"/>
</linearGradient>
<linearGradient id="paint15_linear_6719_11245" x1="45.7934" y1="9.45921" x2="45.7934" y2="97" gradientUnits="userSpaceOnUse">
<stop stop-color="#FFF58A"/>
<stop offset="1" stop-color="#FFF58A" stop-opacity="0.1"/>
</linearGradient>
<linearGradient id="paint16_linear_6719_11245" x1="45.7934" y1="9.45921" x2="45.7934" y2="97" gradientUnits="userSpaceOnUse">
<stop stop-color="#FFF58A"/>
<stop offset="1" stop-color="#FFF58A" stop-opacity="0.1"/>
</linearGradient>
<linearGradient id="paint17_linear_6719_11245" x1="45.7934" y1="9.45921" x2="45.7934" y2="97" gradientUnits="userSpaceOnUse">
<stop stop-color="#FFF58A"/>
<stop offset="1" stop-color="#FFF58A" stop-opacity="0.1"/>
</linearGradient>
<clipPath id="clip0_6719_11245">
<rect width="92" height="103" fill="white"/>
</clipPath>
</defs>
</svg>
