<svg width="92" height="103" viewBox="0 0 92 103" preserveAspectRatio="xMidYMid slice" fill="none" xmlns="http://www.w3.org/2000/svg">
<g opacity="0.6" clip-path="url(#clip0_6719_10947)">
<rect width="92" height="103" fill="url(#paint0_linear_6719_10947)" fill-opacity="0.8"/>
<path d="M56.8877 3.70768L62.1631 -2.0955C62.7247 -2.71319 63.7431 -2.24622 63.6462 -1.41546L63.2904 1.63686C63.2353 2.10952 63.5716 2.5371 64.0416 2.5919L66.0299 2.82371C66.7587 2.90867 67.0499 3.81554 66.5086 4.31436L60.2298 10.1001C59.5454 10.7308 58.4926 9.97161 58.8677 9.11795L59.9885 6.5672C60.2217 6.0364 59.8775 5.43085 59.3046 5.36405L57.42 5.14433C56.7262 5.06345 56.4161 4.22647 56.8877 3.70768Z" fill="url(#paint1_linear_6719_10947)"/>
<path d="M7.88767 5.70768L13.1631 -0.0955038C13.7247 -0.713195 14.7431 -0.246221 14.6462 0.584535L14.2904 3.63686C14.2353 4.10952 14.5716 4.5371 15.0416 4.5919L17.0299 4.82371C17.7587 4.90867 18.0499 5.81554 17.5086 6.31436L11.2298 12.1001C10.5454 12.7308 9.49259 11.9716 9.86769 11.118L10.9885 8.5672C11.2217 8.0364 10.8775 7.43085 10.3046 7.36405L8.41998 7.14433C7.72618 7.06345 7.41606 6.22647 7.88767 5.70768Z" fill="url(#paint2_linear_6719_10947)"/>
<path d="M50.3424 18.6154L45.0669 24.4186C44.5953 24.9374 44.9054 25.7744 45.5992 25.8553L47.4839 26.075C48.0568 26.1418 48.401 26.7473 48.1678 27.2781L47.047 29.8289C46.6719 30.6825 47.7247 31.4417 48.4091 30.811L54.6879 25.0253C55.2292 24.5265 54.938 23.6196 54.2092 23.5346L52.2209 23.3028C51.7509 23.248 51.4145 22.8205 51.4696 22.3478L51.8255 19.2955C51.9223 18.4647 50.9039 17.9977 50.3424 18.6154Z" fill="url(#paint3_linear_6719_10947)"/>
<path d="M50.3424 72.6154L45.0669 78.4186C44.5953 78.9374 44.9054 79.7744 45.5992 79.8553L47.4839 80.075C48.0568 80.1418 48.401 80.7473 48.1678 81.2781L47.047 83.8289C46.6719 84.6825 47.7247 85.4417 48.4091 84.8111L54.6879 79.0253C55.2292 78.5265 54.938 77.6196 54.2092 77.5346L52.2209 77.3028C51.7509 77.248 51.4145 76.8205 51.4696 76.3478L51.8255 73.2955C51.9223 72.4647 50.9039 71.9977 50.3424 72.6154Z" fill="url(#paint4_linear_6719_10947)"/>
<path d="M13.1631 53.9045L7.88767 59.7077C7.41606 60.2265 7.72618 61.0634 8.41998 61.1443L10.3046 61.3641C10.8775 61.4308 11.2217 62.0364 10.9885 62.5672L9.86769 65.118C9.49259 65.9716 10.5454 66.7308 11.2298 66.1001L17.5086 60.3144C18.0499 59.8155 17.7587 58.9087 17.0299 58.8237L15.0416 58.5919C14.5716 58.5371 14.2353 58.1095 14.2904 57.6369L14.6462 54.5845C14.7431 53.7538 13.7247 53.2868 13.1631 53.9045Z" fill="url(#paint5_linear_6719_10947)"/>
<path d="M4.88767 28.7077L10.1631 22.9045C10.7247 22.2868 11.7431 22.7538 11.6462 23.5845L11.2904 26.6369C11.2353 27.1095 11.5716 27.5371 12.0416 27.5919L14.0299 27.8237C14.7587 27.9087 15.0499 28.8155 14.5086 29.3144L8.22981 35.1001C7.54542 35.7308 6.49259 34.9716 6.86769 34.118L7.9885 31.5672C8.22174 31.0364 7.87754 30.4308 7.30462 30.3641L5.41998 30.1443C4.72618 30.0634 4.41606 29.2265 4.88767 28.7077Z" fill="url(#paint6_linear_6719_10947)"/>
<path d="M10.1631 76.9045L4.88767 82.7077C4.41606 83.2265 4.72618 84.0634 5.41998 84.1443L7.30462 84.3641C7.87754 84.4308 8.22174 85.0364 7.9885 85.5672L6.86769 88.118C6.49259 88.9716 7.54542 89.7308 8.22981 89.1001L14.5086 83.3144C15.0499 82.8155 14.7587 81.9087 14.0299 81.8237L12.0416 81.5919C11.5716 81.5371 11.2353 81.1095 11.2904 80.6369L11.6462 77.5845C11.7431 76.7538 10.7247 76.2868 10.1631 76.9045Z" fill="url(#paint7_linear_6719_10947)"/>
<path d="M73.8877 22.7077L79.1632 16.9045C79.7247 16.2868 80.7431 16.7538 80.6463 17.5845L80.2904 20.6369C80.2353 21.1095 80.5716 21.5371 81.0416 21.5919L83.03 21.8237C83.7588 21.9087 84.05 22.8155 83.5086 23.3144L77.2298 29.1001C76.5454 29.7308 75.4926 28.9716 75.8677 28.118L76.9885 25.5672C77.2218 25.0364 76.8776 24.4308 76.3046 24.3641L74.42 24.1443C73.7262 24.0634 73.4161 23.2265 73.8877 22.7077Z" fill="url(#paint8_linear_6719_10947)"/>
<path d="M79.1632 70.9045L73.8877 76.7077C73.4161 77.2265 73.7262 78.0634 74.42 78.1443L76.3046 78.3641C76.8776 78.4308 77.2218 79.0364 76.9885 79.5672L75.8677 82.118C75.4926 82.9716 76.5454 83.7308 77.2298 83.1001L83.5086 77.3144C84.05 76.8155 83.7588 75.9087 83.03 75.8237L81.0416 75.5919C80.5716 75.5371 80.2353 75.1095 80.2904 74.6369L80.6463 71.5845C80.7431 70.7538 79.7247 70.2868 79.1632 70.9045Z" fill="url(#paint9_linear_6719_10947)"/>
<path d="M62.1631 51.9045L56.8877 57.7077C56.4161 58.2265 56.7262 59.0634 57.42 59.1443L59.3046 59.3641C59.8775 59.4308 60.2217 60.0364 59.9885 60.5672L58.8677 63.118C58.4926 63.9716 59.5454 64.7308 60.2298 64.1001L66.5086 58.3144C67.0499 57.8155 66.7587 56.9087 66.0299 56.8237L64.0416 56.5919C63.5716 56.5371 63.2353 56.1095 63.2904 55.6369L63.6462 52.5845C63.7431 51.7538 62.7247 51.2868 62.1631 51.9045Z" fill="url(#paint10_linear_6719_10947)"/>
<path d="M28.9098 11.8445L31.9773 8.47007C32.3038 8.1109 32.896 8.38243 32.8397 8.8655L32.6328 10.6404C32.6007 10.9152 32.7963 11.1638 33.0696 11.1957L34.2258 11.3305C34.6495 11.3799 34.8189 11.9072 34.5041 12.1973L30.8531 15.5615C30.4552 15.9282 29.843 15.4868 30.0611 14.9904L30.7128 13.5072C30.8484 13.1986 30.6483 12.8465 30.3151 12.8076L29.2193 12.6799C28.8158 12.6328 28.6355 12.1461 28.9098 11.8445Z" fill="url(#paint11_linear_6719_10947)"/>
<path d="M31.9773 62.4701L28.9098 65.8445C28.6355 66.1461 28.8158 66.6328 29.2193 66.6799L30.3151 66.8076C30.6483 66.8465 30.8484 67.1986 30.7128 67.5072L30.0611 68.9904C29.843 69.4868 30.4552 69.9282 30.8531 69.5615L34.5041 66.1973C34.8189 65.9072 34.6495 65.3799 34.2258 65.3305L33.0696 65.1957C32.7963 65.1638 32.6007 64.9152 32.6328 64.6404L32.8397 62.8655C32.896 62.3824 32.3038 62.1109 31.9773 62.4701Z" fill="url(#paint12_linear_6719_10947)"/>
<path d="M28.9098 40.9002L31.9773 37.5257C32.3038 37.1666 32.896 37.4381 32.8397 37.9212L32.6328 39.696C32.6007 39.9709 32.7963 40.2195 33.0696 40.2513L34.2258 40.3861C34.6495 40.4355 34.8189 40.9629 34.5041 41.2529L30.8531 44.6172C30.4552 44.9839 29.843 44.5425 30.0611 44.0461L30.7128 42.5629C30.8484 42.2542 30.6483 41.9021 30.3151 41.8633L29.2193 41.7355C28.8158 41.6885 28.6355 41.2018 28.9098 40.9002Z" fill="url(#paint13_linear_6719_10947)"/>
<path d="M31.9773 91.5257L28.9098 94.9002C28.6355 95.2018 28.8158 95.6885 29.2193 95.7355L30.3151 95.8633C30.6483 95.9021 30.8484 96.2542 30.7128 96.5629L30.0611 98.0461C29.843 98.5425 30.4552 98.9839 30.8531 98.6172L34.5041 95.2529C34.8189 94.9629 34.6495 94.4355 34.2258 94.3861L33.0696 94.2514C32.7963 94.2195 32.6007 93.9709 32.6328 93.696L32.8397 91.9212C32.896 91.4381 32.3038 91.1666 31.9773 91.5257Z" fill="url(#paint14_linear_6719_10947)"/>
<path d="M77.5162 39.9002L80.5838 36.5257C80.9103 36.1666 81.5024 36.4381 81.4461 36.9212L81.2392 38.696C81.2072 38.9709 81.4027 39.2195 81.676 39.2513L82.8322 39.3861C83.256 39.4355 83.4253 39.9629 83.1105 40.2529L79.4596 43.6172C79.0616 43.9839 78.4494 43.5425 78.6675 43.0461L79.3193 41.5629C79.4549 41.2542 79.2547 40.9021 78.9216 40.8633L77.8257 40.7355C77.4223 40.6885 77.242 40.2018 77.5162 39.9002Z" fill="url(#paint15_linear_6719_10947)"/>
<path d="M80.5838 90.5257L77.5162 93.9002C77.242 94.2018 77.4223 94.6885 77.8257 94.7355L78.9216 94.8633C79.2547 94.9021 79.4549 95.2542 79.3193 95.5629L78.6675 97.0461C78.4494 97.5425 79.0616 97.9839 79.4596 97.6172L83.1105 94.2529C83.4253 93.9629 83.256 93.4355 82.8322 93.3861L81.676 93.2514C81.4027 93.2195 81.2072 92.9709 81.2392 92.696L81.4461 90.9212C81.5024 90.4381 80.9103 90.1666 80.5838 90.5257Z" fill="url(#paint16_linear_6719_10947)"/>
<path d="M82.5162 2.90015L85.5838 -0.474265C85.9103 -0.833438 86.5024 -0.561904 86.4461 -0.0788386L86.2392 1.69602C86.2072 1.97086 86.4027 2.21949 86.676 2.25135L87.8322 2.38614C88.256 2.43555 88.4253 2.96287 88.1105 3.25292L84.4596 6.6172C84.0616 6.9839 83.4494 6.54248 83.6675 6.04609L84.3193 4.5629C84.4549 4.25424 84.2547 3.90213 83.9216 3.86329L82.8257 3.73553C82.4223 3.6885 82.242 3.20181 82.5162 2.90015Z" fill="url(#paint17_linear_6719_10947)"/>
<path d="M85.5838 53.5257L82.5162 56.9002C82.242 57.2018 82.4223 57.6885 82.8257 57.7355L83.9216 57.8633C84.2547 57.9021 84.4549 58.2542 84.3193 58.5629L83.6675 60.0461C83.4494 60.5425 84.0616 60.9839 84.4596 60.6172L88.1105 57.2529C88.4253 56.9629 88.256 56.4355 87.8322 56.3861L86.676 56.2513C86.4027 56.2195 86.2072 55.9709 86.2392 55.696L86.4461 53.9212C86.5024 53.4381 85.9103 53.1666 85.5838 53.5257Z" fill="url(#paint18_linear_6719_10947)"/>
</g>
<defs>
<linearGradient id="paint0_linear_6719_10947" x1="46" y1="-9.84559" x2="46" y2="103" gradientUnits="userSpaceOnUse">
<stop stop-color="#FF6392"/>
<stop offset="1" stop-color="#FF6392" stop-opacity="0.2"/>
</linearGradient>
<linearGradient id="paint1_linear_6719_10947" x1="46.2568" y1="0.384472" x2="46.2568" y2="96.499" gradientUnits="userSpaceOnUse">
<stop stop-color="#FF6392"/>
<stop offset="1" stop-color="#FF6392" stop-opacity="0.1"/>
</linearGradient>
<linearGradient id="paint2_linear_6719_10947" x1="46.2568" y1="0.384472" x2="46.2568" y2="96.499" gradientUnits="userSpaceOnUse">
<stop stop-color="#FF6392"/>
<stop offset="1" stop-color="#FF6392" stop-opacity="0.1"/>
</linearGradient>
<linearGradient id="paint3_linear_6719_10947" x1="46.2568" y1="0.384472" x2="46.2568" y2="96.499" gradientUnits="userSpaceOnUse">
<stop stop-color="#FF6392"/>
<stop offset="1" stop-color="#FF6392" stop-opacity="0.1"/>
</linearGradient>
<linearGradient id="paint4_linear_6719_10947" x1="46.2568" y1="0.384472" x2="46.2568" y2="96.499" gradientUnits="userSpaceOnUse">
<stop stop-color="#FF6392"/>
<stop offset="1" stop-color="#FF6392" stop-opacity="0.1"/>
</linearGradient>
<linearGradient id="paint5_linear_6719_10947" x1="46.2568" y1="0.384472" x2="46.2568" y2="96.499" gradientUnits="userSpaceOnUse">
<stop stop-color="#FF6392"/>
<stop offset="1" stop-color="#FF6392" stop-opacity="0.1"/>
</linearGradient>
<linearGradient id="paint6_linear_6719_10947" x1="46.2568" y1="0.384472" x2="46.2568" y2="96.499" gradientUnits="userSpaceOnUse">
<stop stop-color="#FF6392"/>
<stop offset="1" stop-color="#FF6392" stop-opacity="0.1"/>
</linearGradient>
<linearGradient id="paint7_linear_6719_10947" x1="46.2568" y1="0.384472" x2="46.2568" y2="96.499" gradientUnits="userSpaceOnUse">
<stop stop-color="#FF6392"/>
<stop offset="1" stop-color="#FF6392" stop-opacity="0.1"/>
</linearGradient>
<linearGradient id="paint8_linear_6719_10947" x1="46.2568" y1="0.384472" x2="46.2568" y2="96.499" gradientUnits="userSpaceOnUse">
<stop stop-color="#FF6392"/>
<stop offset="1" stop-color="#FF6392" stop-opacity="0.1"/>
</linearGradient>
<linearGradient id="paint9_linear_6719_10947" x1="46.2568" y1="0.384472" x2="46.2568" y2="96.499" gradientUnits="userSpaceOnUse">
<stop stop-color="#FF6392"/>
<stop offset="1" stop-color="#FF6392" stop-opacity="0.1"/>
</linearGradient>
<linearGradient id="paint10_linear_6719_10947" x1="46.2568" y1="0.384472" x2="46.2568" y2="96.499" gradientUnits="userSpaceOnUse">
<stop stop-color="#FF6392"/>
<stop offset="1" stop-color="#FF6392" stop-opacity="0.1"/>
</linearGradient>
<linearGradient id="paint11_linear_6719_10947" x1="46.2568" y1="0.384472" x2="46.2568" y2="96.499" gradientUnits="userSpaceOnUse">
<stop stop-color="#FF6392"/>
<stop offset="1" stop-color="#FF6392" stop-opacity="0.1"/>
</linearGradient>
<linearGradient id="paint12_linear_6719_10947" x1="46.2568" y1="0.384472" x2="46.2568" y2="96.499" gradientUnits="userSpaceOnUse">
<stop stop-color="#FF6392"/>
<stop offset="1" stop-color="#FF6392" stop-opacity="0.1"/>
</linearGradient>
<linearGradient id="paint13_linear_6719_10947" x1="46.2568" y1="0.384472" x2="46.2568" y2="96.499" gradientUnits="userSpaceOnUse">
<stop stop-color="#FF6392"/>
<stop offset="1" stop-color="#FF6392" stop-opacity="0.1"/>
</linearGradient>
<linearGradient id="paint14_linear_6719_10947" x1="46.2568" y1="0.384472" x2="46.2568" y2="96.499" gradientUnits="userSpaceOnUse">
<stop stop-color="#FF6392"/>
<stop offset="1" stop-color="#FF6392" stop-opacity="0.1"/>
</linearGradient>
<linearGradient id="paint15_linear_6719_10947" x1="46.2568" y1="0.384472" x2="46.2568" y2="96.499" gradientUnits="userSpaceOnUse">
<stop stop-color="#FF6392"/>
<stop offset="1" stop-color="#FF6392" stop-opacity="0.1"/>
</linearGradient>
<linearGradient id="paint16_linear_6719_10947" x1="46.2568" y1="0.384472" x2="46.2568" y2="96.499" gradientUnits="userSpaceOnUse">
<stop stop-color="#FF6392"/>
<stop offset="1" stop-color="#FF6392" stop-opacity="0.1"/>
</linearGradient>
<linearGradient id="paint17_linear_6719_10947" x1="46.2568" y1="0.384472" x2="46.2568" y2="96.499" gradientUnits="userSpaceOnUse">
<stop stop-color="#FF6392"/>
<stop offset="1" stop-color="#FF6392" stop-opacity="0.1"/>
</linearGradient>
<linearGradient id="paint18_linear_6719_10947" x1="46.2568" y1="0.384472" x2="46.2568" y2="96.499" gradientUnits="userSpaceOnUse">
<stop stop-color="#FF6392"/>
<stop offset="1" stop-color="#FF6392" stop-opacity="0.1"/>
</linearGradient>
<clipPath id="clip0_6719_10947">
<rect width="92" height="103" fill="white"/>
</clipPath>
</defs>
</svg>
