<svg width="92" height="103" viewBox="0 0 92 103" preserveAspectRatio="xMidYMid slice" fill="none" xmlns="http://www.w3.org/2000/svg">
<g clip-path="url(#clip0_6744_934)">
<rect width="92" height="103" fill="url(#paint0_linear_6744_934)" fill-opacity="0.5"/>
<path fill-rule="evenodd" clip-rule="evenodd" d="M59.9106 3.94537C59.9106 6.02998 58.4128 7.59076 56.7129 7.59076C56.322 7.59076 55.949 7.51123 55.6037 7.3654C55.126 7.1636 54.6354 7.32135 54.3358 7.63666C54.0255 7.96333 53.8687 8.5238 54.1377 9.04825C55.0279 10.7834 56.7323 12 58.7292 12C61.7064 12 64 9.32987 64 6.19537C64 4.0781 62.9668 2.19771 61.3858 1.18055C60.9011 0.868765 60.3505 0.993672 60.0144 1.30518C59.6905 1.60546 59.519 2.11395 59.6925 2.6197C59.8328 3.02842 59.9106 3.47498 59.9106 3.94537ZM55.5665 9.33711C55.6608 9.45525 55.7604 9.56807 55.8648 9.67512C56.6187 10.4483 57.6245 10.9204 58.7292 10.9204C61.0678 10.9204 62.9635 8.80493 62.9635 6.19537C62.9635 5.01113 62.5731 3.92865 61.928 3.09946C61.8163 2.9558 61.6969 2.81975 61.5706 2.69208C61.3734 2.49286 61.1594 2.31407 60.9311 2.1587C60.9014 2.13842 60.8713 2.11854 60.8411 2.09907C60.743 2.03597 60.6298 2.14334 60.6686 2.25641C60.6783 2.28475 60.6878 2.31323 60.6971 2.34184C60.7813 2.60249 60.8456 2.87379 60.8879 3.15343C60.9079 3.28557 60.923 3.41957 60.9329 3.5552C60.9423 3.68386 60.9472 3.81399 60.9472 3.94537C60.9472 6.55493 59.0514 8.67037 56.7129 8.67037C56.5973 8.67037 56.4828 8.66521 56.3696 8.65507C56.2671 8.6459 56.1657 8.63265 56.0654 8.61548C55.8016 8.57032 55.5458 8.49798 55.3005 8.40112C55.2716 8.38971 55.2428 8.37796 55.2142 8.36587C55.1074 8.32075 54.9976 8.43354 55.0519 8.53944C55.0697 8.57412 55.0879 8.60852 55.1064 8.64264C55.2409 8.8899 55.395 9.1223 55.5665 9.33711Z" fill="url(#paint1_linear_6744_934)" fill-opacity="0.5"/>
<path fill-rule="evenodd" clip-rule="evenodd" d="M11.9106 5.94537C11.9106 8.02998 10.4128 9.59076 8.7129 9.59076C8.32203 9.59076 7.94897 9.51123 7.60375 9.3654C7.12601 9.1636 6.63536 9.32135 6.33582 9.63666C6.02549 9.96333 5.86866 10.5238 6.13772 11.0483C7.02792 12.7834 8.73227 14 10.7292 14C13.7064 14 16 11.3299 16 8.19537C16 6.0781 14.9668 4.19771 13.3858 3.18055C12.9011 2.86876 12.3505 2.99367 12.0144 3.30518C11.6905 3.60546 11.519 4.11395 11.6925 4.6197C11.8328 5.02842 11.9106 5.47498 11.9106 5.94537ZM7.56653 11.3371C7.66084 11.4553 7.76039 11.5681 7.86476 11.6751C8.61867 12.4483 9.62453 12.9204 10.7292 12.9204C13.0678 12.9204 14.9635 10.8049 14.9635 8.19537C14.9635 7.01113 14.5731 5.92865 13.928 5.09946C13.8163 4.9558 13.6969 4.81975 13.5706 4.69208C13.3734 4.49286 13.1594 4.31406 12.9311 4.1587C12.9014 4.13842 12.8713 4.11854 12.8411 4.09907C12.743 4.03597 12.6298 4.14334 12.6686 4.25641C12.6783 4.28475 12.6878 4.31323 12.6971 4.34184C12.7813 4.60249 12.8456 4.87379 12.8879 5.15343C12.9079 5.28557 12.923 5.41957 12.9329 5.5552C12.9423 5.68386 12.9472 5.81399 12.9472 5.94537C12.9472 8.55493 11.0514 10.6704 8.7129 10.6704C8.59733 10.6704 8.48284 10.6652 8.36962 10.6551C8.26715 10.6459 8.16571 10.6327 8.06543 10.6155C7.80163 10.5703 7.54585 10.498 7.30046 10.4011C7.27156 10.3897 7.24281 10.378 7.2142 10.3659C7.10736 10.3207 6.99759 10.4335 7.05192 10.5394C7.06971 10.5741 7.08789 10.6085 7.10643 10.6426C7.24086 10.8899 7.39504 11.1223 7.56653 11.3371Z" fill="url(#paint2_linear_6744_934)" fill-opacity="0.5"/>
<path fill-rule="evenodd" clip-rule="evenodd" d="M77.9106 19.9454C77.9106 22.03 76.4128 23.5908 74.7129 23.5908C74.322 23.5908 73.949 23.5112 73.6037 23.3654C73.126 23.1636 72.6354 23.3214 72.3358 23.6367C72.0255 23.9633 71.8687 24.5238 72.1377 25.0483C73.0279 26.7834 74.7323 28 76.7292 28C79.7064 28 82 25.3299 82 22.1954C82 20.0781 80.9668 18.1977 79.3858 17.1805C78.9011 16.8688 78.3505 16.9937 78.0144 17.3052C77.6905 17.6055 77.519 18.1139 77.6925 18.6197C77.8328 19.0284 77.9106 19.475 77.9106 19.9454ZM73.5665 25.3371C73.6608 25.4553 73.7604 25.5681 73.8648 25.6751C74.6187 26.4483 75.6245 26.9204 76.7292 26.9204C79.0678 26.9204 80.9635 24.8049 80.9635 22.1954C80.9635 21.0111 80.5731 19.9287 79.928 19.0995C79.8163 18.9558 79.6969 18.8197 79.5706 18.6921C79.3734 18.4929 79.1594 18.3141 78.9311 18.1587C78.9014 18.1384 78.8713 18.1185 78.8411 18.0991C78.743 18.036 78.6298 18.1433 78.6686 18.2564L78.6788 18.2865L78.6901 18.3205L78.6971 18.3418C78.7813 18.6025 78.8456 18.8738 78.8879 19.1534C78.9079 19.2856 78.923 19.4196 78.9329 19.5552C78.9423 19.6839 78.9472 19.814 78.9472 19.9454C78.9472 22.5549 77.0514 24.6704 74.7129 24.6704C74.5973 24.6704 74.4828 24.6652 74.3696 24.6551C74.2671 24.6459 74.1657 24.6327 74.0654 24.6155C73.8016 24.5703 73.5459 24.498 73.3005 24.4011C73.2716 24.3897 73.2428 24.378 73.2142 24.3659C73.1074 24.3207 72.9976 24.4335 73.0519 24.5394C73.0697 24.5741 73.0879 24.6085 73.1064 24.6426C73.2409 24.8899 73.395 25.1223 73.5665 25.3371Z" fill="url(#paint3_linear_6744_934)" fill-opacity="0.5"/>
<path fill-rule="evenodd" clip-rule="evenodd" d="M6.7129 28.5908C8.41283 28.5908 9.91062 27.03 9.91062 24.9454C9.91062 24.475 9.83276 24.0284 9.69253 23.6197C9.51902 23.1139 9.69047 22.6055 10.0144 22.3052C10.3505 21.9937 10.9011 21.8688 11.3858 22.1805C12.9668 23.1977 14 25.0781 14 27.1954C14 30.3299 11.7064 33 8.72921 33C6.73227 33 5.02792 31.7834 4.13772 30.0483C3.86866 29.5238 4.02549 28.9633 4.33582 28.6367C4.63536 28.3214 5.12601 28.1636 5.60375 28.3654C5.94897 28.5112 6.32203 28.5908 6.7129 28.5908ZM5.86476 30.6751C5.76039 30.5681 5.66084 30.4553 5.56653 30.3371C5.39504 30.1223 5.24086 29.8899 5.10643 29.6426C5.08789 29.6085 5.06971 29.5741 5.05192 29.5394C4.99759 29.4335 5.10736 29.3207 5.2142 29.3659C5.24281 29.378 5.27156 29.3897 5.30046 29.4011C5.54585 29.498 5.80163 29.5703 6.06543 29.6155C6.16571 29.6327 6.26715 29.6459 6.36962 29.6551C6.48284 29.6652 6.59733 29.6704 6.7129 29.6704C9.05145 29.6704 10.9472 27.5549 10.9472 24.9454C10.9472 24.814 10.9423 24.6839 10.9329 24.5552C10.923 24.4196 10.9079 24.2856 10.8879 24.1534C10.8456 23.8738 10.7813 23.6025 10.6971 23.3418C10.6878 23.3132 10.6783 23.2848 10.6686 23.2564C10.6298 23.1433 10.743 23.036 10.8411 23.0991C10.8713 23.1185 10.9014 23.1384 10.9311 23.1587C11.1594 23.3141 11.3734 23.4929 11.5706 23.6921C11.6969 23.8197 11.8163 23.9558 11.928 24.0995C12.5731 24.9287 12.9635 26.0111 12.9635 27.1954C12.9635 29.8049 11.0678 31.9204 8.72921 31.9204C7.62453 31.9204 6.61867 31.4483 5.86476 30.6751Z" fill="url(#paint4_linear_6744_934)" fill-opacity="0.5"/>
<path fill-rule="evenodd" clip-rule="evenodd" d="M47.7129 25.5908C49.4128 25.5908 50.9106 24.03 50.9106 21.9454C50.9106 21.475 50.8328 21.0284 50.6925 20.6197C50.519 20.1139 50.6905 19.6055 51.0144 19.3052C51.3505 18.9937 51.9011 18.8688 52.3858 19.1805C53.9668 20.1977 55 22.0781 55 24.1954C55 27.3299 52.7064 30 49.7292 30C47.7323 30 46.0279 28.7834 45.1377 27.0483C44.8687 26.5238 45.0255 25.9633 45.3358 25.6367C45.6354 25.3214 46.126 25.1636 46.6037 25.3654C46.949 25.5112 47.322 25.5908 47.7129 25.5908ZM46.8648 27.6751C46.7604 27.5681 46.6608 27.4553 46.5665 27.3371C46.395 27.1223 46.2409 26.8899 46.1064 26.6426C46.0879 26.6085 46.0697 26.5741 46.0519 26.5394C45.9976 26.4335 46.1074 26.3207 46.2142 26.3659C46.2428 26.378 46.2716 26.3897 46.3005 26.4011C46.5458 26.498 46.8016 26.5703 47.0654 26.6155C47.1657 26.6327 47.2671 26.6459 47.3696 26.6551C47.4828 26.6652 47.5973 26.6704 47.7129 26.6704C50.0514 26.6704 51.9472 24.5549 51.9472 21.9454C51.9472 21.814 51.9423 21.6839 51.9329 21.5552C51.923 21.4196 51.9079 21.2856 51.8879 21.1534C51.8456 20.8738 51.7813 20.6025 51.6971 20.3418C51.6878 20.3132 51.6783 20.2848 51.6686 20.2564C51.6298 20.1433 51.743 20.036 51.8411 20.0991C51.8713 20.1185 51.9014 20.1384 51.9311 20.1587C52.1594 20.3141 52.3734 20.4929 52.5706 20.6921C52.6969 20.8197 52.8163 20.9558 52.928 21.0995C53.5731 21.9287 53.9635 23.0111 53.9635 24.1954C53.9635 26.8049 52.0678 28.9204 49.7292 28.9204C48.6245 28.9204 47.6187 28.4483 46.8648 27.6751Z" fill="url(#paint5_linear_6744_934)" fill-opacity="0.5"/>
<path fill-rule="evenodd" clip-rule="evenodd" d="M30.5464 9.87432C30.5464 11.2009 29.6477 12.1941 28.6277 12.1941C28.3932 12.1941 28.1694 12.1435 27.9622 12.0507C27.6756 11.9223 27.3812 12.0227 27.2015 12.2233C27.0153 12.4312 26.9212 12.7879 27.0826 13.1216C27.6168 14.2258 28.6394 15 29.8375 15C31.6238 15 33 13.3008 33 11.3061C33 9.95879 32.3801 8.76218 31.4315 8.11489C31.1407 7.91649 30.8103 7.99597 30.6087 8.1942C30.4143 8.38529 30.3114 8.70888 30.4155 9.03071C30.4997 9.29081 30.5464 9.57499 30.5464 9.87432ZM27.9399 13.3054C27.9965 13.3806 28.0562 13.4524 28.1189 13.5205C28.5712 14.0126 29.1747 14.313 29.8375 14.313C31.2407 14.313 32.3781 12.9668 32.3781 11.3061C32.3781 10.5525 32.1438 9.86369 31.7568 9.33602C31.6898 9.2446 31.6181 9.15802 31.5423 9.07678C31.4241 8.95 31.2956 8.83622 31.1587 8.73736C31.1408 8.72445 31.1228 8.7118 31.1046 8.69941C31.0458 8.65925 30.9779 8.72758 31.0012 8.79953C31.007 8.81757 31.0127 8.83569 31.0182 8.8539C31.0688 9.01977 31.1074 9.19241 31.1328 9.37036C31.1448 9.45445 31.1538 9.53973 31.1598 9.62603C31.1654 9.70791 31.1683 9.79072 31.1683 9.87432C31.1683 11.535 30.0309 12.8811 28.6277 12.8811C28.5584 12.8811 28.4897 12.8779 28.4218 12.8714C28.3603 12.8656 28.2994 12.8571 28.2393 12.8462C28.081 12.8175 27.9275 12.7714 27.7803 12.7098C27.7629 12.7025 27.7457 12.6951 27.7285 12.6874C27.6644 12.6587 27.5986 12.7304 27.6312 12.7978C27.6418 12.8199 27.6527 12.8418 27.6639 12.8635C27.7445 13.0208 27.837 13.1687 27.9399 13.3054Z" fill="url(#paint6_linear_6744_934)" fill-opacity="0.5"/>
<path fill-rule="evenodd" clip-rule="evenodd" d="M85.6277 6.19412C86.6477 6.19412 87.5464 5.2009 87.5464 3.87432C87.5464 3.57499 87.4996 3.29081 87.4155 3.03071C87.3114 2.70888 87.4143 2.38529 87.6087 2.1942C87.8103 1.99597 88.1407 1.91649 88.4315 2.11489C89.3801 2.76218 90 3.95879 90 5.30614C90 7.30083 88.6238 9 86.8375 9C85.6394 9 84.6168 8.22583 84.0826 7.12162C83.9212 6.78787 84.0153 6.43121 84.2015 6.22333C84.3812 6.02268 84.6756 5.92229 84.9622 6.05071C85.1694 6.14351 85.3932 6.19412 85.6277 6.19412ZM85.1189 7.52053C85.0562 7.45241 84.9965 7.38062 84.9399 7.30544C84.837 7.16874 84.7445 7.02084 84.6639 6.8635C84.6527 6.84179 84.6418 6.81989 84.6312 6.79783C84.5986 6.73043 84.6644 6.65866 84.7285 6.68738C84.7457 6.69507 84.7629 6.70254 84.7803 6.7098C84.9275 6.77144 85.081 6.81747 85.2393 6.84622C85.2994 6.85714 85.3603 6.86557 85.4218 6.87141C85.4897 6.87786 85.5584 6.88115 85.6277 6.88115C87.0309 6.88115 88.1683 5.53495 88.1683 3.87432C88.1683 3.79072 88.1654 3.70791 88.1598 3.62603C88.1538 3.53973 88.1448 3.45445 88.1328 3.37036C88.1074 3.19241 88.0688 3.01977 88.0182 2.8539C88.0127 2.83569 88.007 2.81757 88.0012 2.79953C87.9779 2.72758 88.0458 2.65925 88.1046 2.69941C88.1228 2.7118 88.1408 2.72445 88.1587 2.73736C88.2956 2.83622 88.424 2.95 88.5423 3.07678C88.6181 3.15802 88.6898 3.2446 88.7568 3.33602C89.1438 3.86369 89.3781 4.55254 89.3781 5.30614C89.3781 6.96677 88.2407 8.31297 86.8375 8.31297C86.1747 8.31297 85.5712 8.01257 85.1189 7.52053Z" fill="url(#paint7_linear_6744_934)" fill-opacity="0.5"/>
<path fill-rule="evenodd" clip-rule="evenodd" d="M81.5464 37.8743C81.5464 39.2009 80.6477 40.1941 79.6277 40.1941C79.3932 40.1941 79.1694 40.1435 78.9622 40.0507C78.6756 39.9223 78.3812 40.0227 78.2015 40.2233C78.0153 40.4312 77.9212 40.7879 78.0826 41.1216C78.6168 42.2258 79.6394 43 80.8375 43C82.6238 43 84 41.3008 84 39.3061C84 37.9588 83.3801 36.7622 82.4315 36.1149C82.1407 35.9165 81.8103 35.996 81.6087 36.1942C81.4143 36.3853 81.3114 36.7089 81.4155 37.0307C81.4996 37.2908 81.5464 37.575 81.5464 37.8743ZM78.9399 41.3054C78.9965 41.3806 79.0562 41.4524 79.1189 41.5205C79.5712 42.0126 80.1747 42.313 80.8375 42.313C82.2407 42.313 83.3781 40.9668 83.3781 39.3061C83.3781 38.5525 83.1438 37.8637 82.7568 37.336C82.6898 37.2446 82.6181 37.158 82.5423 37.0768C82.424 36.95 82.2956 36.8362 82.1587 36.7374C82.1408 36.7244 82.1228 36.7118 82.1046 36.6994C82.0458 36.6593 81.9779 36.7276 82.0012 36.7995C82.007 36.8176 82.0127 36.8357 82.0182 36.8539C82.0688 37.0198 82.1074 37.1924 82.1328 37.3704C82.1448 37.4545 82.1538 37.5397 82.1598 37.626C82.1654 37.7079 82.1683 37.7907 82.1683 37.8743C82.1683 39.535 81.0309 40.8811 79.6277 40.8811C79.5584 40.8811 79.4897 40.8779 79.4218 40.8714C79.3603 40.8656 79.2994 40.8571 79.2393 40.8462C79.081 40.8175 78.9275 40.7714 78.7803 40.7098C78.7629 40.7025 78.7457 40.6951 78.7285 40.6874C78.6644 40.6587 78.5986 40.7304 78.6312 40.7978L78.6472 40.8305L78.6639 40.8635C78.7445 41.0208 78.837 41.1687 78.9399 41.3054Z" fill="url(#paint8_linear_6744_934)" fill-opacity="0.5"/>
<path fill-rule="evenodd" clip-rule="evenodd" d="M29.6277 41.1941C30.6477 41.1941 31.5464 40.2009 31.5464 38.8743C31.5464 38.575 31.4997 38.2908 31.4155 38.0307C31.3114 37.7089 31.4143 37.3853 31.6087 37.1942C31.8103 36.996 32.1407 36.9165 32.4315 37.1149C33.3801 37.7622 34 38.9588 34 40.3061C34 42.3008 32.6238 44 30.8375 44C29.6394 44 28.6168 43.2258 28.0826 42.1216C27.9212 41.7879 28.0153 41.4312 28.2015 41.2233C28.3812 41.0227 28.6756 40.9223 28.9622 41.0507C29.1694 41.1435 29.3932 41.1941 29.6277 41.1941ZM29.1189 42.5205C29.0562 42.4524 28.9965 42.3806 28.9399 42.3054C28.837 42.1687 28.7445 42.0208 28.6639 41.8635C28.6527 41.8418 28.6418 41.8199 28.6312 41.7978C28.5986 41.7304 28.6644 41.6587 28.7285 41.6874C28.7457 41.6951 28.7629 41.7025 28.7803 41.7098C28.9275 41.7714 29.081 41.8175 29.2393 41.8462C29.2994 41.8571 29.3603 41.8656 29.4218 41.8714C29.4897 41.8779 29.5584 41.8811 29.6277 41.8811C31.0309 41.8811 32.1683 40.535 32.1683 38.8743C32.1683 38.7907 32.1654 38.7079 32.1598 38.626C32.1538 38.5397 32.1448 38.4545 32.1328 38.3704C32.1074 38.1924 32.0688 38.0198 32.0182 37.8539C32.0127 37.8357 32.007 37.8176 32.0012 37.7995C31.9779 37.7276 32.0458 37.6593 32.1046 37.6994C32.1228 37.7118 32.1408 37.7244 32.1587 37.7374C32.2956 37.8362 32.4241 37.95 32.5423 38.0768C32.6181 38.158 32.6898 38.2446 32.7568 38.336C33.1438 38.8637 33.3781 39.5525 33.3781 40.3061C33.3781 41.9668 32.2407 43.313 30.8375 43.313C30.1747 43.313 29.5712 43.0126 29.1189 42.5205Z" fill="url(#paint9_linear_6744_934)" fill-opacity="0.5"/>
<path fill-rule="evenodd" clip-rule="evenodd" d="M11.9106 56.9454C11.9106 59.03 10.4128 60.5908 8.7129 60.5908C8.32203 60.5908 7.94897 60.5112 7.60375 60.3654C7.12601 60.1636 6.63536 60.3214 6.33582 60.6367C6.02549 60.9633 5.86866 61.5238 6.13772 62.0483C7.02792 63.7834 8.73227 65 10.7292 65C13.7064 65 16 62.3299 16 59.1954C16 57.0781 14.9668 55.1977 13.3858 54.1805C12.9011 53.8688 12.3505 53.9937 12.0144 54.3052C11.6905 54.6055 11.519 55.1139 11.6925 55.6197C11.8328 56.0284 11.9106 56.475 11.9106 56.9454ZM7.56653 62.3371C7.66084 62.4553 7.76039 62.5681 7.86476 62.6751C8.61867 63.4483 9.62453 63.9204 10.7292 63.9204C13.0678 63.9204 14.9635 61.8049 14.9635 59.1954C14.9635 58.0111 14.5731 56.9287 13.928 56.0995C13.8163 55.9558 13.6969 55.8197 13.5706 55.6921C13.3734 55.4929 13.1594 55.3141 12.9311 55.1587C12.9014 55.1384 12.8713 55.1185 12.8411 55.0991C12.743 55.036 12.6298 55.1433 12.6686 55.2564C12.6783 55.2848 12.6878 55.3132 12.6971 55.3418C12.7813 55.6025 12.8456 55.8738 12.8879 56.1534C12.9079 56.2856 12.923 56.4196 12.9329 56.5552C12.9423 56.6839 12.9472 56.814 12.9472 56.9454C12.9472 59.5549 11.0514 61.6704 8.7129 61.6704C8.59733 61.6704 8.48284 61.6652 8.36962 61.6551C8.26715 61.6459 8.16571 61.6327 8.06543 61.6155C7.80163 61.5703 7.54585 61.498 7.30046 61.4011C7.27156 61.3897 7.24281 61.378 7.2142 61.3659C7.10736 61.3207 6.99759 61.4335 7.05192 61.5394C7.06971 61.5741 7.08789 61.6085 7.10643 61.6426C7.24086 61.8899 7.39504 62.1223 7.56653 62.3371Z" fill="url(#paint10_linear_6744_934)" fill-opacity="0.5"/>
<path fill-rule="evenodd" clip-rule="evenodd" d="M74.7129 74.5908C76.4128 74.5908 77.9106 73.03 77.9106 70.9454C77.9106 70.475 77.8328 70.0284 77.6925 69.6197C77.519 69.114 77.6905 68.6055 78.0144 68.3052C78.3505 67.9937 78.9011 67.8688 79.3858 68.1805C80.9668 69.1977 82 71.0781 82 73.1954C82 76.3299 79.7064 79 76.7292 79C74.7323 79 73.0279 77.7834 72.1377 76.0483C71.8687 75.5238 72.0255 74.9633 72.3358 74.6367C72.6354 74.3214 73.126 74.1636 73.6037 74.3654C73.949 74.5112 74.322 74.5908 74.7129 74.5908ZM73.8648 76.6751C73.7604 76.5681 73.6608 76.4553 73.5665 76.3371C73.395 76.1223 73.2409 75.8899 73.1064 75.6426C73.0879 75.6085 73.0697 75.5741 73.0519 75.5394C72.9976 75.4335 73.1074 75.3207 73.2142 75.3659L73.2383 75.3759L73.2653 75.387L73.3005 75.4011C73.5459 75.498 73.8016 75.5703 74.0654 75.6155C74.1657 75.6327 74.2671 75.6459 74.3696 75.6551C74.4828 75.6652 74.5973 75.6704 74.7129 75.6704C77.0514 75.6704 78.9472 73.5549 78.9472 70.9454C78.9472 70.814 78.9423 70.6839 78.9329 70.5552C78.923 70.4196 78.9079 70.2856 78.8879 70.1534C78.8456 69.8738 78.7813 69.6025 78.6971 69.3418L78.684 69.3018L78.6686 69.2564C78.6298 69.1433 78.743 69.036 78.8411 69.0991L78.8711 69.1186L78.9011 69.1384L78.9311 69.1587C79.1594 69.3141 79.3734 69.4929 79.5706 69.6921C79.6969 69.8197 79.8163 69.9558 79.928 70.0995C80.5731 70.9286 80.9635 72.0111 80.9635 73.1954C80.9635 75.8049 79.0678 77.9204 76.7292 77.9204C75.6245 77.9204 74.6187 77.4483 73.8648 76.6751Z" fill="url(#paint11_linear_6744_934)" fill-opacity="0.5"/>
<path fill-rule="evenodd" clip-rule="evenodd" d="M9.91062 75.9454C9.91062 78.03 8.41283 79.5908 6.7129 79.5908C6.32203 79.5908 5.94897 79.5112 5.60375 79.3654C5.12601 79.1636 4.63536 79.3214 4.33582 79.6367C4.02549 79.9633 3.86866 80.5238 4.13772 81.0483C5.02792 82.7834 6.73227 84 8.72921 84C11.7064 84 14 81.3299 14 78.1954C14 76.0781 12.9668 74.1977 11.3858 73.1805C10.9011 72.8688 10.3505 72.9937 10.0144 73.3052C9.69047 73.6055 9.51902 74.114 9.69253 74.6197C9.83276 75.0284 9.91062 75.475 9.91062 75.9454ZM5.56653 81.3371C5.66084 81.4553 5.76039 81.5681 5.86476 81.6751C6.61867 82.4483 7.62453 82.9204 8.72921 82.9204C11.0678 82.9204 12.9635 80.8049 12.9635 78.1954C12.9635 77.0111 12.5731 75.9286 11.928 75.0995C11.8163 74.9558 11.6969 74.8197 11.5706 74.6921C11.3734 74.4929 11.1594 74.3141 10.9311 74.1587C10.9014 74.1384 10.8713 74.1185 10.8411 74.0991C10.743 74.036 10.6298 74.1433 10.6686 74.2564C10.6783 74.2848 10.6878 74.3132 10.6971 74.3418C10.7813 74.6025 10.8456 74.8738 10.8879 75.1534C10.9079 75.2856 10.923 75.4196 10.9329 75.5552C10.9423 75.6839 10.9472 75.814 10.9472 75.9454C10.9472 78.5549 9.05145 80.6704 6.7129 80.6704C6.59733 80.6704 6.48284 80.6652 6.36962 80.6551C6.26715 80.6459 6.16571 80.6327 6.06543 80.6155C5.80163 80.5703 5.54585 80.498 5.30046 80.4011C5.27156 80.3897 5.24281 80.378 5.2142 80.3659C5.10736 80.3207 4.99759 80.4335 5.05192 80.5394C5.06971 80.5741 5.08789 80.6085 5.10643 80.6426C5.24086 80.8899 5.39504 81.1223 5.56653 81.3371Z" fill="url(#paint12_linear_6744_934)" fill-opacity="0.5"/>
<path fill-rule="evenodd" clip-rule="evenodd" d="M56.7129 58.5908C58.4128 58.5908 59.9106 57.03 59.9106 54.9454C59.9106 54.475 59.8328 54.0284 59.6925 53.6197C59.519 53.1139 59.6905 52.6055 60.0144 52.3052C60.3505 51.9937 60.9011 51.8688 61.3858 52.1805C62.9668 53.1977 64 55.0781 64 57.1954C64 60.3299 61.7064 63 58.7292 63C56.7323 63 55.0279 61.7834 54.1377 60.0483C53.8687 59.5238 54.0255 58.9633 54.3358 58.6367C54.6354 58.3214 55.126 58.1636 55.6037 58.3654C55.949 58.5112 56.322 58.5908 56.7129 58.5908ZM55.8648 60.6751C55.7604 60.5681 55.6608 60.4553 55.5665 60.3371C55.395 60.1223 55.2409 59.8899 55.1064 59.6426C55.0879 59.6085 55.0697 59.5741 55.0519 59.5394C54.9976 59.4335 55.1074 59.3207 55.2142 59.3659C55.23 59.3726 55.2459 59.3791 55.2618 59.3856L55.3005 59.4011C55.5458 59.498 55.8016 59.5703 56.0654 59.6155C56.1657 59.6327 56.2671 59.6459 56.3696 59.6551C56.4828 59.6652 56.5973 59.6704 56.7129 59.6704C59.0514 59.6704 60.9472 57.5549 60.9472 54.9454C60.9472 54.814 60.9423 54.6839 60.9329 54.5552C60.923 54.4196 60.9079 54.2856 60.8879 54.1534C60.8456 53.8738 60.7813 53.6025 60.6971 53.3418C60.6878 53.3132 60.6783 53.2848 60.6686 53.2564C60.6298 53.1433 60.743 53.036 60.8411 53.0991C60.8551 53.1081 60.869 53.1172 60.883 53.1264L60.91 53.1444L60.9311 53.1587C61.1594 53.3141 61.3734 53.4929 61.5706 53.6921C61.6969 53.8197 61.8163 53.9558 61.928 54.0995C62.5731 54.9287 62.9635 56.0111 62.9635 57.1954C62.9635 59.8049 61.0678 61.9204 58.7292 61.9204C57.6245 61.9204 56.6187 61.4483 55.8648 60.6751Z" fill="url(#paint13_linear_6744_934)" fill-opacity="0.5"/>
<path fill-rule="evenodd" clip-rule="evenodd" d="M50.9106 72.9454C50.9106 75.03 49.4128 76.5908 47.7129 76.5908C47.322 76.5908 46.949 76.5112 46.6037 76.3654C46.126 76.1636 45.6354 76.3214 45.3358 76.6367C45.0255 76.9633 44.8687 77.5238 45.1377 78.0483C46.0279 79.7834 47.7323 81 49.7292 81C52.7064 81 55 78.3299 55 75.1954C55 73.0781 53.9668 71.1977 52.3858 70.1805C51.9011 69.8688 51.3505 69.9937 51.0144 70.3052C50.6905 70.6055 50.519 71.114 50.6925 71.6197C50.8328 72.0284 50.9106 72.475 50.9106 72.9454ZM46.5665 78.3371C46.6608 78.4553 46.7604 78.5681 46.8648 78.6751C47.6187 79.4483 48.6245 79.9204 49.7292 79.9204C52.0678 79.9204 53.9635 77.8049 53.9635 75.1954C53.9635 74.0111 53.5731 72.9286 52.928 72.0995C52.8163 71.9558 52.6969 71.8197 52.5706 71.6921C52.3734 71.4929 52.1594 71.3141 51.9311 71.1587C51.9014 71.1384 51.8713 71.1185 51.8411 71.0991C51.743 71.036 51.6298 71.1433 51.6686 71.2564C51.6783 71.2848 51.6878 71.3132 51.6971 71.3418C51.7813 71.6025 51.8456 71.8738 51.8879 72.1534C51.9079 72.2856 51.923 72.4196 51.9329 72.5552C51.9423 72.6839 51.9472 72.814 51.9472 72.9454C51.9472 75.5549 50.0514 77.6704 47.7129 77.6704C47.5973 77.6704 47.4828 77.6652 47.3696 77.6551C47.2671 77.6459 47.1657 77.6327 47.0654 77.6155C46.8016 77.5703 46.5458 77.498 46.3005 77.4011C46.2846 77.3949 46.2688 77.3885 46.253 77.382L46.2142 77.3659C46.1074 77.3207 45.9976 77.4335 46.0519 77.5394C46.0697 77.5741 46.0879 77.6085 46.1064 77.6426C46.2409 77.8899 46.395 78.1223 46.5665 78.3371Z" fill="url(#paint14_linear_6744_934)" fill-opacity="0.5"/>
<path fill-rule="evenodd" clip-rule="evenodd" d="M28.6277 63.1941C29.6477 63.1941 30.5464 62.2009 30.5464 60.8743C30.5464 60.575 30.4997 60.2908 30.4155 60.0307C30.3114 59.7089 30.4143 59.3853 30.6087 59.1942C30.8103 58.996 31.1407 58.9165 31.4315 59.1149C32.3801 59.7622 33 60.9588 33 62.3061C33 64.3008 31.6238 66 29.8375 66C28.6394 66 27.6168 65.2258 27.0826 64.1216C26.9212 63.7879 27.0153 63.4312 27.2015 63.2233C27.3812 63.0227 27.6756 62.9223 27.9622 63.0507C28.1694 63.1435 28.3932 63.1941 28.6277 63.1941ZM28.1189 64.5205C28.0562 64.4524 27.9965 64.3806 27.9399 64.3054C27.837 64.1687 27.7445 64.0208 27.6639 63.8635C27.6527 63.8418 27.6418 63.8199 27.6312 63.7978C27.5986 63.7304 27.6644 63.6587 27.7285 63.6874C27.7457 63.6951 27.7629 63.7025 27.7803 63.7098C27.9275 63.7714 28.081 63.8175 28.2393 63.8462C28.2994 63.8571 28.3603 63.8656 28.4218 63.8714C28.4897 63.8779 28.5584 63.8811 28.6277 63.8811C30.0309 63.8811 31.1683 62.535 31.1683 60.8743C31.1683 60.7907 31.1654 60.7079 31.1598 60.626C31.1538 60.5397 31.1448 60.4545 31.1328 60.3704C31.1074 60.1924 31.0688 60.0198 31.0182 59.8539C31.0127 59.8357 31.007 59.8176 31.0012 59.7995C30.9779 59.7276 31.0458 59.6593 31.1046 59.6994L31.1338 59.7196L31.1587 59.7374C31.2956 59.8362 31.4241 59.95 31.5423 60.0768C31.6181 60.158 31.6898 60.2446 31.7568 60.336C32.1438 60.8637 32.3781 61.5525 32.3781 62.3061C32.3781 63.9668 31.2407 65.313 29.8375 65.313C29.1747 65.313 28.5712 65.0126 28.1189 64.5205Z" fill="url(#paint15_linear_6744_934)" fill-opacity="0.5"/>
<path fill-rule="evenodd" clip-rule="evenodd" d="M87.5464 54.8743C87.5464 56.2009 86.6477 57.1941 85.6277 57.1941C85.3932 57.1941 85.1694 57.1435 84.9622 57.0507C84.6756 56.9223 84.3812 57.0227 84.2015 57.2233C84.0153 57.4312 83.9212 57.7879 84.0826 58.1216C84.6168 59.2258 85.6394 60 86.8375 60C88.6238 60 90 58.3008 90 56.3061C90 54.9588 89.3801 53.7622 88.4315 53.1149C88.1407 52.9165 87.8103 52.996 87.6087 53.1942C87.4143 53.3853 87.3114 53.7089 87.4155 54.0307C87.4996 54.2908 87.5464 54.575 87.5464 54.8743ZM84.9399 58.3054C84.9965 58.3806 85.0562 58.4524 85.1189 58.5205C85.5712 59.0126 86.1747 59.313 86.8375 59.313C88.2407 59.313 89.3781 57.9668 89.3781 56.3061C89.3781 55.5525 89.1438 54.8637 88.7568 54.336C88.6898 54.2446 88.6181 54.158 88.5423 54.0768C88.424 53.95 88.2956 53.8362 88.1587 53.7374C88.1408 53.7244 88.1228 53.7118 88.1046 53.6994C88.0458 53.6593 87.9779 53.7276 88.0012 53.7995L88.0101 53.8276L88.0182 53.8539C88.0688 54.0198 88.1074 54.1924 88.1328 54.3704C88.1448 54.4545 88.1538 54.5397 88.1598 54.626C88.1654 54.7079 88.1683 54.7907 88.1683 54.8743C88.1683 56.535 87.0309 57.8811 85.6277 57.8811C85.5584 57.8811 85.4897 57.8779 85.4218 57.8714C85.3603 57.8656 85.2994 57.8571 85.2393 57.8462C85.081 57.8175 84.9275 57.7714 84.7803 57.7098L84.7546 57.6989L84.7285 57.6874C84.6644 57.6587 84.5986 57.7304 84.6312 57.7978C84.6418 57.8199 84.6527 57.8418 84.6639 57.8635C84.7445 58.0208 84.837 58.1687 84.9399 58.3054Z" fill="url(#paint16_linear_6744_934)" fill-opacity="0.5"/>
<path fill-rule="evenodd" clip-rule="evenodd" d="M79.6277 91.1941C80.6477 91.1941 81.5464 90.2009 81.5464 88.8743C81.5464 88.575 81.4996 88.2908 81.4155 88.0307C81.3114 87.7089 81.4143 87.3853 81.6087 87.1942C81.8103 86.996 82.1407 86.9165 82.4315 87.1149C83.3801 87.7622 84 88.9588 84 90.3061C84 92.3008 82.6238 94 80.8375 94C79.6394 94 78.6168 93.2258 78.0826 92.1216C77.9212 91.7879 78.0153 91.4312 78.2015 91.2233C78.3812 91.0227 78.6756 90.9223 78.9622 91.0507C79.1694 91.1435 79.3932 91.1941 79.6277 91.1941ZM79.1189 92.5205C79.0562 92.4524 78.9965 92.3806 78.9399 92.3054C78.837 92.1687 78.7445 92.0208 78.6639 91.8635C78.6527 91.8418 78.6418 91.8199 78.6312 91.7978C78.5986 91.7304 78.6644 91.6587 78.7285 91.6874L78.7432 91.6939C78.7555 91.6993 78.7679 91.7046 78.7803 91.7098C78.9275 91.7714 79.081 91.8175 79.2393 91.8462C79.2994 91.8571 79.3603 91.8656 79.4218 91.8714C79.4897 91.8779 79.5584 91.8811 79.6277 91.8811C81.0309 91.8811 82.1683 90.535 82.1683 88.8743C82.1683 88.7907 82.1654 88.7079 82.1598 88.626C82.1538 88.5397 82.1448 88.4545 82.1328 88.3704C82.1074 88.1924 82.0688 88.0198 82.0182 87.8539C82.0127 87.8357 82.007 87.8176 82.0012 87.7995C81.9779 87.7276 82.0458 87.6593 82.1046 87.6994C82.1145 87.7062 82.1244 87.713 82.1342 87.7199C82.1424 87.7257 82.1506 87.7315 82.1587 87.7374C82.2956 87.8362 82.424 87.95 82.5423 88.0768C82.6181 88.158 82.6898 88.2446 82.7568 88.336C83.1438 88.8637 83.3781 89.5525 83.3781 90.3061C83.3781 91.9668 82.2407 93.313 80.8375 93.313C80.1747 93.313 79.5712 93.0126 79.1189 92.5205Z" fill="url(#paint17_linear_6744_934)" fill-opacity="0.5"/>
<path fill-rule="evenodd" clip-rule="evenodd" d="M31.5464 89.8743C31.5464 91.2009 30.6477 92.1941 29.6277 92.1941C29.3932 92.1941 29.1694 92.1435 28.9622 92.0507C28.6756 91.9223 28.3812 92.0227 28.2015 92.2233C28.0153 92.4312 27.9212 92.7879 28.0826 93.1216C28.6168 94.2258 29.6394 95 30.8375 95C32.6238 95 34 93.3008 34 91.3061C34 89.9588 33.3801 88.7622 32.4315 88.1149C32.1407 87.9165 31.8103 87.996 31.6087 88.1942C31.4143 88.3853 31.3114 88.7089 31.4155 89.0307C31.4997 89.2908 31.5464 89.575 31.5464 89.8743ZM28.9399 93.3054C28.9965 93.3806 29.0562 93.4524 29.1189 93.5205C29.5712 94.0126 30.1747 94.313 30.8375 94.313C32.2407 94.313 33.3781 92.9668 33.3781 91.3061C33.3781 90.5525 33.1438 89.8637 32.7568 89.336C32.6898 89.2446 32.6181 89.158 32.5423 89.0768C32.4241 88.95 32.2956 88.8362 32.1587 88.7374C32.1408 88.7244 32.1228 88.7118 32.1046 88.6994C32.0458 88.6593 31.9779 88.7276 32.0012 88.7995C32.007 88.8176 32.0127 88.8357 32.0182 88.8539C32.0688 89.0198 32.1074 89.1924 32.1328 89.3704C32.1448 89.4545 32.1538 89.5397 32.1598 89.626C32.1654 89.7079 32.1683 89.7907 32.1683 89.8743C32.1683 91.535 31.0309 92.8811 29.6277 92.8811C29.5584 92.8811 29.4897 92.8779 29.4218 92.8714C29.3603 92.8656 29.2994 92.8571 29.2393 92.8462C29.081 92.8175 28.9275 92.7714 28.7803 92.7098C28.7629 92.7025 28.7457 92.6951 28.7285 92.6874C28.6644 92.6587 28.5986 92.7304 28.6312 92.7978C28.6418 92.8199 28.6527 92.8418 28.6639 92.8635C28.7445 93.0208 28.837 93.1687 28.9399 93.3054Z" fill="url(#paint18_linear_6744_934)" fill-opacity="0.5"/>
</g>
<defs>
<linearGradient id="paint0_linear_6744_934" x1="46" y1="-9.84559" x2="46" y2="103" gradientUnits="userSpaceOnUse">
<stop stop-color="#6385FF" stop-opacity="0.85"/>
<stop offset="1" stop-color="#6385FF" stop-opacity="0.2"/>
</linearGradient>
<linearGradient id="paint1_linear_6744_934" x1="47" y1="-7.98529" x2="47" y2="100" gradientUnits="userSpaceOnUse">
<stop stop-color="#6385FF"/>
<stop offset="1" stop-color="#6385FF" stop-opacity="0.1"/>
</linearGradient>
<linearGradient id="paint2_linear_6744_934" x1="47" y1="-7.98529" x2="47" y2="100" gradientUnits="userSpaceOnUse">
<stop stop-color="#6385FF"/>
<stop offset="1" stop-color="#6385FF" stop-opacity="0.1"/>
</linearGradient>
<linearGradient id="paint3_linear_6744_934" x1="47" y1="-7.98529" x2="47" y2="100" gradientUnits="userSpaceOnUse">
<stop stop-color="#6385FF"/>
<stop offset="1" stop-color="#6385FF" stop-opacity="0.1"/>
</linearGradient>
<linearGradient id="paint4_linear_6744_934" x1="47" y1="-7.98529" x2="47" y2="100" gradientUnits="userSpaceOnUse">
<stop stop-color="#6385FF"/>
<stop offset="1" stop-color="#6385FF" stop-opacity="0.1"/>
</linearGradient>
<linearGradient id="paint5_linear_6744_934" x1="47" y1="-7.98529" x2="47" y2="100" gradientUnits="userSpaceOnUse">
<stop stop-color="#6385FF"/>
<stop offset="1" stop-color="#6385FF" stop-opacity="0.1"/>
</linearGradient>
<linearGradient id="paint6_linear_6744_934" x1="47" y1="-7.98529" x2="47" y2="100" gradientUnits="userSpaceOnUse">
<stop stop-color="#6385FF"/>
<stop offset="1" stop-color="#6385FF" stop-opacity="0.1"/>
</linearGradient>
<linearGradient id="paint7_linear_6744_934" x1="47" y1="-7.98529" x2="47" y2="100" gradientUnits="userSpaceOnUse">
<stop stop-color="#6385FF"/>
<stop offset="1" stop-color="#6385FF" stop-opacity="0.1"/>
</linearGradient>
<linearGradient id="paint8_linear_6744_934" x1="47" y1="-7.98529" x2="47" y2="100" gradientUnits="userSpaceOnUse">
<stop stop-color="#6385FF"/>
<stop offset="1" stop-color="#6385FF" stop-opacity="0.1"/>
</linearGradient>
<linearGradient id="paint9_linear_6744_934" x1="47" y1="-7.98529" x2="47" y2="100" gradientUnits="userSpaceOnUse">
<stop stop-color="#6385FF"/>
<stop offset="1" stop-color="#6385FF" stop-opacity="0.1"/>
</linearGradient>
<linearGradient id="paint10_linear_6744_934" x1="47" y1="-7.98529" x2="47" y2="100" gradientUnits="userSpaceOnUse">
<stop stop-color="#6385FF"/>
<stop offset="1" stop-color="#6385FF" stop-opacity="0.1"/>
</linearGradient>
<linearGradient id="paint11_linear_6744_934" x1="47" y1="-7.98529" x2="47" y2="100" gradientUnits="userSpaceOnUse">
<stop stop-color="#6385FF"/>
<stop offset="1" stop-color="#6385FF" stop-opacity="0.1"/>
</linearGradient>
<linearGradient id="paint12_linear_6744_934" x1="47" y1="-7.98529" x2="47" y2="100" gradientUnits="userSpaceOnUse">
<stop stop-color="#6385FF"/>
<stop offset="1" stop-color="#6385FF" stop-opacity="0.1"/>
</linearGradient>
<linearGradient id="paint13_linear_6744_934" x1="47" y1="-7.98529" x2="47" y2="100" gradientUnits="userSpaceOnUse">
<stop stop-color="#6385FF"/>
<stop offset="1" stop-color="#6385FF" stop-opacity="0.1"/>
</linearGradient>
<linearGradient id="paint14_linear_6744_934" x1="47" y1="-7.98529" x2="47" y2="100" gradientUnits="userSpaceOnUse">
<stop stop-color="#6385FF"/>
<stop offset="1" stop-color="#6385FF" stop-opacity="0.1"/>
</linearGradient>
<linearGradient id="paint15_linear_6744_934" x1="47" y1="-7.98529" x2="47" y2="100" gradientUnits="userSpaceOnUse">
<stop stop-color="#6385FF"/>
<stop offset="1" stop-color="#6385FF" stop-opacity="0.1"/>
</linearGradient>
<linearGradient id="paint16_linear_6744_934" x1="47" y1="-7.98529" x2="47" y2="100" gradientUnits="userSpaceOnUse">
<stop stop-color="#6385FF"/>
<stop offset="1" stop-color="#6385FF" stop-opacity="0.1"/>
</linearGradient>
<linearGradient id="paint17_linear_6744_934" x1="47" y1="-7.98529" x2="47" y2="100" gradientUnits="userSpaceOnUse">
<stop stop-color="#6385FF"/>
<stop offset="1" stop-color="#6385FF" stop-opacity="0.1"/>
</linearGradient>
<linearGradient id="paint18_linear_6744_934" x1="47" y1="-7.98529" x2="47" y2="100" gradientUnits="userSpaceOnUse">
<stop stop-color="#6385FF"/>
<stop offset="1" stop-color="#6385FF" stop-opacity="0.1"/>
</linearGradient>
<clipPath id="clip0_6744_934">
<rect width="92" height="103" fill="white"/>
</clipPath>
</defs>
</svg>
