<svg width="28" height="28" viewBox="0 0 28 28" fill="none" xmlns="http://www.w3.org/2000/svg">
<path fill-rule="evenodd" clip-rule="evenodd" d="M5.30556 5.23119C5.69348 4.83809 6.32664 4.83389 6.71974 5.22182L14.0019 12.4081L21.284 5.22182C21.6771 4.83389 22.3103 4.83809 22.6982 5.23119C23.0861 5.62429 23.0819 6.25744 22.6888 6.64537L15.4256 13.813L22.6888 20.9806C23.0819 21.3686 23.0861 22.0017 22.6982 22.3948C22.3103 22.7879 21.6771 22.7921 21.284 22.4042L14.0019 15.2179L6.71974 22.4042C6.32664 22.7921 5.69348 22.7879 5.30556 22.3948C4.91763 22.0017 4.92183 21.3686 5.31493 20.9806L12.5782 13.813L5.31493 6.64537C4.92183 6.25744 4.91763 5.62429 5.30556 5.23119Z" fill="white"/>
</svg>
