<svg width="18" height="18" viewBox="0 0 18 18" fill="none" xmlns="http://www.w3.org/2000/svg">
<path d="M16.4454 10.1943C16.5773 10.1881 16.7095 10.2202 16.8243 10.2891C16.9776 10.3811 17.0885 10.5307 17.132 10.7041L17.755 13.1973C17.8453 13.5588 17.6252 13.9251 17.2638 14.0156C16.9473 14.0947 16.6269 13.9365 16.4913 13.6533L16.4454 13.5244C16.3754 13.2452 15.9858 13.1957 15.8288 13.4369C15.3273 14.2072 14.6969 14.8928 13.9581 15.46C12.5362 16.5516 10.7947 17.1457 9.00208 17.1514H8.9972C7.32671 17.1452 5.69795 16.628 4.33021 15.6689C3.04783 14.7696 2.05221 13.5221 1.45911 12.0771L1.34583 11.7861L1.31165 11.6533C1.26502 11.343 1.44115 11.0322 1.7472 10.9199C2.05345 10.8077 2.38888 10.9311 2.55384 11.1982L2.61341 11.3213L2.70814 11.5645C3.20332 12.7709 4.03401 13.8126 5.10462 14.5635C6.2459 15.3638 7.60527 15.795 8.99915 15.8008C10.4955 15.7957 11.9489 15.2999 13.1359 14.3887C13.7236 13.9374 14.2293 13.3964 14.6378 12.7899C14.867 12.4495 14.5466 12.0474 14.1486 12.1475L14.0128 12.167C13.6995 12.1805 13.4097 11.9732 13.3302 11.6572C13.2396 11.2956 13.4588 10.9285 13.8204 10.8379L16.3136 10.2139L16.4454 10.1943Z" />
<path d="M9.00013 4.0957C9.37276 4.0959 9.67494 4.39783 9.67494 4.77051C9.67494 5.13773 9.95869 5.43497 10.2902 5.593C10.2941 5.59486 10.298 5.59674 10.3019 5.59863C10.4999 5.69465 10.6799 5.82291 10.8351 5.97754L10.8906 6.03896C10.9518 6.10662 11.0074 6.17916 11.0568 6.25586C11.1998 6.53511 11.1324 6.88588 10.8781 7.08984C10.6236 7.29387 10.2661 7.28361 10.0245 7.08301L9.92884 6.98535L9.88197 6.93359C9.83277 6.8846 9.77577 6.84392 9.71302 6.81348C9.62916 6.77284 9.53668 6.75075 9.44349 6.75H9.0099C9.00664 6.75005 9.0034 6.75097 9.00013 6.75098C8.99699 6.75098 8.9935 6.75004 8.99037 6.75H8.4054C8.16166 6.75008 7.8743 6.98157 7.87415 7.37988C7.87415 7.71536 8.08808 7.94869 8.30287 8L9.88978 8.37695L10.0665 8.42676C10.9278 8.71301 11.4747 9.55877 11.4747 10.4619C11.4747 11.2965 11.006 12.0656 10.2896 12.4098C9.95961 12.5683 9.67494 12.8634 9.67494 13.2295C9.67494 13.6022 9.37276 13.9051 9.00013 13.9053C8.62734 13.9053 8.32533 13.6023 8.32533 13.2295C8.32533 12.8632 8.0411 12.5675 7.71094 12.4089C7.37937 12.2497 7.09942 12.0007 6.89661 11.6992L6.82826 11.5908L6.77064 11.4668C6.66888 11.1699 6.78659 10.8325 7.06751 10.667C7.34872 10.5015 7.70104 10.5626 7.91126 10.7959L7.99134 10.9062L8.04505 10.9854C8.1769 11.1583 8.36246 11.2498 8.54896 11.25H9.44935C9.77162 11.25 10.1241 10.9494 10.1242 10.4619C10.1242 10.0503 9.86436 9.75731 9.58509 9.69238L9.58119 9.69141L7.99104 9.31364C7.9906 9.31353 7.9902 9.31331 7.98988 9.31299C7.98956 9.31267 7.98915 9.31244 7.98871 9.31234C7.10252 9.10039 6.52454 8.2716 6.52454 7.37988C6.52467 6.57742 6.99557 5.83756 7.70954 5.54033C8.03665 5.40414 8.32533 5.12484 8.32533 4.77051C8.32533 4.39772 8.62734 4.0957 9.00013 4.0957Z"/>
<path d="M9.00208 0.847656C10.6726 0.853868 12.3023 1.37091 13.6701 2.33008C15.0376 3.28922 16.0786 4.64456 16.6535 6.21289C16.7816 6.56278 16.6019 6.95071 16.2521 7.0791C15.9021 7.20725 15.5142 7.02763 15.3859 6.67773C14.9059 5.36811 14.0366 4.23645 12.8947 3.43555C11.7531 2.63497 10.3934 2.20278 8.99915 2.19727C7.50334 2.2026 6.04999 2.69949 4.86341 3.61035C4.27605 4.06134 3.77027 4.60188 3.36162 5.20784C3.13157 5.54898 3.45252 5.95233 3.85169 5.85254L3.98646 5.83301C4.30008 5.81924 4.59066 6.02647 4.67005 6.34277C4.76062 6.70428 4.54123 7.07137 4.17982 7.16211L1.68665 7.78613C1.51296 7.82962 1.32849 7.80303 1.17494 7.71094C1.02139 7.61881 0.910718 7.46865 0.867318 7.29492L0.244271 4.80273L0.22474 4.66699C0.211258 4.35347 0.419273 4.06263 0.735482 3.9834C1.05198 3.90433 1.37235 4.06347 1.50794 4.34668L1.55482 4.47461C1.62405 4.75289 2.01241 4.80276 2.16898 4.56251C2.67113 3.792 3.303 3.10649 4.04212 2.53906C5.46411 1.44759 7.20559 0.853256 8.99818 0.847656H9.00208Z" />
</svg>
