<svg width="20" height="20" viewBox="0 0 20 20" fill="none" xmlns="http://www.w3.org/2000/svg">
<path fill-rule="evenodd" clip-rule="evenodd" d="M4.85341 12.0182C5.1991 11.6611 5.76887 11.6518 6.12603 11.9975L10.0001 15.7472L13.8742 11.9975C14.2313 11.6518 14.8011 11.6611 15.1468 12.0182C15.4925 12.3754 15.4832 12.9451 15.126 13.2908L10.626 17.6464C10.2771 17.9841 9.72311 17.9841 9.37417 17.6464L4.87417 13.2908C4.51701 12.9451 4.50771 12.3754 4.85341 12.0182Z" fill="#AAAAAA"/>
<path d="M9.37417 2.35292C9.72311 2.01517 10.2771 2.01517 10.626 2.35292L15.126 6.70847C15.4832 7.05417 15.4925 7.62394 15.1468 7.9811C14.8011 8.33825 14.2313 8.34755 13.8742 8.00186L10.0001 4.25214L6.12603 8.00186C5.76887 8.34755 5.1991 8.33825 4.85341 7.9811C4.50772 7.62394 4.51701 7.05417 4.87417 6.70847L9.37417 2.35292Z" fill="#AAAAAA"/>
</svg>
