<svg xmlns="http://www.w3.org/2000/svg" width="32" height="35" fill="none"><path fill="url(#a)" d="m7.232 12.776.765 4.008c.22.036.45.042.699.05.53.016 1.191.037 1.852.37a2.8 2.8 0 0 1 1.16 1.093c.227.387.369.826.434 1.342a3.15 3.15 0 0 1-.183 1.578c-.198.495-.52.913-.96 1.244-.553.416-1.169.594-1.664.738l-.106.03 1.298 6.797 5.762 3.688 1.826-13.868-2.802-3.684z"/><path fill="url(#b)" d="M17.695 9.358 14.512.116 7.58 10.668l8.036 3.367z"/><path fill="url(#c)" d="M27.888 7.656 16.67 0l2.86 8.308z"/><path fill="url(#d)" d="m20.207 29.78.802-1.134 5.393-7.591 2.636-11.403-9.53.743-2.203 4.953 2.982 3.922-1.898 14.415 3.143-1.798-.586-.93z"/><path fill="url(#e)" d="m29.577 23.772-1.396.152-1.086.119-.303.033-1.086 1.535-3 4.238.631 1.005.555.88.553.881 1.181 1.878 4.054-2.65 1.335-5.928z"/><path fill="#fff" d="M10.08 19.9c-.13-1.035-.757-.957-1.678-.994a5.3 5.3 0 0 1-1.084-.139 4 4 0 0 1-.56-.183 1.4 1.4 0 0 1-.637-.547c-.616-.942-.458-2.549-1.55-2.549q-.076 0-.16.01c-1.57.198-.425 2.21-1.395 3.46-.97 1.252-3.202.641-3.004 2.213s2.208.425 3.459 1.395c1.198.93.688 3.018 2.023 3.018q.088 0 .187-.012c1.488-.188.54-2 1.258-3.254q.06-.106.138-.206c.21-.27.478-.454.768-.591.32-.152.669-.247.992-.342.738-.214 1.351-.423 1.243-1.279"/><defs><linearGradient id="a" x1="8.478" x2="15.754" y1="40.686" y2="15.073" gradientUnits="userSpaceOnUse"><stop offset=".04" stop-color="#7287EC"/><stop offset=".24" stop-color="#A4B1FF"/><stop offset=".48" stop-color="#7287EC"/><stop offset=".62" stop-color="#A957FF"/><stop offset=".81" stop-color="#EB56FB"/><stop offset=".99" stop-color="#F4BDFF"/></linearGradient><linearGradient id="b" x1="8.738" x2="12.328" y1="18.669" y2=".998" gradientUnits="userSpaceOnUse"><stop offset=".04" stop-color="#7287EC"/><stop offset=".24" stop-color="#A4B1FF"/><stop offset=".48" stop-color="#7287EC"/><stop offset=".62" stop-color="#A957FF"/><stop offset=".81" stop-color="#EB56FB"/><stop offset=".99" stop-color="#F4BDFF"/></linearGradient><linearGradient id="c" x1="17.955" x2="19.142" y1="11.074" y2=".221" gradientUnits="userSpaceOnUse"><stop offset=".04" stop-color="#7287EC"/><stop offset=".24" stop-color="#A4B1FF"/><stop offset=".48" stop-color="#7287EC"/><stop offset=".62" stop-color="#A957FF"/><stop offset=".81" stop-color="#EB56FB"/><stop offset=".99" stop-color="#F4BDFF"/></linearGradient><linearGradient id="d" x1="18.649" x2="27.453" y1="41.688" y2="12.579" gradientUnits="userSpaceOnUse"><stop offset=".04" stop-color="#7287EC"/><stop offset=".24" stop-color="#A4B1FF"/><stop offset=".48" stop-color="#7287EC"/><stop offset=".62" stop-color="#A957FF"/><stop offset=".81" stop-color="#EB56FB"/><stop offset=".99" stop-color="#F4BDFF"/></linearGradient><linearGradient id="e" x1="23.657" x2="26.263" y1="38.063" y2="24.385" gradientUnits="userSpaceOnUse"><stop offset=".04" stop-color="#7287EC"/><stop offset=".24" stop-color="#A4B1FF"/><stop offset=".48" stop-color="#7287EC"/><stop offset=".62" stop-color="#A957FF"/><stop offset=".81" stop-color="#EB56FB"/><stop offset=".99" stop-color="#F4BDFF"/></linearGradient></defs></svg>