<svg width="12" height="13" viewBox="0 0 12 13" fill="none" xmlns="http://www.w3.org/2000/svg">
<path fill-rule="evenodd" clip-rule="evenodd" d="M4.21118 0.273438C3.57859 0.273438 2.97191 0.524733 2.5246 0.972042C2.07729 1.41935 1.826 2.02603 1.826 2.65862C1.826 3.29121 2.07729 3.89789 2.5246 4.3452C2.97191 4.79251 3.57859 5.04381 4.21118 5.04381C4.84377 5.04381 5.45046 4.79251 5.89776 4.3452C6.34507 3.89789 6.59637 3.29121 6.59637 2.65862C6.59637 2.02603 6.34507 1.41935 5.89776 0.972042C5.45046 0.524733 4.84377 0.273438 4.21118 0.273438ZM0.0371099 10.4105C0.0359173 8.13262 1.93214 6.23402 4.21118 6.23402C6.48904 6.23402 8.38526 8.13024 8.38526 10.4105V11.6031C8.38526 11.7612 8.32243 11.9129 8.21061 12.0247C8.09878 12.1365 7.94711 12.1994 7.78896 12.1994H0.633406C0.475259 12.1994 0.323588 12.1365 0.211761 12.0247C0.0999338 11.9129 0.0371099 11.7612 0.0371099 11.6031V10.4105ZM11.3667 12.1994H9.47648C9.54207 12.0133 9.57785 11.8118 9.57785 11.6031V10.4105C9.57785 8.73607 8.79074 7.22864 7.56952 6.23998C7.64108 6.2364 7.71502 6.23402 7.78777 6.23402C10.0668 6.23402 11.9642 8.13024 11.963 10.4105V11.6031C11.963 11.7612 11.9002 11.9129 11.7884 12.0247C11.6766 12.1365 11.5249 12.1994 11.3667 12.1994ZM7.78896 5.04381C7.50989 5.04381 7.24275 4.9961 6.9935 4.90785C7.5093 4.27182 7.79021 3.47751 7.78896 2.65862C7.78896 1.80592 7.49081 1.02477 6.9935 0.409393C7.32095 0.293835 7.66967 0.251166 8.01532 0.284365C8.36096 0.317564 8.69519 0.425831 8.99466 0.601603C9.29412 0.777374 9.55159 1.01641 9.74909 1.30201C9.94658 1.58761 10.0793 1.91289 10.1381 2.25513C10.1968 2.59736 10.1801 2.94829 10.0892 3.2834C9.99822 3.61851 9.83519 3.92973 9.61148 4.1953C9.38777 4.46087 9.10878 4.67439 8.79399 4.82095C8.47919 4.9675 8.1362 5.04356 7.78896 5.04381Z" fill="white"/>
</svg>
