<svg width="20" height="20" viewBox="0 0 20 20" fill="none" xmlns="http://www.w3.org/2000/svg">
<path d="M6.03149 8.29492L6.39656 9.92779C6.50132 9.94226 6.61078 9.945 6.72964 9.94821C6.9828 9.95481 7.29783 9.96301 7.61267 10.0992C7.84307 10.1987 8.03435 10.3526 8.16581 10.544C8.27415 10.7019 8.34186 10.8808 8.37289 11.0908C8.40674 11.3211 8.3774 11.5373 8.28562 11.7338C8.19139 11.9355 8.03736 12.1059 7.82821 12.2405C7.56434 12.4101 7.27056 12.4828 7.03433 12.5412C7.01891 12.545 7.00179 12.5492 6.98374 12.5537L7.60289 15.3228L10.3502 16.8256L11.221 11.1754L9.88504 9.67422L6.03149 8.29492Z" fill="#F46EFA"/>
<path d="M11.221 6.66866L9.58841 2.89258L6.03149 7.20402L10.1542 8.57967L11.221 6.66866Z" fill="#F46EFA"/>
<path d="M16.1053 6.03737L10.6106 2.89258L12.0118 6.30483L16.1053 6.03737Z" fill="#F46EFA"/>
<path d="M12.3501 15.2081L12.7469 14.7387L15.4128 11.595L16.7158 6.87305L12.0046 7.18046L10.9158 9.23171L12.3899 10.8557L11.4516 16.8255L13.0051 16.0809L12.7155 15.6952L12.3501 15.2081Z" fill="#F46EFA"/>
<path d="M16.9448 12.5605L16.278 12.6254L15.7593 12.6758L15.6148 12.6898L15.0959 13.341L13.6631 15.1393L13.965 15.566L14.2297 15.9398L14.4941 16.3134L15.058 17.1102L16.9939 15.9857L17.6315 13.4702L16.9448 12.5605Z" fill="#F46EFA"/>
<path d="M7.24642 11.0123C7.18362 10.5752 6.88049 10.6078 6.43477 10.5922C6.27653 10.5865 6.09996 10.5748 5.91002 10.5338C5.8226 10.5148 5.73212 10.4898 5.63935 10.4561C5.50267 10.4068 5.40494 10.3247 5.33049 10.2252C5.03252 9.8272 5.10887 9.14844 4.5803 9.14844C4.55587 9.14844 4.53029 9.14977 4.50319 9.15277C3.74307 9.2363 4.2976 10.0861 3.82821 10.6147C3.35863 11.1434 2.2784 10.8851 2.37441 11.5492C2.46986 12.2131 3.44281 11.7288 4.04811 12.1386C4.62784 12.5317 4.38102 13.4138 5.02717 13.4138C5.05561 13.4138 5.08577 13.4121 5.11784 13.4086C5.83768 13.3292 5.37879 12.5638 5.72658 12.0339C5.74605 12.004 5.76819 11.9749 5.7932 11.9467C5.89456 11.8325 6.02456 11.7549 6.16486 11.6971C6.32024 11.6327 6.4886 11.5926 6.64513 11.5527C7.00209 11.462 7.29892 11.374 7.24661 11.0123H7.24642Z" fill="#F46EFA"/>
</svg>
