<svg width="14" height="15" viewBox="0 0 14 15" fill="none" xmlns="http://www.w3.org/2000/svg">
<g clip-path="url(#clip0_7724_25619)">
<g style="mix-blend-mode:screen">
<path d="M8.22044 4.00182L7.16837 0.754883L11.2941 3.74731L8.22044 4.00182Z" fill="white"/>
<path d="M6.37468 0.800386L3.8246 4.92453L6.78031 6.24043L7.54513 4.41243L6.37468 0.800386Z" fill="white"/>
<path d="M6.66933 7.07198L7.69978 8.51204L7.02809 13.9322L4.90902 12.4906L4.43144 9.83426C4.43818 9.83217 4.44475 9.83015 4.45109 9.82821C4.45449 9.82716 4.45782 9.82614 4.46107 9.82514C4.46428 9.82415 4.46741 9.82318 4.47046 9.82223C4.65267 9.76624 4.87928 9.69652 5.08281 9.53379C5.24413 9.40468 5.36295 9.24118 5.43563 9.04775C5.50642 8.85926 5.52906 8.65179 5.50294 8.43091C5.47901 8.22946 5.42678 8.05778 5.34322 7.90631C5.24181 7.72275 5.09427 7.57514 4.91656 7.47966C4.67371 7.34901 4.43073 7.34114 4.23546 7.33482H4.23544L4.23025 7.33464C4.14057 7.33163 4.0578 7.32885 3.97852 7.31523L3.69694 5.74884L6.66933 7.07198Z" fill="white"/>
<path d="M4.7445 8.53271C4.78425 8.86728 4.55867 8.94872 4.28738 9.03263C4.28605 9.03305 4.28472 9.03346 4.28339 9.03387L4.28173 9.03439L4.27982 9.03497C4.27844 9.0354 4.27705 9.03583 4.27566 9.03626L4.26712 9.0389C4.26557 9.03937 4.26401 9.03985 4.26246 9.04033L4.256 9.04232L4.25564 9.04243C4.25564 9.04243 4.25564 9.04243 4.25564 9.04243C4.14588 9.07624 4.03003 9.11194 3.92238 9.16621C3.81575 9.21974 3.71696 9.29146 3.63992 9.39712C3.62092 9.42319 3.60409 9.45019 3.58929 9.4778C3.48254 9.67578 3.47579 9.90932 3.46963 10.1222C3.46055 10.4365 3.45277 10.7058 3.12666 10.7496C3.10228 10.7528 3.07936 10.7544 3.05775 10.7544C2.79 10.7544 2.724 10.5118 2.64793 10.2322C2.58448 9.99901 2.51403 9.74007 2.31367 9.57466C2.11332 9.40954 1.85997 9.40132 1.6318 9.39392C1.33607 9.38433 1.08262 9.37611 1.04167 9.02939C1.00049 8.68264 1.24406 8.60771 1.52825 8.52028C1.74757 8.45281 1.99109 8.37789 2.14655 8.16483C2.30192 7.95186 2.30967 7.68249 2.31666 7.43988C2.3257 7.12548 2.33346 6.856 2.65952 6.81238C2.68012 6.8096 2.69956 6.80837 2.71813 6.80837C2.97501 6.80837 3.04389 7.06515 3.11939 7.34658C3.16195 7.50525 3.20662 7.67176 3.28827 7.80451C3.28833 7.80462 3.2884 7.80473 3.28847 7.80484L3.28841 7.80451C3.34499 7.89659 3.41927 7.97248 3.52314 8.01814C3.59364 8.0493 3.66241 8.07244 3.72885 8.09002C3.8732 8.12797 4.00739 8.13876 4.12766 8.14401C4.15664 8.14525 4.18483 8.14616 4.21217 8.14705C4.50448 8.15652 4.70086 8.16288 4.7445 8.53271Z" fill="white"/>
<path d="M11.9156 10.0459L12.4445 10.8838L11.9534 13.2006L10.4624 14.2364L9.38798 12.421L10.8912 10.165L11.9156 10.0459Z" fill="white"/>
<path d="M8.95639 13.2179L7.8006 13.9206L8.49869 8.28638L7.40194 6.75361L8.21203 4.81764L11.7171 4.5275L10.7477 8.98405L8.76432 11.9512L8.46909 12.3942L8.95639 13.2179Z" fill="white"/>
</g>
</g>
<defs>
<clipPath id="clip0_7724_25619">
<rect width="14" height="14" fill="white" transform="translate(0 0.236328)"/>
</clipPath>
</defs>
</svg>
