<svg width="11" height="12" viewBox="0 0 11 12" fill="none" xmlns="http://www.w3.org/2000/svg">
<path d="M5.5 1.38379C8.08756 1.38379 10.1855 3.48178 10.1855 6.06934C10.1855 8.6569 8.08756 10.7549 5.5 10.7549C2.91244 10.7549 0.814453 8.6569 0.814453 6.06934C0.814453 3.48178 2.91244 1.38379 5.5 1.38379ZM3.90039 3.99902C3.31213 3.99902 2.93947 4.63349 3.23535 5.14648L5.20996 8.56934C5.33883 8.79278 5.66119 8.79281 5.79004 8.56934L7.76562 5.14648C8.0607 4.63449 7.68806 3.99935 7.10059 3.99902H3.90039ZM7.09961 4.58301C7.24278 4.58321 7.32719 4.73579 7.25879 4.85449L6.22168 6.71094L5.79102 7.54297V4.58301H7.09961ZM5.20801 7.54297L4.77832 6.71094L3.74023 4.85449C3.67217 4.73584 3.75638 4.58421 3.89941 4.58398H5.20801V7.54297Z" fill="white"/>
</svg>
