<svg width="32" height="32" viewBox="0 0 32 32" fill="none" stroke="#2990FF" xmlns="http://www.w3.org/2000/svg">
<path d="M24.661 13.2202L16.815 25.7142C16.7194 25.8659 16.5867 25.9909 16.4295 26.0773C16.2723 26.1637 16.0957 26.2088 15.9163 26.2082C15.7369 26.2076 15.5607 26.1614 15.404 26.0739C15.2474 25.9864 15.1156 25.8606 15.021 25.7082L7.32799 13.2142C7.11206 12.8644 6.99844 12.4612 6.99999 12.0502C7.0092 11.443 7.25921 10.8643 7.69503 10.4414C8.13085 10.0186 8.71679 9.78609 9.32398 9.79518H22.686C23.963 9.79418 25 10.8002 25 12.0442C25 12.4572 24.884 12.8652 24.661 13.2202ZM9.21798 12.8002L14.941 21.6262V11.9122H9.81598C9.22398 11.9122 8.95898 12.3042 9.21798 12.8022M17.058 21.6282L22.783 12.8002C23.048 12.3032 22.777 11.9102 22.184 11.9102H17.06L17.058 21.6282Z" fill="#2990FF"/>
<circle cx="16" cy="16" r="15" stroke-width="2"/>
</svg>
