<svg width="46" height="45" viewBox="0 0 46 45" fill="none" xmlns="http://www.w3.org/2000/svg">
<path d="M20.1945 0.116977C19.8866 0.302036 19.8551 0.480927 19.8551 2.14029C19.8551 3.80582 19.8928 3.99088 20.2385 4.16361C20.6218 4.361 21.156 4.22529 21.3319 3.88602C21.4639 3.6331 21.4702 0.715335 21.3382 0.400734C21.1748 0.0244472 20.5967 -0.1236 20.1945 0.116977Z" fill="#F7F0FF" fill-opacity="0.25"/>
<path d="M14.8466 2.30683C14.589 2.52273 14.4821 2.83117 14.5701 3.10259C14.6204 3.2383 15.0414 3.69478 15.8207 4.45969C16.9832 5.59472 17.0084 5.61322 17.2723 5.61322C17.4168 5.61322 17.6179 5.57004 17.7185 5.52069C18.0578 5.34797 18.1961 4.86682 18.0076 4.5152C17.9573 4.42267 17.4231 3.8675 16.8136 3.27531L15.7201 2.20196L15.3808 2.17112C15.0854 2.14645 15.0163 2.16495 14.8466 2.30683Z" fill="#F7F0FF" fill-opacity="0.25"/>
<path d="M25.6052 2.22664C25.4104 2.33151 23.3743 4.33015 23.2737 4.5152C23.0852 4.86682 23.2235 5.34797 23.5628 5.52069C23.6634 5.57004 23.8645 5.61322 24.009 5.61322C24.2729 5.61322 24.2981 5.59472 25.4606 4.45969C26.2399 3.69478 26.6609 3.2383 26.7112 3.10259C26.862 2.65227 26.4787 2.15878 25.9948 2.15878C25.8503 2.15878 25.6743 2.1958 25.6052 2.22664Z" fill="#F7F0FF" fill-opacity="0.25"/>
<path d="M19.8677 5.83529C18.7994 6.11288 18.0139 6.81611 17.5866 7.86478L17.4358 8.23489L17.3729 28.1843L16.2732 26.7532C14.7147 24.7237 14.2937 24.224 13.6087 23.5763C11.5098 21.6085 9.75022 21.2631 8.32371 22.5338C7.15485 23.5701 7.12343 25.1 8.22945 27.2652C8.39284 27.5859 9.72508 29.6524 11.1956 31.8608C12.6598 34.063 14.6204 37.0054 15.5442 38.3996C16.4743 39.7875 17.3666 41.0952 17.5363 41.305C18.0453 41.9342 19.1073 42.8903 19.8175 43.353C20.936 44.087 22.042 44.5497 23.4371 44.8581C24.0781 44.9938 24.1787 45 27.1134 45C30.0355 45 30.1486 44.9938 30.777 44.8581C31.7134 44.6546 32.2915 44.451 33.1462 44.0377C35.8484 42.7299 37.7588 40.2748 38.406 37.2769C38.5506 36.6106 38.5506 36.586 38.5694 30.368C38.5883 23.4899 38.6008 23.7182 38.1986 22.9348C37.9473 22.4413 37.2874 21.7997 36.8098 21.5715C35.8295 21.1088 34.8492 21.1088 33.8814 21.5653C33.6992 21.6579 33.5358 21.7134 33.5295 21.7072C33.5169 21.6949 33.4038 21.479 33.2719 21.2322C32.7 20.1527 31.4683 19.4865 30.2177 19.579C29.759 19.6099 29.1306 19.7888 28.8729 19.9615C28.6844 20.091 28.6027 20.0663 28.5587 19.8628C28.4519 19.3755 27.6224 18.4687 27.0128 18.1602C26.1393 17.7284 24.9642 17.7161 24.1284 18.1356L23.877 18.2589V13.398C23.877 8.11152 23.8833 8.21022 23.5188 7.46381C23.2989 7.01967 22.5699 6.30411 22.1175 6.08821C21.3885 5.74276 20.559 5.65023 19.8677 5.83529ZM21.4513 7.48849C21.6022 7.57485 21.8158 7.75374 21.9226 7.87711C22.3311 8.36444 22.306 7.74757 22.306 17.7469C22.306 27.6723 22.2808 27.0554 22.6642 27.296C23.0035 27.5181 23.5754 27.3947 23.7702 27.0554C23.8267 26.9629 23.8519 26.0623 23.877 23.7182C23.9147 20.1712 23.8833 20.3871 24.3358 19.8875C24.9579 19.1842 26.1582 19.2027 26.7866 19.9245C27.2139 20.418 27.2076 20.3563 27.2076 24.224C27.2076 27.9684 27.2076 27.9622 27.5281 28.1349C27.8486 28.3015 28.0371 28.3138 28.3199 28.1905C28.7787 27.9931 28.7787 28.0116 28.7787 25.0568C28.7787 22.0958 28.7787 22.0773 29.2814 21.59C29.9475 20.93 30.9467 20.9361 31.6128 21.59C32.1093 22.0773 32.1093 22.0712 32.1093 25.5503C32.1093 28.8567 32.1093 28.832 32.4863 29.0232C32.7188 29.1404 33.0708 29.1404 33.297 29.0232C33.6678 28.8382 33.6803 28.7271 33.6803 26.3275C33.6803 23.8045 33.6929 23.7305 34.1831 23.2555C34.8492 22.5955 35.8484 22.6017 36.5145 23.2555C37.0361 23.7675 37.0109 23.3974 37.0109 30.0904C37.0109 36.6353 37.0047 36.697 36.5962 37.9369C36.1814 39.2015 35.6033 40.1144 34.5915 41.1199C33.3661 42.3351 32.0779 43.0199 30.3497 43.3653C29.7276 43.4887 29.5516 43.4949 26.8934 43.4702C24.1095 43.4517 24.097 43.4517 23.4623 43.2851C21.7655 42.8533 20.3705 42.0514 19.2142 40.8423C18.6486 40.2501 18.7994 40.466 13.5836 32.6319C11.5601 29.5969 9.78792 26.8827 9.6371 26.5989C9.27262 25.9019 9.04639 25.2233 9.00868 24.7052C8.97726 24.3351 8.99612 24.2364 9.1218 23.9958C9.20349 23.8354 9.37945 23.638 9.53655 23.5331C9.77535 23.3727 9.86961 23.3481 10.1964 23.3542C10.6426 23.3542 11.0762 23.5455 11.7172 24.0081C12.7226 24.736 13.0934 25.1616 15.7327 28.6161C17.574 31.0219 17.7374 31.2131 17.9699 31.2809C18.2967 31.3796 18.636 31.2563 18.8308 30.9725L18.9754 30.7628V19.7086C18.9754 7.23558 18.9314 8.30275 19.4781 7.76608C19.8489 7.40213 20.1945 7.27259 20.7475 7.30343C21.0617 7.31577 21.2377 7.36512 21.4513 7.48849Z" fill="#F7F0FF" fill-opacity="0.25"/>
<path d="M12.754 7.45145C12.289 7.6982 12.201 8.25338 12.5655 8.65434L12.7414 8.85173L14.4445 8.87024C15.8835 8.88258 16.1726 8.87641 16.3297 8.79005C16.7068 8.59882 16.8387 8.00663 16.5748 7.67969C16.3234 7.36509 16.16 7.34042 14.501 7.34042C13.1374 7.34042 12.9488 7.35275 12.754 7.45145Z" fill="#F7F0FF" fill-opacity="0.25"/>
<path d="M25.0333 7.4268C24.6059 7.61186 24.4426 8.09918 24.6625 8.51248C24.8447 8.8641 24.9641 8.8826 26.8054 8.8826H28.477L28.6844 8.67904C28.9609 8.40762 29.0237 8.09918 28.8603 7.79692C28.6341 7.36512 28.5084 7.34044 26.7677 7.34044C25.624 7.34661 25.1778 7.36512 25.0333 7.4268Z" fill="#F7F0FF" fill-opacity="0.25"/>
</svg>
