<svg width="16" height="16" viewBox="0 0 16 16" fill="none" xmlns="http://www.w3.org/2000/svg">
<path fill-rule="evenodd" clip-rule="evenodd" d="M4.16154 0.500001L7.50009 0.500002C8.8808 0.500002 10.0001 1.61929 10.0001 3C10.0001 3.55229 9.55237 4 9.00009 4C8.4478 4 8.00009 3.55229 8.00009 3C8.00009 2.72386 7.77623 2.5 7.50009 2.5H4.20009C3.62353 2.5 3.25126 2.50078 2.96792 2.52393C2.69626 2.54612 2.59554 2.5838 2.5461 2.609C2.35793 2.70487 2.20495 2.85785 2.10908 3.04601C2.08389 3.09546 2.04621 3.19617 2.02401 3.46784C2.00086 3.75117 2.00009 4.12345 2.00009 4.7V7C2.00009 7.51259 2.00493 7.62284 2.0193 7.69509C2.09821 8.09178 2.40831 8.40188 2.805 8.48079C2.87725 8.49516 2.9875 8.5 3.50009 8.5C4.05237 8.5 4.50009 8.94772 4.50009 9.5C4.50009 10.0523 4.05237 10.5 3.50009 10.5C3.47184 10.5 3.44388 10.5 3.4162 10.5C3.0355 10.5003 2.70767 10.5006 2.41482 10.4424C1.22474 10.2056 0.294451 9.27534 0.0577315 8.08527C-0.0005209 7.79242 -0.000259952 7.46458 4.29587e-05 7.08389C6.50124e-05 7.05621 8.73046e-05 7.02825 8.73046e-05 7L8.63509e-05 4.66146C6.84695e-05 4.13431 5.29718e-05 3.67955 0.0306567 3.30497C0.0629577 2.90963 0.134274 2.51641 0.327068 2.13803C0.614688 1.57354 1.07363 1.1146 1.63812 0.826982C2.0165 0.634188 2.40971 0.562872 2.80506 0.530571C3.17963 0.499967 3.63439 0.499983 4.16154 0.500001ZM10.1615 5.5H11.8386C12.3658 5.49998 12.8205 5.49997 13.1951 5.53057C13.5905 5.56287 13.9837 5.63419 14.3621 5.82698C14.9265 6.1146 15.3855 6.57354 15.6731 7.13803C15.8659 7.51641 15.9372 7.90963 15.9695 8.30497C16.0001 8.67955 16.0001 9.13432 16.0001 9.66148V11.3385C16.0001 11.8657 16.0001 12.3205 15.9695 12.695C15.9372 13.0904 15.8659 13.4836 15.6731 13.862C15.3855 14.4265 14.9265 14.8854 14.3621 15.173C13.9837 15.3658 13.5905 15.4371 13.1951 15.4694C12.8205 15.5 12.3658 15.5 11.8386 15.5H10.1616C9.63441 15.5 9.17964 15.5 8.80506 15.4694C8.40971 15.4371 8.01649 15.3658 7.63812 15.173C7.07363 14.8854 6.61469 14.4265 6.32707 13.862C6.13427 13.4836 6.06296 13.0904 6.03066 12.695C6.00005 12.3205 6.00007 11.8657 6.00009 11.3385V9.66146C6.00007 9.13431 6.00005 8.67955 6.03066 8.30497C6.06296 7.90963 6.13427 7.51641 6.32707 7.13803C6.61469 6.57354 7.07363 6.1146 7.63812 5.82698C8.01649 5.63419 8.40971 5.56287 8.80506 5.53057C9.17963 5.49997 9.63439 5.49998 10.1615 5.5ZM8.96792 7.52393C8.69626 7.54612 8.59554 7.5838 8.5461 7.609C8.35793 7.70487 8.20495 7.85785 8.10908 8.04601C8.08389 8.09546 8.04621 8.19617 8.02401 8.46784C8.00086 8.75117 8.00009 9.12345 8.00009 9.7V11.3C8.00009 11.8766 8.00086 12.2488 8.02401 12.5322C8.04621 12.8038 8.08389 12.9045 8.10908 12.954C8.20495 13.1422 8.35793 13.2951 8.5461 13.391C8.59554 13.4162 8.69626 13.4539 8.96792 13.4761C9.25126 13.4992 9.62353 13.5 10.2001 13.5H11.8001C12.3766 13.5 12.7489 13.4992 13.0323 13.4761C13.3039 13.4539 13.4046 13.4162 13.4541 13.391C13.6422 13.2951 13.7952 13.1422 13.8911 12.954C13.9163 12.9045 13.954 12.8038 13.9762 12.5322C13.9993 12.2488 14.0001 11.8766 14.0001 11.3V9.7C14.0001 9.12345 13.9993 8.75117 13.9762 8.46784C13.954 8.19617 13.9163 8.09546 13.8911 8.04601C13.7952 7.85785 13.6422 7.70487 13.4541 7.609C13.4046 7.5838 13.3039 7.54612 13.0323 7.52393C12.7489 7.50078 12.3766 7.5 11.8001 7.5H10.2001C9.62353 7.5 9.25126 7.50078 8.96792 7.52393Z" fill="white"/>
</svg>
