<svg width="21" height="20" viewBox="0 0 21 20" fill="none" xmlns="http://www.w3.org/2000/svg">
<path d="M9.25586 1.26172C9.58479 0.624608 10.3443 0.316067 11.0283 0.612305L11.1533 0.674805C11.4376 0.833885 11.6577 1.08909 11.7783 1.39355L13.6094 6.01562L13.6367 6.07129C13.7058 6.19419 13.8227 6.26658 13.9424 6.27637L18.7158 6.66699L18.8604 6.68652C19.569 6.82 20.05 7.48772 19.9961 8.20801C19.9681 8.58115 19.7984 8.93201 19.5186 9.18164V9.18262L16.0781 12.249L16.8701 17.7754C17.0083 18.4653 16.6372 19.1741 15.9756 19.416L15.8369 19.459C15.5164 19.5397 15.1818 19.4998 14.8906 19.3525L14.7686 19.2832L10.6846 16.668C10.5929 16.6093 10.4853 16.5938 10.3857 16.623L10.2891 16.668L6.23828 19.2617C5.61137 19.6631 4.81188 19.4872 4.3877 18.9062L4.30762 18.7852C4.11537 18.457 4.05972 18.0645 4.14941 17.6953L4.77637 15.1152L4.83008 14.917C5.12457 13.9355 5.79755 13.1144 6.70215 12.6602L10.7012 10.6514L6.2666 11.4551C5.18582 11.6507 4.08191 11.3688 3.21484 10.6904L3.04395 10.5498L1.49023 9.1875C0.908107 8.67714 0.836 7.78348 1.31836 7.18164L1.41309 7.07617C1.64392 6.84074 1.95109 6.69228 2.28418 6.66504L7.03125 6.27637L7.13281 6.25293C7.23092 6.2149 7.31768 6.13317 7.36426 6.01562L9.19629 1.39355L9.25586 1.26172Z" fill="url(#paint0_linear_7337_5860)" stroke="#C16802"/>
<defs>
<linearGradient id="paint0_linear_7337_5860" x1="17.7" y1="19" x2="4.2" y2="3.7" gradientUnits="userSpaceOnUse">
<stop stop-color="#FDAF11"/>
<stop offset="1" stop-color="#FDD865"/>
</linearGradient>
</defs>
</svg>
