<svg width="14" height="16" viewBox="0 0 14 16" fill="none" xmlns="http://www.w3.org/2000/svg">
<path fill-rule="evenodd" clip-rule="evenodd" d="M4.4001 4.8002C4.4001 4.11063 4.67403 3.44931 5.16162 2.96172C5.64922 2.47412 6.31053 2.2002 7.0001 2.2002C7.68966 2.2002 8.35098 2.47412 8.83858 2.96172C9.32617 3.44931 9.6001 4.11063 9.6001 4.8002V6.4002H4.4001V4.8002ZM2.4001 6.4754V4.8002C2.4001 4.19611 2.51908 3.59795 2.75025 3.03985C2.98142 2.48175 3.32026 1.97465 3.74741 1.5475C4.17456 1.12035 4.68166 0.781521 5.23975 0.550349C5.79785 0.319178 6.39602 0.200195 7.0001 0.200195C7.60418 0.200195 8.20234 0.319178 8.76044 0.550349C9.31854 0.781521 9.82564 1.12035 10.2528 1.5475C10.6799 1.97465 11.0188 2.48175 11.2499 3.03985C11.4811 3.59795 11.6001 4.19611 11.6001 4.8002V6.4754C12.1154 6.60846 12.5719 6.90905 12.8978 7.32989C13.2236 7.75073 13.4003 8.26795 13.4001 8.8002V13.6002C13.4001 14.2367 13.1472 14.8472 12.6972 15.2973C12.2471 15.7473 11.6366 16.0002 11.0001 16.0002H3.0001C2.36358 16.0002 1.75313 15.7473 1.30304 15.2973C0.852954 14.8472 0.600098 14.2367 0.600098 13.6002V8.8002C0.599874 8.26795 0.77658 7.75073 1.10242 7.32989C1.42826 6.90905 1.88476 6.60846 2.4001 6.4754ZM7.0001 9.8002C7.3714 9.8002 7.7275 9.94769 7.99005 10.2102C8.2526 10.4728 8.4001 10.8289 8.4001 11.2002C8.4001 11.5715 8.2526 11.9276 7.99005 12.1901C7.7275 12.4527 7.3714 12.6002 7.0001 12.6002C6.62879 12.6002 6.2727 12.4527 6.01015 12.1901C5.7476 11.9276 5.6001 11.5715 5.6001 11.2002C5.6001 10.8289 5.7476 10.4728 6.01015 10.2102C6.2727 9.94769 6.62879 9.8002 7.0001 9.8002Z" fill="#AAAAAA"/>
</svg>
