<svg width="20" height="20" viewBox="0 0 20 20" fill="none" xmlns="http://www.w3.org/2000/svg">
<g opacity="0.5" clip-path="url(#clip0_597_59231)">
<path d="M1 19.0001L10.056 9.94409" stroke="#AAAAAA" stroke-width="2.4" stroke-linecap="round" stroke-linejoin="round"/>
<path d="M17.968 2.72204L16.724 6.18404C16.6923 6.26773 16.682 6.35796 16.6939 6.44663C16.7057 6.5353 16.7394 6.61963 16.792 6.69204L18.896 9.55004C18.9541 9.63631 18.9879 9.73671 18.9935 9.8406C18.9992 9.94448 18.9767 10.048 18.9283 10.1401C18.8799 10.2322 18.8074 10.3094 18.7186 10.3636C18.6298 10.4179 18.528 10.447 18.424 10.448L14.8 10.486C14.7087 10.4876 14.619 10.5105 14.5381 10.5528C14.4571 10.5952 14.3873 10.6559 14.334 10.73L12.166 13.742C12.1092 13.8285 12.029 13.8972 11.9348 13.94C11.8406 13.9829 11.7362 13.9981 11.6337 13.9841C11.5312 13.9701 11.4347 13.9273 11.3555 13.8608C11.2763 13.7942 11.2175 13.7066 11.186 13.608L10.186 10.168C10.1617 10.0828 10.1161 10.0052 10.0535 9.94253C9.99083 9.87988 9.9132 9.83427 9.82797 9.81004L6.38797 8.81004C6.28941 8.77854 6.20178 8.71976 6.13522 8.64053C6.06867 8.56129 6.02591 8.46483 6.01189 8.36231C5.99787 8.25978 6.01317 8.15538 6.05601 8.06119C6.09885 7.96699 6.16748 7.88686 6.25397 7.83004L9.26997 5.67004C9.34468 5.61636 9.4057 5.54583 9.44809 5.46418C9.49048 5.38253 9.51305 5.29204 9.51397 5.20004L9.55197 1.57604C9.55298 1.47201 9.58214 1.37019 9.63637 1.2814C9.6906 1.19261 9.76786 1.12016 9.85996 1.07175C9.95205 1.02335 10.0555 1.00079 10.1594 1.00648C10.2633 1.01216 10.3637 1.04588 10.45 1.10404L13.308 3.20004C13.3804 3.25257 13.4647 3.28628 13.5534 3.29815C13.6421 3.31002 13.7323 3.29968 13.816 3.26804L17.278 2.02404C17.3752 1.98584 17.4815 1.977 17.5837 1.99862C17.6859 2.02023 17.7796 2.07135 17.853 2.14565C17.9264 2.21995 17.9765 2.31415 17.9969 2.41661C18.0174 2.51906 18.0073 2.62525 17.968 2.72204Z" stroke="#AAAAAA" stroke-width="2.4" stroke-linecap="round" stroke-linejoin="round"/>
</g>
<defs>
<clipPath id="clip0_597_59231">
<rect width="20" height="20" fill="white"/>
</clipPath>
</defs>
</svg>
