<svg width="17" height="14" viewBox="0 0 17 14" fill="none" xmlns="http://www.w3.org/2000/svg">
<path d="M2.4955 5.30438C2.63987 5.47619 2.84837 5.4989 3.05688 5.43303C3.21296 5.3837 3.35996 5.30691 3.51078 5.24188C3.54738 5.22618 3.58311 5.20853 3.65427 5.17545C3.62381 5.25449 3.60419 5.29597 3.59189 5.33914C3.53977 5.51824 3.46744 5.69537 3.44342 5.87811C3.39979 6.20604 3.66832 6.39551 3.98459 6.26994C4.0865 6.22958 4.17728 6.16176 4.27099 6.10374C4.31052 6.07935 4.34478 6.0474 4.41418 5.99303C4.41418 6.10262 4.40921 6.17157 4.41565 6.23939C4.42151 6.29909 4.44054 6.35767 4.45372 6.41653C4.51434 6.39327 4.58432 6.3815 4.63352 6.3445C4.93046 6.12112 5.06809 5.85401 4.99928 5.46807C4.85286 4.64685 5.01597 3.88869 5.61482 3.24685C5.64879 3.21042 5.65084 3.12129 5.63093 3.06944C5.52785 2.79729 5.42506 2.52401 5.29797 2.26195C5.2233 2.10808 5.11876 1.96177 5.00162 1.83425C4.68857 1.49399 4.27157 1.30452 3.83231 1.16886C3.06654 0.932028 2.2952 0.711448 1.52474 0.489187C1.35724 0.440979 1.18446 0.403702 1.0111 0.379317C0.741399 0.341199 0.621627 0.453591 0.654133 0.71313C0.667896 0.822719 0.702158 0.933429 0.747841 1.03489C0.910952 1.39645 1.21843 1.62179 1.56779 1.80398C1.63309 1.83817 1.69898 1.87096 1.76487 1.90432L1.7555 1.93795C1.69488 1.94944 1.63426 1.96093 1.57365 1.97242C1.33996 2.01671 1.10247 2.0481 0.873762 2.10948C0.680781 2.16133 0.643298 2.2726 0.728221 2.44497C0.753112 2.49542 0.784739 2.54335 0.819294 2.5882C1.10013 2.95312 1.49722 3.13867 1.94087 3.25246C1.98831 3.26479 2.03604 3.27684 2.12594 3.30011C2.02813 3.34859 1.97074 3.37242 1.91832 3.40381C1.80675 3.46996 1.68756 3.52909 1.58946 3.61066C1.31126 3.84245 1.34377 4.05994 1.67058 4.22251C1.95873 4.36573 2.27382 4.40132 2.5898 4.43243C2.63929 4.4372 2.68819 4.44617 2.75584 4.4557C2.66681 4.58631 2.58394 4.69001 2.52098 4.80408C2.43225 4.9644 2.35992 5.14238 2.49609 5.30438H2.4955Z" fill="white"/>
<path d="M16.4124 3.38952C16.362 3.37242 16.3096 3.35812 16.2569 3.35084C15.5227 3.24966 14.7865 3.14763 14.0433 3.18267C13.7505 3.1964 13.4597 3.27712 13.1709 3.33963C13.072 3.36121 12.9742 3.42007 12.9736 3.53834C12.973 3.65998 13.0749 3.70399 13.1748 3.7309C13.5839 3.84133 13.5303 4.20681 13.3311 4.40048C13.2324 4.49634 13.1212 4.58098 13.0114 4.66563C12.9358 4.72392 12.8904 4.78503 12.9311 4.88172C13.0389 5.13874 12.9973 5.38398 12.8682 5.6239C12.833 5.68921 12.7973 5.76152 12.7908 5.83271C12.7674 6.0886 12.6403 6.28676 12.4646 6.47371C12.3358 6.61076 12.2318 6.77108 12.1296 6.92888C12.1018 6.97176 12.1003 7.0522 12.1232 7.09901C12.2277 7.31286 12.5674 7.36528 12.7279 7.18618C12.8075 7.09733 12.8585 6.97989 12.9033 6.86834C12.9469 6.75931 12.9926 6.73493 13.0907 6.81369C13.2228 6.91963 13.3751 6.97625 13.5508 6.95635C13.7396 6.93505 13.8518 6.82742 13.8336 6.64748C13.8193 6.50566 13.7666 6.3672 13.7294 6.22762C13.7183 6.18558 13.7022 6.14494 13.6779 6.07319C13.7569 6.09841 13.8006 6.11775 13.8462 6.12616C14.0843 6.1696 14.3227 6.2436 14.5611 6.2436C14.8876 6.2436 14.9904 6.05301 14.8498 5.77273C14.7994 5.67239 14.7277 5.58186 14.6668 5.48628C14.648 5.45685 14.6334 5.42546 14.6141 5.38931C14.6966 5.38931 14.7643 5.38706 14.8316 5.38959C15.1754 5.40304 15.5037 5.35399 15.7995 5.17349C16.0671 5.01009 16.0662 4.81053 15.7945 4.6603C15.6727 4.59303 15.5447 4.53642 15.3913 4.46102C15.6053 4.39235 15.8001 4.3534 15.9699 4.26875C16.1743 4.16673 16.3767 4.04537 16.545 3.89654C16.7708 3.6967 16.7049 3.48733 16.4127 3.38895L16.4124 3.38952Z" fill="white"/>
<path d="M13.8497 7.81961C13.7309 7.65789 13.5446 7.61584 13.354 7.64415C13.2114 7.66517 13.0685 7.7117 12.9373 7.77028C12.3428 8.03598 11.8113 7.72655 11.5513 7.34425C11.4801 7.23943 11.4652 7.14357 11.5255 7.03034C11.6031 6.88488 11.6655 6.73184 11.7454 6.5875C11.7855 6.51519 11.8403 6.44512 11.9044 6.39102C12.0874 6.23631 12.2034 6.05133 12.245 5.81954C12.2629 5.71976 12.2977 5.6211 12.3387 5.52748C12.4421 5.29177 12.4778 5.05297 12.4084 4.8024C12.3372 4.54539 12.3964 4.44084 12.6567 4.34471C12.7337 4.31612 12.8137 4.29033 12.8831 4.24885C12.9176 4.22839 12.9314 4.1757 12.9545 4.13758C12.915 4.11684 12.8752 4.07788 12.8359 4.07844C12.6801 4.08068 12.5677 4.00613 12.5003 3.88813C12.4195 3.74715 12.3548 3.5958 12.3036 3.44277C12.2576 3.30571 12.2462 3.15829 12.2066 3.01899C12.1024 2.65182 11.9126 2.33258 11.5709 2.12406C11.124 1.85134 10.6467 1.85555 10.1673 2.03717C10.0434 2.08426 9.96788 2.07052 9.8727 1.98167C9.51427 1.6473 9.07969 1.46792 8.57748 1.48222C7.86178 1.50212 7.33027 1.82444 7.00493 2.43545C6.82542 2.77262 6.58881 3.06467 6.32467 3.34215C6.03417 3.64765 5.78409 3.97754 5.64967 4.38058C5.49242 4.85285 5.49037 5.32905 5.58788 5.80636C5.62654 5.99527 5.5668 6.12364 5.44322 6.26126C5.02973 6.72147 4.59867 7.17272 4.30701 7.71759C3.94066 8.40231 3.90845 9.08619 4.38988 9.74344C4.4625 9.84238 4.54684 9.93459 4.63411 10.0223C4.70732 10.096 4.72459 10.1726 4.68857 10.2653C4.66661 10.3222 4.64611 10.38 4.62913 10.4383C4.59516 10.5554 4.53191 10.5588 4.43585 10.4957C4.3114 10.4139 4.18518 10.3329 4.05224 10.2645C3.7594 10.114 3.47183 10.1297 3.19451 10.3079C2.83022 10.5417 2.62552 10.8761 2.52362 11.2763C2.47296 11.4753 2.46417 11.6712 2.53357 11.8696C2.62465 12.1311 2.8595 12.2525 3.13331 12.1665C3.37256 12.0913 3.49379 11.9075 3.58633 11.7001C3.6367 11.5868 3.71244 11.5682 3.81357 11.644C4.31725 12.0224 4.8347 12.0482 5.37089 11.7124C5.65231 11.5361 5.87809 11.3038 6.06082 11.0347C6.11382 10.9568 6.16741 10.9153 6.27518 10.9329C6.82279 11.0235 7.37215 11.1048 7.91947 11.1961C7.96954 11.2043 8.04129 11.2561 8.04949 11.2973C8.06881 11.3946 8.05564 11.4977 8.05564 11.6233C7.95051 11.5978 7.86266 11.5756 7.7748 11.5554C7.52062 11.4974 7.27259 11.4915 7.03949 11.63C6.59349 11.8949 6.33843 12.6314 6.53287 13.0978C6.60579 13.273 6.71648 13.407 6.92791 13.4302C7.15311 13.4549 7.33408 13.3739 7.45737 13.1976C7.52677 13.0984 7.57802 12.9835 7.61638 12.8691C7.67641 12.6903 7.6688 12.6881 7.85094 12.7534C8.30748 12.917 8.72272 12.8066 9.03108 12.4439C9.333 12.0885 9.47561 11.6695 9.5579 11.2281C9.58104 11.1042 9.62467 11.0179 9.75732 10.9635C10.1292 10.8116 10.4279 10.5641 10.6678 10.2561C11.0022 9.82585 11.1627 9.32835 11.2537 8.80647C11.2663 8.73584 11.2845 8.66605 11.3047 8.5758C11.3758 8.61504 11.4209 8.63998 11.4666 8.66465C11.8397 8.86673 12.2224 9.04527 12.6681 9.00407C13.1721 8.95782 13.585 8.75294 13.8477 8.32355C13.9464 8.16211 13.9689 7.98217 13.8497 7.81961ZM9.52569 9.36871C9.51456 9.64002 9.37576 9.81996 9.12421 9.88947C9.07267 9.90376 9.01937 9.91077 8.96637 9.91077C8.77602 9.91077 8.59563 9.81744 8.48318 9.66104C8.44921 9.61339 8.41729 9.56322 8.38625 9.51502C8.31451 9.40346 8.24715 9.29808 8.15637 9.21708C8.0161 9.09151 7.84069 8.98725 7.66177 8.92363C7.17243 8.74901 6.78267 8.56571 6.47138 8.2389C6.14926 7.90117 5.97238 7.49869 5.94573 7.04267C5.93783 6.72792 6.06023 6.51042 6.30915 6.39383C6.41925 6.34226 6.53141 6.31619 6.6424 6.31619C6.773 6.31619 6.90068 6.35207 7.02221 6.42326C7.17683 6.51379 7.27054 6.66598 7.29367 6.8633C7.34638 7.31286 7.61316 7.60295 8.13353 7.77672C8.6337 7.94321 8.99653 8.19686 9.24251 8.55226C9.38161 8.75266 9.53974 9.02649 9.52569 9.36871Z" fill="white"/>
</svg>
