<svg width="32" height="32" viewBox="0 0 32 32" fill="none" xmlns="http://www.w3.org/2000/svg">
<g filter="url(#filter0_ii_8618_14988)">
<path d="M5.88591 13.3071C6.12905 13.5964 6.48021 13.6347 6.83137 13.5237C7.09425 13.4406 7.34184 13.3113 7.59584 13.2018C7.65749 13.1754 7.71766 13.1456 7.83751 13.0899C7.78621 13.223 7.75317 13.2929 7.73245 13.3656C7.64466 13.6672 7.52284 13.9656 7.4824 14.2733C7.40891 14.8256 7.86118 15.1447 8.39384 14.9333C8.56547 14.8653 8.71837 14.751 8.87619 14.6533C8.94277 14.6123 9.00048 14.5585 9.11737 14.4669C9.11737 14.6514 9.10898 14.7676 9.11983 14.8818C9.1297 14.9824 9.16176 15.081 9.18395 15.1801C9.28604 15.141 9.40392 15.1211 9.48678 15.0588C9.98688 14.6826 10.2187 14.2327 10.1028 13.5827C9.85618 12.1996 10.1309 10.9227 11.1395 9.84174C11.1967 9.78037 11.2002 9.63026 11.1666 9.54293C10.993 9.08457 10.8199 8.62433 10.6059 8.18296C10.4801 7.9238 10.304 7.67739 10.1067 7.46261C9.5795 6.88954 8.87718 6.57044 8.13737 6.34197C6.84765 5.94309 5.54855 5.57158 4.25094 5.19725C3.96883 5.11606 3.67784 5.05327 3.38586 5.01221C2.93162 4.94801 2.7299 5.1373 2.78465 5.57442C2.80783 5.75899 2.86553 5.94545 2.94247 6.11633C3.21719 6.72527 3.73505 7.1048 4.32344 7.41163C4.43342 7.46922 4.54439 7.52445 4.65536 7.58062L4.63958 7.63727C4.53749 7.65662 4.4354 7.67598 4.3333 7.69533C3.93973 7.76992 3.53974 7.82279 3.15455 7.92616C2.82953 8.01349 2.7664 8.2009 2.90943 8.49121C2.95135 8.57618 3.00462 8.6569 3.06281 8.73242C3.5358 9.34703 4.20458 9.65953 4.95178 9.85118C5.03168 9.87195 5.11207 9.89225 5.26348 9.93143C5.09875 10.0131 5.00209 10.0532 4.9138 10.1061C4.72589 10.2175 4.52516 10.3171 4.35994 10.4545C3.89139 10.8448 3.94614 11.2112 4.49655 11.4849C4.98186 11.7262 5.51255 11.7861 6.04472 11.8385C6.12807 11.8465 6.21043 11.8616 6.32436 11.8777C6.17443 12.0977 6.03485 12.2723 5.92881 12.4644C5.77937 12.7345 5.65755 13.0342 5.88689 13.3071H5.88591Z" fill="url(#paint0_radial_8618_14988)"/>
<path d="M29.3249 10.082C29.24 10.0532 29.1517 10.0291 29.063 10.0169C27.8265 9.84646 26.5866 9.67463 25.3349 9.73364C24.8416 9.75677 24.3519 9.89272 23.8656 9.99799C23.6989 10.0343 23.5342 10.1335 23.5332 10.3327C23.5322 10.5375 23.7038 10.6117 23.872 10.657C24.561 10.843 24.4708 11.4585 24.1354 11.7847C23.9692 11.9461 23.7818 12.0887 23.5968 12.2313C23.4696 12.3294 23.3931 12.4323 23.4617 12.5952C23.6432 13.0281 23.5731 13.4411 23.3556 13.8452C23.2964 13.9552 23.2363 14.077 23.2254 14.1969C23.186 14.6278 22.9719 14.9616 22.676 15.2764C22.459 15.5073 22.2839 15.7773 22.1118 16.043C22.0649 16.1153 22.0625 16.2508 22.1009 16.3296C22.277 16.6898 22.8491 16.778 23.1194 16.4764C23.2535 16.3268 23.3394 16.129 23.4148 15.9411C23.4883 15.7575 23.5652 15.7164 23.7305 15.849C23.9529 16.0275 24.2094 16.1228 24.5053 16.0893C24.8234 16.0534 25.0123 15.8722 24.9817 15.5691C24.9576 15.3303 24.8688 15.0971 24.8061 14.862C24.7874 14.7912 24.7603 14.7227 24.7193 14.6019C24.8525 14.6444 24.926 14.6769 25.0029 14.6911C25.4039 14.7643 25.8054 14.8889 26.2068 14.8889C26.7568 14.8889 26.9299 14.5679 26.6931 14.0958C26.6083 13.9269 26.4875 13.7744 26.3849 13.6134C26.3533 13.5638 26.3287 13.511 26.2961 13.4501C26.4352 13.4501 26.5491 13.4463 26.6626 13.4506C27.2416 13.4732 27.7945 13.3906 28.2926 13.0866C28.7434 12.8114 28.7419 12.4753 28.2842 12.2223C28.079 12.109 27.8635 12.0136 27.6051 11.8867C27.9656 11.771 28.2936 11.7054 28.5796 11.5628C28.9239 11.391 29.2647 11.1866 29.5483 10.9359C29.9285 10.5994 29.8176 10.2468 29.3253 10.0811L29.3249 10.082Z" fill="url(#paint1_radial_8618_14988)"/>
<path d="M25.0088 17.5432C24.8086 17.2708 24.4949 17.2 24.1739 17.2477C23.9337 17.2831 23.693 17.3615 23.472 17.4601C22.4708 17.9076 21.5757 17.3865 21.1377 16.7426C21.0178 16.5661 20.9927 16.4046 21.0943 16.2139C21.225 15.9689 21.33 15.7112 21.4647 15.4681C21.5323 15.3463 21.6245 15.2283 21.7325 15.1372C22.0408 14.8766 22.2361 14.5651 22.3061 14.1747C22.3362 14.0066 22.3949 13.8405 22.4639 13.6828C22.638 13.2858 22.6982 12.8836 22.5813 12.4616C22.4615 12.0287 22.5611 11.8527 22.9995 11.6908C23.1292 11.6426 23.2639 11.5992 23.3808 11.5293C23.439 11.4949 23.4622 11.4061 23.5011 11.3419C23.4345 11.307 23.3675 11.2414 23.3014 11.2423C23.039 11.2461 22.8496 11.1205 22.7362 10.9218C22.6 10.6843 22.491 10.4294 22.4047 10.1717C22.3273 9.94087 22.3081 9.69257 22.2415 9.45796C22.0659 8.83958 21.7463 8.30192 21.1707 7.95071C20.4181 7.49141 19.6142 7.49849 18.8068 7.80438C18.5982 7.88368 18.471 7.86055 18.3107 7.71091C17.707 7.14776 16.9751 6.84564 16.1292 6.86972C14.9238 6.90323 14.0287 7.44609 13.4807 8.47516C13.1784 9.04303 12.7799 9.53491 12.335 10.0022C11.8458 10.5168 11.4246 11.0724 11.1982 11.7512C10.9333 12.5466 10.9299 13.3486 11.0941 14.1525C11.1592 14.4707 11.0586 14.6869 10.8505 14.9186C10.1541 15.6937 9.42808 16.4537 8.93686 17.3714C8.31986 18.5246 8.26561 19.6764 9.07643 20.7834C9.19875 20.95 9.34079 21.1053 9.48776 21.2531C9.61106 21.3772 9.64016 21.5061 9.5795 21.6623C9.54251 21.7581 9.50798 21.8554 9.47938 21.9536C9.42217 22.1509 9.31564 22.1566 9.15386 22.0503C8.94425 21.9125 8.73168 21.7761 8.50777 21.6609C8.01457 21.4074 7.53024 21.4338 7.06318 21.7341C6.44964 22.1278 6.10489 22.6909 5.93325 23.365C5.84793 23.7002 5.83313 24.0301 5.95002 24.3643C6.10341 24.8048 6.49896 25.0091 6.9601 24.8642C7.36305 24.7377 7.56723 24.4281 7.72308 24.0787C7.80791 23.888 7.93549 23.8566 8.10581 23.9843C8.95412 24.6216 9.82561 24.665 10.7287 24.0995C11.2026 23.8026 11.5829 23.4113 11.8906 22.9581C11.9799 22.8269 12.0702 22.757 12.2517 22.7867C13.174 22.9392 14.0992 23.0761 15.021 23.23C15.1053 23.2437 15.2262 23.331 15.24 23.4004C15.2725 23.5642 15.2503 23.7379 15.2503 23.9494C15.0733 23.9064 14.9253 23.8692 14.7774 23.8352C14.3493 23.7374 13.9315 23.7275 13.5389 23.9607C12.7878 24.4068 12.3582 25.6474 12.6857 26.4328C12.8085 26.7279 12.9949 26.9535 13.351 26.9927C13.7303 27.0342 14.0351 26.8978 14.2427 26.6009C14.3596 26.4338 14.4459 26.2403 14.5105 26.0477C14.6116 25.7465 14.5988 25.7427 14.9056 25.8527C15.6745 26.1284 16.3739 25.9424 16.8932 25.3316C17.4017 24.733 17.6419 24.0273 17.7805 23.2838C17.8194 23.0752 17.8929 22.9298 18.1163 22.8382C18.7427 22.5823 19.2458 22.1655 19.6497 21.6467C20.2129 20.9221 20.4832 20.0843 20.6366 19.2053C20.6578 19.0863 20.6884 18.9688 20.7224 18.8168C20.8423 18.8829 20.9182 18.9249 20.9952 18.9664C21.6235 19.3068 22.2681 19.6075 23.0188 19.5381C23.8676 19.4602 24.563 19.1151 25.0054 18.392C25.1716 18.1201 25.2096 17.817 25.0088 17.5432ZM17.7262 20.1522C17.7075 20.6092 17.4737 20.9122 17.05 21.0293C16.9632 21.0534 16.8735 21.0652 16.7842 21.0652C16.4636 21.0652 16.1598 20.908 15.9704 20.6446C15.9132 20.5643 15.8594 20.4798 15.8072 20.3986C15.6863 20.2108 15.5729 20.0333 15.42 19.8969C15.1838 19.6854 14.8883 19.5098 14.587 19.4026C13.7628 19.1085 13.1064 18.7998 12.5821 18.2494C12.0396 17.6806 11.7417 17.0027 11.6968 16.2347C11.6835 15.7046 11.8897 15.3383 12.3089 15.1419C12.4943 15.055 12.6832 15.0111 12.8701 15.0111C13.0901 15.0111 13.3051 15.0716 13.5098 15.1915C13.7702 15.3439 13.9281 15.6003 13.967 15.9326C14.0558 16.6898 14.5051 17.1783 15.3815 17.471C16.2239 17.7514 16.835 18.1786 17.2493 18.7772C17.4836 19.1147 17.7499 19.5759 17.7262 20.1522Z" fill="url(#paint2_radial_8618_14988)"/>
</g>
<defs>
<filter id="filter0_ii_8618_14988" x="2.77588" y="1" width="27" height="30" filterUnits="userSpaceOnUse" color-interpolation-filters="sRGB">
<feFlood flood-opacity="0" result="BackgroundImageFix"/>
<feBlend mode="normal" in="SourceGraphic" in2="BackgroundImageFix" result="shape"/>
<feColorMatrix in="SourceAlpha" type="matrix" values="0 0 0 0 0 0 0 0 0 0 0 0 0 0 0 0 0 0 127 0" result="hardAlpha"/>
<feOffset dy="4"/>
<feGaussianBlur stdDeviation="4.5"/>
<feComposite in2="hardAlpha" operator="arithmetic" k2="-1" k3="1"/>
<feColorMatrix type="matrix" values="0 0 0 0 0.88 0 0 0 0 0.899873 0 0 0 0 1 0 0 0 1 0"/>
<feBlend mode="normal" in2="shape" result="effect1_innerShadow_8618_14988"/>
<feColorMatrix in="SourceAlpha" type="matrix" values="0 0 0 0 0 0 0 0 0 0 0 0 0 0 0 0 0 0 127 0" result="hardAlpha"/>
<feOffset dy="-4"/>
<feGaussianBlur stdDeviation="4"/>
<feComposite in2="hardAlpha" operator="arithmetic" k2="-1" k3="1"/>
<feColorMatrix type="matrix" values="0 0 0 0 0.785388 0 0 0 0 0.686667 0 0 0 0 1 0 0 0 1 0"/>
<feBlend mode="normal" in2="effect1_innerShadow_8618_14988" result="effect2_innerShadow_8618_14988"/>
</filter>
<radialGradient id="paint0_radial_8618_14988" cx="0" cy="0" r="1" gradientUnits="userSpaceOnUse" gradientTransform="translate(5.04908 9.18) rotate(34.4951) scale(31.4654 17.7809)">
<stop stop-color="#315AF3"/>
<stop offset="0.509" stop-color="#AE63FF"/>
<stop offset="1" stop-color="#F242FF"/>
</radialGradient>
<radialGradient id="paint1_radial_8618_14988" cx="0" cy="0" r="1" gradientUnits="userSpaceOnUse" gradientTransform="translate(5.04908 9.18) rotate(34.4951) scale(31.4654 17.7809)">
<stop stop-color="#315AF3"/>
<stop offset="0.509" stop-color="#AE63FF"/>
<stop offset="1" stop-color="#F242FF"/>
</radialGradient>
<radialGradient id="paint2_radial_8618_14988" cx="0" cy="0" r="1" gradientUnits="userSpaceOnUse" gradientTransform="translate(5.04908 9.18) rotate(34.4951) scale(31.4654 17.7809)">
<stop stop-color="#315AF3"/>
<stop offset="0.509" stop-color="#AE63FF"/>
<stop offset="1" stop-color="#F242FF"/>
</radialGradient>
</defs>
</svg>
