<svg width="70" height="70" viewBox="0 0 70 70" fill="none" xmlns="http://www.w3.org/2000/svg">
<g filter="url(#filter0_ii_8554_4658)">
<path fill-rule="evenodd" clip-rule="evenodd" d="M35 64.2727C51.1669 64.2727 64.2727 51.1669 64.2727 35C64.2727 18.8331 51.1669 5.72727 35 5.72727C18.8331 5.72727 5.72727 18.8331 5.72727 35C5.72727 51.1669 18.8331 64.2727 35 64.2727ZM35 70C54.33 70 70 54.33 70 35C70 15.67 54.33 0 35 0C15.67 0 0 15.67 0 35C0 54.33 15.67 70 35 70Z" fill="url(#paint0_radial_8554_4658)"/>
<path d="M38.9773 50.1136C38.9773 52.3102 37.1966 54.0909 35 54.0909C32.8034 54.0909 31.0227 52.3102 31.0227 50.1136C31.0227 47.917 32.8034 46.1364 35 46.1364C37.1966 46.1364 38.9773 47.917 38.9773 50.1136Z" fill="url(#paint1_radial_8554_4658)"/>
<path fill-rule="evenodd" clip-rule="evenodd" d="M35.0324 22.2727C31.4335 22.2727 30.2894 24.5395 30.1315 25.1686C29.7037 26.873 27.9752 27.9078 26.2708 27.48C24.5664 27.0522 23.5315 25.3237 23.9594 23.6193C24.6889 20.713 27.982 15.9091 35.0324 15.9091C42.0827 15.9091 45.3758 20.713 46.1053 23.6193C46.8274 26.4957 46.5904 29.0129 45.6403 31.1812C44.7213 33.2784 43.245 34.7952 41.9256 35.9078C41.2623 36.4672 40.5961 36.9586 40.0252 37.373C39.9156 37.4526 39.8112 37.5281 39.7113 37.6004C39.2591 37.9276 38.9008 38.1868 38.5813 38.4414C38.3784 38.603 38.2418 38.7241 38.1522 38.8097C37.8607 40.2663 36.5747 41.3636 35.0324 41.3636C33.2751 41.3636 31.8505 39.9391 31.8505 38.1818C31.8505 36.8741 32.3902 35.8425 32.9284 35.1292C33.4465 34.4426 34.0856 33.8868 34.6158 33.4644C35.0627 33.1083 35.5686 32.7426 36.0235 32.4138C36.1136 32.3487 36.2018 32.2849 36.2871 32.223C36.8377 31.8234 37.3468 31.4448 37.8232 31.043C38.7835 30.2332 39.4453 29.4631 39.8117 28.627C40.1469 27.8621 40.3426 26.7998 39.9332 25.1686C39.7753 24.5395 38.6312 22.2727 35.0324 22.2727Z" fill="url(#paint2_radial_8554_4658)"/>
</g>
<defs>
<filter id="filter0_ii_8554_4658" x="0" y="-4" width="70" height="78" filterUnits="userSpaceOnUse" color-interpolation-filters="sRGB">
<feFlood flood-opacity="0" result="BackgroundImageFix"/>
<feBlend mode="normal" in="SourceGraphic" in2="BackgroundImageFix" result="shape"/>
<feColorMatrix in="SourceAlpha" type="matrix" values="0 0 0 0 0 0 0 0 0 0 0 0 0 0 0 0 0 0 127 0" result="hardAlpha"/>
<feOffset dy="4"/>
<feGaussianBlur stdDeviation="4.5"/>
<feComposite in2="hardAlpha" operator="arithmetic" k2="-1" k3="1"/>
<feColorMatrix type="matrix" values="0 0 0 0 0.88 0 0 0 0 0.899873 0 0 0 0 1 0 0 0 1 0"/>
<feBlend mode="normal" in2="shape" result="effect1_innerShadow_8554_4658"/>
<feColorMatrix in="SourceAlpha" type="matrix" values="0 0 0 0 0 0 0 0 0 0 0 0 0 0 0 0 0 0 127 0" result="hardAlpha"/>
<feOffset dy="-4"/>
<feGaussianBlur stdDeviation="4"/>
<feComposite in2="hardAlpha" operator="arithmetic" k2="-1" k3="1"/>
<feColorMatrix type="matrix" values="0 0 0 0 0.785388 0 0 0 0 0.686667 0 0 0 0 1 0 0 0 1 0"/>
<feBlend mode="normal" in2="effect1_innerShadow_8554_4658" result="effect2_innerShadow_8554_4658"/>
</filter>
<radialGradient id="paint0_radial_8554_4658" cx="0" cy="0" r="1" gradientUnits="userSpaceOnUse" gradientTransform="translate(5.89347 13.3) rotate(40.1419) scale(87.9503 52.476)">
<stop stop-color="#315AF3"/>
<stop offset="0.509" stop-color="#AE63FF"/>
<stop offset="1" stop-color="#F242FF"/>
</radialGradient>
<radialGradient id="paint1_radial_8554_4658" cx="0" cy="0" r="1" gradientUnits="userSpaceOnUse" gradientTransform="translate(5.89347 13.3) rotate(40.1419) scale(87.9503 52.476)">
<stop stop-color="#315AF3"/>
<stop offset="0.509" stop-color="#AE63FF"/>
<stop offset="1" stop-color="#F242FF"/>
</radialGradient>
<radialGradient id="paint2_radial_8554_4658" cx="0" cy="0" r="1" gradientUnits="userSpaceOnUse" gradientTransform="translate(5.89347 13.3) rotate(40.1419) scale(87.9503 52.476)">
<stop stop-color="#315AF3"/>
<stop offset="0.509" stop-color="#AE63FF"/>
<stop offset="1" stop-color="#F242FF"/>
</radialGradient>
</defs>
</svg>
