<svg width="16" height="17" viewBox="0 0 16 17" fill="none" xmlns="http://www.w3.org/2000/svg">
<path d="M8.04824 15.1014C7.1097 15.1014 6.2265 14.9221 5.39863 14.5635C4.57077 14.2093 3.8403 13.7157 3.20723 13.0826C2.57858 12.4495 2.08496 11.7191 1.72637 10.8912C1.36777 10.0633 1.18848 9.18014 1.18848 8.2416C1.18848 7.30306 1.36777 6.41986 1.72637 5.59199C2.08496 4.76413 2.57858 4.03587 3.20723 3.40723C3.8403 2.77415 4.56855 2.27832 5.39199 1.91973C6.21986 1.56113 7.10306 1.38184 8.0416 1.38184C8.98457 1.38184 9.86999 1.56113 10.6979 1.91973C11.5257 2.27832 12.2562 2.77415 12.8893 3.40723C13.5223 4.03587 14.0182 4.76413 14.3768 5.59199C14.7354 6.41986 14.9146 7.30306 14.9146 8.2416C14.9146 9.18014 14.7354 10.0633 14.3768 10.8912C14.0182 11.7191 13.5223 12.4495 12.8893 13.0826C12.2562 13.7157 11.5257 14.2093 10.6979 14.5635C9.86999 14.9221 8.98678 15.1014 8.04824 15.1014ZM8.04824 13.7467C8.81413 13.7467 9.5291 13.605 10.1932 13.3217C10.8572 13.0383 11.4416 12.6443 11.9463 12.1396C12.451 11.635 12.845 11.0506 13.1283 10.3865C13.4117 9.72246 13.5533 9.00749 13.5533 8.2416C13.5533 7.48014 13.4117 6.76738 13.1283 6.10332C12.845 5.43483 12.451 4.84824 11.9463 4.34355C11.4416 3.83887 10.855 3.44486 10.1865 3.16152C9.52246 2.87819 8.80749 2.73652 8.0416 2.73652C7.28014 2.73652 6.56517 2.87819 5.89668 3.16152C5.23262 3.44486 4.65046 3.83887 4.1502 4.34355C3.64993 4.84824 3.25814 5.43483 2.9748 6.10332C2.69147 6.76738 2.5498 7.48014 2.5498 8.2416C2.5498 9.00749 2.69147 9.72246 2.9748 10.3865C3.25814 11.0506 3.64993 11.635 4.1502 12.1396C4.65488 12.6443 5.23926 13.0383 5.90332 13.3217C6.57181 13.605 7.28678 13.7467 8.04824 13.7467ZM7.90215 9.56309C7.48158 9.56309 7.27129 9.37494 7.27129 8.99863C7.27129 8.98535 7.27129 8.97207 7.27129 8.95879C7.27129 8.94551 7.27129 8.93444 7.27129 8.92559C7.27129 8.62012 7.34655 8.3722 7.49707 8.18184C7.65202 7.99147 7.84902 7.81439 8.08809 7.65059C8.37142 7.45579 8.58171 7.28978 8.71895 7.15254C8.86061 7.0153 8.93144 6.84264 8.93144 6.63457C8.93144 6.40879 8.84733 6.22507 8.6791 6.0834C8.5153 5.9373 8.29837 5.86426 8.02832 5.86426C7.89551 5.86426 7.77155 5.88639 7.65645 5.93066C7.54577 5.97494 7.44173 6.03913 7.34434 6.12324C7.25137 6.20293 7.16725 6.30254 7.09199 6.42207L6.98574 6.56152C6.92376 6.64564 6.8485 6.71204 6.75996 6.76074C6.67585 6.80944 6.57402 6.83379 6.45449 6.83379C6.31725 6.83379 6.19551 6.7873 6.08926 6.69434C5.98301 6.60137 5.92988 6.4752 5.92988 6.31582C5.92988 6.25384 5.93431 6.19629 5.94316 6.14316C5.95645 6.08561 5.97415 6.02806 5.99629 5.97051C6.09811 5.66061 6.33275 5.39277 6.70019 5.16699C7.07207 4.94121 7.54355 4.82832 8.11465 4.82832C8.50423 4.82832 8.86282 4.89694 9.19043 5.03418C9.52246 5.17142 9.78808 5.36842 9.9873 5.6252C10.1865 5.88197 10.2861 6.19408 10.2861 6.56152C10.2861 6.95111 10.1865 7.25879 9.9873 7.48457C9.79251 7.71035 9.53353 7.93171 9.21035 8.14863C8.989 8.2903 8.82077 8.42533 8.70566 8.55371C8.59056 8.6821 8.52858 8.83262 8.51973 9.00527C8.51973 9.01413 8.51973 9.02741 8.51973 9.04512C8.51973 9.0584 8.51751 9.07168 8.51309 9.08496C8.50423 9.21777 8.44447 9.33066 8.33379 9.42363C8.22754 9.5166 8.08366 9.56309 7.90215 9.56309ZM7.88887 11.6018C7.67637 11.6018 7.49264 11.5331 7.3377 11.3959C7.18717 11.2542 7.11191 11.0794 7.11191 10.8713C7.11191 10.6632 7.18717 10.4906 7.3377 10.3533C7.48822 10.2117 7.67194 10.1408 7.88887 10.1408C8.10579 10.1408 8.28952 10.2094 8.44004 10.3467C8.59056 10.4839 8.66582 10.6588 8.66582 10.8713C8.66582 11.0838 8.59056 11.2587 8.44004 11.3959C8.28952 11.5331 8.10579 11.6018 7.88887 11.6018Z" fill="white"/>
</svg>
