<svg width="28" height="28" viewBox="0 0 28 28" fill="none" xmlns="http://www.w3.org/2000/svg">
<path d="M15.4986 27C15.3113 27 15.1502 26.9363 15.0153 26.8089C14.8804 26.6815 14.7942 26.5166 14.7567 26.3143C14.5769 25.1078 14.3858 24.0961 14.1835 23.2793C13.9811 22.4625 13.7188 21.7918 13.3966 21.2672C13.0744 20.7426 12.6547 20.323 12.1376 20.0082C11.6206 19.6935 10.9574 19.4387 10.148 19.2438C9.34617 19.049 8.35323 18.8729 7.1692 18.7155C6.95937 18.693 6.78701 18.6106 6.65212 18.4682C6.52473 18.3258 6.46103 18.1572 6.46103 17.9624C6.46103 17.7675 6.52473 17.5989 6.65212 17.4566C6.78701 17.3142 6.95937 17.2317 7.1692 17.2093C8.35323 17.0819 9.34992 16.9282 10.1593 16.7484C10.9761 16.561 11.6468 16.3062 12.1714 15.984C12.6959 15.6618 13.1193 15.2346 13.4416 14.7026C13.7638 14.1705 14.0223 13.4923 14.2172 12.668C14.4195 11.8361 14.5994 10.817 14.7567 9.61046C14.7867 9.40813 14.8692 9.24701 15.004 9.12711C15.1464 8.99971 15.3113 8.93601 15.4986 8.93601C15.6935 8.93601 15.8583 8.99971 15.9932 9.12711C16.1281 9.24701 16.2143 9.40813 16.2518 9.61046C16.4241 10.817 16.6115 11.8324 16.8138 12.6567C17.0162 13.481 17.2747 14.1592 17.5894 14.6913C17.9117 15.2234 18.3351 15.6505 18.8596 15.9728C19.3842 16.2875 20.0474 16.5386 20.8493 16.7259C21.6586 16.9058 22.6553 17.0669 23.8393 17.2093C24.0492 17.2392 24.2178 17.3254 24.3452 17.4678C24.4726 17.6027 24.5363 17.7675 24.5363 17.9624C24.5363 18.1572 24.4688 18.3258 24.3339 18.4682C24.2065 18.6106 24.0417 18.693 23.8393 18.7155C22.6553 18.8504 21.6549 19.0115 20.838 19.1989C20.0287 19.3787 19.3617 19.626 18.8372 19.9408C18.3126 20.2555 17.8892 20.6827 17.567 21.2222C17.2447 21.7543 16.9862 22.4325 16.7913 23.2568C16.5965 24.0886 16.4166 25.1078 16.2518 26.3143C16.2143 26.5166 16.1281 26.6815 15.9932 26.8089C15.8658 26.9363 15.701 27 15.4986 27ZM7.60759 14.5115C7.33781 14.5115 7.18793 14.3653 7.15796 14.0731C7.06803 13.3387 6.97061 12.7616 6.8657 12.342C6.76828 11.9148 6.61091 11.5963 6.39358 11.3865C6.17626 11.1692 5.85028 11.0081 5.41563 10.9032C4.98848 10.7907 4.39647 10.6746 3.63958 10.5547C3.33234 10.5097 3.17871 10.3561 3.17871 10.0938C3.17871 9.83153 3.3136 9.67791 3.58338 9.63294C4.35525 9.49056 4.95851 9.36316 5.39315 9.25076C5.83529 9.13085 6.16502 8.96974 6.38234 8.7674C6.60716 8.55757 6.76828 8.24658 6.8657 7.83441C6.97061 7.42225 7.06803 6.84522 7.15796 6.10333C7.18793 5.81107 7.33781 5.66494 7.60759 5.66494C7.88486 5.66494 8.03849 5.80732 8.06846 6.09209C8.16588 6.84897 8.26331 7.44099 8.36073 7.86814C8.46564 8.29529 8.62676 8.61752 8.84408 8.83485C9.0614 9.05217 9.38739 9.21329 9.82203 9.3182C10.2567 9.42312 10.8599 9.52803 11.6318 9.63294C11.7517 9.64793 11.8491 9.69664 11.9241 9.77907C12.0065 9.86151 12.0477 9.96642 12.0477 10.0938C12.0477 10.3486 11.9128 10.5022 11.643 10.5547C10.8637 10.6971 10.2567 10.8282 9.82203 10.9481C9.38739 11.0605 9.0614 11.2216 8.84408 11.4315C8.62676 11.6413 8.46564 11.956 8.36073 12.3757C8.26331 12.7879 8.16588 13.3611 8.06846 14.0955C8.05348 14.2154 8.00477 14.3166 7.92233 14.399C7.8399 14.474 7.73499 14.5115 7.60759 14.5115ZM13.0706 6.57544C12.8983 6.57544 12.8008 6.48552 12.7784 6.30566C12.6959 5.84854 12.6247 5.49258 12.5648 5.23779C12.5048 4.9755 12.4074 4.77691 12.2725 4.64202C12.1451 4.50713 11.9465 4.40222 11.6768 4.32728C11.4145 4.24485 11.0435 4.16242 10.5639 4.07998C10.3766 4.05001 10.2829 3.95259 10.2829 3.78772C10.2829 3.62286 10.3728 3.52544 10.5527 3.49546C11.0323 3.39804 11.407 3.31186 11.6768 3.23692C11.9465 3.16198 12.1451 3.05707 12.2725 2.92218C12.4074 2.78729 12.5048 2.59245 12.5648 2.33766C12.6247 2.08286 12.6959 1.73065 12.7784 1.28102C12.8008 1.09367 12.8983 1 13.0706 1C13.2355 1 13.3329 1.08993 13.3629 1.26978C13.4378 1.72691 13.5053 2.08661 13.5652 2.3489C13.6327 2.61118 13.7301 2.80977 13.8575 2.94466C13.9924 3.07955 14.191 3.18446 14.4532 3.2594C14.723 3.32685 15.1015 3.40553 15.5886 3.49546C15.7684 3.52544 15.8583 3.62286 15.8583 3.78772C15.8583 3.95259 15.7684 4.05001 15.5886 4.07998C15.109 4.16991 14.7343 4.25609 14.4645 4.33852C14.1947 4.41346 13.9961 4.51837 13.8687 4.65326C13.7413 4.78815 13.6439 4.98674 13.5765 5.24903C13.509 5.50382 13.4378 5.85603 13.3629 6.30566C13.3329 6.48552 13.2355 6.57544 13.0706 6.57544Z" fill="black"/>
</svg>
