<svg xmlns="http://www.w3.org/2000/svg" width="96" height="96" fill="none" viewBox="0 0 96 96">
  <g filter="url(#a)">
    <path fill="#F46EFA" fill-rule="evenodd" d="M51.407 8.852a.852.852 0 1 1-1.704 0 .852.852 0 0 1 1.704 0Zm32.37 12.782a1.704 1.704 0 1 1-3.407 0 1.704 1.704 0 0 1 3.407 0Zm-62.184 64.75a.852.852 0 1 0 0-1.703.852.852 0 0 0 0 1.704Zm67.296-51.972a.852.852 0 1 1-1.704 0 .852.852 0 0 1 1.704 0Zm4.26 29.82a.852.852 0 1 0-.001-1.703.852.852 0 0 0 0 1.704ZM3.703 66.789a.852.852 0 1 1-1.704 0 .852.852 0 0 1 1.704 0Zm12.478-50.322a1.59 1.59 0 1 0 .001-3.181 1.59 1.59 0 0 0 0 3.18Zm58.862 64.381a2.385 2.385 0 1 1-4.77-.002 2.385 2.385 0 0 1 4.77.002ZM28.91 88a1.59 1.59 0 1 0 0-3.18 1.59 1.59 0 0 0 0 3.18Z" clip-rule="evenodd"/>
  </g>
  <g filter="url(#b)">
    <path fill="url(#c)" fill-rule="evenodd" d="M48 74.764c14.781 0 26.764-11.983 26.764-26.764 0-14.781-11.983-26.764-26.764-26.764-14.781 0-26.764 11.983-26.764 26.764 0 14.781 11.983 26.764 26.764 26.764ZM48 80c17.673 0 32-14.327 32-32 0-17.673-14.327-32-32-32-17.673 0-32 14.327-32 32 0 17.673 14.327 32 32 32Z" clip-rule="evenodd"/>
    <path fill="url(#d)" d="M51.636 61.818a3.636 3.636 0 1 1-7.272 0 3.636 3.636 0 0 1 7.272 0Z"/>
    <path fill="url(#e)" fill-rule="evenodd" d="M48.03 36.364c-3.29 0-4.337 2.072-4.481 2.647a2.91 2.91 0 0 1-5.643-1.416c.667-2.657 3.678-7.05 10.124-7.05 6.446 0 9.456 4.393 10.123 7.05.66 2.63.444 4.931-.425 6.913-.84 1.918-2.19 3.305-3.396 4.322a29.98 29.98 0 0 1-1.738 1.34l-.287.207c-.413.3-.74.537-1.033.77-.185.147-.31.258-.392.336a2.91 2.91 0 0 1-5.761-.574c0-1.195.493-2.139.985-2.79.474-.629 1.058-1.137 1.543-1.523.408-.326.87-.66 1.287-.96l.24-.175c.504-.365.97-.712 1.405-1.079.878-.74 1.483-1.444 1.818-2.209.307-.7.486-1.67.111-3.162-.144-.575-1.19-2.647-4.48-2.647Z" clip-rule="evenodd"/>
  </g>
  <defs>
    <radialGradient id="c" cx="0" cy="0" r="1" gradientTransform="rotate(40.142 -27.842 43.35) scale(80.4117 47.978)" gradientUnits="userSpaceOnUse">
      <stop stop-color="#315AF3"/>
      <stop offset=".509" stop-color="#AE63FF"/>
      <stop offset="1" stop-color="#F242FF"/>
    </radialGradient>
    <radialGradient id="d" cx="0" cy="0" r="1" gradientTransform="rotate(40.142 -27.842 43.35) scale(80.4117 47.978)" gradientUnits="userSpaceOnUse">
      <stop stop-color="#315AF3"/>
      <stop offset=".509" stop-color="#AE63FF"/>
      <stop offset="1" stop-color="#F242FF"/>
    </radialGradient>
    <radialGradient id="e" cx="0" cy="0" r="1" gradientTransform="rotate(40.142 -27.842 43.35) scale(80.4117 47.978)" gradientUnits="userSpaceOnUse">
      <stop stop-color="#315AF3"/>
      <stop offset=".509" stop-color="#AE63FF"/>
      <stop offset="1" stop-color="#F242FF"/>
    </radialGradient>
    <filter id="a" width="95.712" height="83.712" x=".144" y="6.144" color-interpolation-filters="sRGB" filterUnits="userSpaceOnUse">
      <feFlood flood-opacity="0" result="BackgroundImageFix"/>
      <feColorMatrix in="SourceAlpha" result="hardAlpha" values="0 0 0 0 0 0 0 0 0 0 0 0 0 0 0 0 0 0 127 0"/>
      <feOffset/>
      <feGaussianBlur stdDeviation=".464"/>
      <feColorMatrix values="0 0 0 0 0.792157 0 0 0 0 0.188235 0 0 0 0 0.819608 0 0 0 1 0"/>
      <feBlend in2="BackgroundImageFix" result="effect1_dropShadow_712_5315"/>
      <feColorMatrix in="SourceAlpha" result="hardAlpha" values="0 0 0 0 0 0 0 0 0 0 0 0 0 0 0 0 0 0 127 0"/>
      <feOffset/>
      <feGaussianBlur stdDeviation=".928"/>
      <feColorMatrix values="0 0 0 0 0.792157 0 0 0 0 0.188235 0 0 0 0 0.819608 0 0 0 1 0"/>
      <feBlend in2="effect1_dropShadow_712_5315" result="effect2_dropShadow_712_5315"/>
      <feBlend in="SourceGraphic" in2="effect2_dropShadow_712_5315" result="shape"/>
    </filter>
    <filter id="b" width="64" height="71.314" x="16" y="12.343" color-interpolation-filters="sRGB" filterUnits="userSpaceOnUse">
      <feFlood flood-opacity="0" result="BackgroundImageFix"/>
      <feBlend in="SourceGraphic" in2="BackgroundImageFix" result="shape"/>
      <feColorMatrix in="SourceAlpha" result="hardAlpha" values="0 0 0 0 0 0 0 0 0 0 0 0 0 0 0 0 0 0 127 0"/>
      <feOffset dy="3.657"/>
      <feGaussianBlur stdDeviation="4.114"/>
      <feComposite in2="hardAlpha" k2="-1" k3="1" operator="arithmetic"/>
      <feColorMatrix values="0 0 0 0 0.88 0 0 0 0 0.899873 0 0 0 0 1 0 0 0 1 0"/>
      <feBlend in2="shape" result="effect1_innerShadow_712_5315"/>
      <feColorMatrix in="SourceAlpha" result="hardAlpha" values="0 0 0 0 0 0 0 0 0 0 0 0 0 0 0 0 0 0 127 0"/>
      <feOffset dy="-3.657"/>
      <feGaussianBlur stdDeviation="3.657"/>
      <feComposite in2="hardAlpha" k2="-1" k3="1" operator="arithmetic"/>
      <feColorMatrix values="0 0 0 0 0.785388 0 0 0 0 0.686667 0 0 0 0 1 0 0 0 1 0"/>
      <feBlend in2="effect1_innerShadow_712_5315" result="effect2_innerShadow_712_5315"/>
    </filter>
  </defs>
</svg>
