<svg xmlns="http://www.w3.org/2000/svg" width="96" height="96" fill="none" viewBox="0 0 96 96">
  <g filter="url(#a)">
    <path fill="#F46EFA" fill-rule="evenodd" d="M51.407 8.852a.852.852 0 1 1-1.704 0 .852.852 0 0 1 1.704 0Zm32.37 12.782a1.704 1.704 0 1 1-3.407 0 1.704 1.704 0 0 1 3.407 0Zm-62.184 64.75a.852.852 0 1 0 0-1.703.852.852 0 0 0 0 1.704Zm67.296-51.972a.852.852 0 1 1-1.704 0 .852.852 0 0 1 1.704 0Zm4.26 29.82a.852.852 0 1 0-.001-1.703.852.852 0 0 0 0 1.704ZM3.703 66.789a.852.852 0 1 1-1.704 0 .852.852 0 0 1 1.704 0Zm12.478-50.322a1.59 1.59 0 1 0 .001-3.181 1.59 1.59 0 0 0 0 3.18Zm58.862 64.381a2.385 2.385 0 1 1-4.77-.002 2.385 2.385 0 0 1 4.77.002ZM28.91 88a1.59 1.59 0 1 0 0-3.18 1.59 1.59 0 0 0 0 3.18Z" clip-rule="evenodd"/>
  </g>
  <g filter="url(#b)">
    <path fill="url(#c)" fill-rule="evenodd" d="M78.438 24.627c2.083 2.17 2.083 5.687 0 7.857L41.105 71.373a5.184 5.184 0 0 1-7.543 0l-16-16.667c-2.083-2.17-2.083-5.687 0-7.857a5.184 5.184 0 0 1 7.543 0l12.228 12.739 33.562-34.96a5.184 5.184 0 0 1 7.543 0Z" clip-rule="evenodd"/>
  </g>
  <defs>
    <filter id="a" width="95.712" height="83.712" x=".144" y="6.144" color-interpolation-filters="sRGB" filterUnits="userSpaceOnUse">
      <feFlood flood-opacity="0" result="BackgroundImageFix"/>
      <feColorMatrix in="SourceAlpha" result="hardAlpha" values="0 0 0 0 0 0 0 0 0 0 0 0 0 0 0 0 0 0 127 0"/>
      <feOffset/>
      <feGaussianBlur stdDeviation=".464"/>
      <feColorMatrix values="0 0 0 0 0.792157 0 0 0 0 0.188235 0 0 0 0 0.819608 0 0 0 1 0"/>
      <feBlend in2="BackgroundImageFix" result="effect1_dropShadow_712_5300"/>
      <feColorMatrix in="SourceAlpha" result="hardAlpha" values="0 0 0 0 0 0 0 0 0 0 0 0 0 0 0 0 0 0 127 0"/>
      <feOffset/>
      <feGaussianBlur stdDeviation=".928"/>
      <feColorMatrix values="0 0 0 0 0.792157 0 0 0 0 0.188235 0 0 0 0 0.819608 0 0 0 1 0"/>
      <feBlend in2="effect1_dropShadow_712_5300" result="effect2_dropShadow_712_5300"/>
      <feBlend in="SourceGraphic" in2="effect2_dropShadow_712_5300" result="shape"/>
    </filter>
    <filter id="b" width="64" height="57.111" x="16" y="19.444" color-interpolation-filters="sRGB" filterUnits="userSpaceOnUse">
      <feFlood flood-opacity="0" result="BackgroundImageFix"/>
      <feBlend in="SourceGraphic" in2="BackgroundImageFix" result="shape"/>
      <feColorMatrix in="SourceAlpha" result="hardAlpha" values="0 0 0 0 0 0 0 0 0 0 0 0 0 0 0 0 0 0 127 0"/>
      <feOffset dy="3.556"/>
      <feGaussianBlur stdDeviation="4"/>
      <feComposite in2="hardAlpha" k2="-1" k3="1" operator="arithmetic"/>
      <feColorMatrix values="0 0 0 0 0.88 0 0 0 0 0.899873 0 0 0 0 1 0 0 0 1 0"/>
      <feBlend in2="shape" result="effect1_innerShadow_712_5300"/>
      <feColorMatrix in="SourceAlpha" result="hardAlpha" values="0 0 0 0 0 0 0 0 0 0 0 0 0 0 0 0 0 0 127 0"/>
      <feOffset dy="-3.556"/>
      <feGaussianBlur stdDeviation="3.556"/>
      <feComposite in2="hardAlpha" k2="-1" k3="1" operator="arithmetic"/>
      <feColorMatrix values="0 0 0 0 0.785388 0 0 0 0 0.686667 0 0 0 0 1 0 0 0 1 0"/>
      <feBlend in2="effect1_innerShadow_712_5300" result="effect2_innerShadow_712_5300"/>
    </filter>
    <radialGradient id="c" cx="0" cy="0" r="1" gradientTransform="rotate(33.379 -43.506 51.92) scale(73.6132 40.9445)" gradientUnits="userSpaceOnUse">
      <stop stop-color="#315AF3"/>
      <stop offset=".509" stop-color="#AE63FF"/>
      <stop offset="1" stop-color="#F242FF"/>
    </radialGradient>
  </defs>
</svg>
