<?xml version="1.0" encoding="UTF-8"?>
<svg xmlns="http://www.w3.org/2000/svg" version="1.1" xmlns:xlink="http://www.w3.org/1999/xlink" viewBox="0 0 512 512">
  <defs>
    <style>
      .cls-1 {
        fill: url(#_Безымянный_градиент_106-4);
      }

      .cls-2 {
        fill: url(#linear-gradient-12);
      }

      .cls-2, .cls-3, .cls-4, .cls-5, .cls-6, .cls-7, .cls-8, .cls-9 {
        stroke: #1e1000;
        stroke-miterlimit: 10;
        stroke-width: 1.2px;
      }

      .cls-3, .cls-10 {
        fill: #7b4e2a;
      }

      .cls-11 {
        fill: url(#linear-gradient-34);
      }

      .cls-11, .cls-12, .cls-13, .cls-14, .cls-15, .cls-16, .cls-17, .cls-18, .cls-19, .cls-20, .cls-21, .cls-22, .cls-23, .cls-24, .cls-25, .cls-26, .cls-27, .cls-28, .cls-29, .cls-30, .cls-31, .cls-32, .cls-33, .cls-34, .cls-35, .cls-36, .cls-37, .cls-38, .cls-39, .cls-40, .cls-41, .cls-10, .cls-42, .cls-43, .cls-44, .cls-45, .cls-46, .cls-47, .cls-48, .cls-49, .cls-50 {
        mix-blend-mode: multiply;
      }

      .cls-11, .cls-17, .cls-51, .cls-52, .cls-28, .cls-31, .cls-32, .cls-33, .cls-35 {
        opacity: .3;
      }

      .cls-12 {
        fill: url(#linear-gradient-39);
      }

      .cls-12, .cls-13, .cls-16, .cls-20, .cls-21, .cls-53, .cls-23, .cls-24, .cls-26, .cls-27, .cls-34, .cls-38, .cls-40, .cls-54, .cls-55, .cls-10, .cls-42, .cls-44, .cls-45, .cls-46, .cls-48, .cls-50 {
        opacity: .5;
      }

      .cls-56 {
        fill: url(#_Безымянный_градиент_46-8);
      }

      .cls-13 {
        fill: url(#linear-gradient-20);
      }

      .cls-57 {
        stroke: url(#_Безымянный_градиент_18-2);
        stroke-width: 1.7px;
      }

      .cls-57, .cls-58, .cls-59, .cls-60, .cls-61, .cls-62, .cls-63, .cls-64 {
        stroke-linecap: round;
        stroke-linejoin: round;
      }

      .cls-57, .cls-59, .cls-65, .cls-53, .cls-66, .cls-67 {
        fill: #fff;
      }

      .cls-68 {
        mask: url(#mask-5);
      }

      .cls-14 {
        fill: url(#linear-gradient-2);
      }

      .cls-15 {
        fill: url(#linear-gradient-21);
      }

      .cls-15, .cls-30, .cls-69 {
        opacity: .2;
      }

      .cls-4 {
        fill: url(#linear-gradient-41);
      }

      .cls-70 {
        mask: url(#mask-13);
      }

      .cls-16 {
        fill: #6d6e71;
      }

      .cls-17 {
        fill: url(#linear-gradient-38);
      }

      .cls-58 {
        fill: url(#_Безымянный_градиент_12-3);
        stroke: url(#_Безымянный_градиент_13);
      }

      .cls-58, .cls-62 {
        stroke-width: 1.9px;
      }

      .cls-18 {
        fill: url(#linear-gradient-9);
      }

      .cls-71 {
        fill: url(#_Безымянный_градиент_46-3);
      }

      .cls-72 {
        fill: url(#_Безымянный_градиент_12);
      }

      .cls-19 {
        fill: #9e0000;
      }

      .cls-19, .cls-67, .cls-47 {
        opacity: .7;
      }

      .cls-73 {
        mask: url(#mask-1);
      }

      .cls-74 {
        fill: #8a2424;
      }

      .cls-75 {
        fill: #010200;
      }

      .cls-51 {
        fill: url(#_Безымянный_градиент_17-4);
      }

      .cls-76 {
        fill: url(#linear-gradient-10);
      }

      .cls-76, .cls-77, .cls-69, .cls-78, .cls-54, .cls-79 {
        mix-blend-mode: screen;
      }

      .cls-20 {
        fill: url(#linear-gradient-26);
      }

      .cls-80 {
        fill: url(#_Безымянный_градиент_12-2);
      }

      .cls-81 {
        fill: url(#linear-gradient-40);
      }

      .cls-21 {
        fill: url(#linear-gradient-31);
      }

      .cls-82 {
        mask: url(#mask-10);
      }

      .cls-83 {
        mask: url(#mask-6);
      }

      .cls-84 {
        mask: url(#mask-7);
      }

      .cls-85 {
        filter: url(#luminosity-noclip-5);
      }

      .cls-59 {
        stroke: url(#_Безымянный_градиент_18);
        stroke-width: 1.5px;
      }

      .cls-77 {
        fill: url(#linear-gradient-6);
      }

      .cls-86 {
        mask: url(#mask);
      }

      .cls-5 {
        fill: url(#linear-gradient-13);
      }

      .cls-22 {
        fill: url(#linear-gradient-25);
      }

      .cls-87 {
        fill: url(#_Безымянный_градиент_46-5);
      }

      .cls-52 {
        fill: url(#_Безымянный_градиент_17-3);
      }

      .cls-23 {
        fill: url(#linear-gradient-35);
      }

      .cls-88 {
        fill: url(#_Безымянный_градиент_106);
      }

      .cls-89 {
        fill: url(#_Безымянный_градиент_106-3);
      }

      .cls-90 {
        fill: url(#linear-gradient-4);
      }

      .cls-91 {
        fill: url(#_Безымянный_градиент_46-4);
      }

      .cls-92 {
        fill: url(#_Безымянный_градиент_17-6);
      }

      .cls-92, .cls-93, .cls-94, .cls-95 {
        opacity: .6;
      }

      .cls-24 {
        fill: #999b9e;
      }

      .cls-25 {
        fill: url(#linear-gradient-47);
      }

      .cls-25, .cls-29, .cls-43 {
        opacity: .4;
      }

      .cls-26 {
        fill: url(#linear-gradient-46);
      }

      .cls-96 {
        fill: url(#radial-gradient);
      }

      .cls-97 {
        mask: url(#mask-8);
      }

      .cls-98 {
        fill: url(#radial-gradient-3);
      }

      .cls-99 {
        filter: url(#luminosity-noclip-11);
      }

      .cls-6 {
        fill: url(#linear-gradient-16);
      }

      .cls-100 {
        mask: url(#mask-2);
      }

      .cls-101 {
        filter: url(#luminosity-noclip-3);
      }

      .cls-60 {
        fill: url(#_Безымянный_градиент_46-2);
        stroke: url(#_Безымянный_градиент_4-2);
      }

      .cls-60, .cls-64 {
        stroke-width: 1.5px;
      }

      .cls-61 {
        fill: url(#_Безымянный_градиент_46);
        stroke: url(#_Безымянный_градиент_4);
        stroke-width: 1.6px;
      }

      .cls-102 {
        mask: url(#mask-9);
      }

      .cls-27 {
        fill: url(#linear-gradient-24);
      }

      .cls-93 {
        fill: url(#_Безымянный_градиент_17);
      }

      .cls-103 {
        fill: #231f20;
      }

      .cls-104 {
        isolation: isolate;
      }

      .cls-28 {
        fill: url(#linear-gradient-42);
      }

      .cls-29 {
        fill: url(#linear-gradient-30);
      }

      .cls-62 {
        stroke: #fff;
      }

      .cls-62, .cls-63, .cls-64 {
        fill: none;
      }

      .cls-94 {
        fill: url(#_Безымянный_градиент_17-2);
      }

      .cls-30 {
        fill: url(#linear-gradient-22);
      }

      .cls-105 {
        fill: url(#_Безымянный_градиент_106-2);
      }

      .cls-31 {
        fill: url(#linear-gradient-18);
      }

      .cls-106 {
        filter: url(#luminosity-noclip-13);
      }

      .cls-66 {
        opacity: .8;
      }

      .cls-107 {
        fill: #7f47dd;
      }

      .cls-108 {
        fill: #004963;
      }

      .cls-32 {
        fill: url(#linear-gradient-17);
      }

      .cls-33 {
        fill: url(#linear-gradient-14);
      }

      .cls-34 {
        fill: url(#linear-gradient-43);
      }

      .cls-69, .cls-47 {
        fill: #f09e31;
      }

      .cls-109 {
        fill: url(#radial-gradient-2);
      }

      .cls-35 {
        fill: url(#linear-gradient-15);
      }

      .cls-36 {
        fill: url(#linear-gradient-23);
      }

      .cls-110 {
        filter: url(#luminosity-noclip-9);
      }

      .cls-63 {
        stroke: url(#_Безымянный_градиент_146);
        stroke-width: 1.8px;
      }

      .cls-7 {
        fill: url(#linear-gradient-11);
      }

      .cls-37 {
        fill: url(#linear-gradient-5);
      }

      .cls-38 {
        fill: #3b3b3c;
      }

      .cls-111 {
        fill: url(#_Безымянный_градиент_265);
      }

      .cls-39 {
        fill: url(#linear-gradient-27);
      }

      .cls-40 {
        fill: url(#linear-gradient-45);
      }

      .cls-112 {
        fill: url(#_Безымянный_градиент_19);
      }

      .cls-113 {
        fill: url(#_Безымянный_градиент_8-2);
      }

      .cls-54 {
        fill: url(#linear-gradient-8);
      }

      .cls-8 {
        fill: url(#linear-gradient-37);
      }

      .cls-55 {
        fill: #ff78c6;
      }

      .cls-114 {
        fill: url(#_Безымянный_градиент_46-6);
      }

      .cls-115 {
        fill: url(#_Безымянный_градиент_46-7);
      }

      .cls-116 {
        mask: url(#mask-11);
      }

      .cls-64 {
        stroke: #b70885;
      }

      .cls-117 {
        fill: url(#linear-gradient-36);
      }

      .cls-118 {
        fill: #e93a39;
      }

      .cls-119 {
        mask: url(#mask-12);
      }

      .cls-42 {
        fill: url(#linear-gradient-3);
      }

      .cls-43 {
        fill: url(#linear-gradient-29);
      }

      .cls-44 {
        fill: url(#linear-gradient-44);
      }

      .cls-9 {
        fill: url(#linear-gradient-33);
      }

      .cls-45 {
        fill: url(#linear-gradient-19);
      }

      .cls-120 {
        mask: url(#mask-4);
      }

      .cls-121 {
        fill: #aa88a4;
      }

      .cls-79 {
        fill: url(#linear-gradient-28);
      }

      .cls-122 {
        fill: #002360;
      }

      .cls-123 {
        fill: url(#linear-gradient-32);
      }

      .cls-46 {
        fill: #5a5b5d;
      }

      .cls-124 {
        fill: url(#_Безымянный_градиент_8);
      }

      .cls-125 {
        fill: url(#_Безымянный_градиент_3);
      }

      .cls-126 {
        filter: url(#luminosity-noclip-7);
      }

      .cls-127 {
        fill: #253617;
      }

      .cls-48 {
        fill: url(#linear-gradient);
      }

      .cls-95 {
        fill: url(#_Безымянный_градиент_17-5);
      }

      .cls-128 {
        mask: url(#mask-3);
      }

      .cls-129 {
        filter: url(#luminosity-noclip);
      }

      .cls-49 {
        fill: url(#linear-gradient-7);
      }

      .cls-130 {
        fill: #170038;
      }
    </style>
    <radialGradient id="_Безымянный_градиент_265" data-name="Безымянный градиент 265" cx="-185.1" cy="280.7" fx="-185.1" fy="280.7" r="149.4" gradientTransform="translate(544.5) scale(1.6 1)" gradientUnits="userSpaceOnUse">
      <stop offset="0" stop-color="#00b8ff"/>
      <stop offset="0" stop-color="#00b7ff" stop-opacity="1"/>
      <stop offset=".2" stop-color="#00b5ff" stop-opacity=".7"/>
      <stop offset=".3" stop-color="#00b4ff" stop-opacity=".5"/>
      <stop offset=".5" stop-color="#00b2ff" stop-opacity=".3"/>
      <stop offset=".6" stop-color="#00b1ff" stop-opacity=".2"/>
      <stop offset=".8" stop-color="#00b0ff" stop-opacity="0"/>
      <stop offset=".9" stop-color="#00b0ff" stop-opacity="0"/>
      <stop offset="1" stop-color="#00b0ff" stop-opacity="0"/>
    </radialGradient>
    <linearGradient id="_Безымянный_градиент_19" data-name="Безымянный градиент 19" x1="287.7" y1="908.5" x2="278.5" y2="1021" gradientTransform="translate(-491.5 -458) rotate(-28.9)" gradientUnits="userSpaceOnUse">
      <stop offset="0" stop-color="#fff"/>
      <stop offset=".2" stop-color="#ebe0e6"/>
      <stop offset=".6" stop-color="#d7c0cb"/>
      <stop offset=".8" stop-color="#caacba"/>
      <stop offset="1" stop-color="#c6a5b5"/>
    </linearGradient>
    <linearGradient id="_Безымянный_градиент_17" data-name="Безымянный градиент 17" x1="288.8" y1="991.8" x2="271.7" y2="962.2" gradientTransform="translate(-491.5 -458) rotate(-28.9)" gradientUnits="userSpaceOnUse">
      <stop offset="0" stop-color="#8c6f81"/>
      <stop offset="1" stop-color="#b998a7"/>
    </linearGradient>
    <linearGradient id="_Безымянный_градиент_146" data-name="Безымянный градиент 146" x1="248" y1="942.3" x2="321.7" y2="942.3" gradientTransform="translate(-491.5 -458) rotate(-28.9)" gradientUnits="userSpaceOnUse">
      <stop offset="0" stop-color="#af99a3"/>
      <stop offset="1" stop-color="#887181"/>
    </linearGradient>
    <linearGradient id="_Безымянный_градиент_17-2" data-name="Безымянный градиент 17" x1="293.8" y1="939.1" x2="292.5" y2="945.9" xlink:href="#_Безымянный_градиент_17"/>
    <linearGradient id="_Безымянный_градиент_17-3" data-name="Безымянный градиент 17" x1="287" y1="917.3" x2="284" y2="925.3" gradientTransform="translate(-430.3 -516.4) rotate(-23.8)" xlink:href="#_Безымянный_градиент_17"/>
    <linearGradient id="_Безымянный_градиент_17-4" data-name="Безымянный градиент 17" x1="-106.8" y1="739.2" x2="-109.4" y2="746.2" gradientTransform="translate(13.2 -502.5) rotate(-35.3) scale(.8 .9) skewX(-13.8)" xlink:href="#_Безымянный_градиент_17"/>
    <linearGradient id="_Безымянный_градиент_18" data-name="Безымянный градиент 18" x1="277.2" y1="918" x2="298.7" y2="918" gradientTransform="translate(-491.5 -458) rotate(-28.9)" gradientUnits="userSpaceOnUse">
      <stop offset="0" stop-color="#887181"/>
      <stop offset="1" stop-color="#af99a3"/>
    </linearGradient>
    <linearGradient id="_Безымянный_градиент_46" data-name="Безымянный градиент 46" x1="286.9" y1="922.4" x2="288" y2="915.1" gradientTransform="translate(-491.5 -458) rotate(-28.9)" gradientUnits="userSpaceOnUse">
      <stop offset="0" stop-color="#4548ed"/>
      <stop offset="1" stop-color="#860595"/>
    </linearGradient>
    <linearGradient id="_Безымянный_градиент_4" data-name="Безымянный градиент 4" x1="280.3" y1="916.9" x2="295.4" y2="916.9" gradientTransform="translate(-491.5 -458) rotate(-28.9)" gradientUnits="userSpaceOnUse">
      <stop offset="0" stop-color="#4a48e7"/>
      <stop offset=".1" stop-color="#553ad6"/>
      <stop offset=".3" stop-color="#6a23ba"/>
      <stop offset=".6" stop-color="#7912a5"/>
      <stop offset=".8" stop-color="#820899"/>
      <stop offset="1" stop-color="#860595"/>
    </linearGradient>
    <linearGradient id="_Безымянный_градиент_12" data-name="Безымянный градиент 12" x1="288.9" y1="908.7" x2="287.7" y2="918.6" gradientTransform="translate(-491.5 -458) rotate(-28.9)" gradientUnits="userSpaceOnUse">
      <stop offset="0" stop-color="#fff"/>
      <stop offset="1" stop-color="#c6a5b5"/>
    </linearGradient>
    <linearGradient id="_Безымянный_градиент_8" data-name="Безымянный градиент 8" x1="276.8" y1="914.2" x2="299.1" y2="914.2" gradientTransform="translate(-491.5 -458) rotate(-28.9)" gradientUnits="userSpaceOnUse">
      <stop offset="0" stop-color="#af99a3"/>
      <stop offset=".4" stop-color="#887181"/>
    </linearGradient>
    <linearGradient id="_Безымянный_градиент_18-2" data-name="Безымянный градиент 18" x1="303.6" y1="925.7" x2="322.4" y2="925.7" xlink:href="#_Безымянный_градиент_18"/>
    <linearGradient id="_Безымянный_градиент_46-2" data-name="Безымянный градиент 46" x1="312.3" y1="928.8" x2="313.3" y2="922.5" xlink:href="#_Безымянный_градиент_46"/>
    <linearGradient id="_Безымянный_градиент_4-2" data-name="Безымянный градиент 4" x1="306.5" y1="924" x2="319.8" y2="924" xlink:href="#_Безымянный_градиент_4"/>
    <linearGradient id="_Безымянный_градиент_12-2" data-name="Безымянный градиент 12" x1="313.5" y1="916.3" x2="312.8" y2="925.9" xlink:href="#_Безымянный_градиент_12"/>
    <linearGradient id="_Безымянный_градиент_8-2" data-name="Безымянный градиент 8" x1="302.6" y1="921.9" x2="323.3" y2="921.9" xlink:href="#_Безымянный_градиент_8"/>
    <linearGradient id="_Безымянный_градиент_3" data-name="Безымянный градиент 3" x1="315.8" y1="933.4" x2="359.8" y2="933.4" gradientTransform="translate(-488.1 -478.5) rotate(-25.5)" gradientUnits="userSpaceOnUse">
      <stop offset="0" stop-color="#fd4fb4"/>
      <stop offset="1" stop-color="#fd18ad"/>
    </linearGradient>
    <linearGradient id="_Безымянный_градиент_17-5" data-name="Безымянный градиент 17" x1="277.6" y1="963.9" x2="276.7" y2="972.2" xlink:href="#_Безымянный_градиент_17"/>
    <linearGradient id="_Безымянный_градиент_46-3" data-name="Безымянный градиент 46" x1="308.4" y1="57.1" x2="314.6" y2="87" gradientTransform="translate(8.5 71.1) rotate(5.8)" xlink:href="#_Безымянный_градиент_46"/>
    <linearGradient id="linear-gradient" x1="302.2" y1="60.9" x2="307.8" y2="87.6" gradientTransform="translate(8.5 71.1) rotate(5.8)" gradientUnits="userSpaceOnUse">
      <stop offset="0" stop-color="#b63536"/>
      <stop offset=".2" stop-color="#b03334"/>
      <stop offset=".4" stop-color="#a02f30"/>
      <stop offset=".7" stop-color="#87292a"/>
      <stop offset="1" stop-color="#632022"/>
      <stop offset="1" stop-color="#5f1f21"/>
    </linearGradient>
    <filter id="luminosity-noclip" x="243.6" y="142.1" width="131.8" height="32.3" color-interpolation-filters="sRGB" filterUnits="userSpaceOnUse">
      <feFlood flood-color="#fff" result="bg"/>
      <feBlend in="SourceGraphic" in2="bg"/>
    </filter>
    <filter id="luminosity-noclip-2" x="243.6" y="-8448" width="131.8" height="32766" color-interpolation-filters="sRGB" filterUnits="userSpaceOnUse">
      <feFlood flood-color="#fff" result="bg"/>
      <feBlend in="SourceGraphic" in2="bg"/>
    </filter>
    <mask id="mask-1" x="243.6" y="-8448" width="131.8" height="32766" maskUnits="userSpaceOnUse"/>
    <linearGradient id="linear-gradient-2" x1="308.5" y1="57.4" x2="314.5" y2="85.8" gradientTransform="translate(8.5 71.1) rotate(5.8)" gradientUnits="userSpaceOnUse">
      <stop offset="0" stop-color="#fff"/>
      <stop offset="0" stop-color="#f7f7f7"/>
      <stop offset="0" stop-color="#c4c4c4"/>
      <stop offset=".1" stop-color="#959595"/>
      <stop offset=".2" stop-color="#6d6d6d"/>
      <stop offset=".3" stop-color="#4b4b4b"/>
      <stop offset=".3" stop-color="#2f2f2f"/>
      <stop offset=".4" stop-color="#1a1a1a"/>
      <stop offset=".5" stop-color="#0b0b0b"/>
      <stop offset=".6" stop-color="#020202"/>
      <stop offset=".7" stop-color="#000"/>
    </linearGradient>
    <mask id="mask" x="243.6" y="142.1" width="131.8" height="32.3" maskUnits="userSpaceOnUse">
      <g class="cls-129">
        <g class="cls-73">
          <path class="cls-14" d="M364.3,142.5c-50.7,6.7-98.7,15.9-98.7,15.9-12.8,2.7-19.2,5.1-20.8,7.6-.8,1.2-1.3,2.6-1.2,4.7.7,1.6,2.2,2.8,4.9,3.2,12.5,2.2,36.4-5.4,80.6-8.9,12-.9,23.9-3.1,35.6-5.9,1.5-.4,6-.8,6.7-2.5,1.1-2.5,2-4.8,2.8-6.5,2-4.5,2.8-9.4-9.9-7.7Z"/>
        </g>
      </g>
    </mask>
    <linearGradient id="linear-gradient-3" x1="408.3" y1="254" x2="430.4" y2="254" gradientTransform="matrix(1,0,0,1,0,0)" xlink:href="#linear-gradient"/>
    <linearGradient id="linear-gradient-4" x1="423.4" y1="197.7" x2="458.6" y2="197.7" gradientTransform="translate(8.5 71.1) rotate(5.8)" gradientUnits="userSpaceOnUse">
      <stop offset="0" stop-color="#5f1f21"/>
      <stop offset="0" stop-color="#632022"/>
      <stop offset=".3" stop-color="#87292a"/>
      <stop offset=".6" stop-color="#a02f30"/>
      <stop offset=".8" stop-color="#b03334"/>
      <stop offset="1" stop-color="#b63536"/>
    </linearGradient>
    <filter id="luminosity-noclip-3" x="417.9" y="311.5" width="17.8" height="70.2" color-interpolation-filters="sRGB" filterUnits="userSpaceOnUse">
      <feFlood flood-color="#fff" result="bg"/>
      <feBlend in="SourceGraphic" in2="bg"/>
    </filter>
    <filter id="luminosity-noclip-4" x="417.9" y="-8448" width="17.8" height="32766" color-interpolation-filters="sRGB" filterUnits="userSpaceOnUse">
      <feFlood flood-color="#fff" result="bg"/>
      <feBlend in="SourceGraphic" in2="bg"/>
    </filter>
    <mask id="mask-3" x="417.9" y="-8448" width="17.8" height="32766" maskUnits="userSpaceOnUse"/>
    <linearGradient id="linear-gradient-5" x1="1144.5" y1="3877.7" x2="1174.6" y2="3881.7" gradientTransform="translate(410.3 4396.3) rotate(-16.4) scale(1 -1)" gradientUnits="userSpaceOnUse">
      <stop offset="0" stop-color="#fff"/>
      <stop offset="0" stop-color="#eee"/>
      <stop offset=".2" stop-color="#c2c2c2"/>
      <stop offset=".4" stop-color="#7c7c7c"/>
      <stop offset=".7" stop-color="#1d1d1d"/>
      <stop offset=".7" stop-color="#000"/>
    </linearGradient>
    <mask id="mask-2" x="417.9" y="311.5" width="17.8" height="70.2" maskUnits="userSpaceOnUse">
      <g class="cls-101">
        <g class="cls-128">
          <path class="cls-37" d="M427.5,324.7c5.7,23.3,11.1,43.2,6.4,53.6-1.2,2-2.8,3.7-5.1,3.4-7.7-1.2-9-13.3-10.6-39.6,0-1.5-.2-3.2-.3-4.9-.1-20,3-39.3,9.6-12.4Z"/>
        </g>
      </g>
    </mask>
    <linearGradient id="linear-gradient-6" x1="1144.5" y1="3877.7" x2="1174.6" y2="3881.7" gradientTransform="translate(410.3 4396.3) rotate(-16.4) scale(1 -1)" gradientUnits="userSpaceOnUse">
      <stop offset="0" stop-color="#ed1c24"/>
      <stop offset=".7" stop-color="#ed1c24"/>
    </linearGradient>
    <filter id="luminosity-noclip-5" x="420.6" y="240.1" width="10.5" height="20.4" color-interpolation-filters="sRGB" filterUnits="userSpaceOnUse">
      <feFlood flood-color="#fff" result="bg"/>
      <feBlend in="SourceGraphic" in2="bg"/>
    </filter>
    <filter id="luminosity-noclip-6" x="420.6" y="-8448" width="10.5" height="32766" color-interpolation-filters="sRGB" filterUnits="userSpaceOnUse">
      <feFlood flood-color="#fff" result="bg"/>
      <feBlend in="SourceGraphic" in2="bg"/>
    </filter>
    <mask id="mask-5" x="420.6" y="-8448" width="10.5" height="32766" maskUnits="userSpaceOnUse"/>
    <linearGradient id="linear-gradient-7" x1="431.9" y1="125" x2="435.3" y2="147.2" gradientTransform="translate(8.5 71.1) rotate(5.8)" gradientUnits="userSpaceOnUse">
      <stop offset="0" stop-color="#fff"/>
      <stop offset=".1" stop-color="#dadada"/>
      <stop offset=".5" stop-color="#666"/>
      <stop offset=".8" stop-color="#1c1c1c"/>
      <stop offset=".9" stop-color="#000"/>
    </linearGradient>
    <mask id="mask-4" x="420.6" y="240.1" width="10.5" height="20.4" maskUnits="userSpaceOnUse">
      <g class="cls-85">
        <g class="cls-68">
          <path class="cls-49" d="M420.6,240.1s4.5,2.2,4.5,12.5c0,10.3,5.3,9.2,5.9,4.1.6-5-.6-10.2-2.1-12.6-1.5-2.4-3.8-4-8.3-4.1Z"/>
        </g>
      </g>
    </mask>
    <linearGradient id="linear-gradient-8" x1="431.9" y1="125" x2="435.3" y2="147.2" gradientTransform="translate(8.5 71.1) rotate(5.8)" gradientUnits="userSpaceOnUse">
      <stop offset="0" stop-color="#fff"/>
      <stop offset=".9" stop-color="#fff"/>
    </linearGradient>
    <filter id="luminosity-noclip-7" x="400.8" y="124.6" width="16.3" height="69.9" color-interpolation-filters="sRGB" filterUnits="userSpaceOnUse">
      <feFlood flood-color="#fff" result="bg"/>
      <feBlend in="SourceGraphic" in2="bg"/>
    </filter>
    <filter id="luminosity-noclip-8" x="400.8" y="-8448" width="16.3" height="32766" color-interpolation-filters="sRGB" filterUnits="userSpaceOnUse">
      <feFlood flood-color="#fff" result="bg"/>
      <feBlend in="SourceGraphic" in2="bg"/>
    </filter>
    <mask id="mask-7" x="400.8" y="-8448" width="16.3" height="32766" maskUnits="userSpaceOnUse"/>
    <linearGradient id="linear-gradient-9" x1="392.2" y1="44.8" x2="422.1" y2="48.9" gradientTransform="translate(8.5 71.1) rotate(5.8)" xlink:href="#linear-gradient-5"/>
    <mask id="mask-6" x="400.8" y="124.6" width="16.3" height="69.9" maskUnits="userSpaceOnUse">
      <g class="cls-126">
        <g class="cls-84">
          <path class="cls-18" d="M415.7,180.4c1.3-23.9,3.3-46.1-3.2-55.5-1.9-.6-4-.4-6.2.4-7.3,2.6-6.3,13.6-3,39.8.2,1.5.4,3.2.6,4.9,3.6,19.7,10.2,38.1,11.7,10.4Z"/>
        </g>
      </g>
    </mask>
    <linearGradient id="linear-gradient-10" x1="392.2" y1="44.8" x2="422.1" y2="48.9" gradientTransform="translate(8.5 71.1) rotate(5.8)" xlink:href="#linear-gradient-6"/>
    <linearGradient id="linear-gradient-11" x1="324.8" y1="150.8" x2="350.2" y2="150.8" gradientTransform="translate(8.5 71.1) rotate(5.8)" gradientUnits="userSpaceOnUse">
      <stop offset="0" stop-color="#8f5a33"/>
      <stop offset=".4" stop-color="#5c3819"/>
      <stop offset="1" stop-color="#322210"/>
    </linearGradient>
    <linearGradient id="linear-gradient-12" x1="230.7" y1="168.1" x2="273.4" y2="168.1" xlink:href="#linear-gradient-11"/>
    <linearGradient id="_Безымянный_градиент_106" data-name="Безымянный градиент 106" x1="396.1" y1="89.4" x2="416.4" y2="211.9" gradientTransform="translate(8.5 71.1) rotate(5.8)" gradientUnits="userSpaceOnUse">
      <stop offset="0" stop-color="#fff"/>
      <stop offset=".6" stop-color="#006dd9"/>
      <stop offset=".6" stop-color="#036cd9"/>
      <stop offset=".7" stop-color="#0e69db"/>
      <stop offset=".8" stop-color="#2165de"/>
      <stop offset=".8" stop-color="#3b5fe2"/>
      <stop offset=".9" stop-color="#5c57e8"/>
      <stop offset=".9" stop-color="#864def"/>
      <stop offset="1" stop-color="#b642f7"/>
      <stop offset="1" stop-color="#e338ff"/>
    </linearGradient>
    <linearGradient id="_Безымянный_градиент_106-2" data-name="Безымянный градиент 106" x1="370.5" y1="261.8" x2="393.1" y2="261.8" gradientTransform="matrix(1,0,0,1,0,0)" xlink:href="#_Безымянный_градиент_106"/>
    <linearGradient id="_Безымянный_градиент_106-3" data-name="Безымянный градиент 106" x1="151" y1="294" x2="179.8" y2="294" gradientTransform="matrix(1,0,0,1,0,0)" xlink:href="#_Безымянный_градиент_106"/>
    <linearGradient id="_Безымянный_градиент_106-4" data-name="Безымянный градиент 106" x1="160.7" y1="291.6" x2="185.5" y2="291.6" gradientTransform="matrix(1,0,0,1,0,0)" xlink:href="#_Безымянный_градиент_106"/>
    <linearGradient id="_Безымянный_градиент_46-4" data-name="Безымянный градиент 46" x1="116.6" y1="154.3" x2="151.3" y2="260" gradientTransform="translate(8.5 71.1) rotate(5.8)" xlink:href="#_Безымянный_градиент_46"/>
    <linearGradient id="_Безымянный_градиент_46-5" data-name="Безымянный градиент 46" x1="282" y1="110.1" x2="302.7" y2="226.4" gradientTransform="translate(8.5 71.1) rotate(5.8)" xlink:href="#_Безымянный_градиент_46"/>
    <linearGradient id="_Безымянный_градиент_46-6" data-name="Безымянный градиент 46" x1="180.9" y1="161.8" x2="202.9" y2="235.2" gradientTransform="translate(8.5 71.1) rotate(5.8)" xlink:href="#_Безымянный_градиент_46"/>
    <linearGradient id="linear-gradient-13" x1="344.4" y1="142.2" x2="351.4" y2="143" gradientTransform="translate(8.5 71.1) rotate(5.8)" gradientUnits="userSpaceOnUse">
      <stop offset="0" stop-color="#322210"/>
      <stop offset=".6" stop-color="#5c3819"/>
      <stop offset="1" stop-color="#8f5a33"/>
    </linearGradient>
    <linearGradient id="linear-gradient-14" x1="344.4" y1="142.2" x2="351.4" y2="143" xlink:href="#linear-gradient-13"/>
    <linearGradient id="linear-gradient-15" x1="344.4" y1="142.2" x2="351.4" y2="143" xlink:href="#linear-gradient-13"/>
    <linearGradient id="linear-gradient-16" x1="253" y1="160.2" x2="260.3" y2="162.1" xlink:href="#linear-gradient-11"/>
    <linearGradient id="linear-gradient-17" x1="253" y1="160.2" x2="260.3" y2="162.1" xlink:href="#linear-gradient-13"/>
    <linearGradient id="linear-gradient-18" x1="253" y1="160.2" x2="260.3" y2="162.1" xlink:href="#linear-gradient-13"/>
    <linearGradient id="linear-gradient-19" x1="215.9" y1="200.4" x2="329.4" y2="229.7" gradientTransform="translate(3.8 106.5) rotate(2) skewX(-3.7)" xlink:href="#linear-gradient-13"/>
    <linearGradient id="linear-gradient-20" x1="223.7" y1="170.2" x2="337.2" y2="199.5" gradientTransform="translate(3.8 106.5) rotate(2) skewX(-3.7)" xlink:href="#linear-gradient-13"/>
    <linearGradient id="linear-gradient-21" x1="238.8" y1="118.9" x2="359.5" y2="150.1" xlink:href="#linear-gradient-13"/>
    <linearGradient id="linear-gradient-22" x1="228.5" y1="158.4" x2="349.3" y2="189.6" xlink:href="#linear-gradient-13"/>
    <filter id="luminosity-noclip-9" x="248.6" y="200.9" width="125.7" height="65.8" color-interpolation-filters="sRGB" filterUnits="userSpaceOnUse">
      <feFlood flood-color="#fff" result="bg"/>
      <feBlend in="SourceGraphic" in2="bg"/>
    </filter>
    <filter id="luminosity-noclip-10" x="248.6" y="-8448" width="125.7" height="32766" color-interpolation-filters="sRGB" filterUnits="userSpaceOnUse">
      <feFlood flood-color="#fff" result="bg"/>
      <feBlend in="SourceGraphic" in2="bg"/>
    </filter>
    <mask id="mask-9" x="248.6" y="-8448" width="125.7" height="32766" maskUnits="userSpaceOnUse"/>
    <linearGradient id="linear-gradient-23" x1="313.4" y1="105.9" x2="324.8" y2="151.5" gradientTransform="translate(8.5 71.1) rotate(5.8)" gradientUnits="userSpaceOnUse">
      <stop offset="0" stop-color="#fff"/>
      <stop offset=".1" stop-color="#fbfbfb"/>
      <stop offset=".3" stop-color="#f0f0f0"/>
      <stop offset=".4" stop-color="#dedede"/>
      <stop offset=".5" stop-color="#c4c4c4"/>
      <stop offset=".6" stop-color="#a2a2a2"/>
      <stop offset=".7" stop-color="#797979"/>
      <stop offset=".9" stop-color="#494949"/>
      <stop offset="1" stop-color="#121212"/>
      <stop offset="1" stop-color="#000"/>
    </linearGradient>
    <mask id="mask-8" x="248.6" y="200.9" width="125.7" height="65.8" maskUnits="userSpaceOnUse">
      <g class="cls-110">
        <g class="cls-102">
          <path class="cls-36" d="M372.8,201.2c-4.6-.5-31.9-2.4-102.8,16.3-6.4,1.7-16.9,3.5-20.4,10.2-3.2,6.2,1.8,38,10.9,39,2.9.3,28.3-5.2,38.2-7.7,11.5-2.9,23-5.7,34.6-7.8,12-2.2,23.5-4.3,29.2-16.6,4.9-10.7,8.3-20,10.7-25.6,1.8-4.3,1.1-7.7-.4-7.8Z"/>
        </g>
      </g>
    </mask>
    <linearGradient id="linear-gradient-24" x1="313.4" y1="105.9" x2="324.8" y2="151.5" xlink:href="#linear-gradient"/>
    <filter id="luminosity-noclip-11" x="77.9" y="200.7" width="330" height="82.2" color-interpolation-filters="sRGB" filterUnits="userSpaceOnUse">
      <feFlood flood-color="#fff" result="bg"/>
      <feBlend in="SourceGraphic" in2="bg"/>
    </filter>
    <filter id="luminosity-noclip-12" x="77.9" y="-8448" width="330" height="32766" color-interpolation-filters="sRGB" filterUnits="userSpaceOnUse">
      <feFlood flood-color="#fff" result="bg"/>
      <feBlend in="SourceGraphic" in2="bg"/>
    </filter>
    <mask id="mask-11" x="77.9" y="-8448" width="330" height="32766" maskUnits="userSpaceOnUse"/>
    <linearGradient id="linear-gradient-25" x1="244.8" y1="128.3" x2="261.6" y2="160.5" gradientTransform="translate(8.5 71.1) rotate(5.8)" xlink:href="#linear-gradient-5"/>
    <mask id="mask-10" x="77.9" y="200.7" width="330" height="82.2" maskUnits="userSpaceOnUse">
      <g class="cls-99">
        <g class="cls-116">
          <path class="cls-22" d="M111.9,257.6c16.6,19.3,8.5,25.3,8.5,25.3,0,0,26.9-15,55.3-15.9,26.1-.8,24.2,7.7,47.7,1.1,18.8-5.3,24.7-13.3,27.3-22,3.5-11.5,29.9-19.6,71.2-25.3,44.5-6.1,70.7-8.2,85.9,4.5-1.4-4.6-2.9-8.8-4.4-12.3-4.8-11.4-9.6-11.5-20.4-12.1-1.9-.1-4.2-.2-6.8-.2-1.4,0-2.9,0-4.5,0-12.1.2-29.8,1.5-53.7,5.7-33,5.8-72.6,18.5-72.6,18.5,0,0-3.3,19-4.9,27.7-1.6,8.6-25.6,14.7-34.3,13.9-8.7-.7-17.1-17.1-17.1-17.1-4.1.8-8.6,2.4-13.3,4.5-1.7.7-3.4,1.5-5.1,2.4-2.9,1.4-5.8,2.8-8.7,4.3-3.3,1.6-6.5,3.2-9.7,4.6-1,.5-2,.9-3.1,1.3-13.6,5.7-15.2.8-34-12.8-18.8-13.6-29.2-15.6-36-12.8-.5.2-.9.6-1.2,1.1,1.1-.2,18-3,34,15.6Z"/>
        </g>
      </g>
    </mask>
    <linearGradient id="linear-gradient-26" x1="86.6" y1="308.4" x2="414.9" y2="308.4" gradientTransform="matrix(1,0,0,1,0,0)" xlink:href="#linear-gradient"/>
    <filter id="luminosity-noclip-13" x="200.4" y="331.7" width="138.1" height="28.5" color-interpolation-filters="sRGB" filterUnits="userSpaceOnUse">
      <feFlood flood-color="#fff" result="bg"/>
      <feBlend in="SourceGraphic" in2="bg"/>
    </filter>
    <filter id="luminosity-noclip-14" x="200.4" y="-8448" width="138.1" height="32766" color-interpolation-filters="sRGB" filterUnits="userSpaceOnUse">
      <feFlood flood-color="#fff" result="bg"/>
      <feBlend in="SourceGraphic" in2="bg"/>
    </filter>
    <mask id="mask-13" x="200.4" y="-8448" width="138.1" height="32766" maskUnits="userSpaceOnUse"/>
    <linearGradient id="linear-gradient-27" x1="288.1" y1="263.2" x2="287.1" y2="235.4" xlink:href="#linear-gradient-2"/>
    <mask id="mask-12" x="200.4" y="331.7" width="138.1" height="28.5" maskUnits="userSpaceOnUse">
      <g class="cls-106">
        <g class="cls-70">
          <path class="cls-39" d="M338.4,343.7c-.2-1.7-.3-3.3-.5-4.9-6.1,9.4-27.8,7.8-66.5,7.7-52.1-.1-67.5-5.2-62.2-14,.2-.3.3-.5.5-.8-3.4,6-6.7,11.7-8,14.4-2.8,5.6-1.8,13.8,12,14,13.7.2,65.9.2,86-.7,20-.9,40.4,1.5,38.8-15.8Z"/>
        </g>
      </g>
    </mask>
    <linearGradient id="linear-gradient-28" x1="288.1" y1="263.2" x2="287.1" y2="235.4" gradientTransform="translate(8.5 71.1) rotate(5.8)" gradientUnits="userSpaceOnUse">
      <stop offset="0" stop-color="#ed1c24"/>
      <stop offset="0" stop-color="#ed1c24"/>
      <stop offset=".7" stop-color="#ed1c24"/>
    </linearGradient>
    <linearGradient id="linear-gradient-29" x1="326.3" y1="-453.4" x2="425.5" y2="-490" gradientTransform="translate(-14.9 602.8) rotate(6.2) scale(1 .7)" xlink:href="#linear-gradient-13"/>
    <linearGradient id="linear-gradient-30" x1="324.3" y1="-458.6" x2="422.1" y2="-494.6" gradientTransform="translate(-14.9 602.8) rotate(6.2) scale(1 .7)" xlink:href="#linear-gradient-13"/>
    <linearGradient id="linear-gradient-31" x1="286.3" y1="197.5" x2="288.4" y2="232.2" xlink:href="#linear-gradient"/>
    <radialGradient id="radial-gradient" cx="378.7" cy="246.2" fx="378.7" fy="246.2" r="21.8" gradientTransform="translate(8.5 71.1) rotate(5.8)" gradientUnits="userSpaceOnUse">
      <stop offset=".4" stop-color="#5a5b5d"/>
      <stop offset="1" stop-color="#231f20"/>
    </radialGradient>
    <radialGradient id="radial-gradient-2" cx="378.7" cy="246.2" fx="378.7" fy="246.2" r="12.1" gradientTransform="translate(8.5 71.1) rotate(5.8)" gradientUnits="userSpaceOnUse">
      <stop offset=".5" stop-color="#5a5b5d"/>
      <stop offset=".9" stop-color="#b1b3b6"/>
    </radialGradient>
    <radialGradient id="radial-gradient-3" cx="378.7" cy="246.2" fx="378.7" fy="246.2" r="7.8" xlink:href="#radial-gradient-2"/>
    <linearGradient id="linear-gradient-32" x1="-542.9" y1="768.4" x2="-536.4" y2="766" gradientTransform="translate(1293.5 177.9) rotate(45.1)" xlink:href="#linear-gradient-13"/>
    <linearGradient id="linear-gradient-33" x1="-542.9" y1="768.4" x2="-536.4" y2="766" gradientTransform="translate(1293.5 177.9) rotate(45.1)" xlink:href="#linear-gradient-13"/>
    <linearGradient id="linear-gradient-34" x1="-542.9" y1="768.4" x2="-536.4" y2="766" gradientTransform="translate(1293.5 177.9) rotate(45.1)" xlink:href="#linear-gradient-13"/>
    <linearGradient id="linear-gradient-35" x1="-542.9" y1="768.4" x2="-536.4" y2="766" gradientTransform="translate(1293.5 177.9) rotate(45.1)" xlink:href="#linear-gradient-13"/>
    <linearGradient id="linear-gradient-36" x1="1377.2" y1="370.1" x2="1383.8" y2="367.7" gradientTransform="translate(-1021.2 760.5) rotate(-32)" xlink:href="#linear-gradient-13"/>
    <linearGradient id="linear-gradient-37" x1="1377.2" y1="370.1" x2="1383.8" y2="367.7" gradientTransform="translate(-1021.2 760.5) rotate(-32)" xlink:href="#linear-gradient-13"/>
    <linearGradient id="linear-gradient-38" x1="1377.2" y1="370.1" x2="1383.8" y2="367.7" gradientTransform="translate(-1021.2 760.5) rotate(-32)" xlink:href="#linear-gradient-13"/>
    <linearGradient id="linear-gradient-39" x1="1377.2" y1="370.1" x2="1383.8" y2="367.7" gradientTransform="translate(-1021.2 760.5) rotate(-32)" xlink:href="#linear-gradient-13"/>
    <linearGradient id="linear-gradient-40" x1="368.9" y1="229.1" x2="375.4" y2="226.7" xlink:href="#linear-gradient-13"/>
    <linearGradient id="linear-gradient-41" x1="368.9" y1="229.1" x2="375.4" y2="226.7" xlink:href="#linear-gradient-13"/>
    <linearGradient id="linear-gradient-42" x1="368.9" y1="229.1" x2="375.4" y2="226.7" xlink:href="#linear-gradient-13"/>
    <linearGradient id="linear-gradient-43" x1="368.9" y1="229.1" x2="375.4" y2="226.7" xlink:href="#linear-gradient-13"/>
    <linearGradient id="_Безымянный_градиент_46-7" data-name="Безымянный градиент 46" x1="289.1" y1="262.2" x2="282" y2="200.3" gradientTransform="translate(8.5 71.1) rotate(5.8)" xlink:href="#_Безымянный_градиент_46"/>
    <linearGradient id="linear-gradient-44" x1="293" y1="260.6" x2="286.1" y2="201.1" xlink:href="#linear-gradient"/>
    <linearGradient id="linear-gradient-45" x1="296.1" y1="260.2" x2="289.2" y2="200.8" xlink:href="#linear-gradient"/>
    <linearGradient id="linear-gradient-46" x1="200.4" y1="351" x2="338.5" y2="351" gradientTransform="matrix(1,0,0,1,0,0)" xlink:href="#linear-gradient"/>
    <linearGradient id="linear-gradient-47" x1="130.6" y1="220.9" x2="134.5" y2="247.5" xlink:href="#linear-gradient-13"/>
    <linearGradient id="_Безымянный_градиент_46-8" data-name="Безымянный градиент 46" x1="94" y1="279" x2="136.6" y2="211.2" gradientTransform="translate(8.5 71.1) rotate(5.8)" xlink:href="#_Безымянный_градиент_46"/>
    <linearGradient id="_Безымянный_градиент_12-3" data-name="Безымянный градиент 12" x1="435.6" y1="583.3" x2="432.2" y2="604.2" gradientTransform="translate(-271.6 -299.1) rotate(-4.4)" xlink:href="#_Безымянный_градиент_12"/>
    <linearGradient id="_Безымянный_градиент_13" data-name="Безымянный градиент 13" x1="445.3" y1="585.4" x2="423.1" y2="598.2" gradientTransform="translate(-271.6 -299.1) rotate(-4.4)" gradientUnits="userSpaceOnUse">
      <stop offset="0" stop-color="#b998a7"/>
      <stop offset=".4" stop-color="#8c6f81"/>
    </linearGradient>
    <linearGradient id="_Безымянный_градиент_17-6" data-name="Безымянный градиент 17" x1="428.2" y1="591.5" x2="463.1" y2="622.1" gradientTransform="translate(-271.6 -299.1) rotate(-4.4)" xlink:href="#_Безымянный_градиент_17"/>
  </defs>
  <!-- Generator: Adobe Illustrator 28.7.1, SVG Export Plug-In . SVG Version: 1.2.0 Build 142)  -->
  <g class="cls-104">
    <g id="_Слой_1" data-name="Слой_1">
      <g>
        <ellipse class="cls-111" cx="249.5" cy="280.7" rx="238.1" ry="149.4"/>
        <g>
          <path class="cls-112" d="M246.8,260c6.2-13.6-8.4-24.6-10.7-37.2-.9-5,1-10.1.8-15.2-.7-10.6-5-25.1-16.7-27.1-9-1.6-13.6,6.7-14.7,6.1-5.2-2.8-12.1-2.5-16.8,1-9.2,6.8-5.1,14.7-7.8,20.6-5.2,10.4,1.1,17.8,7.4,26.8,2.2,3.1,3.4,6.9,3.2,10.8-.7,16.7-.9,31.7,19.4,32.6,16.6.8,30.5-5.5,35.9-18.1Z"/>
          <path class="cls-65" d="M193.7,260.5c-.2-5.7,2.5-15.1.6-20.7-4-10.2-14.5-16.2-11.7-27.2,2.1-8.2,2.3-10.8.8-17.4,0-.3-.1-.6-.2-.9-1.8,4.9-.5,9.8-2.4,13.7-5.2,10.4,1.1,17.8,7.4,26.8,2.2,3.1,3.4,6.9,3.2,10.8-.5,12.1-.8,23.4,7,29-2.8-4-4.5-8.8-4.7-14Z"/>
          <path class="cls-93" d="M239.4,264.5c-7,6.8-23.8,10.9-33,9.3-10.8-1.7-12.6,3.6,4.4,4.4,16.6.8,30.5-5.5,35.9-18.1,2.5-5.4,1.6-10.5-.4-15.3.8,7.6-1.3,14.5-7,19.8Z"/>
          <path class="cls-63" d="M246.8,260c6.2-13.6-8.4-24.6-10.7-37.2-.9-5,1-10.1.8-15.2-.7-10.6-5-25.1-16.7-27.1-9-1.6-13.6,6.7-14.7,6.1-5.2-2.8-12.1-2.5-16.8,1-9.2,6.8-5.1,14.7-7.8,20.6-5.2,10.4,1.1,17.8,7.4,26.8,2.2,3.1,3.4,6.9,3.2,10.8-.7,16.7-.9,31.7,19.4,32.6,16.6.8,30.5-5.5,35.9-18.1Z"/>
          <path class="cls-94" d="M236.3,216.3c1.1,4.6-6,10.1-15.7,12.4s-18.5.4-19.6-4.2c-1.1-4.6,8.1-1.7,17.9-4,9.8-2.3,16.4-8.8,17.4-4.2Z"/>
          <ellipse class="cls-52" cx="203.1" cy="208.4" rx="10.7" ry="7.9" transform="translate(-17.5 18.6) rotate(-5)"/>
          <path class="cls-51" d="M236.1,200.6c.4,4.4-2.9,8.2-7.4,8.6-4.5.4-8.4-2.8-8.8-7.2s5.1-6.6,9.6-6.9,6.2,1.2,6.6,5.5Z"/>
          <g>
            <g>
              <path class="cls-65" d="M187.3,197.9c-.5.3-1-.9-.6-1.1.5-.2,1,.9.6,1.1Z"/>
              <path class="cls-65" d="M198.1,266c-.5.3-1.3-1.4-.8-1.6.5-.2,1.3,1.4.8,1.6ZM197.1,263.3c-.6.4-1.1-1.6-.5-1.7.5-.1.8,1.5.5,1.7ZM196.6,260.5c-.8.2-.5-.9-.6-1.4,0-.5.7-.5.7,0,0,.5.3,1.1-.1,1.4ZM196.6,257.6c-.8.2-.5-1-.5-1.4.7-1.3,1,1.2.5,1.4ZM196.7,254.7c-.8.4-.6-1.8,0-1.8.6,0,.3,1.5,0,1.8ZM197,251.9c-.8.4-.7-1.8,0-1.8.6,0,.3,1.5,0,1.8ZM197.2,249c-1.1.5-.4-2.9.2-1.4,0,.4.2,1.1-.2,1.4ZM197.2,246.1c-.8.3-.5-.9-.6-1.3,0-.5.6-.6.7-.1,0,.5.3,1.1,0,1.5ZM196.7,243.3c-.6.4-1.1-1.6-.6-1.7.5-.2,1,1.5.6,1.7ZM195.8,240.6c-.5.3-1.3-1.5-.7-1.6.5-.3,1.2,1.4.7,1.6ZM194.6,237.9c-.5.3-1.4-1.4-.9-1.6.5-.3,1.4,1.4.9,1.6ZM193.1,235.5c-.4.3-1.4-1.3-1-1.5.4-.4,1.5,1.3,1,1.5ZM191.6,233c-.4.3-1.5-1.2-1-1.5.4-.4,1.5,1.3,1,1.5ZM189.9,230.7c-.4.3-1.5-1.3-1-1.5.4-.3,1.5,1.3,1,1.5ZM188.4,228.2c-.5.3-1.4-1.3-.9-1.6.4-.3,1.4,1.3.9,1.6ZM187,225.7c-.5.3-1.3-1.4-.8-1.6.5-.3,1.2,1.4.8,1.6ZM185.9,223.1c-.6.3-1.2-1.5-.6-1.7.5-.2,1,1.5.6,1.7ZM185.1,220.3c-.7.2-.6-.9-.7-1.3,0-.5.7-.6.7,0,0,.5.4,1.1,0,1.4ZM184.8,217.4c-.8.4-.8-1.8-.2-1.8.6,0,.5,1.5.2,1.8ZM184.9,214.6c-.8.4-.6-1.9,0-1.7.6.1.3,1.5,0,1.7ZM185.4,211.7c-.9.2-.4-1-.3-1.5.9-1.1.7,1.1.3,1.5ZM186.1,208.9c-1,.4-.3-1.9.3-1.7.5.3,0,1.3-.3,1.7ZM187.1,206.2c-1,.2-.3-1-.1-1.5.2-.4.9-.2.7.3-.2.4-.2.9-.6,1.2ZM187.9,203.5c-.8.4-.6-1.8,0-1.8.6.1.3,1.4,0,1.8ZM188,200.6c-.7.3-.5-.9-.7-1.3-.1-.5.6-.6.7-.2,0,.4.4,1.1,0,1.5Z"/>
              <path class="cls-65" d="M199.4,268c-.4.2-1.2-.7-.7-1,.4-.3,1.3.7.7,1Z"/>
            </g>
            <g>
              <path class="cls-121" d="M186.9,198c-.5.3-1-.9-.6-1.1.5-.2,1,.9.6,1.1Z"/>
              <path class="cls-121" d="M197.8,266.2c-.5.3-1.3-1.4-.8-1.6.5-.2,1.3,1.4.8,1.6ZM196.8,263.5c-.6.4-1.1-1.6-.5-1.7.5-.1.8,1.5.5,1.7ZM196.3,260.7c-.8.2-.5-.9-.6-1.4,0-.5.7-.5.7,0,0,.5.3,1.1-.1,1.4ZM196.2,257.8c-.8.2-.5-1-.5-1.4.7-1.3,1,1.2.5,1.4ZM196.4,254.9c-.8.4-.6-1.8,0-1.8.6,0,.3,1.5,0,1.8ZM196.7,252c-.8.4-.7-1.8,0-1.8.6,0,.3,1.5,0,1.8ZM196.9,249.2c-1.1.5-.4-2.9.2-1.4,0,.4.2,1.1-.2,1.4ZM196.9,246.3c-.8.3-.5-.9-.6-1.3,0-.5.6-.6.7-.1,0,.5.3,1.1,0,1.5ZM196.4,243.5c-.6.4-1.1-1.6-.6-1.7.5-.2,1,1.5.6,1.7ZM195.5,240.7c-.5.3-1.3-1.5-.7-1.6.5-.3,1.2,1.4.7,1.6ZM194.3,238.1c-.5.3-1.4-1.4-.9-1.6.5-.3,1.4,1.4.9,1.6ZM192.8,235.6c-.4.3-1.4-1.3-1-1.5.4-.4,1.5,1.3,1,1.5ZM191.2,233.2c-.4.3-1.5-1.2-1-1.5.4-.4,1.5,1.3,1,1.5ZM189.6,230.8c-.4.3-1.5-1.3-1-1.5.4-.3,1.5,1.3,1,1.5ZM188.1,228.4c-.5.3-1.4-1.3-.9-1.6.4-.3,1.4,1.3.9,1.6ZM186.7,225.9c-.5.3-1.3-1.4-.8-1.6.5-.3,1.2,1.4.8,1.6ZM185.6,223.3c-.6.3-1.2-1.5-.6-1.7.5-.2,1,1.5.6,1.7ZM184.8,220.5c-.7.2-.6-.9-.7-1.3,0-.5.7-.6.7,0,0,.5.4,1.1,0,1.4ZM184.5,217.6c-.8.4-.8-1.8-.2-1.8.6,0,.5,1.5.2,1.8ZM184.6,214.7c-.9.2-.4-1-.4-1.4.8-1.2.9,1.1.4,1.4ZM185.1,211.9c-.9.2-.4-1-.3-1.5.9-1.1.7,1.1.3,1.5ZM185.8,209.1c-1,.4-.3-1.9.3-1.7.5.3,0,1.3-.3,1.7ZM186.7,206.4c-1,.2-.3-1-.1-1.5.2-.4.9-.2.7.3-.2.4-.2.9-.6,1.2ZM187.6,203.7c-.8.4-.6-1.8,0-1.8.6.1.3,1.4,0,1.8ZM187.7,200.8c-.7.3-.5-.9-.7-1.3-.1-.5.6-.6.7-.2,0,.4.4,1.1,0,1.5Z"/>
              <path class="cls-121" d="M199.1,268.1c-.4.2-1.2-.7-.7-1,.4-.3,1.3.7.7,1Z"/>
            </g>
          </g>
          <g>
            <path class="cls-59" d="M193.8,207.9c1.8,9.9,17.2,6.5,20.2-.9,1.3-5.6-5.5-8.8-10.2-7.2-3.9,1.5-10.4,2.8-10,8.1Z"/>
            <g>
              <path class="cls-61" d="M209,202.1c1.8,3.3.6,7.4-2.7,9.2-3.3,1.8-7.4.6-9.2-2.7s-.3-6.4,2.9-8.2c3.3-1.8,7.1-1.6,8.9,1.7Z"/>
              <circle class="cls-67" cx="198" cy="208.5" r="2.4"/>
              <circle class="cls-65" cx="208.1" cy="205.7" r="1"/>
              <path class="cls-53" d="M208.6,206.7c.3.4-.8,2.7-2,3.5s-4.3,1.8-6.2.3c-.4-.3,1.9,0,4.4-1.3,3.4-1.9,3.5-2.9,3.8-2.5Z"/>
              <polygon class="cls-65" points="203.3 206.4 204.6 207.7 206.4 207.3 205.1 208.7 205.4 210.4 204.1 209.2 202.4 209.5 203.6 208.2 203.3 206.4"/>
            </g>
          </g>
          <g>
            <path class="cls-72" d="M204.6,196.9c3.4.2,7.6,2.8,9,5.9-6.7-1.5-14.7,1.7-20.5,5.5-.5-3.1.6-6.2,3-8.2"/>
            <path class="cls-124" d="M204.6,196.9c2.9,0,5.7,1.3,7.8,3.2.7.8,2.8,2.3,1.6,3.4-3.6-.3-7.4-.4-11,.9-3.4,1.1-6.6,2.7-9.6,4.6-.4.3-.9.2-1.1-.2-.7-3.2,1-6.8,3.7-8.6-2.1,2.1-3,5.2-2.2,8l-1.2-.5c6.2-4,13.7-7.1,21.1-5.7l-.9,1.1c-1.3-3.3-4.8-5.7-8.3-6.3Z"/>
          </g>
          <path class="cls-75" d="M216.8,204.2c-15.4-3.8-21.3,8.3-29,4.6,8.8-2.8,20.4-12.2,29-4.6Z"/>
          <g>
            <path class="cls-57" d="M221.8,204.2c1.9,1.8,4.5,2.9,7.2,2.8,2.6,0,5.2-1.3,7-3.2,1-1.1,1.8-2.6,1.9-4.1,0-.7-.1-1.5-.6-2.1-.8-1.1-2.2-1.5-3.5-1.6-4.8-.5-9.8,1.4-13.2,4.8-.5.5-.4.8-.1,1.5s.8,1.3,1.4,1.9Z"/>
            <g>
              <path class="cls-60" d="M234,196.6c1.6,2.9.5,6.5-2.3,8.1s-6.5.5-8.1-2.3-.1-5.6,2.7-7.2c2.9-1.6,6.1-1.5,7.7,1.4Z"/>
              <circle class="cls-67" cx="224.1" cy="201.9" r="2.1"/>
              <circle class="cls-65" cx="233" cy="199.5" r=".9"/>
              <path class="cls-53" d="M233.6,200.6c.3.4-.7,2.4-1.8,3.1s-3.8,1.6-5.5.2c-.4-.3,1.7,0,3.9-1.2s3.1-2.6,3.3-2.2Z"/>
              <polygon class="cls-65" points="228.7 200.1 229.9 201.3 231.5 200.9 230.4 202.1 230.6 203.6 229.5 202.6 228 202.8 229.1 201.7 228.7 200.1"/>
            </g>
          </g>
          <g>
            <path class="cls-80" d="M219.1,196.9c-.7,1.7-.6,3.6.2,5.2,5-4.1,12.6-6.7,18.9-4.2-.9-2.8-3.1-6.7-6.6-7.2"/>
            <path class="cls-113" d="M219.1,196.9c-.4,1.8,0,3.6,1,4.8l-1.4-.3c5.3-4.4,13.2-7,19.9-4.3l-1.3,1.1c-.7-3.1-3.9-7.8-7.3-7.6,3.2-.1,6.4,2.5,7.8,4.7.4,1,2.3,2.1.9,3-.3.1-.9.3-1.1.2-2.8-1.3-6.2-.5-9.2,0-3.2.8-6.2,2.3-8.7,4.4-2.7,1-1.6-5.1-.7-6Z"/>
          </g>
          <path class="cls-75" d="M242,194.6c-5.9,4.7-14-3.4-22.5,8.2,4-3.4,9.5-5,14.7-4.6,2.8.6,8.7.7,7.7-3.7Z"/>
          <g>
            <path class="cls-125" d="M201.4,222.9c8.2,2,19.6-.3,27.7-4.9,3.8-2.2,6.7-5.1,8.4-7.8.6-.9.9-2.6-.3-3.2-.6-.2-1.3.2-1.8.7-8.7,9.5-23.7,12.8-34.6,10.8-8.2-1.5-6.3,9.5,7.8,9.7,11.5.2,26.4-5.6,29.7-13.9.6-1.4,0-3.6-1.5-2.8,0,0-2.4,3.7-7.7,6.5-15,8-27.7,4.9-27.7,4.9Z"/>
            <path class="cls-55" d="M238,208.6s0,0-.1,0c-.6-.2-1.3.2-1.8.7-8.7,9.5-23.7,12.8-34.6,10.8-3.7-.7-5.4,1.2-4.8,3.5-1.9-2.8-.5-5.8,4-5,11,2,26-1.4,34.6-10.8.5-.5,1.1-.9,1.8-.7.6.3.8.9.8,1.6Z"/>
            <path class="cls-64" d="M201.4,222.9c8.2,2,19.6-.3,27.7-4.9,3.8-2.2,6.7-5.1,8.4-7.8.6-.9.9-2.6-.3-3.2-.6-.2-1.3.2-1.8.7-8.7,9.5-23.7,12.8-34.6,10.8-8.2-1.5-6.3,9.5,7.8,9.7,11.5.2,26.4-5.6,29.7-13.9.6-1.4,0-3.6-1.5-2.8,0,0-2.4,3.7-7.7,6.5-15,8-27.7,4.9-27.7,4.9Z"/>
          </g>
          <path class="cls-95" d="M203.8,257.3c2.4,2.3,5.7,3.7,9,3.9,3.2.2,6.3-.6,9.5-.9,3.9-.4,7.8-.1,11.5.8,1.1.3,2.4.5,3.1-.4.4-.6.3-1.4,0-2.1-1.1-3.3-4-5.8-7.2-7-3.2-1.2-6.8-1.4-10.3-1.2s-6.9.7-10.4.8c-2.4,0-4.8-.1-7.1-.8s-2.3-1.1-2.5,0,1,2.7,1.5,3.5c.7,1.3,1.7,2.4,2.7,3.4Z"/>
        </g>
        <g>
          <ellipse class="cls-69" cx="418.8" cy="254.2" rx="32.4" ry="131.5" transform="translate(-18.3 32.9) rotate(-4.4)"/>
          <g>
            <g>
              <g>
                <path class="cls-71" d="M257.3,198.5c-.1,0-.2,0-.3,0-3.9-.2-5.7-1-11.9-17-3.6-9.4-3.2-13-1.3-15.9,1.9-2.9,8.4-5.4,21.6-8.1.5,0,48.6-9.3,98.8-15.9,1.8-.2,3.3-.4,4.7-.4,3.6,0,5.9.8,7,2.5,1.4,2.1.4,4.9-.6,7.2-.5,1.1-1,2.3-1.6,3.7-1.8,4.3-4.3,10.2-7.7,16.7-4,7.8-4.7,8.1-12.3,9.6-1,.2-2.1.4-3.3.7-7.8,1.6-26.7,5.4-40.5,8.1-4.9,1-9.1,1.8-11.7,2.3-10.6,2.1-36.7,6.6-40.8,6.6h0Z"/>
                <path class="cls-130" d="M368.8,142.4c7.9,0,7.1,4.2,5.4,8-2,4.5-4.8,11.8-9.2,20.3-4.4,8.5-4.3,7.4-14.8,9.6-10.6,2.2-42,8.4-52.2,10.4-10.3,2.1-36.5,6.5-40.6,6.5s-.2,0-.2,0c-3.1-.2-4.7-.2-10.9-16.2-3.5-8.9-3.1-12.3-1.4-14.8,1.7-2.5,8-4.9,20.8-7.6,0,0,48-9.2,98.7-15.9,1.8-.2,3.3-.3,4.5-.3M368.8,140c-1.4,0-3,.1-4.8.4-50.2,6.6-98.3,15.8-98.8,15.9-13.7,2.9-20.2,5.4-22.4,8.6-2.5,3.8-2.1,8.3,1.2,16.9,6.2,16,8.3,17.4,12.9,17.7.1,0,.3,0,.4,0,4.5,0,31.4-4.7,41-6.6,2.7-.5,6.9-1.4,11.8-2.3,13.8-2.7,32.7-6.5,40.5-8.1,1.2-.3,2.3-.5,3.3-.7,7.9-1.5,8.9-2,13.1-10.2,3.4-6.5,5.9-12.4,7.7-16.8.6-1.4,1.1-2.6,1.6-3.7,1.1-2.5,2.1-5.7.5-8.3-1.3-2-3.9-3-8-3h0Z"/>
              </g>
              <path class="cls-118" d="M262.1,169.2c22.1-4.1,92.8-15.8,101.3-17.3,10.1-1.8,12.2-7.1,5.2-9.5-1.2,0-2.6.1-4.2.3-50.7,6.7-98.7,15.9-98.7,15.9-7.6,1.6-12.9,3.1-16.4,4.6-5.8,3.5-6.2,9.5,12.8,6Z"/>
              <g class="cls-41">
                <path class="cls-74" d="M372.8,153.4c-17.9,11.1-42.6,10.8-63.3,15.8-20.8,1.8-45.8,12.2-64.6,6.9,19,4.3,43.5-6.4,64.4-8.3,20.7-4.9,45.1-4.3,63.5-14.4Z"/>
                <path class="cls-74" d="M367.1,163.9c-38.5,9.1-79.4,19.1-118.8,20.7,39.3-3.4,79.9-13.4,118.8-20.7Z"/>
                <path class="cls-74" d="M363.7,171.5c-36.2,8.3-75.5,17.3-112.6,19.7,36.9-4.4,75.9-13.3,112.6-19.7Z"/>
              </g>
              <path class="cls-48" d="M363.3,168.1c3.1-14.6-23.3,7-50.7,13.1-35,7.8-34.7-18.1-49.5,8.5-7.5,13.5-14.5-3.6-19-15.6.4,1.8,1.1,4.1,2.2,6.9,6.2,16,7.8,16,10.9,16.2,3.1.2,30.3-4.4,40.8-6.5,10.2-2,41.7-8.2,52.2-10.4,7.9-1.7,9.8-1.5,12.2-4.9.8-1.4-.3-1.4,1-7.3Z"/>
              <g class="cls-86">
                <g class="cls-78">
                  <path class="cls-107" d="M364.3,142.5c-50.7,6.7-98.7,15.9-98.7,15.9-12.8,2.7-19.2,5.1-20.8,7.6-.8,1.2-1.3,2.6-1.2,4.7.7,1.6,2.2,2.8,4.9,3.2,12.5,2.2,36.4-5.4,80.6-8.9,12-.9,23.9-3.1,35.6-5.9,1.5-.4,6-.8,6.7-2.5,1.1-2.5,2-4.8,2.8-6.5,2-4.5,2.8-9.4-9.9-7.7Z"/>
                </g>
              </g>
            </g>
            <path class="cls-66" d="M248,165.8s.3-.4,1.1-.9c.8-.5,2.1-1,3.7-1.7,1.6-.6,3.7-1.3,6-2,1.2-.4,2.4-.7,3.7-1.1,1.3-.4,2.7-.7,4.2-1.1,2.9-.7,6.1-1.5,9.5-2.2,3.4-.7,6.9-1.5,10.6-2.2,7.4-1.4,15.3-2.8,23.2-4.1,4-.6,7.9-1.3,11.8-1.9,3.9-.6,7.7-1.2,11.5-1.7,3.7-.6,7.3-1,10.7-1.5,3.4-.4,6.7-.8,9.6-1.1,6-.6,11-.9,14.5-.8,1.8,0,3.1.2,4.1.4.5.1.8.3,1,.4.2.1.3.2.3.2,0,0-.1,0-.3-.2-.2,0-.6-.2-1-.3-.9-.2-2.3-.2-4-.1-3.5.1-8.4.8-14.4,1.6-3,.4-6.2.9-9.6,1.5-3.4.6-7,1.1-10.7,1.7-7.4,1.2-15.3,2.6-23.2,3.9-3.9.7-7.9,1.3-11.8,2-3.9.7-7.7,1.3-11.4,1.9-3.7.7-7.3,1.3-10.6,1.9-3.4.7-6.6,1.2-9.5,1.8-1.5.3-2.9.6-4.2.9-1.3.3-2.6.6-3.8.8-2.4.5-4.4,1.1-6.1,1.6-1.7.5-3,1-3.8,1.4-.9.4-1.2.8-1.2.8Z"/>
            <g>
              <g>
                <g>
                  <path class="cls-67" d="M431.1,252.5c-.5-9.1-3.9-12.5-10.9-12.4-1.2,0-2.3,0-3.3,0,1.9,2.3,3.4,6.1,3.7,12.5.2,6.3-.3,10.8-1.4,14.2.5,0,1,0,1.5-.1,7.4-.5,11.1-3.2,10.5-14.3Z"/>
                  <path class="cls-67" d="M416.5,252.3c-.3-6.1-2-9.7-4-11.8-2.7.2-4.2.4-4.2.4l.7,26.8s1.9-.2,5.5-.5c2.8-3.5,2.4-7.9,2.1-15Z"/>
                  <path class="cls-127" d="M420.5,252.7c-.3-6.4-1.8-10.2-3.7-12.5-1.6,0-3,.2-4.2.3,2,2.1,3.6,5.6,4,11.8.4,6.6.5,12.1-2.1,15,1.3-.1,2.8-.2,4.6-.4,1.1-3.4,1.7-7.9,1.4-14.2Z"/>
                </g>
                <path class="cls-42" d="M421.8,254.8c-.3-6.4-2.2-11.5-4.5-14.6-.2,0-.3,0-.5,0-1.6,0-3,.2-4.2.3-2.7.2-4.2.4-4.2.4l.7,26.8s8.4-.7,10.1-.8c.5,0,1,0,1.5-.1,5.1-.4,8.5-1.8,9.8-6.2-2,3.6-8.2,3.3-8.6-5.8Z"/>
                <path class="cls-19" d="M412.9,240.4s2.8,1,3.5,5.8h2.3s.3-17.9.5-31.6c.2-13.7,1.3-54.6,1.1-71.2-.3-16.6-6.7-20.6-14-18-7.3,2.6-6.3,13.6-3,39.8,3.3,26.2,9.6,75.2,9.6,75.2Z"/>
                <path class="cls-19" d="M414.1,267.2s2.9-.7,3-4.5h2.2s2.3,19.4,8,40.5c5.7,21.1,9,27.1,11.4,48,2.5,20.9-1.1,28.6-7.4,30.3-6.3,1.7-10.7-4.8-12-21.8-1.5-20.4-3.7-38.6-4.4-53.8-.7-15.2-.8-38.7-.8-38.7Z"/>
                <g class="cls-50">
                  <path class="cls-47" d="M417.5,190.5c-.9,30.1-7.1,28.4-12.1-12.3-.5-4.3-1.2-8.2-1.8-11.7,3.4,26.5,9.4,73.8,9.4,73.8,0,0,2.8,1,3.5,5.8h2.3s.3-17.9.5-31.6c.1-8.1.6-25.9.9-42.5-1.4,5.7-2.5,11.9-2.7,18.5Z"/>
                  <path class="cls-90" d="M424.1,301c1.6,4.1,3.2,6.6,4.8,7.9-.5-1.8-1-3.7-1.6-5.7-5.7-21.1-8-40.5-8-40.5h-2.2c-.1,3.9-3,4.5-3,4.5,0,0,.2,23.5.8,38.7.7,15.2,2.9,33.5,4.4,53.8,0,.2,0,.4,0,.6,0-1.1-.1-2.3-.2-3.5-2.6-29.8-5.6-83.4,5-55.8Z"/>
                </g>
                <path class="cls-66" d="M418.1,141.9c.3,17.3-.8,60.1-.9,74.4-.1,10.7-.3,23.8-.4,29.8h2s.3-17.9.5-31.6c.2-13.7,1.3-54.6,1.1-71.2-.2-10.5-2.8-16-6.6-17.9,2.6,3,4.2,8.2,4.4,16.5Z"/>
                <path class="cls-66" d="M438.8,351.2c-2.5-20.9-5.7-26.9-11.4-48-5.7-21.1-8-40.5-8-40.5h-2.1c.5,3.9,2.8,21.4,7.8,40.3,5.7,21.5,8.9,27.5,11.4,48.8,2,17.9-.2,26.3-4.7,29.6,6.1-1.9,9.5-9.7,7.1-30.2Z"/>
                <g class="cls-100">
                  <path class="cls-77" d="M427.5,324.7c5.7,23.3,11.1,43.2,6.4,53.6-1.2,2-2.8,3.7-5.1,3.4-7.7-1.2-9-13.3-10.6-39.6,0-1.5-.2-3.2-.3-4.9-.1-20,3-39.3,9.6-12.4Z"/>
                </g>
              </g>
              <g class="cls-120">
                <path class="cls-54" d="M420.6,240.1s4.5,2.2,4.5,12.5c0,10.3,5.3,9.2,5.9,4.1.6-5-.6-10.2-2.1-12.6-1.5-2.4-3.8-4-8.3-4.1Z"/>
              </g>
              <g class="cls-83">
                <path class="cls-76" d="M415.7,180.4c1.3-23.9,3.3-46.1-3.2-55.5-1.9-.6-4-.4-6.2.4-7.3,2.6-6.3,13.6-3,39.8.2,1.5.4,3.2.6,4.9,3.6,19.7,10.2,38.1,11.7,10.4Z"/>
              </g>
            </g>
            <g>
              <path class="cls-7" d="M311.6,333.3c-.1,0-.3,0-.4,0-1.8-.4-2.9-2.2-2.5-3.9l34.1-149.8c.4-1.8,2.2-2.9,3.9-2.5,1.8.4,2.9,2.2,2.5,3.9l-34.1,149.8c-.4,1.6-1.9,2.7-3.5,2.5Z"/>
              <path class="cls-2" d="M216.6,337.6c-.3,0-.5,0-.8-.2-1.7-.6-2.6-2.5-2-4.2l50.6-140.9c.6-1.7,2.5-2.6,4.2-2,1.7.6,2.6,2.5,2,4.2l-50.6,140.9c-.5,1.4-2,2.3-3.4,2.2Z"/>
            </g>
            <g>
              <path class="cls-88" d="M385,323.6c-.4,0-.7-.2-.9-.5-.2-.3-.3-.8-.1-1.1,6.9-16.3,7.3-39.9,6.7-63.1-.7-29.3-8.7-47.4-15.3-57.5-.2-.4-.3-.8,0-1.2.2-.4.6-.6,1-.6h0c2.5,0,4.8,0,6.8.2h.4c10.7.6,16,.9,21.1,12.8,4.8,11.3,10.1,30.7,11.1,45.9.9,13.3,2.7,57.2-10.6,62-3.2,1.1-9.9,2.2-19.9,3.2,0,0,0,0-.1,0Z"/>
              <path class="cls-108" d="M376.3,200.7c2.6,0,4.8,0,6.8.2,10.9.6,15.6.7,20.4,12.1,4.8,11.4,10.1,30.8,11,45.5,1,14.7,2.2,56.4-9.9,60.8-3.3,1.2-10.5,2.2-19.7,3.1,6.8-16,7.4-38.6,6.8-63.6-.7-29.1-8.5-47.4-15.5-58.1M376.3,198.4c-.9,0-1.6.5-2,1.2-.4.8-.4,1.7,0,2.4,6.5,9.9,14.4,27.9,15.1,56.9.6,23,.2,46.5-6.6,62.6-.3.8-.2,1.6.3,2.3.4.6,1.1,1,1.9,1s.1,0,.2,0c10.2-1,17-2.1,20.2-3.2,6.2-2.2,9.9-11.6,11.4-28.5,1.2-14.4.4-30.2,0-34.6-1-15.3-6.4-34.9-11.2-46.2-5.3-12.6-11.3-12.9-22.1-13.5h-.4c-2-.1-4.3-.2-6.9-.2,0,0,0,0,0,0h0Z"/>
            </g>
            <g>
              <path class="cls-105" d="M379.7,324.1c-.4,0-.7-.2-1-.5-.2-.3-.3-.8-.1-1.2,7.3-16.3,7.7-40.4,7.1-64-.7-28.9-8.5-47-15-57-.2-.4-.2-.8,0-1.2.2-.4.6-.6,1-.6,1.1,0,2.1,0,3.1,0s1,0,1.5,0c.4,0,.8.2,1,.5,6.7,10.3,14.9,28.9,15.7,58.7.6,23.4.2,47.4-6.9,64-.2.4-.5.7-1,.7-1.7.2-3.5.3-5.3.5,0,0,0,0,0,0Z"/>
              <path class="cls-108" d="M374.8,200.7c.5,0,1,0,1.4,0,7,10.7,14.7,29,15.5,58.1.6,25,0,47.5-6.8,63.6-1.7.2-3.5.3-5.3.5,7.2-16.1,7.9-39.1,7.2-64.5-.7-28.7-8.3-46.9-15.2-57.6,1.1,0,2.1,0,3.1,0M374.8,198.4c-1,0-2,0-3.1,0-.8,0-1.6.5-2,1.2-.4.7-.4,1.6,0,2.4,6.3,9.9,14.1,27.7,14.8,56.4.6,23.5.2,47.5-7,63.5-.3.8-.2,1.6.2,2.3.4.6,1.2,1,1.9,1s.1,0,.2,0c1.8-.2,3.6-.3,5.3-.5.9,0,1.6-.6,1.9-1.4,7.1-16.9,7.6-41,7-64.5-.8-30.1-9-48.9-15.9-59.3-.4-.7-1.2-1.1-1.9-1.1-.5,0-1,0-1.5,0h0Z"/>
            </g>
            <g>
              <g>
                <path class="cls-89" d="M168,328.4c-.5,0-.9-.3-1.1-.8-6.6-19.9-12.4-46.1-15.2-58.7l-.7-3.4c-.1-.5.2-1.1.7-1.3,3-1.3,6.1-2.8,9.7-4.6.2,0,.3-.1.5-.1s.3,0,.5.1c.3.1.6.4.6.8.5,2,1,3.7,1.3,5.3.2,1.1.5,2.4.9,3.9,2.7,12.1,8.2,37.2,14.6,56.7.1.3,0,.7-.2,1-.2.3-.5.5-.9.5-1.6,0-3.1.1-4.5.2-1.8,0-3.7.2-5.7.3,0,0-.4,0-.5,0Z"/>
                <path class="cls-122" d="M161.9,260.7c.5,1.8.9,3.6,1.3,5.3,2.1,9.5,8.3,38.7,15.5,60.7-1.6,0-3.1.1-4.5.2-1.9.1-4,.2-6.1.3-7.3-21.9-13.6-51.7-15.9-61.9,3.2-1.4,6.5-3,9.7-4.6M161.9,258.3c-.4,0-.7,0-1,.2-3.6,1.8-6.6,3.2-9.6,4.6-1,.5-1.6,1.6-1.3,2.6.2,1,.5,2.1.7,3.4,2.8,12.6,8.6,38.8,15.2,58.8.3,1,1.2,1.6,2.2,1.6s0,0,.1,0h.6c1.9-.1,3.7-.3,5.5-.3,1.4,0,2.9-.1,4.5-.2.7,0,1.4-.4,1.8-1,.4-.6.5-1.4.3-2.1-6.4-19.5-11.9-44.6-14.5-56.6-.3-1.5-.6-2.8-.9-3.9-.4-1.6-.8-3.3-1.3-5.4-.2-.7-.7-1.2-1.3-1.5-.3-.1-.6-.2-1-.2h0Z"/>
              </g>
              <g>
                <path class="cls-1" d="M178.6,327.8c-.5,0-1-.3-1.1-.8-6.4-19.7-12-44.9-14.6-57-.3-1.5-.6-2.8-.9-3.9-.3-1.5-.8-3.2-1.3-5.2-.1-.5.1-1.1.6-1.4l1.4-.7c2.4-1.2,4.9-2.4,7.3-3.6.2,0,.3-.1.5-.1s.4,0,.6.1c.3.2.6.5.6.9,1.4,9.9,11.4,60.9,13.7,69.9,0,.3,0,.7-.2,1-.2.3-.5.5-.9.5-2,0-3.8.1-5.6.2,0,0,0,0,0,0Z"/>
                <path class="cls-122" d="M170.6,256.4c1.5,10.5,11.4,61.2,13.7,70-2,0-3.8.1-5.7.2-7.2-22.1-13.3-51.2-15.5-60.7-.4-1.7-.8-3.4-1.3-5.3,2.9-1.4,5.8-2.9,8.7-4.3M170.6,254.1c-.3,0-.7,0-1,.2-2.4,1.2-4.9,2.4-7.3,3.6l-1.4.7c-1,.5-1.5,1.6-1.2,2.7.5,2,.9,3.6,1.3,5.2.2,1.1.5,2.4.9,3.9,2.7,12.1,8.2,37.3,14.7,57.1.3,1,1.2,1.6,2.2,1.6s0,0,.1,0c1.8,0,3.7-.2,5.6-.2.7,0,1.4-.4,1.8-.9.4-.6.6-1.3.4-2-2.3-9-12.3-59.9-13.7-69.8-.1-.7-.6-1.4-1.2-1.7-.3-.2-.7-.3-1.1-.3h0Z"/>
              </g>
              <g>
                <path class="cls-91" d="M107.2,332.6c-11.1,0-17.4-4-23.3-26.9-4.5-17.1-14.1-62.2-5.2-65.8,2-.8,4-1.2,6.3-1.2,7.6,0,17.7,4.6,30.8,14.1,3.5,2.5,6.3,4.7,8.9,6.7,7.2,5.5,10.7,8.3,15.3,8.3s5-.7,8.7-2.2c1-.4,2-.9,3-1.3.2,0,.3,0,.5,0s.4,0,.5.1c.3.2.5.4.6.8l.8,3.4c2.8,12.5,8.5,38.6,15.1,58.4.1.3,0,.7-.1,1-.2.3-.5.5-.9.5-10.8.7-23.7,1.6-35.1,2.5-9,.7-16.8,1.3-21.9,1.6-1.5,0-2.7.1-3.9.1Z"/>
                <path class="cls-130" d="M85,239.9c6.7,0,16,3.7,30.2,13.9,13.6,9.9,18.2,15.2,24.9,15.2s5.4-.8,9.1-2.3c1-.4,2-.9,3.1-1.3,2.3,10.2,8.6,40,15.9,61.9-19.3,1.2-45.3,3.3-57,4-1.3,0-2.6.1-3.8.1-10.5,0-16.4-3.9-22.2-26-6.4-24.6-12.8-61.6-5.9-64.4,1.7-.7,3.6-1.1,5.9-1.1M85,237.5h0c-2.4,0-4.7.4-6.7,1.3-3,1.2-6,5.3-3.5,26.5,1.4,11.8,4.4,27,8,40.7,5.5,21,11.4,27.8,24.5,27.8s2.4,0,4-.1c5.2-.3,13-.9,22-1.6,11.4-.8,24.2-1.8,35.1-2.5.7,0,1.4-.4,1.8-1,.4-.6.5-1.4.3-2-6.6-19.7-12.3-45.8-15.1-58.3-.3-1.3-.5-2.4-.7-3.4-.2-.7-.6-1.3-1.2-1.6-.3-.2-.7-.2-1.1-.2-.3,0-.6,0-.9.2-.8.4-1.9.8-3,1.3-3.6,1.5-6.1,2.1-8.2,2.1-4.2,0-7.7-2.7-14.6-8-2.5-1.9-5.4-4.1-8.9-6.7-13.3-9.7-23.6-14.4-31.5-14.4h0Z"/>
              </g>
              <g>
                <path class="cls-87" d="M189.7,327.5c-.5,0-1-.4-1.1-.9-2.3-9-12.3-59.5-13.7-70.1,0-.5-.3-2.3-.3-2.3,0-.5.2-1,.7-1.2,5.5-2.4,9.9-3.9,13.6-4.6,0,0,.1,0,.2,0,.4,0,.8.2,1,.6,0,.2,8.2,15.8,16.2,16.4.4,0,.9,0,1.4,0,9.9,0,30.4-5.9,31.7-13,1.6-8.5,4.9-27.5,4.9-27.7,0-.4.4-.8.8-.9.4-.1,40.1-12.8,72.8-18.5,20.2-3.6,38.4-5.5,53.9-5.7h0c.4,0,.8.2,1,.5,6.6,10.3,14.6,28.7,15.3,58.2.6,23.9.1,48.3-7.3,65-.2.4-.5.7-1,.7-13.2,1.1-30.7,2-47.9,2.4-8.5.2-24.2.2-43.9.2h-7.6c-33.8,0-66.2,0-90.6.7h0Z"/>
                <path class="cls-130" d="M371.7,200.8c6.9,10.7,14.4,28.9,15.2,57.6.6,25.5,0,48.4-7.2,64.5-14.5,1.2-32.5,2-47.8,2.4-8.6.2-24.7.2-43.8.2s-5.2,0-7.9,0c-29.8,0-65.1,0-90.5.7-2.4-9.4-12.3-59.8-13.7-70,0-.7-.2-1.5-.3-2.3,4.7-2.1,9.2-3.7,13.3-4.5,0,0,8.4,16.3,17.1,17.1.5,0,1,0,1.5,0,9.7,0,31.3-5.8,32.8-14,1.6-8.6,4.9-27.7,4.9-27.7,0,0,39.7-12.7,72.6-18.5,23.9-4.2,41.6-5.5,53.7-5.7M371.7,198.4s0,0,0,0c-15.6.2-33.8,2.2-54.1,5.8-32.8,5.8-72.6,18.4-73,18.6-.8.3-1.4,1-1.6,1.8,0,.2-3.4,19.1-4.9,27.6-1.1,6-20.4,12.1-30.5,12.1s-.9,0-1.3,0c-6.1-.5-13.2-11.9-15.2-15.8-.4-.8-1.2-1.3-2.1-1.3-.1,0-.3,0-.4,0-3.8.7-8.2,2.2-13.8,4.7-1,.4-1.5,1.4-1.4,2.5v.7c.2.5.2,1.1.3,1.6,1.4,10.6,11.4,61.2,13.7,70.2.3,1,1.2,1.8,2.3,1.8s0,0,0,0c26.4-.7,64.9-.7,90.4-.7h4s3.9,0,3.9,0c19.7,0,35.4,0,43.8-.2,17.2-.4,34.7-1.3,48-2.4.8,0,1.6-.6,1.9-1.4,7.1-16,8.1-37.7,7.4-65.5-.8-29.7-8.9-48.4-15.5-58.8-.4-.7-1.2-1.1-2-1.1h0Z"/>
              </g>
              <g>
                <path class="cls-114" d="M184.3,327.6c-.5,0-1-.4-1.1-.9-2.4-9.4-12.3-59.9-13.7-70.2,0-.5.2-1,.7-1.2,1.9-.9,3.6-1.7,5.2-2.4.2,0,.3-.1.5-.1s.4,0,.6.1c.3.2.5.5.6.9,0,0,.2,1.8.3,2.3,1.4,10.6,11.4,60.9,13.7,69.8,0,.3,0,.7-.2,1-.2.3-.5.5-.9.5-1.9,0-3.7.1-5.4.2h0Z"/>
                <path class="cls-130" d="M175.7,254.1c.1.8.2,1.6.3,2.3,1.4,10.2,11.3,60.6,13.7,70-1.9,0-3.7.1-5.4.2-2.3-8.8-12.3-59.5-13.7-70,1.7-.8,3.4-1.6,5.1-2.4M175.7,251.7c-.3,0-.6,0-.9.2-1.6.7-3.3,1.5-5.2,2.4-.9.4-1.5,1.4-1.3,2.4,1.4,10.3,11.3,60.9,13.8,70.3.3,1,1.2,1.7,2.3,1.7s0,0,0,0c1.7,0,3.5-.1,5.4-.2.7,0,1.4-.4,1.8-.9.4-.6.6-1.3.4-2-2.3-9-12.2-59.2-13.6-69.7,0-.5-.1-1-.2-1.6v-.7c-.2-.7-.6-1.4-1.3-1.7-.4-.2-.7-.3-1.1-.3h0Z"/>
              </g>
            </g>
            <g>
              <g>
                <path class="cls-5" d="M321.5,331.5c-.1,0-.3,0-.4,0-1.9-.4-3.1-2.3-2.6-4.2l36.4-159.9c.4-1.9,2.3-3.1,4.2-2.6,1.9.4,3.1,2.3,2.6,4.2l-36.4,159.9c-.4,1.7-2,2.9-3.8,2.7Z"/>
                <path class="cls-33" d="M323.1,327.7l36.4-159.9c.2-.9.7-1.6,1.4-2-.5-.5-1.1-.9-1.8-1.1-1.9-.4-3.8.8-4.2,2.6l-36.4,159.9c-.4,1.9.7,3.8,2.6,4.2.1,0,.3,0,.4,0,.9,0,1.7-.2,2.4-.7-.7-.8-1.1-2-.8-3.1Z"/>
                <path class="cls-35" d="M320.5,327.5l36.4-159.9c.3-1.4,1.4-2.4,2.7-2.6-.2,0-.4-.2-.6-.2-1.9-.4-3.8.8-4.2,2.6l-36.4,159.9c-.4,1.9.7,3.8,2.6,4.2.1,0,.3,0,.4,0,.4,0,.7,0,1,0-1.5-.7-2.4-2.3-2-4Z"/>
                <path class="cls-6" d="M220.1,336c-.3,0-.6,0-.8-.2-1.8-.7-2.8-2.7-2.1-4.5l54-150.4c.7-1.8,2.7-2.8,4.5-2.1,1.8.7,2.8,2.7,2.1,4.5l-54,150.4c-.6,1.6-2.1,2.5-3.6,2.3Z"/>
                <path class="cls-32" d="M275.7,178.9c-.5-.2-1-.2-1.6-.2.4.8.4,1.7.1,2.6l-54,150.4c-.5,1.3-1.6,2.1-2.9,2.3.4.8,1.1,1.5,2,1.8.3,0,.6.2.8.2,1.6.2,3.1-.7,3.6-2.3l54-150.4c.7-1.8-.3-3.8-2.1-4.5Z"/>
                <path class="cls-31" d="M275.7,178.9c-.5-.2-1-.2-1.6-.2,0,0,0,.1,0,.2,1.6.8,2.4,2.6,1.8,4.3l-54,150.4c-.4,1.2-1.5,2.1-2.7,2.3,0,0,0,0,0,0,.3,0,.6.2.8.2,1.6.2,3.1-.7,3.6-2.3l54-150.4c.7-1.8-.3-3.8-2.1-4.5Z"/>
              </g>
              <path class="cls-45" d="M231.1,307.4l-14.4,26.4c-.3.5-.2,1.1.2,1.5h0c.2.2.5.4.8.6,0,0,0,0,0,0,.2,0,.3.1.5.2,0,0,0,0,0,0,.2,0,.4.1.7.2.3,0,.6,0,.8,0,1.6,0,3.1-.5,3.6-1.4l15.3-27.9c-2.5.2-5.1.4-7.6.4Z"/>
              <path class="cls-13" d="M332.4,306.6c-.2-.3-.4-.7-.6-1-.3-.2-1.1-.9-1.5-1.1-.3-.2-3.3-1.7-.9-.5-.9-.4-1.8-.9-2.6-1.4l-6.2,19.4-13.1-20c-2.5.2-5,.3-7.5.2l18.3,27.8c.3.8,1.4,1.4,2.8,1.6.1,0,.3,0,.4,0,.2,0,.4,0,.5,0,0,0,0,0,.1,0,0,0,0,0,0,0,.2,0,.4,0,.6,0h0c1.2-.2,2.1-.8,2.4-1.5l7.4-23.1c0,0-.1-.2-.2-.2Z"/>
              <path class="cls-103" d="M275.6,182.5c0,.9-.9,1.6-1.8,1.5s-1.6-.9-1.5-1.8c0-.9.9-1.6,1.8-1.5s1.6.9,1.5,1.8Z"/>
              <path class="cls-103" d="M360.1,168.7c0,.9-.9,1.6-1.8,1.5s-1.6-.9-1.5-1.8.9-1.6,1.8-1.5,1.6.9,1.5,1.8Z"/>
              <path class="cls-103" d="M222.4,332.4c0,.9-.9,1.6-1.8,1.5s-1.6-.9-1.5-1.8.9-1.6,1.8-1.5,1.6.9,1.5,1.8Z"/>
              <path class="cls-103" d="M323.5,327.9c0,.9-.9,1.6-1.8,1.5s-1.6-.9-1.5-1.8c0-.9.9-1.6,1.8-1.5s1.6.9,1.5,1.8Z"/>
              <g>
                <path class="cls-15" d="M326.4,303.1c2.8.7,5.1,1.8,6.5,3.4l21.9-104.9c-2.5.2-4.9.5-7.3.8l-21,100.7Z"/>
                <path class="cls-30" d="M259.3,220.5l-27.8,86.8c0,0,.2,0,.2,0,2.6-.2,5.1-.4,7.4-.6l28.4-88.5c-3.2.9-6,1.7-8.2,2.3Z"/>
              </g>
            </g>
            <path class="cls-67" d="M147.4,267.4s-26.5,17-44.4,24.7c0,0,17.1-8.9,24.9-14,7.8-5.1,9.8-7.1,9.2-9.3,0,0,2.8,1.4,10.4-1.4Z"/>
            <g class="cls-97">
              <path class="cls-27" d="M372.8,201.2c-4.6-.5-31.9-2.4-102.8,16.3-6.4,1.7-16.9,3.5-20.4,10.2-3.2,6.2,1.8,38,10.9,39,2.9.3,28.3-5.2,38.2-7.7,11.5-2.9,23-5.7,34.6-7.8,12-2.2,23.5-4.3,29.2-16.6,4.9-10.7,8.3-20,10.7-25.6,1.8-4.3,1.1-7.7-.4-7.8Z"/>
            </g>
            <path class="cls-103" d="M386.1,207.5c0,.7-.7,1.3-1.4,1.2s-1.2-.7-1.2-1.4.7-1.3,1.4-1.2,1.3.7,1.2,1.5Z"/>
            <path class="cls-103" d="M390.8,220.5c0,.7-.7,1.3-1.4,1.2s-1.3-.7-1.2-1.4c0-.7.7-1.3,1.4-1.2s1.3.7,1.2,1.4Z"/>
            <path class="cls-103" d="M393.5,233c0,.7-.7,1.3-1.4,1.2s-1.3-.7-1.2-1.4c0-.7.7-1.3,1.4-1.2s1.3.7,1.2,1.4Z"/>
            <path class="cls-103" d="M395.6,248.1c0,.7-.7,1.2-1.4,1.2s-1.3-.7-1.2-1.4.7-1.3,1.4-1.2,1.3.7,1.2,1.4Z"/>
            <path class="cls-103" d="M396.7,262.3c0,.7-.7,1.3-1.4,1.2s-1.3-.7-1.2-1.4.7-1.3,1.4-1.2,1.3.7,1.2,1.5Z"/>
            <path class="cls-103" d="M396.7,277.6c0,.7-.7,1.3-1.4,1.2s-1.3-.7-1.2-1.4.7-1.3,1.4-1.2,1.3.7,1.2,1.5Z"/>
            <path class="cls-103" d="M395.8,293.2c0,.7-.7,1.3-1.4,1.2s-1.3-.7-1.2-1.4.7-1.3,1.4-1.2,1.3.7,1.2,1.5Z"/>
            <path class="cls-103" d="M393.6,311.4c0,.7-.7,1.3-1.4,1.2s-1.3-.7-1.2-1.4.7-1.3,1.4-1.2,1.3.7,1.2,1.4Z"/>
            <g class="cls-82">
              <g class="cls-78">
                <path class="cls-107" d="M111.9,257.6c16.6,19.3,8.5,25.3,8.5,25.3,0,0,26.9-15,55.3-15.9,26.1-.8,24.2,7.7,47.7,1.1,18.8-5.3,24.7-13.3,27.3-22,3.5-11.5,29.9-19.6,71.2-25.3,44.5-6.1,70.7-8.2,85.9,4.5-1.4-4.6-2.9-8.8-4.4-12.3-4.8-11.4-9.6-11.5-20.4-12.1-1.9-.1-4.2-.2-6.8-.2-1.4,0-2.9,0-4.5,0-12.1.2-29.8,1.5-53.7,5.7-33,5.8-72.6,18.5-72.6,18.5,0,0-3.3,19-4.9,27.7-1.6,8.6-25.6,14.7-34.3,13.9-8.7-.7-17.1-17.1-17.1-17.1-4.1.8-8.6,2.4-13.3,4.5-1.7.7-3.4,1.5-5.1,2.4-2.9,1.4-5.8,2.8-8.7,4.3-3.3,1.6-6.5,3.2-9.7,4.6-1,.5-2,.9-3.1,1.3-13.6,5.7-15.2.8-34-12.8-18.8-13.6-29.2-15.6-36-12.8-.5.2-.9.6-1.2,1.1,1.1-.2,18-3,34,15.6Z"/>
              </g>
            </g>
            <path class="cls-20" d="M86.6,310.9c6,19.4,12.5,21.1,24.5,20.4,11.7-.7,37.7-2.9,57-4,2.1-.1,4.2-.2,6.1-.3,1.4,0,2.9-.2,4.5-.2,1.8,0,3.7-.2,5.7-.2,1.7,0,3.5-.1,5.4-.2,44.5-1.3,119.4-.4,142.1-1,15.4-.4,33.3-1.2,47.8-2.4,1.8-.2,3.6-.3,5.3-.5,9.2-.9,16.4-1.9,19.7-3.1,7.2-2.6,9.6-18.4,10.3-33.9-23.8,12.3-70.4,12.9-125,17.7-81.1,7.1-191.1,21.3-203.3,7.8Z"/>
            <path class="cls-69" d="M412.2,242.5c-4.9,8.9-57.5,15.1-128.3,26.7-72,11.8-174.7,34.5-200.7,29.2.6,2.4,1.2,4.8,1.7,7,.3,1.1.6,2.1.8,3.1,9.1.9,27.9.8,66.2-2.5,54.5-4.6,249.3-16.3,263-33.4,0-5.7-.3-10.7-.5-14.1-.3-5-1.1-10.5-2.3-16Z"/>
            <g class="cls-119">
              <path class="cls-79" d="M338.4,343.7c-.2-1.7-.3-3.3-.5-4.9-6.1,9.4-27.8,7.8-66.5,7.7-52.1-.1-67.5-5.2-62.2-14,.2-.3.3-.5.5-.8-3.4,6-6.7,11.7-8,14.4-2.8,5.6-1.8,13.8,12,14,13.7.2,65.9.2,86-.7,20-.9,40.4,1.5,38.8-15.8Z"/>
            </g>
            <path class="cls-43" d="M377.8,323.1c.4-.7.8-1.4,1.2-2,.4-.6.9-1.2,1.1-1.8.2-.5.2-1.1,0-1.6-.8-2-4.7-3.2-6.2-.8l-4.1,6.7c2.8-.2,4.6-.3,7.9-.5Z"/>
            <path class="cls-29" d="M351.7,324.7c2.3-.2,4.2-.3,6.5-.4-.9-2.3-1.5-4.3-2.5-6.6-.6-1.3-.9-3.4-2.7-4.2-2.5-1.1-5.6.6-4.8,2.6l3.5,8.6Z"/>
            <path class="cls-21" d="M341.9,324.9s-2.9-10.9-4.2-16.3c-1.3-5.4-9.8-9-22.5-8.5-13,.5-78.4,5.6-85,6.5-6.6.9-21.8,9.8-27.8,19.3l139.5-1.1Z"/>
            <g>
              <circle class="cls-96" cx="360.3" cy="354.3" r="21.8"/>
              <path class="cls-46" d="M375.7,355.8c-.9,8.5-8.5,14.7-17,13.8-8.5-.9-14.7-8.5-13.8-17,.9-8.5,8.5-14.7,17-13.8,8.5.9,14.7,8.5,13.8,17Z"/>
              <path class="cls-38" d="M372.9,355.6c-.7,6.9-6.9,12-13.8,11.3s-12-6.9-11.3-13.8c.7-6.9,6.9-12,13.8-11.3,6.9.7,12,6.9,11.3,13.8Z"/>
              <path class="cls-109" d="M372.4,355.5c-.7,6.7-6.6,11.5-13.3,10.8-6.7-.7-11.5-6.6-10.8-13.3.7-6.7,6.6-11.5,13.3-10.8,6.7.7,11.5,6.6,10.8,13.3Z"/>
              <path class="cls-24" d="M369.6,355.4c-.5,5.1-5.1,8.8-10.2,8.3s-8.9-5.1-8.3-10.2,5.1-8.8,10.2-8.3c5.1.5,8.9,5.1,8.3,10.2Z"/>
              <path class="cls-16" d="M368.5,355.2c-.5,4.5-4.5,7.8-9,7.3s-7.8-4.5-7.3-9c.5-4.5,4.5-7.8,9-7.3s7.8,4.5,7.3,9Z"/>
              <path class="cls-98" d="M368.1,355.1c-.4,4.3-4.3,7.4-8.6,7s-7.4-4.3-7-8.6c.4-4.3,4.3-7.4,8.6-7s7.4,4.3,7,8.6Z"/>
              <path class="cls-24" d="M365.7,354.3c-.3,2.9-2.8,4.9-5.7,4.6-2.9-.3-4.9-2.8-4.6-5.7s2.8-4.9,5.7-4.6,4.9,2.8,4.6,5.7Z"/>
            </g>
            <g>
              <g>
                <path class="cls-123" d="M358.4,356.9c-1-1-1.3-2.6-.7-3.9l16.2-35.8c.8-1.8,2.9-2.5,4.6-1.7,1.8.8,2.5,2.9,1.7,4.6l-16.2,35.8c-.8,1.8-2.9,2.5-4.6,1.7-.4-.2-.7-.4-1-.7Z"/>
                <path class="cls-9" d="M358.4,356.9c-1-1-1.3-2.6-.7-3.9l16.2-35.8c.8-1.8,2.9-2.5,4.6-1.7,1.8.8,2.5,2.9,1.7,4.6l-16.2,35.8c-.8,1.8-2.9,2.5-4.6,1.7-.4-.2-.7-.4-1-.7Z"/>
                <path class="cls-11" d="M365.2,353.4s0,0,0,0c-.3-.2-.6-.4-.9-.6-.8-.8-1.1-2.1-.6-3.3l13.5-29.9c.6-1.3,2-2,3.3-1.6-.2-1.1-.9-2.1-2-2.5-1.8-.8-3.8,0-4.6,1.7l-16.2,35.8c-.6,1.4-.3,2.9.7,3.9.3.3.6.5,1,.7,1.8.8,3.8,0,4.6-1.7l1.1-2.5Z"/>
                <path class="cls-23" d="M359.4,354.9l16.9-37.5c.5-1,1.3-1.7,2.3-2,0,0,0,0,0,0-1.8-.8-3.8,0-4.6,1.7l-16.2,35.8c-.6,1.4-.3,2.9.7,3.9.2.2.5.4.8.6-.3-.8-.2-1.7.1-2.6Z"/>
              </g>
              <g>
                <path class="cls-117" d="M362.7,357.6c-1.2.7-2.8.7-4-.2l-31.3-23.8c-1.5-1.2-1.8-3.4-.7-4.9,1.2-1.5,3.4-1.8,4.9-.7l31.3,23.8c1.5,1.2,1.8,3.4.7,4.9-.3.3-.6.6-.9.9Z"/>
                <path class="cls-8" d="M362.7,357.6c-1.2.7-2.8.7-4-.2l-31.3-23.8c-1.5-1.2-1.8-3.4-.7-4.9,1.2-1.5,3.4-1.8,4.9-.7l31.3,23.8c1.5,1.2,1.8,3.4.7,4.9-.3.3-.6.6-.9.9Z"/>
                <path class="cls-17" d="M360.8,350.2s0,0,0,0c-.2.3-.5.5-.8.7-1,.6-2.3.6-3.3-.2l-26.2-19.9c-1.1-.9-1.5-2.4-.9-3.6-1.1,0-2.2.4-2.9,1.4-1.2,1.5-.9,3.7.7,4.9l31.3,23.8c1.2.9,2.8.9,4,.2.4-.2.7-.5.9-.9,1.2-1.5.9-3.7-.7-4.9l-2.1-1.6Z"/>
                <path class="cls-12" d="M360.9,356.2l-32.7-24.9c-.9-.7-1.4-1.7-1.4-2.7,0,0,0,0,0,0-1.2,1.5-.9,3.7.7,4.9l31.3,23.8c1.2.9,2.8.9,4,.2.3-.2.5-.4.7-.6-.9,0-1.8-.2-2.5-.7Z"/>
              </g>
              <g>
                <path class="cls-81" d="M360.4,357.9c-1.4-.1-2.6-1.1-3-2.6l-10.2-38c-.5-1.9.6-3.8,2.5-4.3,1.9-.5,3.8.6,4.3,2.5l10.2,38c.5,1.9-.6,3.8-2.5,4.3-.4.1-.8.1-1.3.1Z"/>
                <path class="cls-4" d="M360.4,357.9c-1.4-.1-2.6-1.1-3-2.6l-10.2-38c-.5-1.9.6-3.8,2.5-4.3,1.9-.5,3.8.6,4.3,2.5l10.2,38c.5,1.9-.6,3.8-2.5,4.3-.4.1-.8.1-1.3.1Z"/>
                <path class="cls-28" d="M363.4,350.9s0,0,0,0c-.4,0-.7.1-1.1,0-1.2-.1-2.2-.9-2.5-2.2l-8.5-31.7c-.4-1.4.3-2.8,1.5-3.4-.8-.7-2-1-3.2-.7-1.9.5-3,2.4-2.5,4.3l10.2,38c.4,1.4,1.6,2.4,3,2.6s.8,0,1.3-.1c1.9-.5,3-2.4,2.5-4.3l-.7-2.6Z"/>
                <path class="cls-34" d="M359.8,355.8l-10.7-39.7c-.3-1.1,0-2.1.5-3,0,0,0,0,0,0-1.9.5-3,2.4-2.5,4.3l10.2,38c.4,1.4,1.6,2.4,3,2.6s.6,0,1,0c-.7-.5-1.3-1.2-1.5-2.1Z"/>
              </g>
            </g>
            <path class="cls-103" d="M362.4,353.7c-.1,1.1-1.1,1.9-2.2,1.8s-1.9-1.1-1.8-2.2,1.1-1.9,2.2-1.8,1.9,1.1,1.8,2.2Z"/>
            <g>
              <g>
                <path class="cls-115" d="M238.5,361.4c-10.4,0-20,0-24.9-.1-8.2-.1-11.6-3-13.1-5.5-1.7-2.8-1.7-6.7.1-10.2,2.9-5.7,14.1-24.9,17.9-31.2,4.5-7.6,9.4-7.8,16.7-8.3,2.1-.1,8.4-.6,16.3-1.2,20.3-1.5,54.4-4.1,64.8-4.4.5,0,1.1,0,1.6,0,13.6,0,16.8,4.2,17.5,11,.2,2.3.6,4.9,1.1,8.1.8,5.5,2,13,3,24,.4,4.5-.5,7.9-2.8,10.5-5.2,5.8-16.6,6.1-28.7,6.3-2.8,0-5.6.1-8.5.2-16.2.7-50.9.8-61.1.8Z"/>
                <path class="cls-130" d="M317.9,301.7c13,0,15.7,3.8,16.3,9.9.6,6.4,2.5,14.8,4.1,32.1,1.6,17.3-18.8,14.9-38.8,15.8-13.2.6-40.2.8-61.1.8s-20.2,0-24.9-.1c-13.7-.2-14.8-8.4-12-14,2.8-5.6,13.7-24.3,17.8-31.2,4.1-6.9,8.2-7.3,15.8-7.7,7.6-.5,66.7-5.3,81.1-5.6.5,0,1.1,0,1.6,0M317.9,299.3c-.5,0-1.1,0-1.6,0-10.4.2-44.5,2.8-64.9,4.4-7.9.6-14.2,1.1-16.3,1.2-7.5.4-12.8.8-17.7,8.9-3.9,6.6-15,25.5-17.9,31.3-2,3.9-2,8.2,0,11.4,1.6,2.7,5.4,5.9,14.1,6,4.9,0,14.5.1,24.9.1s44.9,0,61.2-.8c2.8-.1,5.7-.2,8.4-.2,12.9-.3,24-.5,29.5-6.7,2.5-2.8,3.5-6.6,3.1-11.4-1.1-11-2.2-18.6-3-24.1-.5-3.2-.9-5.8-1.1-8.1-.9-8.7-6.1-12-18.6-12h0Z"/>
              </g>
              <path class="cls-44" d="M316.3,301.7c-14.3.3-73.5,5.1-81.1,5.6-7.6.5-11.7.9-15.8,7.7-2.2,3.7-6.4,10.9-10.3,17.6,6.6-10.5,15.2-14.4,58.8-16.6,49.5-2.6,63.2-1.8,69.4,18.5-1.3-11.3-2.6-17.7-3.1-22.8-.6-6.4-3.5-10.2-17.9-9.9Z"/>
              <path class="cls-40" d="M281.1,304.3c19.6-1,41.3.9,53.5,10.2-.1-1.1-.3-2-.4-3-.6-6.4-3.5-10.2-17.9-9.9-14.3.3-73.5,5.1-81.1,5.6-7.6.5-11.7.9-15.8,7.7-.5.8-1.1,1.9-1.8,3,5.6-7.2,39.9-12.4,63.4-13.6Z"/>
              <path class="cls-26" d="M338.4,343.7c0-.7-.1-1.3-.2-2-3.4,10.4-20.8,9.2-37.9,10.4-20,1.4-72.2,2.7-85.9,2.8-9,0-12.6-3.4-13.3-7.4-1.9,5.4,0,12.3,12.6,12.5,13.7.2,65.9.2,86-.7,20-.9,40.4,1.5,38.8-15.8Z"/>
            </g>
            <path class="cls-47" d="M202.6,269.4c6.7,3.6,31.6-3.8,38.4-8.8,6.6-4.9,7-34.5,7.1-36.4-1.8.5-2.7.9-2.7.9,0,0-3.3,19-4.9,27.7-1.6,8.6-25.6,14.7-34.3,13.9-8.7-.7-17.1-17.1-17.1-17.1-1.2.2-2.4.5-3.6.9,0,0,0,0,0,0,2.4,4.4,10.4,15.3,17.1,18.9Z"/>
            <g>
              <path class="cls-3" d="M248.1,224s-3,21-4.2,26.9c-1.2,5.9-.6,8.1-11.1,12.4-12.3,5-25.5,8.6-33.2,2.7-7.7-5.9-11.6-11.7-14.2-15.4-2.6-3.7,2.1-9.6,7.9-2.6,5.8,7,10.2,15.5,14.7,16.1,5.8.8,24.5-3.5,28.2-9.5,3.1-4.9,4.1-24.2,4.7-28.5.6-5.3,7-7,7.1-2Z"/>
              <path class="cls-10" d="M246.1,221.1c.3.5.5,1.1.5,1.8,0,0-2.9,20.4-4.1,26.1-1.2,5.7-.5,7.8-10.6,12-11.8,4.9-24.4,8.3-31.8,2.6-7.3-5.7-11.1-11.4-13.6-15-.7-1-.8-2.2-.6-3.2-1.3,1.2-1.6,3.3-.4,5,2.6,3.7,6.5,9.6,14.2,15.4,7.7,5.9,20.9,2.4,33.2-2.7,10.5-4.3,9.8-6.5,11.1-12.4,1.2-5.9,4.2-26.9,4.2-26.9,0-1.8-.9-2.7-2.1-2.9Z"/>
            </g>
            <path class="cls-25" d="M108.4,303.4s22.1-4.8,24.2-.4c2,4.4-8,27.2-8,27.2l-14.7,1.1s-8.9.7-9.3-2.5c-.4-3.2,7.9-25.4,7.9-25.4Z"/>
            <g>
              <g>
                <path class="cls-56" d="M86.9,339.6c-3.6,0-6.1-1.6-6.8-4.5-2.1-8.4,10.6-24.7,14.4-27.4,4.4-3.1,10.8-5.6,17.9-7.1,5.5-1.1,10-1.7,13.3-1.7s7.1,1.1,7.9,3.3c1.5,4.1-3.9,10.8-17.9,22.7-10.8,9.1-21.9,14.8-28.8,14.8h0Z"/>
                <path class="cls-130" d="M125.7,300.1c15.2,0,2.9,12.4-10.8,23.9-11.1,9.4-21.8,14.5-28.1,14.5s-5-1.2-5.7-3.6c-1.9-7.6,10.1-23.5,13.9-26.2,3.8-2.7,9.7-5.3,17.5-6.9,5.7-1.2,10-1.7,13.1-1.7M125.7,297.7c-3.4,0-7.9.6-13.6,1.7-7.3,1.5-13.8,4.1-18.4,7.3-3.6,2.6-17.2,19.4-14.8,28.6.9,3.4,3.8,5.4,7.9,5.4,7.2,0,18.5-5.8,29.6-15.1,14.9-12.5,20-19.2,18.3-24-1.5-4-7.2-4-9-4h0Z"/>
              </g>
              <g class="cls-78">
                <path class="cls-107" d="M112.6,301.8c-7.8,1.6-13.7,4.2-17.5,6.9-1.3.9-3.7,3.5-6.1,6.8,6.9-7,35.8-14.1,33-5-1.5,4.9-24.1,22.9-40,26,3.8,5,17.9,0,32.9-12.6,16.4-13.8,31-29-2.3-22.2Z"/>
              </g>
              <path class="cls-67" d="M112.6,301.8c-7.8,1.6-13.7,4.2-17.5,6.9-.7.5-1.8,1.5-3,2.9,3.5-2.7,10.1-7.5,21.7-9.2,11.9-1.7,12.7,3.2,10.7,5.3,0,0,4.3-4.8,6.2-3.6,2.9,1.8-21.1,26.3-39.6,33.7,6.3-1.6,14.9-6.4,23.8-13.9,16.4-13.8,31-29-2.3-22.2Z"/>
            </g>
            <path class="cls-66" d="M80,241.4s.2,0,.7-.2c.5-.1,1.1-.3,2-.4.9-.1,1.9-.2,3.2-.2.6,0,1.3,0,2,0,.7,0,1.4,0,2.2.2.4,0,.8.1,1.2.2.4,0,.8.2,1.2.2.4,0,.8.2,1.2.3.4.1.8.2,1.2.4.4.1.8.3,1.3.4.4.1.9.3,1.3.5.9.3,1.8.7,2.6,1.1,1.8.8,3.5,1.7,5.2,2.8.8.6,1.7,1.1,2.5,1.7.8.6,1.6,1.2,2.4,1.9,1.6,1.3,3.1,2.6,4.6,3.8.8.6,1.5,1.3,2.2,1.9.7.6,1.5,1.2,2.2,1.8,1.5,1.2,2.8,2.4,4.2,3.4.7.5,1.3,1.1,2,1.5.6.5,1.2,1,1.8,1.4,1.2.9,2.3,1.8,3.3,2.4,1,.7,1.8,1.3,2.6,1.8.7.5,1.3.9,1.7,1.1.4.3.6.4.6.4,0,0-.2,0-.7-.3-.4-.2-1.1-.5-1.8-.9-.8-.4-1.7-.9-2.8-1.5-1.1-.6-2.2-1.3-3.5-2.1-1.3-.8-2.6-1.7-4-2.7-1.4-1-2.9-2.1-4.4-3.2-.8-.6-1.5-1.2-2.3-1.7-.8-.6-1.5-1.2-2.3-1.8-1.5-1.2-3.1-2.6-4.6-3.8-.8-.6-1.5-1.3-2.3-1.8-.8-.6-1.6-1.1-2.4-1.7-.8-.5-1.6-1-2.4-1.5l-.6-.4-.6-.3c-.4-.2-.8-.4-1.2-.6-.8-.5-1.6-.8-2.4-1.1-.4-.2-.8-.4-1.2-.5-.4-.1-.8-.3-1.2-.4-.4-.1-.8-.3-1.2-.4-.4-.1-.8-.2-1.2-.3-.4-.1-.8-.2-1.1-.3-.4,0-.7-.2-1.1-.2-.4,0-.7-.2-1.1-.2-.3,0-.7-.1-1-.2-.7-.1-1.3-.2-1.9-.2-1.2-.1-2.3-.1-3.1-.1-1.7,0-2.7.2-2.7.2Z"/>
            <path class="cls-66" d="M146.9,269.1s2.1-1.5,5.4-3.4c.8-.5,1.7-1,2.7-1.5,1-.5,2-1.1,3-1.6,1.1-.5,2.2-1.1,3.3-1.6,1.1-.5,2.3-1.1,3.4-1.6,1.2-.5,2.4-1,3.5-1.5,1.2-.5,2.3-.9,3.4-1.3,2.3-.8,4.4-1.5,6.2-2,3.7-1,6.2-1.4,6.2-1.4,0,0-2.3,1.1-5.8,2.6-1.7.8-3.7,1.7-5.9,2.6-1.1.5-2.2,1-3.3,1.5-1.1.5-2.3,1-3.5,1.5-1.2.5-2.3,1-3.5,1.5-1.1.5-2.3,1-3.4,1.4-1.1.5-2.2.9-3.2,1.3-1,.4-2,.8-2.8,1.2-1.8.7-3.2,1.3-4.3,1.7-1,.4-1.7.6-1.7.6Z"/>
            <path class="cls-66" d="M402.3,143.4s-.1-.4-.3-1c-.1-.6-.3-1.5-.4-2.6,0-.5,0-1.1,0-1.8,0-.6,0-1.3.1-2,.1-1.4.5-2.8,1-4.3.3-.7.6-1.4,1.1-2,.4-.6,1-1.2,1.6-1.7.6-.5,1.3-.8,1.9-1,.2,0,.3-.1.5-.2.2,0,.3,0,.5,0,.2,0,.3,0,.5,0,.2,0,.3,0,.5,0,.6,0,1.1,0,1.6.1.4.1.8.2,1.1.3.6.2.9.4.9.4,0,0-.4,0-1,0-.3,0-.7,0-1.1,0-.4,0-.9.1-1.3.3-.1,0-.2,0-.4,0-.1,0-.2,0-.4.1-.1,0-.2,0-.4.1-.1,0-.2.1-.3.2-.5.2-.9.6-1.3,1-.4.4-.8.9-1.1,1.4-.3.5-.6,1.1-.9,1.7-.3.6-.5,1.2-.7,1.9-.2.6-.4,1.3-.5,1.9-.3,1.3-.5,2.5-.7,3.5-.3,2.1-.6,3.5-.6,3.5Z"/>
            <path class="cls-66" d="M417.1,129.9s0,0,.1.3c0,.2.2.5.4.9.1.4.3.9.5,1.4.2.6.3,1.3.5,2,.2.8.3,1.6.5,2.5.2.9.3,1.9.5,3,0,.5.2,1.1.2,1.7,0,.6.1,1.2.2,1.8,0,.6.1,1.2.2,1.9,0,.6.1,1.3.1,1.9,0,1.3.1,2.7.2,4.1,0,1.4,0,2.9,0,4.4,0,3,0,6.2,0,9.5,0,3.3,0,6.7-.1,10.2,0,3.5-.1,7-.2,10.5,0,3.5-.2,7-.3,10.5,0,3.5-.2,6.9-.3,10.2-.2,6.6-.5,12.8-.7,18.1-.2,5.3-.5,9.7-.7,12.8,0,1.5-.2,2.8-.2,3.6,0,.8,0,1.3,0,1.3,0,0,0-.4,0-1.3,0-.8,0-2,0-3.6,0-3.1-.1-7.5-.1-12.8,0-5.3,0-11.5,0-18.1,0-3.3,0-6.7.1-10.2,0-3.5.1-7,.2-10.5,0-3.5.2-7,.3-10.5,0-3.5.2-6.9.3-10.2.1-3.3.2-6.5.3-9.5,0-1.5.1-3,.1-4.4,0-1.4,0-2.8,0-4.1,0-1.3,0-2.6,0-3.8,0-.6,0-1.2,0-1.8,0-.6,0-1.1-.1-1.6,0-1.1-.1-2.1-.3-3-.1-.9-.2-1.8-.3-2.5-.1-.8-.3-1.4-.4-2-.1-.6-.3-1.1-.4-1.5-.1-.4-.2-.7-.3-.9,0-.2-.1-.3-.1-.3Z"/>
            <path class="cls-66" d="M421.9,240.6s.3,0,.8,0c.3,0,.6,0,1,0,.4,0,.8.2,1.2.3.4.2.9.3,1.4.6.2.1.5.3.7.5.2.2.4.4.7.6.2.2.4.4.6.7.2.2.4.5.6.7.3.5.7,1.1,1,1.6l.4.9c.1.3.2.6.3.9.2.6.3,1.2.4,1.7,0,.6.2,1.1.1,1.6,0,.5,0,1,0,1.5,0,.5-.1.9-.2,1.2,0,.4-.1.7-.2.9-.1.5-.2.8-.2.8,0,0,0-.3-.2-.8,0-.3-.1-.6-.2-.9,0-.3-.1-.7-.2-1.2-.1-.4-.2-.9-.3-1.3,0-.5-.3-1-.4-1.5,0-.2-.1-.5-.2-.8,0-.2-.2-.5-.3-.7,0-.3-.2-.5-.3-.8l-.3-.7c-.2-.5-.5-.9-.7-1.4-.3-.4-.6-.8-.9-1.2-.2-.2-.3-.4-.5-.5-.2-.2-.3-.3-.5-.5-.2-.2-.3-.3-.5-.4-.2-.1-.3-.3-.5-.4-.3-.2-.7-.5-1-.6-.3-.2-.6-.3-.8-.4-.2,0-.4-.2-.5-.2-.1,0-.2,0-.2,0Z"/>
            <path class="cls-66" d="M379,202.3s.3,0,1-.1c.7,0,1.6-.2,2.8-.3,1.2,0,2.7-.1,4.4,0,1.7.1,3.7.3,5.7,1,1,.3,2.1.8,3.1,1.4.5.3,1,.7,1.5,1.2.5.4.9,1,1.2,1.5,1.4,2,2.8,4.2,4,6.6.6,1.2,1.2,2.4,1.7,3.7.3.6.6,1.3.8,1.9.2.6.5,1.3.7,1.9,1,2.6,1.8,5.3,2.6,8,.4,1.4.7,2.7,1,4.1.4,1.4.6,2.7.9,4.1.6,2.7,1,5.4,1.4,8,.4,2.6.7,5.1.9,7.5.2,2.4.4,4.7.6,6.8.1,2.1.2,4,.3,5.7,0,1.7,0,3.2,0,4.4,0,2.5,0,3.8,0,3.8,0,0-.2-1.4-.4-3.8-.1-1.2-.3-2.7-.5-4.4-.2-1.7-.4-3.6-.7-5.7-.1-1-.3-2.1-.4-3.2-.2-1.1-.3-2.3-.5-3.5-.1-1.2-.4-2.4-.6-3.6-.2-1.2-.4-2.5-.6-3.8-.5-2.6-1-5.2-1.6-7.9-.3-1.3-.6-2.7-.9-4-.4-1.3-.6-2.7-1.1-4-.7-2.7-1.5-5.3-2.5-7.9-.9-2.6-1.9-5-3-7.4-1.1-2.3-2.3-4.5-3.6-6.5-.3-.5-.6-.9-1-1.3-.4-.4-.8-.7-1.2-1-.9-.6-1.8-1.1-2.7-1.4-1.9-.7-3.8-1.1-5.4-1.3-1.7-.2-3.1-.3-4.4-.4-2.4,0-3.8,0-3.8,0Z"/>
            <path class="cls-53" d="M84.7,326.1c-4.2,10,.8,11,9.1,6.2,8.5-4.5,17.3-9.6,23.8-16.6-2.8,8.9-45.6,35.8-32.9,10.4Z"/>
            <path class="cls-53" d="M202.8,349.2s0,.1,0,.4c0,.3.2.6.6,1,.3.4.8.8,1.4,1.2.3.2.7.4,1,.5.4.1.8.3,1.2.5,1.8.6,4.1.9,6.7,1.1,2.6.1,5.6,0,8.9-.2,6.5-.3,14.2-.7,22.4-1.1,8.2-.4,16.9-.8,25.6-1.1,8.7-.4,17.5-.8,25.6-1.1,2,0,4.1-.2,6-.3,2-.1,3.9-.2,5.8-.3,1.9,0,3.7-.2,5.5-.3,1.8-.1,3.4-.3,5.1-.4.8,0,1.6-.1,2.4-.2.7,0,1.5-.2,2.3-.3.7-.1,1.4-.3,2.1-.4.7-.1,1.3-.4,1.9-.6,2.5-.8,4.5-2,5.9-3.2,1.4-1.2,2.3-2.5,2.8-3.4.5-.9.6-1.4.6-1.4,0,0,0,.6-.5,1.5-.4.9-1.2,2.3-2.6,3.6-1.4,1.4-3.4,2.7-5.9,3.7-.6.2-1.3.5-2,.7-.7.2-1.4.4-2.2.6-.7.1-1.5.3-2.3.4-.8,0-1.6.2-2.4.3-1.6.2-3.3.4-5.1.6-1.8.1-3.6.3-5.5.4-1.9.2-3.8.3-5.8.5-2,.2-4,.3-6,.4-4.1.2-8.3.6-12.6.7-4.3.2-8.7.4-13,.6-4.4.2-8.7.3-13,.5-4.3.2-8.5.3-12.6.4-4.1.1-8.1.2-11.8.3-3.8,0-7.3.1-10.6.2-3.3,0-6.3,0-9-.2-2.7-.3-5-.8-6.8-1.5-1.8-.7-3.1-1.7-3.6-2.6-.3-.4-.4-.8-.5-1.1,0-.3,0-.4,0-.4Z"/>
            <path class="cls-66" d="M419.3,267.7s.4,1.7,1,4.7c.3,1.5.7,3.3,1.2,5.4.5,2.1,1,4.4,1.6,7,.3,1.3.6,2.6.9,4,.3,1.4.6,2.8,1,4.2.4,1.5.7,3,1.1,4.5.4,1.5.8,3.1,1.2,4.7.8,3.2,1.8,6.4,2.8,9.7,1,3.3,2.1,6.7,3,10,.9,3.4,1.8,6.8,2.5,10.2.8,3.4,1.4,6.7,1.9,10,1.1,6.5,1.6,12.7,1.6,18,0,2.6-.1,5.1-.4,7.2-.2,2.1-.6,4-1,5.5-.4,1.5-.8,2.6-1.1,3.4-.3.8-.5,1.2-.5,1.2,0,0,.1-.4.4-1.2.2-.8.5-1.9.8-3.4.2-1.5.5-3.3.6-5.5,0-2.1,0-4.5,0-7.1-.1-2.6-.4-5.4-.7-8.4-.4-3-.9-6.1-1.5-9.3-.6-3.2-1.3-6.5-2.1-9.8-.8-3.3-1.6-6.7-2.6-10.1-.9-3.4-1.9-6.7-2.9-10-1-3.3-1.9-6.6-2.6-9.8-.4-1.6-.8-3.2-1.1-4.7-.3-1.5-.6-3.1-1-4.5-.6-2.9-1.1-5.7-1.6-8.3-.5-2.6-.8-5-1.2-7.1-.3-2.1-.6-3.9-.8-5.5-.2-1.5-.4-2.7-.5-3.5-.1-.8-.2-1.2-.2-1.2Z"/>
          </g>
        </g>
        <g>
          <path class="cls-58" d="M191.6,240.2c-7.1,3.6-3.6,12.8,1,17.1,1.5,1.6,3.3,2.8,5.3,3.8,3.1,1.5,6.5,2.1,9.4,3.7,4.5,2.2,6.8,7.5,11.3,9.6,6.4,2.6,8.7-4.5,6.8-9.5-1.2-3.5-3.9-6.5-6.9-8.6-2.4-1.7-5.1-2.8-8-3.4-2.5-.6-5.2-1-7.5-2.4-1.4-.8-2.5-2-3.4-3.3-2.1-2.8-3.2-9-7.9-7h0Z"/>
          <path class="cls-92" d="M221.2,272.5c-5.4-1.4-6.3-7.4-11.1-9.9-7.2-4.8-19.4-4.9-22.3-13.9,2.2,10.4,11,12.7,19.5,16,4.5,2.2,6.8,7.5,11.3,9.6,4,1.6,6.4-.5,7.2-3.5-1.1,1.3-2.6,2-4.5,1.7Z"/>
          <path class="cls-62" d="M194.5,243.2c2.1,3.1,3.4,6.1,6.4,8.4,6.5,4.9,15.5,1.1,21.3,12.2"/>
        </g>
        <polygon class="cls-65" points="292.5 241.3 293.7 248.2 300.2 248.7 293.6 249.7 292.5 256.2 291.6 249.7 285.3 248.7 291.7 248.1 292.5 241.3"/>
        <polygon class="cls-65" points="229.6 338.1 230.2 341.8 233.6 342.1 230.1 342.6 229.6 346.1 229.1 342.6 225.7 342.1 229.1 341.8 229.6 338.1"/>
      </g>
    </g>
  </g>
</svg>