<svg width="20" height="20" viewBox="0 0 20 20" fill="none" xmlns="http://www.w3.org/2000/svg">
<path d="M10 20C15.5229 20 20 15.5229 20 10C20 4.47714 15.5229 0 10 0C4.47714 0 0 4.47714 0 10C0 15.5229 4.47714 20 10 20Z" fill="#0098EA"/>
<path d="M13.4138 5.58105H6.58466C5.32902 5.58105 4.5332 6.93552 5.16488 8.03048L9.37959 15.3358C9.65463 15.8128 10.3439 15.8128 10.6189 15.3358L14.8345 8.03048C15.4653 6.93727 14.6695 5.58105 13.4147 5.58105H13.4138ZM9.37616 13.145L8.45827 11.3686L6.24348 7.40738C6.09738 7.15384 6.27784 6.82895 6.58381 6.82895H9.37531V13.1459L9.37616 13.145ZM13.7533 7.40652L11.5394 11.3694L10.6215 13.145V6.82809H13.413C13.7189 6.82809 13.8994 7.15298 13.7533 7.40652Z" fill="white"/>
</svg>
