<?xml version="1.0" encoding="UTF-8"?>
<svg xmlns="http://www.w3.org/2000/svg">
	<symbol id="home" viewBox="0 0 20 20" fill="none">
		<path fill="currentColor" fill-rule="evenodd"
					d="M10.707.293a1 1 0 0 0-1.414 0l-9 9A1 1 0 0 0 0 10v7a3 3 0 0 0 3 3h14a3 3 0 0 0 3-3v-7a1 1 0 0 0-.293-.707l-9-9ZM11 18v-5a1 1 0 1 0-2 0v5H3a1 1 0 0 1-1-1v-6.586l8-8 8 8V17a1 1 0 0 1-1 1h-6Z"
					clip-rule="evenodd"/>
	</symbol>

	<symbol id="collection" viewBox="0 0 20 20" fill="none">
		<path fill="currentColor" fill-rule="evenodd"
					d="M3 0a3 3 0 0 0-3 3v10a3 3 0 0 0 3 3h10a3 3 0 0 0 3-3V3a3 3 0 0 0-3-3H3Zm-.707 2.293A1 1 0 0 1 3 2h10a1 1 0 0 1 1 1v10a1 1 0 0 1-1 1H3a1 1 0 0 1-1-1V3a1 1 0 0 1 .293-.707ZM20 5a1 1 0 0 0-2 0v12a1 1 0 0 1-1 1H5a1 1 0 1 0 0 2h12a3 3 0 0 0 3-3V5Z"
					clip-rule="evenodd"/>
	</symbol>

	<symbol id="earn" viewBox="0 0 20 20" fill="none">
		<path stroke="currentColor" stroke-width="2"
					d="m18.75 10.03-.747-3.324c-.198-.891-.3-1.337-.507-1.722a3.11 3.11 0 0 0-.712-.891c-.326-.291-.721-.48-1.528-.883l-3.038-1.49c-.815-.386-1.21-.591-1.639-.669a3.146 3.146 0 0 0-1.133 0c-.429.086-.823.283-1.63.669L4.778 3.21c-.807.394-1.21.592-1.536.883a3.264 3.264 0 0 0-.712.89c-.198.386-.3.832-.507 1.723l-.746 3.324c-.198.891-.292 1.337-.275 1.773.017.386.103.771.249 1.114.171.411.455.754 1.013 1.465l2.093 2.673c.558.72.833 1.071 1.185 1.328.309.232.652.394 1.021.506.412.111.867.111 1.75.111h3.365c.9 0 1.347 0 1.768-.111.36-.103.712-.274 1.012-.506.352-.257.627-.608 1.184-1.328l2.103-2.673c.558-.71.832-1.062 1.004-1.465.155-.351.24-.728.249-1.114.017-.437-.077-.882-.275-1.773h.026Zm-4.026.471-2.609 1.345a.554.554 0 0 0-.257.249l-1.339 2.604c-.206.411-.806.411-1.004 0l-1.347-2.604a.598.598 0 0 0-.258-.249l-2.6-1.345a.556.556 0 0 1 0-1.002l2.6-1.345a.554.554 0 0 0 .258-.249l1.347-2.604c.198-.411.798-.411 1.004 0l1.339 2.604a.598.598 0 0 0 .257.249l2.61 1.345a.561.561 0 0 1 0 1.002Z"/>
	</symbol>

	<symbol id="leaderboard" viewBox="0 0 20 20" fill="none">
		<path stroke="currentColor" stroke-linecap="round" stroke-linejoin="round" stroke-width="2"
					d="m19 5-4 5-5-7-5 7-4-5v12h18V5Z"/>
	</symbol>

	<symbol id="magic-wand" viewBox="0 0 20 20" fill="none">
		<g clip-path="url(#clip-magic-wand)">
			<path d="M1 19.0001L10.056 9.94409" stroke="currentColor" stroke-width="2.4" stroke-linecap="round"
						stroke-linejoin="round"/>
			<path
				d="M17.968 2.72204L16.724 6.18404C16.6923 6.26773 16.682 6.35796 16.6939 6.44663C16.7057 6.5353 16.7394 6.61963 16.792 6.69204L18.896 9.55004C18.9541 9.63631 18.9879 9.73671 18.9935 9.8406C18.9992 9.94448 18.9767 10.048 18.9283 10.1401C18.8799 10.2322 18.8074 10.3094 18.7186 10.3636C18.6298 10.4179 18.528 10.447 18.424 10.448L14.8 10.486C14.7087 10.4876 14.619 10.5105 14.5381 10.5528C14.4571 10.5952 14.3873 10.6559 14.334 10.73L12.166 13.742C12.1092 13.8285 12.029 13.8972 11.9348 13.94C11.8406 13.9829 11.7362 13.9981 11.6337 13.9841C11.5312 13.9701 11.4347 13.9273 11.3555 13.8608C11.2763 13.7942 11.2175 13.7066 11.186 13.608L10.186 10.168C10.1617 10.0828 10.1161 10.0052 10.0535 9.94253C9.99083 9.87988 9.9132 9.83427 9.82797 9.81004L6.38797 8.81004C6.28941 8.77854 6.20178 8.71976 6.13522 8.64053C6.06867 8.56129 6.02591 8.46483 6.01189 8.36231C5.99787 8.25978 6.01317 8.15538 6.05601 8.06119C6.09885 7.96699 6.16748 7.88686 6.25397 7.83004L9.26997 5.67004C9.34468 5.61636 9.4057 5.54583 9.44809 5.46418C9.49048 5.38253 9.51305 5.29204 9.51397 5.20004L9.55197 1.57604C9.55298 1.47201 9.58214 1.37019 9.63637 1.2814C9.6906 1.19261 9.76786 1.12016 9.85996 1.07175C9.95205 1.02335 10.0555 1.00079 10.1594 1.00648C10.2633 1.01216 10.3637 1.04588 10.45 1.10404L13.308 3.20004C13.3804 3.25257 13.4647 3.28628 13.5534 3.29815C13.6421 3.31002 13.7323 3.29968 13.816 3.26804L17.278 2.02404C17.3752 1.98584 17.4815 1.977 17.5837 1.99862C17.6859 2.02023 17.7796 2.07135 17.853 2.14565C17.9264 2.21995 17.9765 2.31415 17.9969 2.41661C18.0174 2.51906 18.0073 2.62525 17.968 2.72204Z"
				stroke="currentColor" stroke-width="2.4" stroke-linecap="round" stroke-linejoin="round"/>
		</g>
		<defs>
			<clipPath id="clip-magic-wand">
				<rect width="20" height="20" fill="white"/>
			</clipPath>
		</defs>
	</symbol>

	<symbol id="coin" viewBox="0 0 20 20" fill="none">
		<g filter="url(#a)">
			<path fill="url(#b)"
						d="M19.707 10.033a.011.011 0 0 0 .011-.014l-.826-3.68c-.22-.99-.334-1.484-.563-1.913a3.455 3.455 0 0 0-.791-.99c-.363-.323-.801-.533-1.698-.98L12.465.8C11.559.37 11.12.143 10.644.057a3.495 3.495 0 0 0-1.259 0C8.908.152 8.47.371 7.573.8L4.198 2.456c-.897.438-1.345.657-1.707.98a3.626 3.626 0 0 0-.792.99c-.219.429-.333.924-.562 1.914l-.83 3.693c-.219.99-.324 1.485-.305 1.97.02.43.115.857.277 1.238.19.457.505.838 1.125 1.628l2.327 2.97c.62.8.924 1.19 1.315 1.476.344.257.725.438 1.135.561.458.124.963.124 1.945.124h3.738c1.001 0 1.497 0 1.964-.124a3.38 3.38 0 0 0 1.126-.561c.39-.286.696-.676 1.316-1.476l2.336-2.97c.62-.79.925-1.18 1.115-1.628a3.25 3.25 0 0 0 .277-1.237c.019-.483-.085-.976-.302-1.957a.012.012 0 0 1 .01-.014Zm-4.458.524L12.35 12.05a.615.615 0 0 0-.286.277l-1.487 2.893c-.229.457-.896.457-1.116 0l-1.497-2.893a.665.665 0 0 0-.286-.277l-2.89-1.494a.618.618 0 0 1 0-1.114l2.89-1.494a.615.615 0 0 0 .286-.276l.749-1.447.748-1.447c.22-.457.887-.457 1.116 0l1.487 2.894a.665.665 0 0 0 .287.276l2.898 1.494a.623.623 0 0 1 0 1.114Z"/>
		</g>
		<defs>
			<radialGradient id="b" cx="0" cy="0" r="1" gradientTransform="rotate(40 -4 4) scale(25 15)"
											gradientUnits="userSpaceOnUse">
				<stop stop-color="#315AF3"/>
				<stop offset=".5" stop-color="#AE63FF"/>
				<stop offset="1" stop-color="#F242FF"/>
			</radialGradient>
			<filter id="a" width="20" height="21" x="0" y="0" color-interpolation-filters="sRGB" filterUnits="userSpaceOnUse">
				<feFlood flood-opacity="0" result="BackgroundImageFix"/>
				<feBlend in="SourceGraphic" in2="BackgroundImageFix" result="shape"/>
				<feColorMatrix in="SourceAlpha" result="hardAlpha" values="0 0 0 0 0 0 0 0 0 0 0 0 0 0 0 0 0 0 127 0"/>
				<feOffset dy="1"/>
				<feGaussianBlur stdDeviation="1.5"/>
				<feComposite in2="hardAlpha" k2="-1" k3="1" operator="arithmetic"/>
				<feColorMatrix values="0 0 0 0 0.88 0 0 0 0 0.899873 0 0 0 0 1 0 0 0 1 0"/>
				<feBlend in2="shape" result="effect1_innerShadow_89_2097"/>
			</filter>
		</defs>
	</symbol>

	<symbol id="ton" viewBox="0 0 16 16" fill="none">
		<rect width="16" height="16" fill="#2990FF" rx="8"/>
		<path fill="#fff"
					d="M10.701 4.5H5.298c-.993 0-1.623 1.072-1.123 1.938l3.335 5.779a.566.566 0 0 0 .98 0l3.335-5.78c.5-.864-.131-1.937-1.124-1.937Zm-3.194 5.984L6.78 9.079 5.029 5.945a.306.306 0 0 1 .269-.458h2.208v4.997Zm3.463-4.54L9.218 9.08l-.726 1.405V5.487h2.209c.242 0 .384.257.269.457Z"/>
	</symbol>

	<symbol id="ton-outline" viewBox="0 0 16 16" fill="none">
		<path stroke="currentColor" d="M15.5 8a7.5 7.5 0 1 1-15 0 7.5 7.5 0 0 1 15 0Z"/>
		<path fill="currentColor"
					d="M10.732 4.465H5.268c-1.004 0-1.641 1.084-1.136 1.96l3.372 5.844c.22.381.771.381.992 0l3.372-5.844c.505-.875-.133-1.96-1.136-1.96Zm-3.23 6.051-.735-1.42-1.772-3.17a.31.31 0 0 1 .272-.463h2.234v5.053Zm3.501-4.59-1.771 3.17-.734 1.42V5.463h2.233c.245 0 .389.26.272.462Z"/>
	</symbol>

	<symbol id="stars" viewBox="0 0 20 20" fill="none">
		<path fill="url(#j)" fill-rule="evenodd"
					d="m9.573 15.553-3.6 2.306a.775.775 0 0 1-1.094-.275.864.864 0 0 1-.093-.639l.558-2.293a2.86 2.86 0 0 1 1.48-1.89l3.928-1.972a.392.392 0 0 0 .172-.513.364.364 0 0 0-.394-.213l-4.373.792a2.97 2.97 0 0 1-2.491-.702l-1.382-1.21a.857.857 0 0 1-.098-1.171.784.784 0 0 1 .547-.295l4.22-.345a.799.799 0 0 0 .673-.51l1.628-4.11a.783.783 0 0 1 1.039-.45c.194.085.35.247.43.45l1.628 4.11a.799.799 0 0 0 .672.51l4.244.347c.438.036.765.436.73.894a.844.844 0 0 1-.276.567l-3.237 2.885.738 5.148c.103.447-.16.895-.587 1.003a.765.765 0 0 1-.601-.1l-3.63-2.324a.766.766 0 0 0-.831 0Z"
					clip-rule="evenodd"/>
		<defs>
			<linearGradient id="j" x1="14" x2="7" y1="19" y2="1" gradientUnits="userSpaceOnUse">
				<stop offset="0" stop-color="#FDAF11"/>
				<stop offset="1" stop-color="#FDD865"/>
			</linearGradient>
		</defs>
	</symbol>

	<symbol id="deposit" viewBox="0 0 16 16" fill="none">
		<path fill="currentColor" fill-rule="evenodd"
					d="M8 15.5a7.5 7.5 0 1 0 0-15 7.5 7.5 0 0 0 0 15Zm.6-10.9A.59.59 0 0 0 8 4a.59.59 0 0 0-.6.6v2.8H4.6A.59.59 0 0 0 4 8c0 .339.261.6.6.6h2.8v2.8c0 .339.261.6.6.6a.59.59 0 0 0 .6-.6V8.6h2.8A.59.59 0 0 0 12 8a.59.59 0 0 0-.6-.6H8.6V4.6Z"
					clip-rule="evenodd"/>
	</symbol>

	<symbol id="chevron-up" viewBox="0 0 20 20" fill="none">
		<path fill="currentColor" fill-rule="evenodd"
					d="M3.293 12.707a1 1 0 0 0 1.414 0L10 7.414l5.293 5.293a1 1 0 0 0 1.414-1.414l-6-6a1 1 0 0 0-1.414 0l-6 6a1 1 0 0 0 0 1.414Z"
					clip-rule="evenodd"/>
	</symbol>

	<symbol id="sort" viewBox="0 0 20 20" fill="none">
		<path fill="currentColor" fill-rule="evenodd"
					d="M4.853 12.018a.9.9 0 0 1 1.273-.02L10 15.748l3.874-3.75a.9.9 0 0 1 1.252 1.293l-4.5 4.356a.9.9 0 0 1-1.252 0l-4.5-4.356a.9.9 0 0 1-.02-1.273Z"
					clip-rule="evenodd"/>
		<path fill="currentColor"
					d="M9.374 2.353a.9.9 0 0 1 1.252 0l4.5 4.356a.9.9 0 1 1-1.252 1.293L10 4.252l-3.874 3.75A.9.9 0 0 1 4.874 6.71l4.5-4.356Z"/>
	</symbol>

	<symbol id="withdraw" viewBox="0 0 16 16" fill="none">
		<path fill="currentColor" fill-rule="evenodd"
					d="M3.86.749A2.551 2.551 0 0 1 5.666 0h1.555a1 1 0 1 1 0 2H5.667a.555.555 0 0 0-.557.555v7.778a.555.555 0 0 0 .557.557h7.776a.553.553 0 0 0 .557-.557V8.778a1 1 0 0 1 2 0v1.555a2.556 2.556 0 0 1-2.555 2.557H5.667a2.556 2.556 0 0 1-2.557-2.557V2.557c0-.679.27-1.328.75-1.808ZM1 4.667a1 1 0 0 1 1 1v7.776a.556.556 0 0 0 .555.557h7.778a1 1 0 0 1 0 2H2.557A2.556 2.556 0 0 1 0 13.445V5.667a1 1 0 0 1 1-1ZM11.2 0a.8.8 0 0 0-.566 1.366l1.152 1.152-3.034 3.034a1.2 1.2 0 0 0 1.696 1.696l3.035-3.034 1.152 1.152A.8.8 0 0 0 16 4.8v-4a.8.8 0 0 0-.8-.8h-4Z"
					clip-rule="evenodd"/>
	</symbol>

	<symbol id="completed" viewBox="0 0 16 16" fill="none">
		<path fill="currentColor" fill-rule="evenodd"
					d="M14.183 3.325a1.131 1.131 0 0 1 0 1.572l-7.584 7.778a1.064 1.064 0 0 1-1.532 0L1.817 9.34a1.131 1.131 0 0 1 0-1.571 1.064 1.064 0 0 1 1.532 0l2.484 2.548 6.818-6.993a1.064 1.064 0 0 1 1.532 0Z"
					clip-rule="evenodd"/>
	</symbol>

	<symbol id="commission" viewBox="0 0 20 20" fill="none">
		<path stroke="currentColor" stroke-linecap="round" stroke-linejoin="round" stroke-width="2"
					d="m15.538 12.77 2.77-.694.692 2.77m-.976-2.698A8.34 8.34 0 0 1 10 18.308a8.34 8.34 0 0 1-7.8-5.47M4.462 7.23l-2.77.694L1 5.154m.976 2.698A8.34 8.34 0 0 1 10 1.692a8.34 8.34 0 0 1 7.8 5.47M10 13.25v1.45m0-9.4v1.45m1.618.542A1.448 1.448 0 0 0 10.5 6.75H9.34C8.6 6.75 8 7.4 8 8.2c0 .682.44 1.272 1.052 1.418l1.768.42c.69.16 1.18.822 1.18 1.586 0 .898-.672 1.626-1.5 1.626h-1c-.532 0-1-.3-1.266-.752"/>
	</symbol>

	<symbol id="friends" viewBox="0 0 20 20" fill="none">
		<path fill="currentColor" fill-rule="evenodd"
					d="M7 0a4 4 0 1 0 0 8 4 4 0 0 0 0-8ZM0 17c-.002-3.82 3.178-7.004 7-7.004 3.82 0 7 3.18 7 7.004v2a1 1 0 0 1-1 1H1a1 1 0 0 1-1-1v-2Zm19 3h-3.17c.11-.312.17-.65.17-1v-2c0-2.808-1.32-5.336-3.368-6.994.12-.006.244-.01.366-.01 3.822 0 7.004 3.18 7.002 7.004v2a1 1 0 0 1-1 1ZM13 8c-.468 0-.916-.08-1.334-.228A5.974 5.974 0 0 0 13 4c0-1.43-.5-2.74-1.334-3.772A4 4 0 1 1 13 8Z"
					clip-rule="evenodd"/>
	</symbol>

	<symbol id="referral" viewBox="0 0 20 20" fill="none">
		<path fill="currentColor" fill-rule="evenodd"
					d="M7 0a4 4 0 1 0 0 8 4 4 0 0 0 0-8ZM0 17c-.002-3.82 3.178-7.004 7-7.004 3.82 0 7 3.18 7 7.004v2a1 1 0 0 1-1 1H1a1 1 0 0 1-1-1v-2Zm19 3h-3.17c.11-.312.17-.65.17-1v-2c0-2.808-1.32-5.336-3.368-6.994.12-.006.244-.01.366-.01 3.822 0 7.004 3.18 7.002 7.004v2a1 1 0 0 1-1 1ZM13 8c-.468 0-.916-.08-1.334-.228A5.974 5.974 0 0 0 13 4c0-1.43-.5-2.74-1.334-3.772A4 4 0 1 1 13 8Z"
					clip-rule="evenodd"/>
	</symbol>

	<symbol id="partnership" viewBox="0 0 20 20" fill="none">
		<path fill="currentColor" fill-rule="evenodd"
					d="M2.194 8.457c4.859-2.116 8.099-3.512 9.72-4.186 4.628-1.925 5.59-2.26 6.217-2.27.138-.003.446.03.646.193a.702.702 0 0 1 .237.451c.022.13.05.425.028.656-.25 2.636-1.336 9.031-1.888 11.983-.234 1.249-.694 1.668-1.14 1.709-.967.089-1.702-.64-2.64-1.255-1.466-.961-2.295-1.56-3.719-2.498-1.646-1.084-.579-1.68.359-2.654.245-.255 4.51-4.134 4.592-4.486.01-.044.02-.208-.077-.295-.098-.086-.242-.057-.345-.033-.147.033-2.49 1.582-7.03 4.646-.666.457-1.268.68-1.808.668-.595-.013-1.74-.336-2.59-.613-1.044-.34-1.874-.519-1.802-1.095.038-.3.451-.607 1.24-.92Z"
					clip-rule="evenodd"/>
	</symbol>

	<symbol id="channel" viewBox="0 0 20 20" fill="none">
		<path fill="currentColor" fill-rule="evenodd"
					d="M2.194 8.457c4.859-2.116 8.099-3.512 9.72-4.186 4.628-1.925 5.59-2.26 6.217-2.27.138-.003.446.03.646.193a.702.702 0 0 1 .237.451c.022.13.05.425.028.656-.25 2.636-1.336 9.031-1.888 11.983-.234 1.249-.694 1.668-1.14 1.709-.967.089-1.702-.64-2.64-1.255-1.466-.961-2.295-1.56-3.719-2.498-1.646-1.084-.579-1.68.359-2.654.245-.255 4.51-4.134 4.592-4.486.01-.044.02-.208-.077-.295-.098-.086-.242-.057-.345-.033-.147.033-2.49 1.582-7.03 4.646-.666.457-1.268.68-1.808.668-.595-.013-1.74-.336-2.59-.613-1.044-.34-1.874-.519-1.802-1.095.038-.3.451-.607 1.24-.92Z"
					clip-rule="evenodd"/>
	</symbol>

	<symbol id="language" viewBox="0 0 20 20" fill="none">
		<path fill="currentColor" fill-rule="evenodd"
					d="M2.217 7.75A8.104 8.104 0 0 0 1.9 10c0 .78.11 1.536.317 2.25h3.41A19.334 19.334 0 0 1 5.5 10c0-.803.045-1.552.127-2.25h-3.41Zm.767-1.8H5.94c.358-1.516.9-2.719 1.495-3.635A8.124 8.124 0 0 0 2.984 5.95ZM10 2.076c-.652.534-1.623 1.737-2.205 3.874h4.41C11.623 3.813 10.652 2.61 10 2.076Zm2.56 5.674H7.44A17.43 17.43 0 0 0 7.3 10c0 .82.05 1.569.14 2.25h5.12c.09-.681.14-1.43.14-2.25 0-.82-.05-1.569-.14-2.25Zm1.813 4.5c.082-.698.127-1.447.127-2.25 0-.803-.045-1.552-.127-2.25h3.41c.206.713.317 1.468.317 2.25s-.11 1.536-.316 2.25h-3.41Zm-2.168 1.8h-4.41c.582 2.137 1.553 3.34 2.205 3.873.652-.533 1.623-1.736 2.205-3.873Zm-4.77 3.635c-.596-.916-1.137-2.119-1.495-3.635H2.984a8.124 8.124 0 0 0 4.45 3.635Zm5.13 0c.596-.916 1.137-2.119 1.495-3.635h2.957a8.124 8.124 0 0 1-4.452 3.635ZM17.017 5.95H14.06c-.358-1.516-.9-2.719-1.495-3.635a8.124 8.124 0 0 1 4.452 3.635ZM.1 10C.1 4.532 4.532.1 10 .1a9.903 9.903 0 0 1 9.276 6.435A9.88 9.88 0 0 1 19.9 10c0 1.217-.22 2.385-.624 3.465A9.904 9.904 0 0 1 10 19.9C4.532 19.9.1 15.468.1 10Z"
					clip-rule="evenodd"/>
	</symbol>

	<symbol id="confirm" viewBox="0 0 20 20" fill="none">
		<path fill="currentColor" fill-rule="evenodd"
					d="M16.183 5.325a1.131 1.131 0 0 1 0 1.572l-7.584 7.778a1.064 1.064 0 0 1-1.532 0l-3.25-3.334a1.131 1.131 0 0 1 0-1.571 1.064 1.064 0 0 1 1.532 0l2.484 2.548 6.818-6.993a1.064 1.064 0 0 1 1.532 0Z"
					clip-rule="evenodd"/>
	</symbol>

	<symbol id="cancel" viewBox="0 0 20 20" fill="none">
		<path fill="currentColor" fill-rule="evenodd" stroke="currentColor" stroke-linecap="round" stroke-width=".8"
					d="M4.2 4.21a.69.69 0 0 1 .985-.007L10 9.011l4.815-4.808a.69.69 0 0 1 .984.007.71.71 0 0 1-.006.996L10.99 10l4.802 4.794a.71.71 0 0 1 .006.996.69.69 0 0 1-.984.007L10 10.989l-4.815 4.808a.69.69 0 0 1-.984-.007.71.71 0 0 1 .006-.996L9.01 10 4.207 5.206a.71.71 0 0 1-.006-.996Z"
					clip-rule="evenodd"/>
	</symbol>
</svg>